<svg xmlns="http://www.w3.org/2000/svg" xmlns:xlink="http://www.w3.org/1999/xlink" width="500" zoomAndPan="magnify" viewBox="0 0 375 374.999991" height="500" preserveAspectRatio="xMidYMid meet" version="1.2"><defs><clipPath id="2b69321318"><path d="M 43.847656 42.359375 L 331.152344 42.359375 L 331.152344 333 L 43.847656 333 Z M 43.847656 42.359375 "/></clipPath><clipPath id="0d568034f4"><path d="M 61.097656 42.359375 L 313.902344 42.359375 C 318.476562 42.359375 322.863281 44.175781 326.101562 47.410156 C 329.335938 50.644531 331.152344 55.035156 331.152344 59.609375 L 331.152344 315.390625 C 331.152344 319.964844 329.335938 324.355469 326.101562 327.589844 C 322.863281 330.824219 318.476562 332.640625 313.902344 332.640625 L 61.097656 332.640625 C 56.523438 332.640625 52.136719 330.824219 48.898438 327.589844 C 45.664062 324.355469 43.847656 319.964844 43.847656 315.390625 L 43.847656 59.609375 C 43.847656 55.035156 45.664062 50.644531 48.898438 47.410156 C 52.136719 44.175781 56.523438 42.359375 61.097656 42.359375 Z M 61.097656 42.359375 "/></clipPath><clipPath id="6cc4628534"><path d="M 0.847656 0.359375 L 288.152344 0.359375 L 288.152344 290.878906 L 0.847656 290.878906 Z M 0.847656 0.359375 "/></clipPath><clipPath id="6e3224e8a5"><path d="M 18.097656 0.359375 L 270.902344 0.359375 C 275.476562 0.359375 279.863281 2.175781 283.101562 5.410156 C 286.335938 8.644531 288.152344 13.035156 288.152344 17.609375 L 288.152344 273.390625 C 288.152344 277.964844 286.335938 282.355469 283.101562 285.589844 C 279.863281 288.824219 275.476562 290.640625 270.902344 290.640625 L 18.097656 290.640625 C 13.523438 290.640625 9.136719 288.824219 5.898438 285.589844 C 2.664062 282.355469 0.847656 277.964844 0.847656 273.390625 L 0.847656 17.609375 C 0.847656 13.035156 2.664062 8.644531 5.898438 5.410156 C 9.136719 2.175781 13.523438 0.359375 18.097656 0.359375 Z M 18.097656 0.359375 "/></clipPath><clipPath id="2f1bc64daa"><rect x="0" width="289" y="0" height="291"/></clipPath><clipPath id="2736229930"><rect x="0" width="146" y="0" height="257"/></clipPath></defs><g id="6a6f87d784"><g clip-rule="nonzero" clip-path="url(#2b69321318)"><g clip-rule="nonzero" clip-path="url(#0d568034f4)"><g transform="matrix(1,0,0,1,43,42)"><g clip-path="url(#2f1bc64daa)"><g clip-rule="nonzero" clip-path="url(#6cc4628534)"><g clip-rule="nonzero" clip-path="url(#6e3224e8a5)"><path style=" stroke:none;fill-rule:nonzero;fill:#c1ff72;fill-opacity:1;" d="M 0.847656 0.359375 L 288.152344 0.359375 L 288.152344 291.03125 L 0.847656 291.03125 Z M 0.847656 0.359375 "/></g></g></g></g></g></g><g transform="matrix(1,0,0,1,116,59)"><g clip-path="url(#2736229930)"><g style="fill:#000000;fill-opacity:1;"><g transform="translate(0.613132, 193.586332)"><path style="stroke:none" d="M 64.78125 3.703125 C 56.96875 3.703125 49.769531 2.265625 43.1875 -0.609375 C 36.601562 -3.492188 30.878906 -7.539062 26.015625 -12.75 C 21.148438 -17.957031 17.378906 -23.988281 14.703125 -30.84375 C 12.023438 -37.707031 10.6875 -45.113281 10.6875 -53.0625 L 10.6875 -56.765625 C 10.6875 -64.578125 11.988281 -71.910156 14.59375 -78.765625 C 17.207031 -85.628906 20.878906 -91.664062 25.609375 -96.875 C 30.335938 -102.082031 35.957031 -106.160156 42.46875 -109.109375 C 48.976562 -112.054688 56.210938 -113.53125 64.171875 -113.53125 C 72.535156 -113.53125 80.144531 -111.78125 87 -108.28125 C 93.851562 -104.789062 99.472656 -99.34375 103.859375 -91.9375 C 108.253906 -84.53125 110.722656 -74.929688 111.265625 -63.140625 L 103.046875 -76.296875 L 103.046875 -150.140625 L 122.78125 -150.140625 L 122.78125 0 L 107.15625 0 L 107.15625 -48.75 L 112.90625 -48.75 C 112.363281 -36.269531 109.757812 -26.15625 105.09375 -18.40625 C 100.4375 -10.65625 94.578125 -5.03125 87.515625 -1.53125 C 80.453125 1.957031 72.875 3.703125 64.78125 3.703125 Z M 67.453125 -13.578125 C 74.171875 -13.578125 80.269531 -15.082031 85.75 -18.09375 C 91.238281 -21.113281 95.628906 -25.46875 98.921875 -31.15625 C 102.210938 -36.84375 103.859375 -43.53125 103.859375 -51.21875 L 103.859375 -60.671875 C 103.859375 -68.210938 102.175781 -74.625 98.8125 -79.90625 C 95.457031 -85.1875 91.003906 -89.226562 85.453125 -92.03125 C 79.898438 -94.84375 73.832031 -96.25 67.25 -96.25 C 59.988281 -96.25 53.578125 -94.535156 48.015625 -91.109375 C 42.460938 -87.679688 38.144531 -82.878906 35.0625 -76.703125 C 31.976562 -70.535156 30.4375 -63.273438 30.4375 -54.921875 C 30.4375 -46.554688 32.015625 -39.253906 35.171875 -33.015625 C 38.328125 -26.773438 42.710938 -21.972656 48.328125 -18.609375 C 53.953125 -15.253906 60.328125 -13.578125 67.453125 -13.578125 Z M 67.453125 -13.578125 "/></g></g></g></g></g></svg>