<svg xmlns="http://www.w3.org/2000/svg" xmlns:xlink="http://www.w3.org/1999/xlink" width="2540" zoomAndPan="magnify" viewBox="0 0 1904.88 526.499984" height="702" preserveAspectRatio="xMidYMid meet" version="1.2"><defs><clipPath id="2965412350"><path d="M 1300.601562 113.128906 L 1586.828125 113.128906 L 1586.828125 399.355469 L 1300.601562 399.355469 Z M 1300.601562 113.128906 "/></clipPath><clipPath id="24b853f1b0"><path d="M 1300.601562 128.113281 L 1300.601562 384.5625 C 1300.601562 392.839844 1307.308594 399.550781 1315.585938 399.550781 L 1572.035156 399.550781 C 1580.3125 399.550781 1587.023438 392.839844 1587.023438 384.5625 L 1587.023438 128.113281 C 1587.023438 119.835938 1580.3125 113.128906 1572.035156 113.128906 L 1315.585938 113.128906 C 1307.308594 113.128906 1300.601562 119.835938 1300.601562 128.113281 Z M 1300.601562 128.113281 "/></clipPath></defs><g id="e41b535858"><g style="fill:#000000;fill-opacity:1;"><g transform="translate(320.014817, 352.680318)"><path style="stroke:none" d="M 22.515625 0 L 22.515625 -167.734375 L 49.859375 -167.734375 L 49.859375 0 Z M 45.265625 0 L 45.265625 -23.890625 L 123.859375 -23.890625 L 123.859375 0 Z M 45.265625 -73.296875 L 45.265625 -97.203125 L 117.421875 -97.203125 L 117.421875 -73.296875 Z M 45.265625 -143.84375 L 45.265625 -167.734375 L 121.78125 -167.734375 L 121.78125 -143.84375 Z M 45.265625 -143.84375 "/></g></g><g style="fill:#000000;fill-opacity:1;"><g transform="translate(457.421117, 352.680318)"><path style="stroke:none" d="M 5.28125 0 L 47.5625 -65.484375 L 46.640625 -60.65625 L 7.125 -123.859375 L 36.53125 -123.859375 L 63.875 -78.8125 L 67.328125 -78.8125 L 93.0625 -123.859375 L 120.640625 -123.859375 L 83.1875 -61.578125 L 83.875 -65.953125 L 128.21875 0 L 98.8125 0 L 66.640625 -48.484375 L 63.421875 -48.484375 L 32.859375 0 Z M 5.28125 0 "/></g></g><g style="fill:#000000;fill-opacity:1;"><g transform="translate(589.312737, 352.680318)"><path style="stroke:none" d="M 19.765625 45.953125 L 19.765625 -123.859375 L 41.125 -123.859375 L 41.125 -70.3125 L 37 -70.546875 C 37.757812 -83.566406 40.515625 -94.285156 45.265625 -102.703125 C 50.015625 -111.128906 56.296875 -117.410156 64.109375 -121.546875 C 71.921875 -125.691406 80.5 -127.765625 89.84375 -127.765625 C 98.726562 -127.765625 106.769531 -126.113281 113.96875 -122.8125 C 121.164062 -119.519531 127.367188 -114.960938 132.578125 -109.140625 C 137.785156 -103.328125 141.726562 -96.585938 144.40625 -88.921875 C 147.09375 -81.265625 148.4375 -72.992188 148.4375 -64.109375 L 148.4375 -59.75 C 148.4375 -51.007812 147.054688 -42.769531 144.296875 -35.03125 C 141.546875 -27.300781 137.566406 -20.523438 132.359375 -14.703125 C 127.148438 -8.878906 120.941406 -4.28125 113.734375 -0.90625 C 106.535156 2.457031 98.492188 4.140625 89.609375 4.140625 C 80.578125 4.140625 72.15625 2.222656 64.34375 -1.609375 C 56.53125 -5.441406 50.09375 -11.566406 45.03125 -19.984375 C 39.976562 -28.410156 37.144531 -39.363281 36.53125 -52.84375 L 46.640625 -35.84375 L 46.640625 45.953125 Z M 83.875 -19.078125 C 91.375 -19.078125 97.957031 -20.875 103.625 -24.46875 C 109.300781 -28.070312 113.707031 -33.128906 116.84375 -39.640625 C 119.976562 -46.148438 121.546875 -53.617188 121.546875 -62.046875 C 121.546875 -70.460938 119.976562 -77.890625 116.84375 -84.328125 C 113.707031 -90.765625 109.34375 -95.78125 103.75 -99.375 C 98.15625 -102.976562 91.53125 -104.78125 83.875 -104.78125 C 77.132812 -104.78125 70.851562 -103.25 65.03125 -100.1875 C 59.207031 -97.125 54.53125 -92.71875 51 -86.96875 C 47.476562 -81.226562 45.71875 -74.296875 45.71875 -66.171875 L 45.71875 -56.296875 C 45.71875 -48.484375 47.519531 -41.78125 51.125 -36.1875 C 54.726562 -30.59375 59.4375 -26.34375 65.25 -23.4375 C 71.070312 -20.53125 77.28125 -19.078125 83.875 -19.078125 Z M 83.875 -19.078125 "/></g></g><g style="fill:#000000;fill-opacity:1;"><g transform="translate(748.777532, 352.680318)"><path style="stroke:none" d="M 19.765625 0 L 19.765625 -123.859375 L 41.125 -123.859375 L 41.125 -72.15625 L 40.21875 -72.15625 C 40.21875 -89.925781 44.125 -103.210938 51.9375 -112.015625 C 59.75 -120.828125 71.3125 -125.234375 86.625 -125.234375 L 91 -125.234375 L 91 -101.5625 L 82.71875 -101.5625 C 71.082031 -101.5625 62.160156 -98.457031 55.953125 -92.25 C 49.742188 -86.050781 46.640625 -77.207031 46.640625 -65.71875 L 46.640625 0 Z M 19.765625 0 "/></g></g><g style="fill:#000000;fill-opacity:1;"><g transform="translate(842.756102, 352.680318)"><path style="stroke:none" d="M 73.765625 4.140625 C 63.035156 4.140625 53.6875 2.300781 45.71875 -1.375 C 37.757812 -5.050781 31.25 -9.914062 26.1875 -15.96875 C 21.132812 -22.019531 17.34375 -28.835938 14.8125 -36.421875 C 12.289062 -44.003906 11.03125 -51.78125 11.03125 -59.75 L 11.03125 -64.109375 C 11.03125 -72.222656 12.289062 -80.070312 14.8125 -87.65625 C 17.34375 -95.238281 21.132812 -102.054688 26.1875 -108.109375 C 31.25 -114.160156 37.644531 -118.984375 45.375 -122.578125 C 53.113281 -126.179688 62.113281 -127.984375 72.375 -127.984375 C 85.707031 -127.984375 96.816406 -125.070312 105.703125 -119.25 C 114.585938 -113.4375 121.25 -105.894531 125.6875 -96.625 C 130.132812 -87.351562 132.359375 -77.359375 132.359375 -66.640625 L 132.359375 -55.84375 L 22.515625 -55.84375 L 22.515625 -73.984375 L 114.203125 -73.984375 L 106.84375 -64.796875 C 106.84375 -73.066406 105.539062 -80.226562 102.9375 -86.28125 C 100.332031 -92.332031 96.503906 -97.003906 91.453125 -100.296875 C 86.398438 -103.585938 80.039062 -105.234375 72.375 -105.234375 C 64.414062 -105.234375 57.753906 -103.394531 52.390625 -99.71875 C 47.023438 -96.039062 43.039062 -90.984375 40.4375 -84.546875 C 37.832031 -78.117188 36.53125 -70.539062 36.53125 -61.8125 C 36.53125 -53.539062 37.832031 -46.148438 40.4375 -39.640625 C 43.039062 -33.128906 47.097656 -27.992188 52.609375 -24.234375 C 58.128906 -20.484375 65.179688 -18.609375 73.765625 -18.609375 C 82.335938 -18.609375 89.378906 -20.484375 94.890625 -24.234375 C 100.410156 -27.992188 103.785156 -32.398438 105.015625 -37.453125 L 130.0625 -37.453125 C 128.375 -29.023438 124.960938 -21.671875 119.828125 -15.390625 C 114.703125 -9.109375 108.234375 -4.28125 100.421875 -0.90625 C 92.609375 2.457031 83.722656 4.140625 73.765625 4.140625 Z M 73.765625 4.140625 "/></g></g><g style="fill:#000000;fill-opacity:1;"><g transform="translate(984.298384, 352.680318)"><path style="stroke:none" d="M 62.5 3.671875 C 45.800781 3.671875 32.816406 0.148438 23.546875 -6.890625 C 14.285156 -13.941406 9.425781 -23.671875 8.96875 -36.078125 L 33.78125 -36.078125 C 34.082031 -31.484375 36.453125 -27.269531 40.890625 -23.4375 C 45.335938 -19.601562 52.617188 -17.6875 62.734375 -17.6875 C 71.304688 -17.6875 78.039062 -19.367188 82.9375 -22.734375 C 87.84375 -26.109375 90.296875 -30.328125 90.296875 -35.390625 C 90.296875 -39.984375 88.492188 -43.617188 84.890625 -46.296875 C 81.296875 -48.984375 75.210938 -50.785156 66.640625 -51.703125 L 54.453125 -52.84375 C 41.742188 -54.226562 31.671875 -57.984375 24.234375 -64.109375 C 16.804688 -70.234375 13.09375 -78.503906 13.09375 -88.921875 C 13.09375 -97.191406 15.160156 -104.160156 19.296875 -109.828125 C 23.429688 -115.503906 29.132812 -119.875 36.40625 -122.9375 C 43.6875 -126 52.078125 -127.53125 61.578125 -127.53125 C 76.285156 -127.53125 88.15625 -124.273438 97.1875 -117.765625 C 106.226562 -111.253906 110.90625 -101.71875 111.21875 -89.15625 L 86.625 -89.15625 C 86.320312 -93.90625 84.101562 -97.882812 79.96875 -101.09375 C 75.832031 -104.3125 69.703125 -105.921875 61.578125 -105.921875 C 53.921875 -105.921875 48.0625 -104.390625 44 -101.328125 C 39.9375 -98.265625 37.90625 -94.359375 37.90625 -89.609375 C 37.90625 -85.328125 39.4375 -81.957031 42.5 -79.5 C 45.570312 -77.050781 50.550781 -75.441406 57.4375 -74.671875 L 69.625 -73.53125 C 83.5625 -72 94.628906 -68.128906 102.828125 -61.921875 C 111.023438 -55.722656 115.125 -47.109375 115.125 -36.078125 C 115.125 -28.109375 112.898438 -21.132812 108.453125 -15.15625 C 104.015625 -9.1875 97.847656 -4.554688 89.953125 -1.265625 C 82.066406 2.023438 72.914062 3.671875 62.5 3.671875 Z M 62.5 3.671875 "/></g></g><g style="fill:#000000;fill-opacity:1;"><g transform="translate(1109.066879, 352.680318)"><path style="stroke:none" d="M 62.5 3.671875 C 45.800781 3.671875 32.816406 0.148438 23.546875 -6.890625 C 14.285156 -13.941406 9.425781 -23.671875 8.96875 -36.078125 L 33.78125 -36.078125 C 34.082031 -31.484375 36.453125 -27.269531 40.890625 -23.4375 C 45.335938 -19.601562 52.617188 -17.6875 62.734375 -17.6875 C 71.304688 -17.6875 78.039062 -19.367188 82.9375 -22.734375 C 87.84375 -26.109375 90.296875 -30.328125 90.296875 -35.390625 C 90.296875 -39.984375 88.492188 -43.617188 84.890625 -46.296875 C 81.296875 -48.984375 75.210938 -50.785156 66.640625 -51.703125 L 54.453125 -52.84375 C 41.742188 -54.226562 31.671875 -57.984375 24.234375 -64.109375 C 16.804688 -70.234375 13.09375 -78.503906 13.09375 -88.921875 C 13.09375 -97.191406 15.160156 -104.160156 19.296875 -109.828125 C 23.429688 -115.503906 29.132812 -119.875 36.40625 -122.9375 C 43.6875 -126 52.078125 -127.53125 61.578125 -127.53125 C 76.285156 -127.53125 88.15625 -124.273438 97.1875 -117.765625 C 106.226562 -111.253906 110.90625 -101.71875 111.21875 -89.15625 L 86.625 -89.15625 C 86.320312 -93.90625 84.101562 -97.882812 79.96875 -101.09375 C 75.832031 -104.3125 69.703125 -105.921875 61.578125 -105.921875 C 53.921875 -105.921875 48.0625 -104.390625 44 -101.328125 C 39.9375 -98.265625 37.90625 -94.359375 37.90625 -89.609375 C 37.90625 -85.328125 39.4375 -81.957031 42.5 -79.5 C 45.570312 -77.050781 50.550781 -75.441406 57.4375 -74.671875 L 69.625 -73.53125 C 83.5625 -72 94.628906 -68.128906 102.828125 -61.921875 C 111.023438 -55.722656 115.125 -47.109375 115.125 -36.078125 C 115.125 -28.109375 112.898438 -21.132812 108.453125 -15.15625 C 104.015625 -9.1875 97.847656 -4.554688 89.953125 -1.265625 C 82.066406 2.023438 72.914062 3.671875 62.5 3.671875 Z M 62.5 3.671875 "/></g></g><g clip-rule="nonzero" clip-path="url(#2965412350)"><g clip-rule="nonzero" clip-path="url(#24b853f1b0)"><path style=" stroke:none;fill-rule:evenodd;fill:#000000;fill-opacity:1;" d="M 1520.109375 377.085938 C 1495.121094 377.085938 1478.960938 365.171875 1471.085938 349.589844 L 1492.996094 336.898438 C 1498.769531 346.328125 1506.257812 353.242188 1519.53125 353.242188 C 1530.671875 353.242188 1537.785156 347.667969 1537.785156 339.972656 C 1537.785156 328.40625 1522.347656 323.878906 1511.453125 319.214844 C 1492.035156 310.949219 1479.144531 300.5625 1479.144531 278.640625 C 1479.144531 258.460938 1494.527344 243.085938 1518.574219 243.085938 C 1535.671875 243.085938 1547.988281 249.042969 1556.820312 264.605469 L 1535.867188 278.066406 C 1531.257812 269.800781 1526.261719 266.535156 1518.566406 266.535156 C 1510.679688 266.535156 1505.679688 271.539062 1505.679688 278.066406 C 1505.679688 286.144531 1510.675781 289.410156 1522.21875 294.410156 C 1546.402344 304.773438 1564.703125 312.925781 1564.703125 339.589844 C 1564.714844 363.828125 1545.6875 377.085938 1520.109375 377.085938 Z M 1458.128906 336.519531 C 1458.128906 364.398438 1440.957031 379.136719 1417.113281 379.136719 C 1395.574219 379.136719 1382.675781 370.902344 1376.328125 356.582031 L 1375.957031 356.582031 L 1397.851562 341.273438 C 1402.078125 348.761719 1405.886719 354.078125 1415.109375 354.078125 C 1423.960938 354.078125 1429.488281 349.597656 1429.488281 336.148438 L 1429.488281 242.015625 L 1458.128906 242.015625 Z M 1300.601562 399.542969 L 1587.015625 399.542969 L 1587.015625 113.128906 L 1300.601562 113.128906 Z M 1300.601562 399.542969 "/></g></g></g></svg>