<svg xmlns="http://www.w3.org/2000/svg" xmlns:xlink="http://www.w3.org/1999/xlink" width="2540" zoomAndPan="magnify" viewBox="0 0 1904.88 526.499984" height="702" preserveAspectRatio="xMidYMid meet" version="1.2"><defs><clipPath id="d3e3f37f62"><path d="M 305 95.148438 L 447 95.148438 L 447 403.109375 L 305 403.109375 Z M 305 95.148438 "/></clipPath></defs><g id="b66783acb6"><g style="fill:#000000;fill-opacity:1;"><g transform="translate(543.385354, 342.760325)"><path style="stroke:none" d="M 22.515625 0 L 22.515625 -167.734375 L 59.75 -167.734375 L 105.703125 -61.8125 L 109.609375 -61.8125 L 155.109375 -167.734375 L 192.78125 -167.734375 L 192.78125 0 L 165.4375 0 L 165.4375 -143.15625 L 168.203125 -142.6875 L 121.78125 -34.46875 L 91.453125 -34.46875 L 44.578125 -142.6875 L 47.796875 -143.15625 L 47.796875 0 Z M 22.515625 0 "/></g></g><g style="fill:#000000;fill-opacity:1;"><g transform="translate(758.685829, 342.760325)"><path style="stroke:none" d="M 77.890625 4.140625 C 67.015625 4.140625 57.441406 2.34375 49.171875 -1.25 C 40.898438 -4.851562 33.929688 -9.644531 28.265625 -15.625 C 22.597656 -21.601562 18.304688 -28.378906 15.390625 -35.953125 C 12.484375 -43.535156 11.03125 -51.390625 11.03125 -59.515625 L 11.03125 -64.109375 C 11.03125 -72.222656 12.519531 -80.109375 15.5 -87.765625 C 18.488281 -95.429688 22.851562 -102.289062 28.59375 -108.34375 C 34.34375 -114.394531 41.351562 -119.179688 49.625 -122.703125 C 57.90625 -126.222656 67.328125 -127.984375 77.890625 -127.984375 C 88.460938 -127.984375 97.847656 -126.222656 106.046875 -122.703125 C 114.242188 -119.179688 121.25 -114.394531 127.0625 -108.34375 C 132.882812 -102.289062 137.289062 -95.429688 140.28125 -87.765625 C 143.269531 -80.109375 144.765625 -72.222656 144.765625 -64.109375 L 144.765625 -59.515625 C 144.765625 -51.390625 143.304688 -43.535156 140.390625 -35.953125 C 137.484375 -28.378906 133.195312 -21.601562 127.53125 -15.625 C 121.863281 -9.644531 114.890625 -4.851562 106.609375 -1.25 C 98.335938 2.34375 88.765625 4.140625 77.890625 4.140625 Z M 77.890625 -19.296875 C 86.316406 -19.296875 93.515625 -21.171875 99.484375 -24.921875 C 105.460938 -28.679688 110.019531 -33.773438 113.15625 -40.203125 C 116.300781 -46.640625 117.875 -53.84375 117.875 -61.8125 C 117.875 -69.925781 116.265625 -77.203125 113.046875 -83.640625 C 109.835938 -90.078125 105.242188 -95.171875 99.265625 -98.921875 C 93.285156 -102.671875 86.160156 -104.546875 77.890625 -104.546875 C 69.617188 -104.546875 62.492188 -102.671875 56.515625 -98.921875 C 50.546875 -95.171875 45.953125 -90.078125 42.734375 -83.640625 C 39.515625 -77.203125 37.90625 -69.925781 37.90625 -61.8125 C 37.90625 -53.84375 39.472656 -46.640625 42.609375 -40.203125 C 45.753906 -33.773438 50.316406 -28.679688 56.296875 -24.921875 C 62.273438 -21.171875 69.472656 -19.296875 77.890625 -19.296875 Z M 77.890625 -19.296875 "/></g></g><g style="fill:#000000;fill-opacity:1;"><g transform="translate(914.474218, 342.760325)"><path style="stroke:none" d="M 19.765625 0 L 19.765625 -123.859375 L 41.125 -123.859375 L 41.125 -70.765625 L 38.609375 -70.765625 C 38.609375 -83.023438 40.253906 -93.367188 43.546875 -101.796875 C 46.835938 -110.222656 51.851562 -116.617188 58.59375 -120.984375 C 65.332031 -125.347656 73.679688 -127.53125 83.640625 -127.53125 L 84.796875 -127.53125 C 100.109375 -127.53125 111.515625 -122.703125 119.015625 -113.046875 C 126.523438 -103.398438 130.28125 -89.304688 130.28125 -70.765625 L 130.28125 0 L 103.40625 0 L 103.40625 -74.453125 C 103.40625 -83.023438 100.953125 -89.953125 96.046875 -95.234375 C 91.148438 -100.523438 84.410156 -103.171875 75.828125 -103.171875 C 67.097656 -103.171875 60.050781 -100.453125 54.6875 -95.015625 C 49.320312 -89.578125 46.640625 -82.335938 46.640625 -73.296875 L 46.640625 0 Z M 19.765625 0 "/></g></g><g style="fill:#000000;fill-opacity:1;"><g transform="translate(1062.450212, 342.760325)"><path style="stroke:none" d="M 67.09375 48.484375 C 61.269531 48.484375 55.367188 48.253906 49.390625 47.796875 C 43.421875 47.335938 37.832031 46.722656 32.625 45.953125 L 32.625 23.203125 C 38.144531 23.972656 44.003906 24.625 50.203125 25.15625 C 56.410156 25.695312 62.195312 25.96875 67.5625 25.96875 C 78.28125 25.96875 86.894531 24.585938 93.40625 21.828125 C 99.914062 19.066406 104.664062 14.8125 107.65625 9.0625 C 110.644531 3.320312 112.140625 -4.140625 112.140625 -13.328125 L 112.140625 -37.21875 L 119.25 -53.765625 C 118.789062 -41.816406 116.300781 -31.78125 111.78125 -23.65625 C 107.269531 -15.539062 101.296875 -9.414062 93.859375 -5.28125 C 86.429688 -1.144531 77.96875 0.921875 68.46875 0.921875 C 59.894531 0.921875 52.082031 -0.6875 45.03125 -3.90625 C 37.988281 -7.125 31.9375 -11.640625 26.875 -17.453125 C 21.820312 -23.273438 17.914062 -29.976562 15.15625 -37.5625 C 12.40625 -45.144531 11.03125 -53.226562 11.03125 -61.8125 L 11.03125 -66.171875 C 11.03125 -74.910156 12.445312 -83.03125 15.28125 -90.53125 C 18.113281 -98.039062 22.132812 -104.585938 27.34375 -110.171875 C 32.550781 -115.765625 38.789062 -120.09375 46.0625 -123.15625 C 53.34375 -126.226562 61.347656 -127.765625 70.078125 -127.765625 C 80.191406 -127.765625 89.113281 -125.578125 96.84375 -121.203125 C 104.582031 -116.835938 110.671875 -110.441406 115.109375 -102.015625 C 119.554688 -93.597656 121.9375 -83.335938 122.25 -71.234375 L 116.265625 -70.546875 L 116.265625 -123.859375 L 137.640625 -123.859375 L 137.640625 -14.703125 C 137.640625 0.304688 135.222656 12.441406 130.390625 21.703125 C 125.566406 30.972656 117.984375 37.753906 107.640625 42.046875 C 97.304688 46.335938 83.789062 48.484375 67.09375 48.484375 Z M 75.140625 -22.984375 C 81.878906 -22.984375 88.039062 -24.472656 93.625 -27.453125 C 99.21875 -30.441406 103.660156 -34.734375 106.953125 -40.328125 C 110.253906 -45.921875 111.90625 -52.625 111.90625 -60.4375 L 111.90625 -69.859375 C 111.90625 -77.515625 110.179688 -83.984375 106.734375 -89.265625 C 103.285156 -94.554688 98.800781 -98.578125 93.28125 -101.328125 C 87.769531 -104.085938 81.800781 -105.46875 75.375 -105.46875 C 68.019531 -105.46875 61.503906 -103.742188 55.828125 -100.296875 C 50.160156 -96.847656 45.753906 -92.019531 42.609375 -85.8125 C 39.472656 -79.613281 37.90625 -72.378906 37.90625 -64.109375 C 37.90625 -55.679688 39.515625 -48.363281 42.734375 -42.15625 C 45.953125 -35.957031 50.359375 -31.210938 55.953125 -27.921875 C 61.546875 -24.628906 67.941406 -22.984375 75.140625 -22.984375 Z M 75.140625 -22.984375 "/></g></g><g style="fill:#000000;fill-opacity:1;"><g transform="translate(1218.468386, 342.760325)"><path style="stroke:none" d="M 77.890625 4.140625 C 67.015625 4.140625 57.441406 2.34375 49.171875 -1.25 C 40.898438 -4.851562 33.929688 -9.644531 28.265625 -15.625 C 22.597656 -21.601562 18.304688 -28.378906 15.390625 -35.953125 C 12.484375 -43.535156 11.03125 -51.390625 11.03125 -59.515625 L 11.03125 -64.109375 C 11.03125 -72.222656 12.519531 -80.109375 15.5 -87.765625 C 18.488281 -95.429688 22.851562 -102.289062 28.59375 -108.34375 C 34.34375 -114.394531 41.351562 -119.179688 49.625 -122.703125 C 57.90625 -126.222656 67.328125 -127.984375 77.890625 -127.984375 C 88.460938 -127.984375 97.847656 -126.222656 106.046875 -122.703125 C 114.242188 -119.179688 121.25 -114.394531 127.0625 -108.34375 C 132.882812 -102.289062 137.289062 -95.429688 140.28125 -87.765625 C 143.269531 -80.109375 144.765625 -72.222656 144.765625 -64.109375 L 144.765625 -59.515625 C 144.765625 -51.390625 143.304688 -43.535156 140.390625 -35.953125 C 137.484375 -28.378906 133.195312 -21.601562 127.53125 -15.625 C 121.863281 -9.644531 114.890625 -4.851562 106.609375 -1.25 C 98.335938 2.34375 88.765625 4.140625 77.890625 4.140625 Z M 77.890625 -19.296875 C 86.316406 -19.296875 93.515625 -21.171875 99.484375 -24.921875 C 105.460938 -28.679688 110.019531 -33.773438 113.15625 -40.203125 C 116.300781 -46.640625 117.875 -53.84375 117.875 -61.8125 C 117.875 -69.925781 116.265625 -77.203125 113.046875 -83.640625 C 109.835938 -90.078125 105.242188 -95.171875 99.265625 -98.921875 C 93.285156 -102.671875 86.160156 -104.546875 77.890625 -104.546875 C 69.617188 -104.546875 62.492188 -102.671875 56.515625 -98.921875 C 50.546875 -95.171875 45.953125 -90.078125 42.734375 -83.640625 C 39.515625 -77.203125 37.90625 -69.925781 37.90625 -61.8125 C 37.90625 -53.84375 39.472656 -46.640625 42.609375 -40.203125 C 45.753906 -33.773438 50.316406 -28.679688 56.296875 -24.921875 C 62.273438 -21.171875 69.472656 -19.296875 77.890625 -19.296875 Z M 77.890625 -19.296875 "/></g></g><g style="fill:#000000;fill-opacity:1;"><g transform="translate(1374.256707, 342.760325)"><path style="stroke:none" d="M 45.5 0.921875 L 45.5 -24.59375 L 83.875 -24.59375 C 93.21875 -24.59375 101.566406 -26.082031 108.921875 -29.0625 C 116.273438 -32.050781 122.554688 -36.222656 127.765625 -41.578125 C 132.972656 -46.941406 136.914062 -53.265625 139.59375 -60.546875 C 142.269531 -67.828125 143.609375 -75.675781 143.609375 -84.09375 C 143.609375 -93.132812 142.269531 -101.253906 139.59375 -108.453125 C 136.914062 -115.648438 132.972656 -121.851562 127.765625 -127.0625 C 122.554688 -132.269531 116.273438 -136.289062 108.921875 -139.125 C 101.566406 -141.96875 93.21875 -143.390625 83.875 -143.390625 L 45.5 -143.390625 L 45.5 -168.890625 L 81.578125 -168.890625 C 96.742188 -168.890625 109.953125 -166.59375 121.203125 -162 C 132.460938 -157.40625 141.84375 -151.203125 149.34375 -143.390625 C 156.851562 -135.578125 162.445312 -126.765625 166.125 -116.953125 C 169.800781 -107.148438 171.640625 -97.039062 171.640625 -86.625 L 171.640625 -81.578125 C 171.640625 -71.765625 169.800781 -61.914062 166.125 -52.03125 C 162.445312 -42.15625 156.851562 -33.273438 149.34375 -25.390625 C 141.84375 -17.503906 132.460938 -11.144531 121.203125 -6.3125 C 109.953125 -1.488281 96.742188 0.921875 81.578125 0.921875 Z M 22.515625 0.921875 L 22.515625 -168.890625 L 50.09375 -168.890625 L 50.09375 0.921875 Z M 22.515625 0.921875 "/></g></g><g style="fill:#000000;fill-opacity:1;"><g transform="translate(1555.320527, 342.760325)"><path style="stroke:none" d="M 45.265625 0.921875 L 45.265625 -22.0625 L 89.609375 -22.0625 C 97.878906 -22.0625 104.273438 -24.359375 108.796875 -28.953125 C 113.316406 -33.546875 115.578125 -39.828125 115.578125 -47.796875 C 115.578125 -55.910156 113.351562 -62.226562 108.90625 -66.75 C 104.46875 -71.269531 98.035156 -73.53125 89.609375 -73.53125 L 45.265625 -73.53125 L 45.265625 -91 L 86.859375 -91 C 97.890625 -91 107.613281 -89.65625 116.03125 -86.96875 C 124.457031 -84.289062 131.125 -79.882812 136.03125 -73.75 C 140.9375 -67.625 143.390625 -59.28125 143.390625 -48.71875 L 143.390625 -45.5 C 143.390625 -35.695312 141.28125 -27.304688 137.0625 -20.328125 C 132.851562 -13.359375 126.570312 -8.070312 118.21875 -4.46875 C 109.875 -0.875 99.421875 0.921875 86.859375 0.921875 Z M 22.515625 0.921875 L 22.515625 -168.890625 L 49.859375 -168.890625 L 49.859375 0.921875 Z M 45.265625 -78.359375 L 45.265625 -95.59375 L 83.40625 -95.59375 C 92.144531 -95.59375 98.539062 -97.925781 102.59375 -102.59375 C 106.65625 -107.269531 108.6875 -113.285156 108.6875 -120.640625 C 108.6875 -128.140625 106.65625 -134.222656 102.59375 -138.890625 C 98.539062 -143.566406 92.144531 -145.90625 83.40625 -145.90625 L 45.265625 -145.90625 L 45.265625 -168.890625 L 79.96875 -168.890625 C 98.65625 -168.890625 112.742188 -164.941406 122.234375 -157.046875 C 131.734375 -149.160156 136.484375 -137.863281 136.484375 -123.15625 L 136.484375 -119.953125 C 136.484375 -109.535156 134.070312 -101.257812 129.25 -95.125 C 124.425781 -89 117.765625 -84.671875 109.265625 -82.140625 C 100.765625 -79.617188 91 -78.359375 79.96875 -78.359375 Z M 45.265625 -78.359375 "/></g></g><g clip-rule="nonzero" clip-path="url(#d3e3f37f62)"><path style=" stroke:none;fill-rule:nonzero;fill:#000000;fill-opacity:1;" d="M 374.3125 95.148438 C 374.285156 95.394531 374.261719 95.546875 374.25 95.777344 L 374.25 95.945312 L 374.234375 95.945312 C 374.210938 96.136719 374.199219 96.265625 374.183594 96.445312 L 374.183594 96.636719 L 374.160156 96.636719 C 374.160156 96.765625 374.132812 96.871094 374.132812 96.972656 L 374.132812 97.304688 L 374.09375 97.304688 C 374.082031 97.410156 374.082031 97.535156 374.058594 97.625 L 374.058594 97.894531 L 374.03125 97.894531 C 374.03125 97.984375 374.03125 98.089844 374.003906 98.164062 L 374.003906 98.421875 L 373.980469 98.421875 C 373.980469 98.550781 373.96875 98.703125 373.953125 98.832031 L 373.953125 98.859375 C 373.914062 99.078125 373.878906 99.292969 373.839844 99.5 L 373.839844 99.601562 L 373.8125 99.601562 C 373.800781 99.652344 373.773438 99.707031 373.773438 99.757812 L 373.773438 99.976562 L 373.738281 99.976562 L 373.738281 100.257812 L 373.671875 100.257812 L 373.671875 100.488281 L 373.609375 100.488281 L 373.609375 100.757812 L 373.558594 100.757812 L 373.558594 101 L 373.492188 101 L 373.492188 101.21875 L 373.417969 101.21875 L 373.417969 101.398438 L 373.367188 101.398438 L 373.367188 101.628906 L 373.3125 101.628906 L 373.3125 101.808594 L 373.238281 101.808594 L 373.238281 101.976562 L 373.199219 101.976562 L 373.199219 102.167969 L 373.148438 102.167969 C 373.136719 102.183594 373.136719 102.207031 373.136719 102.21875 L 373.136719 102.347656 L 373.097656 102.347656 C 373.082031 102.375 373.082031 102.398438 373.082031 102.425781 L 373.082031 102.503906 L 373.058594 102.503906 C 373.046875 102.539062 373.03125 102.605469 373.03125 102.628906 C 372.996094 102.71875 372.941406 102.808594 372.90625 102.898438 L 372.90625 102.925781 C 372.878906 102.953125 372.851562 102.988281 372.839844 103.015625 L 372.839844 103.117188 L 372.789062 103.117188 L 372.789062 103.222656 L 372.726562 103.222656 L 372.726562 103.324219 L 372.6875 103.324219 L 372.6875 103.453125 L 372.597656 103.453125 L 372.597656 103.632812 L 372.546875 103.632812 L 372.546875 103.683594 L 372.496094 103.683594 L 372.496094 103.785156 L 372.445312 103.785156 L 372.445312 103.925781 L 372.394531 103.925781 L 372.394531 104.03125 L 372.316406 104.03125 L 372.316406 104.171875 L 372.265625 104.171875 L 372.265625 104.273438 L 372.199219 104.273438 L 372.199219 104.375 L 372.164062 104.375 L 372.164062 104.503906 L 372.085938 104.503906 L 372.085938 104.605469 L 372.035156 104.605469 L 372.035156 104.683594 L 371.984375 104.683594 L 371.984375 104.785156 L 371.90625 104.785156 L 371.90625 104.902344 L 371.855469 104.902344 L 371.855469 104.980469 L 371.792969 104.980469 L 371.792969 105.082031 L 371.738281 105.082031 L 371.738281 105.222656 L 371.675781 105.222656 L 371.675781 105.273438 L 371.636719 105.273438 L 371.636719 105.375 L 371.5625 105.375 L 371.5625 105.429688 L 371.507812 105.429688 L 371.507812 105.554688 L 371.445312 105.554688 L 371.445312 105.609375 L 371.394531 105.609375 L 371.394531 105.710938 L 371.332031 105.710938 L 371.332031 105.789062 L 371.292969 105.789062 L 371.265625 105.839844 L 371.265625 105.890625 L 371.242188 105.890625 C 371.226562 105.914062 371.214844 105.914062 371.214844 105.941406 L 371.214844 105.953125 L 371.203125 105.953125 C 371.1875 105.992188 371.175781 106.019531 371.152344 106.042969 L 371.152344 106.082031 L 371.136719 106.082031 C 371.074219 106.160156 371.035156 106.238281 370.984375 106.3125 L 370.984375 106.328125 C 370.957031 106.351562 370.894531 106.402344 370.871094 106.453125 L 370.871094 106.480469 L 370.855469 106.480469 C 370.84375 106.492188 370.816406 106.507812 370.816406 106.519531 L 370.816406 106.558594 L 370.792969 106.558594 L 370.753906 106.597656 L 370.753906 106.609375 L 370.742188 106.609375 C 370.742188 106.621094 370.714844 106.632812 370.703125 106.660156 L 370.703125 106.710938 L 370.664062 106.710938 L 370.640625 106.738281 L 370.640625 106.761719 L 370.613281 106.761719 C 370.613281 106.789062 370.585938 106.789062 370.585938 106.800781 L 370.585938 106.839844 L 370.535156 106.839844 C 370.535156 106.851562 370.523438 106.867188 370.511719 106.878906 L 370.511719 106.953125 L 370.472656 106.953125 L 370.472656 107.007812 L 370.421875 107.007812 L 370.421875 107.082031 L 370.371094 107.082031 L 370.371094 107.1875 L 370.304688 107.1875 L 370.304688 107.082031 L 370.242188 107.082031 L 370.242188 107.132812 L 370.164062 107.132812 L 370.164062 107.210938 L 370.101562 107.210938 L 370.101562 107.3125 L 370.039062 107.3125 L 370.039062 107.367188 L 369.984375 107.367188 L 369.984375 107.441406 L 369.933594 107.441406 L 369.933594 107.492188 L 369.882812 107.492188 L 369.882812 107.597656 L 369.808594 107.597656 L 369.808594 107.648438 L 369.753906 107.648438 L 369.753906 107.726562 L 369.691406 107.726562 L 369.691406 107.777344 L 369.640625 107.777344 L 369.640625 107.839844 L 369.578125 107.839844 L 369.578125 107.96875 L 369.550781 107.96875 L 369.550781 108.019531 L 369.472656 108.019531 L 369.472656 108.085938 L 369.421875 108.085938 L 369.421875 108.109375 L 369.371094 108.109375 L 369.371094 108.160156 L 369.308594 108.160156 L 369.308594 108.289062 L 369.257812 108.289062 L 369.257812 108.339844 L 369.191406 108.339844 L 369.191406 108.390625 L 369.140625 108.390625 L 369.140625 108.46875 L 369.078125 108.46875 L 369.078125 108.519531 L 369.011719 108.519531 L 369.011719 108.570312 L 368.960938 108.570312 L 368.960938 108.625 L 368.886719 108.625 L 368.886719 108.75 L 368.835938 108.75 L 368.835938 108.816406 L 368.757812 108.816406 L 368.757812 108.867188 L 368.707031 108.867188 L 368.707031 108.917969 L 368.628906 108.917969 L 368.628906 108.996094 L 368.578125 108.996094 L 368.578125 109.046875 L 368.515625 109.046875 L 368.515625 109.136719 L 368.464844 109.136719 L 368.464844 109.1875 L 368.386719 109.1875 L 368.386719 109.265625 L 368.359375 109.265625 L 368.359375 109.316406 L 368.308594 109.316406 L 368.308594 109.367188 L 368.246094 109.367188 L 368.246094 109.417969 L 368.195312 109.417969 L 368.195312 109.496094 L 368.128906 109.496094 L 368.128906 109.546875 L 368.089844 109.546875 C 368.078125 109.558594 368.078125 109.574219 368.078125 109.574219 L 368.078125 109.597656 L 368.054688 109.597656 L 367.988281 109.648438 C 367.988281 109.648438 367.964844 109.675781 367.9375 109.6875 L 367.9375 109.765625 L 367.886719 109.765625 L 367.886719 109.828125 L 367.835938 109.828125 L 367.835938 109.878906 L 367.785156 109.878906 L 367.785156 109.933594 L 367.746094 109.933594 L 367.707031 109.96875 L 367.707031 110.007812 L 367.683594 110.007812 L 367.65625 110.035156 L 367.65625 110.074219 L 367.632812 110.074219 C 367.566406 110.148438 367.542969 110.203125 367.453125 110.277344 C 367.425781 110.304688 367.347656 110.367188 367.296875 110.40625 C 367.144531 110.507812 366.941406 110.675781 366.785156 110.816406 C 366.683594 110.882812 366.582031 110.972656 366.503906 111.035156 L 366.503906 111.046875 L 366.492188 111.046875 C 366.285156 111.214844 366.082031 111.367188 365.851562 111.546875 L 365.851562 111.5625 C 365.542969 111.816406 365.238281 112.0625 364.878906 112.355469 L 364.878906 112.34375 L 364.851562 112.34375 C 364.109375 112.949219 363.316406 113.628906 362.421875 114.382812 L 362.421875 114.398438 L 362.410156 114.398438 C 360.195312 116.296875 357.570312 118.734375 354.625 121.6875 L 354.382812 121.929688 C 336.589844 139.984375 308.542969 177.605469 305.585938 238.402344 C 305.332031 243.429688 305.382812 248.320312 305.664062 253.082031 L 305.664062 253.195312 C 307.085938 277.152344 314.753906 297.605469 324.351562 314.222656 L 324.351562 314.234375 C 328.167969 320.855469 332.289062 326.875 336.476562 332.265625 L 336.476562 332.277344 C 350.886719 350.945312 365.609375 362.007812 369.371094 364.691406 C 375.144531 377.816406 374.605469 400.347656 374.605469 400.347656 L 383.003906 403.109375 C 383.003906 403.109375 381.289062 381.28125 383.695312 370.746094 C 384.4375 367.449219 386.203125 364.636719 388.265625 362.25 C 389.648438 361.289062 393.757812 358.390625 398.699219 353.976562 C 398.925781 353.730469 399.070312 353.511719 399.273438 353.28125 C 419.179688 335.085938 456.351562 290.28125 443.601562 217.28125 C 427.074219 145.9375 388.097656 122.492188 383.914062 113.523438 C 379.292969 107.199219 374.3125 95.148438 374.3125 95.148438 Z M 374.3125 95.148438 "/></g></g></svg>