<svg xmlns="http://www.w3.org/2000/svg" xmlns:xlink="http://www.w3.org/1999/xlink" width="2540" zoomAndPan="magnify" viewBox="0 0 1904.88 526.499984" height="702" preserveAspectRatio="xMidYMid meet" version="1.2"><defs><clipPath id="6455bba7a7"><path d="M 405 112.933594 L 1242 112.933594 L 1242 413 L 405 413 Z M 405 112.933594 "/></clipPath></defs><g id="13bcbd3506"><path style=" stroke:none;fill-rule:nonzero;fill:#737373;fill-opacity:1;" d="M 1381.15625 219.167969 C 1378.574219 219.167969 1376.0625 219.699219 1373.84375 220.957031 L 1303.554688 261.546875 C 1299.003906 264.167969 1296.238281 269.117188 1296.238281 274.382812 L 1296.238281 355.421875 C 1296.238281 360.683594 1299.003906 365.625 1303.554688 368.253906 L 1321.910156 378.832031 C 1330.828125 383.230469 1334.117188 383.160156 1338.175781 383.160156 C 1351.382812 383.160156 1358.917969 375.144531 1358.917969 361.21875 L 1358.917969 281.265625 C 1358.917969 280.136719 1357.9375 279.324219 1356.828125 279.324219 L 1348.023438 279.324219 C 1346.898438 279.324219 1345.9375 280.15625 1345.9375 281.265625 L 1345.9375 361.253906 C 1345.9375 367.429688 1339.507812 373.636719 1329.074219 368.417969 L 1309.992188 357.226562 C 1309.316406 356.859375 1308.796875 356.191406 1308.796875 355.4375 L 1308.796875 274.398438 C 1308.796875 273.632812 1309.3125 272.847656 1309.992188 272.460938 L 1380.132812 232.015625 C 1380.789062 231.636719 1381.574219 231.636719 1382.222656 232.015625 L 1452.363281 272.460938 C 1453.03125 272.859375 1453.558594 273.609375 1453.558594 274.398438 L 1453.558594 355.4375 C 1453.558594 356.210938 1453.171875 357.003906 1452.511719 357.375 L 1382.222656 397.824219 C 1381.601562 398.179688 1380.773438 398.179688 1380.136719 397.824219 L 1362.078125 387.078125 C 1361.539062 386.761719 1360.804688 386.789062 1360.289062 387.078125 C 1355.304688 389.902344 1354.367188 390.230469 1349.691406 391.851562 C 1348.542969 392.253906 1346.789062 392.878906 1350.289062 394.839844 L 1373.867188 408.738281 C 1376.113281 410.035156 1378.613281 410.675781 1381.183594 410.675781 C 1383.785156 410.675781 1386.25 410.054688 1388.496094 408.738281 L 1458.785156 368.289062 C 1463.332031 365.644531 1466.097656 360.71875 1466.097656 355.457031 L 1466.097656 274.421875 C 1466.097656 269.15625 1463.332031 264.214844 1458.785156 261.585938 L 1388.496094 220.996094 C 1386.292969 219.738281 1383.765625 219.203125 1381.183594 219.203125 Z M 1399.960938 277.074219 C 1379.945312 277.074219 1368.023438 285.59375 1368.023438 299.757812 C 1368.023438 315.105469 1379.855469 319.34375 1399.066406 321.246094 C 1422.046875 323.496094 1423.839844 326.871094 1423.839844 331.394531 C 1423.839844 339.238281 1417.582031 342.585938 1402.796875 342.585938 C 1384.222656 342.585938 1380.136719 337.949219 1378.769531 328.6875 C 1378.609375 327.699219 1377.84375 326.898438 1376.832031 326.898438 L 1367.703125 326.898438 C 1367.429688 326.90625 1367.164062 326.960938 1366.914062 327.070312 C 1366.660156 327.179688 1366.4375 327.328125 1366.242188 327.523438 C 1366.046875 327.71875 1365.894531 327.941406 1365.789062 328.195312 C 1365.679688 328.449219 1365.621094 328.710938 1365.617188 328.988281 C 1365.617188 340.816406 1372.050781 354.804688 1402.777344 354.804688 C 1425.019531 354.804688 1437.847656 346.09375 1437.847656 330.777344 C 1437.847656 315.636719 1427.484375 311.542969 1405.910156 308.6875 C 1384.132812 305.785156 1382.03125 304.394531 1382.03125 299.285156 C 1382.03125 295.070312 1383.796875 289.433594 1399.941406 289.433594 C 1414.363281 289.433594 1419.695312 292.542969 1421.878906 302.269531 C 1422.070312 303.179688 1422.875 303.925781 1423.820312 303.925781 L 1432.945312 303.925781 C 1433.503906 303.925781 1434.046875 303.582031 1434.4375 303.179688 C 1434.820312 302.75 1435.089844 302.269531 1435.035156 301.6875 C 1433.625 284.941406 1422.457031 277.0625 1399.964844 277.0625 Z M 1399.960938 277.074219 "/><g clip-rule="nonzero" clip-path="url(#6455bba7a7)"><path style=" stroke:none;fill-rule:nonzero;fill:#404137;fill-opacity:1;" d="M 967.921875 112.933594 C 967.121094 112.9375 966.375 113.136719 965.683594 113.53125 C 964.992188 113.9375 964.449219 114.484375 964.050781 115.175781 C 963.652344 115.867188 963.449219 116.613281 963.445312 117.414062 L 963.445312 231.578125 C 963.445312 232.699219 962.921875 233.703125 961.953125 234.265625 C 961.46875 234.546875 960.945312 234.6875 960.382812 234.6875 C 959.824219 234.6875 959.300781 234.546875 958.816406 234.265625 L 940.164062 223.519531 C 939.484375 223.128906 938.761719 222.828125 938.003906 222.625 C 937.246094 222.421875 936.472656 222.320312 935.6875 222.320312 C 934.898438 222.320312 934.128906 222.421875 933.367188 222.625 C 932.609375 222.828125 931.890625 223.128906 931.207031 223.519531 L 856.746094 266.5 C 853.964844 268.105469 852.265625 271.195312 852.265625 274.40625 L 852.265625 360.367188 C 852.265625 361.152344 852.367188 361.925781 852.570312 362.6875 C 852.773438 363.445312 853.070312 364.167969 853.464844 364.847656 C 853.855469 365.53125 854.332031 366.148438 854.886719 366.703125 C 855.445312 367.261719 856.0625 367.734375 856.746094 368.125 L 931.210938 411.109375 C 931.894531 411.503906 932.613281 411.800781 933.371094 412.007812 C 934.132812 412.210938 934.902344 412.3125 935.691406 412.3125 C 936.476562 412.3125 937.25 412.210938 938.007812 412.007812 C 938.765625 411.800781 939.488281 411.503906 940.167969 411.109375 L 1014.636719 368.125 C 1015.316406 367.734375 1015.9375 367.261719 1016.492188 366.703125 C 1017.046875 366.148438 1017.523438 365.53125 1017.917969 364.847656 C 1018.308594 364.167969 1018.609375 363.445312 1018.8125 362.6875 C 1019.015625 361.925781 1019.113281 361.152344 1019.113281 360.367188 L 1019.113281 146.066406 C 1019.113281 142.804688 1017.332031 139.746094 1014.488281 138.15625 L 970.164062 113.371094 C 969.464844 112.984375 968.695312 112.917969 967.921875 112.925781 Z M 488.875 220.234375 C 487.453125 220.292969 486.121094 220.539062 484.84375 221.28125 L 410.378906 264.257812 C 409.695312 264.652344 409.074219 265.125 408.519531 265.679688 C 407.960938 266.238281 407.488281 266.855469 407.09375 267.535156 C 406.703125 268.21875 406.402344 268.9375 406.203125 269.699219 C 406 270.457031 405.898438 271.230469 405.902344 272.019531 L 406.054688 387.382812 C 406.054688 388.988281 406.882812 390.476562 408.292969 391.261719 C 409.675781 392.089844 411.390625 392.089844 412.769531 391.261719 L 456.941406 365.890625 C 459.742188 364.230469 461.566406 361.335938 461.566406 358.132812 L 461.566406 304.25 C 461.566406 301.035156 463.257812 298.089844 466.046875 296.492188 L 484.851562 285.601562 C 486.234375 284.796875 487.726562 284.398438 489.328125 284.40625 C 490.929688 284.394531 492.421875 284.792969 493.804688 285.601562 L 512.601562 296.488281 C 515.386719 298.085938 517.078125 301.035156 517.078125 304.246094 L 517.078125 358.117188 C 517.078125 361.324219 518.945312 364.238281 521.703125 365.875 L 565.878906 391.246094 C 567.265625 392.078125 568.976562 392.078125 570.351562 391.246094 C 571.722656 390.460938 572.59375 388.972656 572.59375 387.367188 L 572.742188 272.011719 C 572.746094 271.222656 572.648438 270.449219 572.445312 269.6875 C 572.246094 268.929688 571.949219 268.207031 571.554688 267.523438 C 571.160156 266.84375 570.6875 266.222656 570.128906 265.667969 C 569.570312 265.113281 568.949219 264.640625 568.265625 264.25 L 493.800781 221.285156 C 492.542969 220.546875 491.203125 220.300781 489.769531 220.242188 L 488.878906 220.242188 Z M 1158.039062 221.28125 C 1156.4375 221.277344 1154.945312 221.675781 1153.558594 222.476562 L 1079.09375 265.457031 C 1076.3125 267.0625 1074.613281 270.003906 1074.613281 273.214844 L 1074.613281 359.171875 C 1074.613281 362.402344 1076.433594 365.332031 1079.238281 366.929688 L 1153.109375 409.035156 C 1155.835938 410.589844 1159.164062 410.710938 1161.914062 409.179688 L 1206.683594 384.257812 C 1208.105469 383.46875 1209.066406 381.996094 1209.070312 380.378906 C 1209.074219 378.761719 1208.234375 377.304688 1206.828125 376.5 L 1131.910156 333.519531 C 1130.507812 332.71875 1129.523438 331.097656 1129.523438 329.488281 L 1129.523438 302.609375 C 1129.523438 301.003906 1130.519531 299.53125 1131.910156 298.730469 L 1155.191406 285.296875 C 1156.574219 284.496094 1158.277344 284.496094 1159.671875 285.296875 L 1183.003906 298.730469 C 1183.699219 299.128906 1184.246094 299.675781 1184.644531 300.367188 C 1185.046875 301.0625 1185.246094 301.808594 1185.242188 302.609375 L 1185.242188 323.800781 C 1185.242188 324.601562 1185.441406 325.347656 1185.839844 326.039062 C 1186.238281 326.734375 1186.785156 327.28125 1187.480469 327.679688 C 1188.878906 328.484375 1190.566406 328.488281 1191.960938 327.679688 L 1236.578125 301.710938 C 1239.34375 300.101562 1241.054688 297.152344 1241.054688 293.953125 L 1241.054688 273.210938 C 1241.054688 272.425781 1240.953125 271.652344 1240.75 270.894531 C 1240.546875 270.132812 1240.25 269.414062 1239.855469 268.730469 C 1239.464844 268.050781 1238.988281 267.433594 1238.433594 266.875 C 1237.878906 266.320312 1237.257812 265.84375 1236.578125 265.453125 L 1162.558594 222.472656 C 1161.171875 221.667969 1159.679688 221.269531 1158.078125 221.277344 Z M 935.378906 285.457031 C 935.800781 285.453125 936.199219 285.550781 936.574219 285.75 L 962.089844 300.527344 C 962.785156 300.925781 963.285156 301.667969 963.285156 302.464844 L 963.285156 332.015625 C 963.285156 332.816406 962.789062 333.554688 962.089844 333.953125 L 936.574219 348.726562 C 935.878906 349.121094 935.027344 349.121094 934.332031 348.726562 L 908.8125 333.953125 C 908.117188 333.554688 907.621094 332.8125 907.621094 332.015625 L 907.621094 302.472656 C 907.621094 301.671875 908.121094 300.9375 908.8125 300.535156 L 934.332031 285.761719 C 934.679688 285.5625 934.988281 285.464844 935.378906 285.464844 Z M 935.378906 285.457031 "/></g><path style=" stroke:none;fill-rule:nonzero;fill:#737373;fill-opacity:1;" d="M 712.570312 220.832031 C 710.972656 220.828125 709.476562 221.226562 708.089844 222.023438 L 633.625 264.855469 C 630.839844 266.460938 629.148438 269.554688 629.148438 272.765625 L 629.148438 358.726562 C 629.144531 359.511719 629.246094 360.285156 629.449219 361.042969 C 629.648438 361.804688 629.949219 362.523438 630.339844 363.207031 C 630.734375 363.886719 631.207031 364.503906 631.765625 365.0625 C 632.320312 365.617188 632.941406 366.089844 633.625 366.480469 L 708.089844 409.460938 C 708.773438 409.859375 709.492188 410.15625 710.25 410.363281 C 711.007812 410.566406 711.78125 410.667969 712.570312 410.667969 C 713.355469 410.667969 714.128906 410.566406 714.886719 410.363281 C 715.644531 410.15625 716.367188 409.859375 717.046875 409.460938 L 791.515625 366.480469 C 792.195312 366.089844 792.816406 365.617188 793.371094 365.058594 C 793.925781 364.503906 794.402344 363.886719 794.796875 363.203125 C 795.1875 362.523438 795.488281 361.800781 795.691406 361.042969 C 795.890625 360.28125 795.992188 359.507812 795.992188 358.722656 L 795.992188 272.769531 C 795.992188 269.554688 794.300781 266.464844 791.511719 264.859375 L 717.042969 222.03125 C 715.660156 221.226562 714.164062 220.828125 712.5625 220.835938 Z M 1157.894531 297.539062 C 1157.597656 297.539062 1157.265625 297.539062 1156.996094 297.683594 L 1142.671875 306.042969 C 1142.398438 306.195312 1142.183594 306.402344 1142.023438 306.667969 C 1141.863281 306.933594 1141.78125 307.222656 1141.773438 307.535156 L 1141.773438 323.953125 C 1141.773438 324.570312 1142.132812 325.132812 1142.671875 325.445312 L 1156.996094 333.652344 C 1157.25 333.808594 1157.519531 333.886719 1157.816406 333.886719 C 1158.113281 333.886719 1158.386719 333.808594 1158.636719 333.652344 L 1172.960938 325.445312 C 1173.492188 325.140625 1173.859375 324.570312 1173.859375 323.953125 L 1173.859375 307.535156 C 1173.859375 306.917969 1173.496094 306.351562 1172.960938 306.042969 L 1158.636719 297.683594 C 1158.371094 297.523438 1158.1875 297.535156 1157.890625 297.535156 Z M 1157.894531 297.539062 "/></g></svg>