<svg xmlns="http://www.w3.org/2000/svg" xmlns:xlink="http://www.w3.org/1999/xlink" width="2540" zoomAndPan="magnify" viewBox="0 0 1904.88 526.499984" height="702" preserveAspectRatio="xMidYMid meet" version="1.2"><defs/><g id="09b1e85688"><path style=" stroke:none;fill-rule:nonzero;fill:#000000;fill-opacity:1;" d="M 257.210938 123.273438 C 252.042969 123.101562 246.636719 124 241.210938 125.757812 C 230.367188 129.273438 219.003906 136.125 207.339844 145.609375 C 202.769531 149.324219 198.15625 153.574219 193.527344 158.082031 C 189.003906 153.6875 184.484375 149.539062 180.015625 145.90625 C 168.363281 136.429688 157.027344 129.589844 146.207031 126.082031 C 135.386719 122.574219 124.621094 122.464844 115.777344 127.570312 C 106.933594 132.675781 101.644531 142.042969 99.273438 153.164062 C 96.902344 164.285156 97.148438 177.53125 99.53125 192.355469 C 100.359375 197.507812 101.554688 202.910156 102.898438 208.414062 C 97.84375 209.945312 92.9375 211.554688 88.386719 213.332031 C 74.65625 218.695312 63.292969 225.109375 55.019531 232.742188 C 46.746094 240.375 41.402344 249.636719 41.402344 259.808594 C 41.402344 269.980469 46.746094 279.234375 55.019531 286.867188 C 63.292969 294.5 74.65625 300.925781 88.386719 306.289062 C 93.253906 308.1875 98.519531 309.898438 103.957031 311.515625 C 102.003906 318.820312 100.417969 325.910156 99.339844 332.632812 C 96.953125 347.472656 96.703125 360.71875 99.078125 371.863281 C 101.457031 383.011719 106.746094 392.433594 115.632812 397.5625 C 124.519531 402.691406 135.335938 402.5625 146.179688 399.050781 C 157.027344 395.535156 168.378906 388.699219 180.042969 379.214844 C 184.570312 375.53125 189.152344 371.328125 193.734375 366.871094 C 198.34375 371.355469 202.945312 375.578125 207.496094 379.277344 C 219.148438 388.753906 230.496094 395.59375 241.316406 399.101562 C 252.136719 402.609375 262.890625 402.71875 271.734375 397.613281 C 280.578125 392.507812 285.863281 383.140625 288.238281 372.019531 C 290.609375 360.898438 290.347656 347.652344 287.964844 332.824219 C 286.882812 326.085938 285.296875 318.988281 283.332031 311.65625 C 288.949219 310 294.382812 308.246094 299.394531 306.289062 C 313.125 300.925781 324.488281 294.5 332.761719 286.867188 C 341.035156 279.234375 346.378906 269.980469 346.378906 259.808594 C 346.378906 249.636719 341.035156 240.375 332.761719 232.742188 C 324.488281 225.109375 313.125 218.695312 299.394531 213.332031 C 294.777344 211.53125 289.796875 209.898438 284.664062 208.351562 C 286.019531 202.8125 287.222656 197.371094 288.054688 192.1875 C 290.441406 177.351562 290.691406 164.089844 288.3125 152.945312 C 285.9375 141.796875 280.632812 132.386719 271.746094 127.257812 C 267.304688 124.695312 262.378906 123.449219 257.210938 123.273438 Z M 256.601562 136.757812 C 259.84375 136.847656 262.609375 137.617188 264.976562 138.984375 C 269.710938 141.714844 273.207031 147.03125 275.074219 155.777344 C 276.9375 164.527344 276.875 176.347656 274.671875 190.054688 C 273.917969 194.746094 272.824219 199.722656 271.578125 204.816406 C 258.027344 201.558594 243.175781 199.136719 227.351562 197.714844 C 219.398438 186.703125 211.226562 176.683594 202.988281 167.785156 C 207.34375 163.535156 211.671875 159.5625 215.894531 156.128906 C 226.667969 147.367188 236.867188 141.40625 245.378906 138.644531 C 249.636719 137.265625 253.359375 136.667969 256.601562 136.757812 Z M 130.84375 136.796875 C 134.105469 136.703125 137.835938 137.300781 142.105469 138.683594 C 150.640625 141.453125 160.859375 147.410156 171.640625 156.179688 C 175.777344 159.542969 180.011719 163.429688 184.273438 167.578125 C 175.976562 176.546875 167.75 186.671875 159.746094 197.777344 C 143.976562 199.226562 129.179688 201.671875 115.6875 204.945312 C 114.449219 199.875 113.367188 194.921875 112.617188 190.25 C 110.414062 176.527344 110.359375 164.695312 112.230469 155.921875 C 114.101562 147.148438 117.628906 141.804688 122.402344 139.046875 C 124.792969 137.667969 127.582031 136.886719 130.84375 136.796875 Z M 193.734375 177.320312 C 199.132812 183.195312 204.535156 189.621094 209.890625 196.535156 C 204.628906 196.316406 199.300781 196.1875 193.890625 196.1875 C 188.375 196.1875 182.945312 196.320312 177.582031 196.550781 C 182.9375 189.628906 188.335938 183.199219 193.734375 177.320312 Z M 193.890625 209.566406 C 202.902344 209.566406 211.6875 209.9375 220.230469 210.5625 C 226.109375 219.003906 231.855469 227.960938 237.328125 237.4375 C 242.140625 245.765625 246.492188 254.082031 250.453125 262.292969 C 246.449219 270.613281 242.023438 279.042969 237.148438 287.488281 C 232.855469 294.917969 228.371094 301.980469 223.816406 308.785156 C 214.164062 309.589844 204.164062 310.039062 193.890625 310.039062 C 183.371094 310.039062 173.144531 309.566406 163.28125 308.71875 C 158.796875 302.011719 154.390625 295.046875 150.167969 287.734375 C 145.300781 279.308594 140.898438 270.910156 136.898438 262.605469 C 140.914062 254.253906 145.339844 245.792969 150.230469 237.320312 C 155.679688 227.890625 161.40625 218.988281 167.253906 210.589844 C 175.890625 209.949219 184.773438 209.566406 193.890625 209.566406 Z M 237.304688 212.21875 C 248.222656 213.582031 258.476562 215.472656 268.019531 217.742188 C 265.1875 227.027344 261.695312 236.722656 257.46875 246.726562 C 254.726562 241.4375 251.882812 236.132812 248.808594 230.8125 C 245.089844 224.371094 241.222656 218.21875 237.304688 212.21875 Z M 149.777344 212.324219 C 145.941406 218.214844 142.164062 224.238281 138.519531 230.554688 C 135.40625 235.941406 132.503906 241.320312 129.730469 246.675781 C 125.539062 236.730469 122.070312 227.089844 119.257812 217.859375 C 128.734375 215.585938 138.929688 213.699219 149.777344 212.324219 Z M 281.128906 221.261719 C 285.828125 222.683594 290.367188 224.167969 294.527344 225.792969 C 307.1875 230.734375 317.199219 236.585938 323.6875 242.574219 C 330.179688 248.5625 332.996094 254.269531 332.996094 259.808594 C 332.996094 265.347656 330.179688 271.058594 323.6875 277.042969 C 317.199219 283.03125 307.1875 288.882812 294.527344 293.828125 C 289.902344 295.632812 284.820312 297.269531 279.539062 298.820312 C 275.769531 287.167969 270.960938 275.015625 265.234375 262.605469 C 271.816406 248.359375 277.132812 234.464844 281.128906 221.261719 Z M 106.429688 221.328125 C 110.382812 234.398438 115.628906 248.152344 122.117188 262.253906 C 116.355469 274.738281 111.523438 286.960938 107.738281 298.679688 C 102.640625 297.167969 97.734375 295.574219 93.253906 293.828125 C 80.597656 288.882812 70.582031 283.03125 64.09375 277.042969 C 57.601562 271.058594 54.785156 265.347656 54.785156 259.808594 C 54.785156 254.269531 57.601562 248.5625 64.09375 242.574219 C 70.582031 236.585938 80.597656 230.734375 93.253906 225.792969 C 97.351562 224.191406 101.8125 222.730469 106.429688 221.328125 Z M 193.890625 229.375 C 175.667969 229.375 160.753906 244.285156 160.753906 262.5 C 160.753906 280.71875 175.667969 295.625 193.890625 295.625 C 212.113281 295.625 227.027344 280.71875 227.027344 262.5 C 227.027344 244.285156 212.113281 229.375 193.890625 229.375 Z M 193.890625 242.625 C 204.949219 242.625 213.773438 251.445312 213.773438 262.5 C 213.773438 273.554688 204.949219 282.375 193.890625 282.375 C 182.832031 282.375 174.007812 273.554688 174.007812 262.5 C 174.007812 251.445312 182.832031 242.625 193.890625 242.625 Z M 257.636719 278.15625 C 261.113281 286.378906 264.132812 294.425781 266.671875 302.1875 C 258.703125 304.035156 250.214844 305.589844 241.289062 306.816406 C 243.859375 302.71875 246.398438 298.542969 248.875 294.253906 C 251.980469 288.875 254.867188 283.503906 257.636719 278.15625 Z M 129.886719 278.171875 C 132.671875 283.550781 135.574219 288.945312 138.699219 294.359375 C 141.144531 298.59375 143.644531 302.730469 146.179688 306.78125 C 137.28125 305.546875 128.820312 303.984375 120.875 302.132812 C 123.402344 294.398438 126.425781 286.371094 129.886719 278.171875 Z M 117.058594 314.996094 C 129.050781 317.835938 142.050781 320.019531 155.835938 321.441406 C 165.039062 334.746094 174.625 346.699219 184.273438 357.152344 C 179.960938 361.355469 175.683594 365.304688 171.5 368.707031 C 160.726562 377.46875 150.511719 383.417969 142 386.175781 C 133.488281 388.933594 127.136719 388.570312 122.402344 385.839844 C 117.671875 383.105469 114.1875 377.792969 112.320312 369.042969 C 110.453125 360.292969 110.507812 348.488281 112.707031 334.78125 C 113.707031 328.5625 115.203125 321.902344 117.058594 314.996094 Z M 270.503906 315.046875 C 272.375 321.992188 273.875 328.683594 274.878906 334.933594 C 277.082031 348.65625 277.136719 360.476562 275.265625 369.25 C 273.394531 378.023438 269.882812 383.378906 265.105469 386.136719 C 260.332031 388.890625 253.929688 389.265625 245.394531 386.5 C 236.855469 383.730469 226.640625 377.761719 215.855469 368.992188 C 211.640625 365.5625 207.335938 361.597656 202.988281 357.359375 C 212.703125 346.867188 222.355469 334.851562 231.621094 321.464844 C 245.441406 320.054688 258.476562 317.882812 270.503906 315.046875 Z M 173.128906 322.796875 C 179.933594 323.167969 186.828125 323.417969 193.890625 323.417969 C 200.71875 323.417969 207.390625 323.183594 213.980469 322.835938 C 207.246094 331.921875 200.378906 340.179688 193.542969 347.617188 C 186.707031 340.164062 179.855469 331.890625 173.128906 322.796875 Z M 173.128906 322.796875 "/><g style="fill:#000000;fill-opacity:1;"><g transform="translate(381.210077, 339.252721)"><path style="stroke:none" d="M 22.546875 0 L 22.546875 -169.09375 L 50.15625 -169.09375 L 50.15625 0 Z M 125.609375 0 L 72.234375 -73.84375 L 103.53125 -73.84375 L 158.515625 0 Z M 41.1875 -58.4375 L 41.1875 -81.671875 L 84.890625 -81.671875 C 91.484375 -81.671875 97.15625 -83.007812 101.90625 -85.6875 C 106.664062 -88.375 110.3125 -92.09375 112.84375 -96.84375 C 115.375 -101.601562 116.640625 -107.128906 116.640625 -113.421875 C 116.640625 -119.554688 115.375 -125 112.84375 -129.75 C 110.3125 -134.507812 106.664062 -138.269531 101.90625 -141.03125 C 97.15625 -143.789062 91.484375 -145.171875 84.890625 -145.171875 L 41.1875 -145.171875 L 41.1875 -169.09375 L 81.21875 -169.09375 C 94.09375 -169.09375 105.285156 -167.132812 114.796875 -163.21875 C 124.304688 -159.3125 131.664062 -153.445312 136.875 -145.625 C 142.09375 -137.800781 144.703125 -127.753906 144.703125 -115.484375 L 144.703125 -111.8125 C 144.703125 -99.539062 142.054688 -89.492188 136.765625 -81.671875 C 131.472656 -73.847656 124.109375 -68.019531 114.671875 -64.1875 C 105.242188 -60.351562 94.09375 -58.4375 81.21875 -58.4375 Z M 41.1875 -58.4375 "/></g></g><g style="fill:#000000;fill-opacity:1;"><g transform="translate(542.258111, 339.252721)"><path style="stroke:none" d="M 73.84375 4.140625 C 63.113281 4.140625 53.757812 2.300781 45.78125 -1.375 C 37.800781 -5.0625 31.28125 -9.929688 26.21875 -15.984375 C 21.164062 -22.046875 17.375 -28.875 14.84375 -36.46875 C 12.3125 -44.0625 11.046875 -51.84375 11.046875 -59.8125 L 11.046875 -64.1875 C 11.046875 -72.3125 12.3125 -80.171875 14.84375 -87.765625 C 17.375 -95.359375 21.164062 -102.179688 26.21875 -108.234375 C 31.28125 -114.296875 37.6875 -119.128906 45.4375 -122.734375 C 53.1875 -126.335938 62.195312 -128.140625 72.46875 -128.140625 C 85.8125 -128.140625 96.929688 -125.222656 105.828125 -119.390625 C 114.722656 -113.566406 121.394531 -106.015625 125.84375 -96.734375 C 130.289062 -87.460938 132.515625 -77.457031 132.515625 -66.71875 L 132.515625 -55.90625 L 22.546875 -55.90625 L 22.546875 -74.078125 L 114.34375 -74.078125 L 106.984375 -64.875 C 106.984375 -73.15625 105.675781 -80.320312 103.0625 -86.375 C 100.457031 -92.4375 96.625 -97.117188 91.5625 -100.421875 C 86.5 -103.722656 80.132812 -105.375 72.46875 -105.375 C 64.488281 -105.375 57.816406 -103.53125 52.453125 -99.84375 C 47.085938 -96.164062 43.097656 -91.101562 40.484375 -84.65625 C 37.878906 -78.21875 36.578125 -70.628906 36.578125 -61.890625 C 36.578125 -53.609375 37.878906 -46.207031 40.484375 -39.6875 C 43.097656 -33.164062 47.164062 -28.023438 52.6875 -24.265625 C 58.207031 -20.515625 65.257812 -18.640625 73.84375 -18.640625 C 82.4375 -18.640625 89.492188 -20.515625 95.015625 -24.265625 C 100.535156 -28.023438 103.910156 -32.4375 105.140625 -37.5 L 130.21875 -37.5 C 128.53125 -29.0625 125.113281 -21.695312 119.96875 -15.40625 C 114.832031 -9.125 108.351562 -4.296875 100.53125 -0.921875 C 92.707031 2.453125 83.8125 4.140625 73.84375 4.140625 Z M 73.84375 4.140625 "/></g></g><g style="fill:#000000;fill-opacity:1;"><g transform="translate(683.980387, 339.252721)"><path style="stroke:none" d="M 94.5625 0 L 94.5625 -37.046875 L 90.1875 -37.046875 L 90.1875 -78.90625 C 90.1875 -86.582031 88.191406 -92.410156 84.203125 -96.390625 C 80.210938 -100.378906 74.304688 -102.375 66.484375 -102.375 C 62.191406 -102.375 57.4375 -102.296875 52.21875 -102.140625 C 47.007812 -101.992188 41.910156 -101.804688 36.921875 -101.578125 C 31.941406 -101.347656 27.535156 -101.078125 23.703125 -100.765625 L 23.703125 -124 C 27.066406 -124.3125 30.78125 -124.582031 34.84375 -124.8125 C 38.914062 -125.039062 43.132812 -125.226562 47.5 -125.375 C 51.875 -125.53125 56.054688 -125.609375 60.046875 -125.609375 C 72.617188 -125.609375 83.046875 -124 91.328125 -120.78125 C 99.617188 -117.5625 105.796875 -112.460938 109.859375 -105.484375 C 113.921875 -98.503906 115.953125 -89.1875 115.953125 -77.53125 L 115.953125 0 Z M 54.296875 3.21875 C 45.242188 3.21875 37.34375 1.644531 30.59375 -1.5 C 23.84375 -4.644531 18.628906 -9.242188 14.953125 -15.296875 C 11.273438 -21.359375 9.4375 -28.609375 9.4375 -37.046875 C 9.4375 -45.941406 11.546875 -53.300781 15.765625 -59.125 C 19.984375 -64.957031 26 -69.328125 33.8125 -72.234375 C 41.632812 -75.148438 50.992188 -76.609375 61.890625 -76.609375 L 92.9375 -76.609375 L 92.9375 -58.890625 L 61.203125 -58.890625 C 53.066406 -58.890625 46.851562 -56.929688 42.5625 -53.015625 C 38.269531 -49.109375 36.125 -44.015625 36.125 -37.734375 C 36.125 -31.441406 38.269531 -26.414062 42.5625 -22.65625 C 46.851562 -18.90625 53.066406 -17.03125 61.203125 -17.03125 C 65.953125 -17.03125 70.472656 -17.910156 74.765625 -19.671875 C 79.066406 -21.429688 82.632812 -24.378906 85.46875 -28.515625 C 88.300781 -32.660156 89.875 -38.492188 90.1875 -46.015625 L 97.09375 -37.046875 C 96.320312 -28.296875 94.207031 -20.96875 90.75 -15.0625 C 87.300781 -9.164062 82.546875 -4.644531 76.484375 -1.5 C 70.429688 1.644531 63.035156 3.21875 54.296875 3.21875 Z M 54.296875 3.21875 "/></g></g><g style="fill:#000000;fill-opacity:1;"><g transform="translate(817.650203, 339.252721)"><path style="stroke:none" d="M 73.625 4.140625 C 63.039062 4.140625 53.796875 2.335938 45.890625 -1.265625 C 37.992188 -4.867188 31.476562 -9.773438 26.34375 -15.984375 C 21.207031 -22.203125 17.375 -29.101562 14.84375 -36.6875 C 12.3125 -44.28125 11.046875 -51.988281 11.046875 -59.8125 L 11.046875 -63.953125 C 11.046875 -72.085938 12.347656 -79.945312 14.953125 -87.53125 C 17.554688 -95.125 21.46875 -101.988281 26.6875 -108.125 C 31.90625 -114.257812 38.382812 -119.128906 46.125 -122.734375 C 53.875 -126.335938 62.960938 -128.140625 73.390625 -128.140625 C 83.972656 -128.140625 93.441406 -126.144531 101.796875 -122.15625 C 110.160156 -118.175781 116.875 -112.539062 121.9375 -105.25 C 127 -97.96875 129.835938 -89.492188 130.453125 -79.828125 L 104.453125 -79.828125 C 103.523438 -86.734375 100.414062 -92.5625 95.125 -97.3125 C 89.832031 -102.070312 82.585938 -104.453125 73.390625 -104.453125 C 65.410156 -104.453125 58.8125 -102.609375 53.59375 -98.921875 C 48.382812 -95.242188 44.472656 -90.222656 41.859375 -83.859375 C 39.253906 -77.492188 37.953125 -70.171875 37.953125 -61.890625 C 37.953125 -53.910156 39.21875 -46.695312 41.75 -40.25 C 44.28125 -33.8125 48.191406 -28.753906 53.484375 -25.078125 C 58.773438 -21.398438 65.488281 -19.5625 73.625 -19.5625 C 79.90625 -19.5625 85.304688 -20.671875 89.828125 -22.890625 C 94.359375 -25.117188 98.003906 -28.109375 100.765625 -31.859375 C 103.523438 -35.617188 105.132812 -39.953125 105.59375 -44.859375 L 131.828125 -44.859375 C 131.367188 -34.890625 128.53125 -26.257812 123.3125 -18.96875 C 118.09375 -11.6875 111.1875 -6.015625 102.59375 -1.953125 C 94.007812 2.109375 84.351562 4.140625 73.625 4.140625 Z M 73.625 4.140625 "/></g></g><g style="fill:#000000;fill-opacity:1;"><g transform="translate(957.531927, 339.252721)"><path style="stroke:none" d="M 70.625 1.375 C 60.351562 1.375 51.6875 -0.00390625 44.625 -2.765625 C 37.570312 -5.523438 32.242188 -10.273438 28.640625 -17.015625 C 25.035156 -23.765625 23.234375 -32.894531 23.234375 -44.40625 L 23.234375 -160.125 L 48.765625 -160.125 L 48.765625 -42.09375 C 48.765625 -35.65625 50.488281 -30.710938 53.9375 -27.265625 C 57.394531 -23.816406 62.269531 -22.09375 68.5625 -22.09375 L 89.265625 -22.09375 L 89.265625 1.375 Z M 2.765625 -103.984375 L 2.765625 -124 L 89.265625 -124 L 89.265625 -103.984375 Z M 2.765625 -103.984375 "/></g></g><g style="fill:#000000;fill-opacity:1;"><g transform="translate(1056.23137, 339.252721)"><path style="stroke:none" d=""/></g></g><g style="fill:#000000;fill-opacity:1;"><g transform="translate(1107.30655, 339.252721)"><path style="stroke:none" d="M 22.546875 0 L 22.546875 -167.953125 L 67.640625 -167.953125 L 145.625 -23.703125 L 153.21875 -23.703125 L 148.625 -19.5625 L 148.625 -167.953125 L 174.84375 -167.953125 L 174.84375 0 L 129.296875 0 L 51.296875 -144.25 L 43.71875 -144.25 L 48.3125 -148.390625 L 48.3125 0 Z M 22.546875 0 "/></g></g><g style="fill:#000000;fill-opacity:1;"><g transform="translate(1304.70544, 339.252721)"><path style="stroke:none" d="M 94.5625 0 L 94.5625 -37.046875 L 90.1875 -37.046875 L 90.1875 -78.90625 C 90.1875 -86.582031 88.191406 -92.410156 84.203125 -96.390625 C 80.210938 -100.378906 74.304688 -102.375 66.484375 -102.375 C 62.191406 -102.375 57.4375 -102.296875 52.21875 -102.140625 C 47.007812 -101.992188 41.910156 -101.804688 36.921875 -101.578125 C 31.941406 -101.347656 27.535156 -101.078125 23.703125 -100.765625 L 23.703125 -124 C 27.066406 -124.3125 30.78125 -124.582031 34.84375 -124.8125 C 38.914062 -125.039062 43.132812 -125.226562 47.5 -125.375 C 51.875 -125.53125 56.054688 -125.609375 60.046875 -125.609375 C 72.617188 -125.609375 83.046875 -124 91.328125 -120.78125 C 99.617188 -117.5625 105.796875 -112.460938 109.859375 -105.484375 C 113.921875 -98.503906 115.953125 -89.1875 115.953125 -77.53125 L 115.953125 0 Z M 54.296875 3.21875 C 45.242188 3.21875 37.34375 1.644531 30.59375 -1.5 C 23.84375 -4.644531 18.628906 -9.242188 14.953125 -15.296875 C 11.273438 -21.359375 9.4375 -28.609375 9.4375 -37.046875 C 9.4375 -45.941406 11.546875 -53.300781 15.765625 -59.125 C 19.984375 -64.957031 26 -69.328125 33.8125 -72.234375 C 41.632812 -75.148438 50.992188 -76.609375 61.890625 -76.609375 L 92.9375 -76.609375 L 92.9375 -58.890625 L 61.203125 -58.890625 C 53.066406 -58.890625 46.851562 -56.929688 42.5625 -53.015625 C 38.269531 -49.109375 36.125 -44.015625 36.125 -37.734375 C 36.125 -31.441406 38.269531 -26.414062 42.5625 -22.65625 C 46.851562 -18.90625 53.066406 -17.03125 61.203125 -17.03125 C 65.953125 -17.03125 70.472656 -17.910156 74.765625 -19.671875 C 79.066406 -21.429688 82.632812 -24.378906 85.46875 -28.515625 C 88.300781 -32.660156 89.875 -38.492188 90.1875 -46.015625 L 97.09375 -37.046875 C 96.320312 -28.296875 94.207031 -20.96875 90.75 -15.0625 C 87.300781 -9.164062 82.546875 -4.644531 76.484375 -1.5 C 70.429688 1.644531 63.035156 3.21875 54.296875 3.21875 Z M 54.296875 3.21875 "/></g></g><g style="fill:#000000;fill-opacity:1;"><g transform="translate(1438.375301, 339.252721)"><path style="stroke:none" d="M 70.625 1.375 C 60.351562 1.375 51.6875 -0.00390625 44.625 -2.765625 C 37.570312 -5.523438 32.242188 -10.273438 28.640625 -17.015625 C 25.035156 -23.765625 23.234375 -32.894531 23.234375 -44.40625 L 23.234375 -160.125 L 48.765625 -160.125 L 48.765625 -42.09375 C 48.765625 -35.65625 50.488281 -30.710938 53.9375 -27.265625 C 57.394531 -23.816406 62.269531 -22.09375 68.5625 -22.09375 L 89.265625 -22.09375 L 89.265625 1.375 Z M 2.765625 -103.984375 L 2.765625 -124 L 89.265625 -124 L 89.265625 -103.984375 Z M 2.765625 -103.984375 "/></g></g><g style="fill:#000000;fill-opacity:1;"><g transform="translate(1537.074653, 339.252721)"><path style="stroke:none" d="M 25.765625 0 L 25.765625 -124 L 52.6875 -124 L 52.6875 0 Z M 7.59375 -103.296875 L 7.59375 -124 L 52.6875 -124 L 52.6875 -103.296875 Z M 34.515625 -141.265625 C 28.992188 -141.265625 24.890625 -142.71875 22.203125 -145.625 C 19.515625 -148.539062 18.171875 -152.300781 18.171875 -156.90625 C 18.171875 -161.351562 19.515625 -165.070312 22.203125 -168.0625 C 24.890625 -171.050781 28.992188 -172.546875 34.515625 -172.546875 C 40.179688 -172.546875 44.359375 -171.050781 47.046875 -168.0625 C 49.734375 -165.070312 51.078125 -161.351562 51.078125 -156.90625 C 51.078125 -152.300781 49.734375 -148.539062 47.046875 -145.625 C 44.359375 -142.71875 40.179688 -141.265625 34.515625 -141.265625 Z M 34.515625 -141.265625 "/></g></g><g style="fill:#000000;fill-opacity:1;"><g transform="translate(1610.006425, 339.252721)"><path style="stroke:none" d="M 45.328125 0 L 4.828125 -124 L 32.90625 -124 L 72.015625 0 Z M 52.921875 0 L 52.921875 -21.859375 L 83.046875 -21.859375 L 83.046875 0 Z M 64.421875 0 L 98.46875 -124 L 124.6875 -124 L 89.5 0 Z M 64.421875 0 "/></g></g><g style="fill:#000000;fill-opacity:1;"><g transform="translate(1739.074913, 339.252721)"><path style="stroke:none" d="M 73.84375 4.140625 C 63.113281 4.140625 53.757812 2.300781 45.78125 -1.375 C 37.800781 -5.0625 31.28125 -9.929688 26.21875 -15.984375 C 21.164062 -22.046875 17.375 -28.875 14.84375 -36.46875 C 12.3125 -44.0625 11.046875 -51.84375 11.046875 -59.8125 L 11.046875 -64.1875 C 11.046875 -72.3125 12.3125 -80.171875 14.84375 -87.765625 C 17.375 -95.359375 21.164062 -102.179688 26.21875 -108.234375 C 31.28125 -114.296875 37.6875 -119.128906 45.4375 -122.734375 C 53.1875 -126.335938 62.195312 -128.140625 72.46875 -128.140625 C 85.8125 -128.140625 96.929688 -125.222656 105.828125 -119.390625 C 114.722656 -113.566406 121.394531 -106.015625 125.84375 -96.734375 C 130.289062 -87.460938 132.515625 -77.457031 132.515625 -66.71875 L 132.515625 -55.90625 L 22.546875 -55.90625 L 22.546875 -74.078125 L 114.34375 -74.078125 L 106.984375 -64.875 C 106.984375 -73.15625 105.675781 -80.320312 103.0625 -86.375 C 100.457031 -92.4375 96.625 -97.117188 91.5625 -100.421875 C 86.5 -103.722656 80.132812 -105.375 72.46875 -105.375 C 64.488281 -105.375 57.816406 -103.53125 52.453125 -99.84375 C 47.085938 -96.164062 43.097656 -91.101562 40.484375 -84.65625 C 37.878906 -78.21875 36.578125 -70.628906 36.578125 -61.890625 C 36.578125 -53.609375 37.878906 -46.207031 40.484375 -39.6875 C 43.097656 -33.164062 47.164062 -28.023438 52.6875 -24.265625 C 58.207031 -20.515625 65.257812 -18.640625 73.84375 -18.640625 C 82.4375 -18.640625 89.492188 -20.515625 95.015625 -24.265625 C 100.535156 -28.023438 103.910156 -32.4375 105.140625 -37.5 L 130.21875 -37.5 C 128.53125 -29.0625 125.113281 -21.695312 119.96875 -15.40625 C 114.832031 -9.125 108.351562 -4.296875 100.53125 -0.921875 C 92.707031 2.453125 83.8125 4.140625 73.84375 4.140625 Z M 73.84375 4.140625 "/></g></g></g></svg>