<svg xmlns="http://www.w3.org/2000/svg" xmlns:xlink="http://www.w3.org/1999/xlink" width="2540" zoomAndPan="magnify" viewBox="0 0 1904.88 526.499984" height="702" preserveAspectRatio="xMidYMid meet" version="1.2"><defs><clipPath id="9aa1570a55"><path d="M 136.597656 123.046875 L 416.832031 123.046875 L 416.832031 403 L 136.597656 403 Z M 136.597656 123.046875 "/></clipPath><clipPath id="c7c26cfec7"><path d="M 136.597656 138.03125 L 136.597656 387.96875 C 136.597656 396.242188 143.304688 402.953125 151.582031 402.953125 L 401.515625 402.953125 C 409.792969 402.953125 416.503906 396.242188 416.503906 387.96875 L 416.503906 138.03125 C 416.503906 129.757812 409.792969 123.046875 401.515625 123.046875 L 151.582031 123.046875 C 143.304688 123.046875 136.597656 129.757812 136.597656 138.03125 Z M 136.597656 138.03125 "/></clipPath><clipPath id="290240f5f9"><path d="M 198 252 L 298 252 L 298 379 L 198 379 Z M 198 252 "/></clipPath><clipPath id="c7ac201436"><path d="M 136.597656 138.03125 L 136.597656 387.96875 C 136.597656 396.242188 143.304688 402.953125 151.582031 402.953125 L 401.515625 402.953125 C 409.792969 402.953125 416.503906 396.242188 416.503906 387.96875 L 416.503906 138.03125 C 416.503906 129.757812 409.792969 123.046875 401.515625 123.046875 L 151.582031 123.046875 C 143.304688 123.046875 136.597656 129.757812 136.597656 138.03125 Z M 136.597656 138.03125 "/></clipPath><clipPath id="a601b8b40b"><path d="M 304 251 L 395 251 L 395 381 L 304 381 Z M 304 251 "/></clipPath><clipPath id="1a4d2aa9aa"><path d="M 136.597656 138.03125 L 136.597656 387.96875 C 136.597656 396.242188 143.304688 402.953125 151.582031 402.953125 L 401.515625 402.953125 C 409.792969 402.953125 416.503906 396.242188 416.503906 387.96875 L 416.503906 138.03125 C 416.503906 129.757812 409.792969 123.046875 401.515625 123.046875 L 151.582031 123.046875 C 143.304688 123.046875 136.597656 129.757812 136.597656 138.03125 Z M 136.597656 138.03125 "/></clipPath></defs><g id="b8a7d72894"><g clip-rule="nonzero" clip-path="url(#9aa1570a55)"><g clip-rule="nonzero" clip-path="url(#c7c26cfec7)"><path style=" stroke:none;fill-rule:nonzero;fill:#000000;fill-opacity:1;" d="M 136.597656 402.941406 L 416.492188 402.941406 L 416.492188 123.046875 L 136.597656 123.046875 Z M 136.597656 402.941406 "/></g></g><g clip-rule="nonzero" clip-path="url(#290240f5f9)"><g clip-rule="nonzero" clip-path="url(#c7ac201436)"><path style=" stroke:none;fill-rule:nonzero;fill:#ffffff;fill-opacity:1;" d="M 198.480469 263.914062 L 198.390625 275.382812 L 234.824219 275.382812 L 234.824219 378.898438 L 260.589844 378.898438 L 260.589844 275.382812 L 297.023438 275.382812 L 297.023438 264.140625 C 297.023438 257.921875 296.890625 252.71875 296.710938 252.585938 C 296.578125 252.410156 274.410156 252.324219 247.527344 252.367188 L 198.609375 252.5 Z M 198.480469 263.914062 "/></g></g><g clip-rule="nonzero" clip-path="url(#a601b8b40b)"><g clip-rule="nonzero" clip-path="url(#1a4d2aa9aa)"><path style=" stroke:none;fill-rule:nonzero;fill:#ffffff;fill-opacity:1;" d="M 362.449219 252.179688 C 369.554688 253.953125 374.976562 257.113281 379.953125 262.261719 C 382.519531 265.015625 386.347656 270.035156 386.652344 271.238281 C 386.742188 271.597656 374.574219 279.765625 367.191406 284.347656 C 366.929688 284.523438 365.871094 283.363281 364.667969 281.59375 C 361.070312 276.34375 357.285156 274.082031 351.515625 273.6875 C 343.03125 273.109375 337.5625 277.546875 337.605469 284.96875 C 337.605469 287.144531 337.925781 288.4375 338.808594 290.207031 C 340.679688 294.078125 344.144531 296.386719 355.023438 301.097656 C 375.066406 309.710938 383.636719 315.398438 388.972656 323.488281 C 394.917969 332.507812 396.253906 346.898438 392.207031 357.601562 C 387.769531 369.246094 376.75 377.148438 361.246094 379.773438 C 356.445312 380.617188 345.074219 380.484375 339.914062 379.554688 C 328.675781 377.554688 318.015625 372 311.445312 364.71875 C 308.863281 361.875 303.84375 354.453125 304.152344 353.917969 C 304.292969 353.742188 305.441406 353.03125 306.730469 352.277344 C 307.976562 351.566406 312.691406 348.855469 317.128906 346.273438 L 325.164062 341.617188 L 326.859375 344.097656 C 329.210938 347.695312 334.371094 352.625 337.476562 354.277344 C 346.410156 358.980469 358.664062 358.3125 364.710938 352.898438 C 367.292969 350.539062 368.351562 348.101562 368.351562 344.503906 C 368.351562 341.253906 367.957031 339.835938 366.261719 337.394531 C 364.085938 334.28125 359.648438 331.65625 347.03125 326.199219 C 332.589844 319.980469 326.367188 316.109375 320.683594 309.976562 C 317.390625 306.421875 314.285156 300.738281 312.996094 295.980469 C 311.925781 292.035156 311.664062 282.128906 312.503906 278.125 C 315.488281 264.175781 326.019531 254.445312 341.203125 251.558594 C 346.136719 250.628906 357.605469 250.980469 362.449219 252.179688 Z M 362.449219 252.179688 "/></g></g><g style="fill:#000000;fill-opacity:1;"><g transform="translate(504.316986, 342.760325)"><path style="stroke:none" d="M 55.375 0 L 55.375 -147.984375 L 82.953125 -147.984375 L 82.953125 0 Z M 5.75 -143.390625 L 5.75 -167.734375 L 132.8125 -167.734375 L 132.8125 -143.390625 Z M 5.75 -143.390625 "/></g></g><g style="fill:#000000;fill-opacity:1;"><g transform="translate(632.5322, 342.760325)"><path style="stroke:none" d="M 13.78125 48.484375 L 13.78125 24.8125 L 34.234375 24.8125 C 38.984375 24.8125 43.039062 24.238281 46.40625 23.09375 C 49.78125 21.945312 52.539062 19.957031 54.6875 17.125 C 56.832031 14.289062 58.59375 10.5 59.96875 5.75 L 96.046875 -123.859375 L 122.015625 -123.859375 L 82.953125 12.171875 C 80.503906 20.753906 77.09375 27.722656 72.71875 33.078125 C 68.351562 38.441406 62.835938 42.347656 56.171875 44.796875 C 49.515625 47.253906 41.515625 48.484375 32.171875 48.484375 Z M 51.9375 -2.75 L 51.9375 -24.59375 L 78.578125 -24.59375 L 78.578125 -2.75 Z M 45.265625 -2.75 L 3.21875 -123.859375 L 30.5625 -123.859375 L 70.765625 -2.75 Z M 45.265625 -2.75 "/></g></g><g style="fill:#000000;fill-opacity:1;"><g transform="translate(760.058106, 342.760325)"><path style="stroke:none" d="M 19.765625 45.953125 L 19.765625 -123.859375 L 41.125 -123.859375 L 41.125 -70.3125 L 37 -70.546875 C 37.757812 -83.566406 40.515625 -94.285156 45.265625 -102.703125 C 50.015625 -111.128906 56.296875 -117.410156 64.109375 -121.546875 C 71.921875 -125.691406 80.5 -127.765625 89.84375 -127.765625 C 98.726562 -127.765625 106.769531 -126.113281 113.96875 -122.8125 C 121.164062 -119.519531 127.367188 -114.960938 132.578125 -109.140625 C 137.785156 -103.328125 141.726562 -96.585938 144.40625 -88.921875 C 147.09375 -81.265625 148.4375 -72.992188 148.4375 -64.109375 L 148.4375 -59.75 C 148.4375 -51.007812 147.054688 -42.769531 144.296875 -35.03125 C 141.546875 -27.300781 137.566406 -20.523438 132.359375 -14.703125 C 127.148438 -8.878906 120.941406 -4.28125 113.734375 -0.90625 C 106.535156 2.457031 98.492188 4.140625 89.609375 4.140625 C 80.578125 4.140625 72.15625 2.222656 64.34375 -1.609375 C 56.53125 -5.441406 50.09375 -11.566406 45.03125 -19.984375 C 39.976562 -28.410156 37.144531 -39.363281 36.53125 -52.84375 L 46.640625 -35.84375 L 46.640625 45.953125 Z M 83.875 -19.078125 C 91.375 -19.078125 97.957031 -20.875 103.625 -24.46875 C 109.300781 -28.070312 113.707031 -33.128906 116.84375 -39.640625 C 119.976562 -46.148438 121.546875 -53.617188 121.546875 -62.046875 C 121.546875 -70.460938 119.976562 -77.890625 116.84375 -84.328125 C 113.707031 -90.765625 109.34375 -95.78125 103.75 -99.375 C 98.15625 -102.976562 91.53125 -104.78125 83.875 -104.78125 C 77.132812 -104.78125 70.851562 -103.25 65.03125 -100.1875 C 59.207031 -97.125 54.53125 -92.71875 51 -86.96875 C 47.476562 -81.226562 45.71875 -74.296875 45.71875 -66.171875 L 45.71875 -56.296875 C 45.71875 -48.484375 47.519531 -41.78125 51.125 -36.1875 C 54.726562 -30.59375 59.4375 -26.34375 65.25 -23.4375 C 71.070312 -20.53125 77.28125 -19.078125 83.875 -19.078125 Z M 83.875 -19.078125 "/></g></g><g style="fill:#000000;fill-opacity:1;"><g transform="translate(919.522901, 342.760325)"><path style="stroke:none" d="M 73.765625 4.140625 C 63.035156 4.140625 53.6875 2.300781 45.71875 -1.375 C 37.757812 -5.050781 31.25 -9.914062 26.1875 -15.96875 C 21.132812 -22.019531 17.34375 -28.835938 14.8125 -36.421875 C 12.289062 -44.003906 11.03125 -51.78125 11.03125 -59.75 L 11.03125 -64.109375 C 11.03125 -72.222656 12.289062 -80.070312 14.8125 -87.65625 C 17.34375 -95.238281 21.132812 -102.054688 26.1875 -108.109375 C 31.25 -114.160156 37.644531 -118.984375 45.375 -122.578125 C 53.113281 -126.179688 62.113281 -127.984375 72.375 -127.984375 C 85.707031 -127.984375 96.816406 -125.070312 105.703125 -119.25 C 114.585938 -113.4375 121.25 -105.894531 125.6875 -96.625 C 130.132812 -87.351562 132.359375 -77.359375 132.359375 -66.640625 L 132.359375 -55.84375 L 22.515625 -55.84375 L 22.515625 -73.984375 L 114.203125 -73.984375 L 106.84375 -64.796875 C 106.84375 -73.066406 105.539062 -80.226562 102.9375 -86.28125 C 100.332031 -92.332031 96.503906 -97.003906 91.453125 -100.296875 C 86.398438 -103.585938 80.039062 -105.234375 72.375 -105.234375 C 64.414062 -105.234375 57.753906 -103.394531 52.390625 -99.71875 C 47.023438 -96.039062 43.039062 -90.984375 40.4375 -84.546875 C 37.832031 -78.117188 36.53125 -70.539062 36.53125 -61.8125 C 36.53125 -53.539062 37.832031 -46.148438 40.4375 -39.640625 C 43.039062 -33.128906 47.097656 -27.992188 52.609375 -24.234375 C 58.128906 -20.484375 65.179688 -18.609375 73.765625 -18.609375 C 82.335938 -18.609375 89.378906 -20.484375 94.890625 -24.234375 C 100.410156 -27.992188 103.785156 -32.398438 105.015625 -37.453125 L 130.0625 -37.453125 C 128.375 -29.023438 124.960938 -21.671875 119.828125 -15.390625 C 114.703125 -9.109375 108.234375 -4.28125 100.421875 -0.90625 C 92.609375 2.457031 83.722656 4.140625 73.765625 4.140625 Z M 73.765625 4.140625 "/></g></g><g style="fill:#000000;fill-opacity:1;"><g transform="translate(1061.065183, 342.760325)"><path style="stroke:none" d="M 62.5 3.671875 C 45.800781 3.671875 32.816406 0.148438 23.546875 -6.890625 C 14.285156 -13.941406 9.425781 -23.671875 8.96875 -36.078125 L 33.78125 -36.078125 C 34.082031 -31.484375 36.453125 -27.269531 40.890625 -23.4375 C 45.335938 -19.601562 52.617188 -17.6875 62.734375 -17.6875 C 71.304688 -17.6875 78.039062 -19.367188 82.9375 -22.734375 C 87.84375 -26.109375 90.296875 -30.328125 90.296875 -35.390625 C 90.296875 -39.984375 88.492188 -43.617188 84.890625 -46.296875 C 81.296875 -48.984375 75.210938 -50.785156 66.640625 -51.703125 L 54.453125 -52.84375 C 41.742188 -54.226562 31.671875 -57.984375 24.234375 -64.109375 C 16.804688 -70.234375 13.09375 -78.503906 13.09375 -88.921875 C 13.09375 -97.191406 15.160156 -104.160156 19.296875 -109.828125 C 23.429688 -115.503906 29.132812 -119.875 36.40625 -122.9375 C 43.6875 -126 52.078125 -127.53125 61.578125 -127.53125 C 76.285156 -127.53125 88.15625 -124.273438 97.1875 -117.765625 C 106.226562 -111.253906 110.90625 -101.71875 111.21875 -89.15625 L 86.625 -89.15625 C 86.320312 -93.90625 84.101562 -97.882812 79.96875 -101.09375 C 75.832031 -104.3125 69.703125 -105.921875 61.578125 -105.921875 C 53.921875 -105.921875 48.0625 -104.390625 44 -101.328125 C 39.9375 -98.265625 37.90625 -94.359375 37.90625 -89.609375 C 37.90625 -85.328125 39.4375 -81.957031 42.5 -79.5 C 45.570312 -77.050781 50.550781 -75.441406 57.4375 -74.671875 L 69.625 -73.53125 C 83.5625 -72 94.628906 -68.128906 102.828125 -61.921875 C 111.023438 -55.722656 115.125 -47.109375 115.125 -36.078125 C 115.125 -28.109375 112.898438 -21.132812 108.453125 -15.15625 C 104.015625 -9.1875 97.847656 -4.554688 89.953125 -1.265625 C 82.066406 2.023438 72.914062 3.671875 62.5 3.671875 Z M 62.5 3.671875 "/></g></g><g style="fill:#000000;fill-opacity:1;"><g transform="translate(1185.833724, 342.760325)"><path style="stroke:none" d="M 73.53125 4.140625 C 62.957031 4.140625 53.722656 2.34375 45.828125 -1.25 C 37.941406 -4.851562 31.429688 -9.757812 26.296875 -15.96875 C 21.171875 -22.175781 17.34375 -29.070312 14.8125 -36.65625 C 12.289062 -44.238281 11.03125 -51.9375 11.03125 -59.75 L 11.03125 -63.875 C 11.03125 -72 12.332031 -79.851562 14.9375 -87.4375 C 17.539062 -95.019531 21.445312 -101.875 26.65625 -108 C 31.863281 -114.125 38.332031 -118.984375 46.0625 -122.578125 C 53.800781 -126.179688 62.878906 -127.984375 73.296875 -127.984375 C 83.867188 -127.984375 93.328125 -125.992188 101.671875 -122.015625 C 110.023438 -118.035156 116.726562 -112.40625 121.78125 -105.125 C 126.832031 -97.84375 129.664062 -89.378906 130.28125 -79.734375 L 104.328125 -79.734375 C 103.398438 -86.628906 100.296875 -92.453125 95.015625 -97.203125 C 89.734375 -101.953125 82.492188 -104.328125 73.296875 -104.328125 C 65.335938 -104.328125 58.75 -102.488281 53.53125 -98.8125 C 48.320312 -95.132812 44.414062 -90.113281 41.8125 -83.75 C 39.207031 -77.394531 37.90625 -70.082031 37.90625 -61.8125 C 37.90625 -53.84375 39.171875 -46.640625 41.703125 -40.203125 C 44.234375 -33.773438 48.140625 -28.722656 53.421875 -25.046875 C 58.710938 -21.367188 65.414062 -19.53125 73.53125 -19.53125 C 79.8125 -19.53125 85.210938 -20.640625 89.734375 -22.859375 C 94.253906 -25.078125 97.890625 -28.0625 100.640625 -31.8125 C 103.398438 -35.570312 105.007812 -39.90625 105.46875 -44.8125 L 131.671875 -44.8125 C 131.203125 -34.851562 128.363281 -26.234375 123.15625 -18.953125 C 117.945312 -11.679688 111.050781 -6.015625 102.46875 -1.953125 C 93.894531 2.109375 84.25 4.140625 73.53125 4.140625 Z M 73.53125 4.140625 "/></g></g><g style="fill:#000000;fill-opacity:1;"><g transform="translate(1325.537769, 342.760325)"><path style="stroke:none" d="M 19.765625 0 L 19.765625 -123.859375 L 41.125 -123.859375 L 41.125 -72.15625 L 40.21875 -72.15625 C 40.21875 -89.925781 44.125 -103.210938 51.9375 -112.015625 C 59.75 -120.828125 71.3125 -125.234375 86.625 -125.234375 L 91 -125.234375 L 91 -101.5625 L 82.71875 -101.5625 C 71.082031 -101.5625 62.160156 -98.457031 55.953125 -92.25 C 49.742188 -86.050781 46.640625 -77.207031 46.640625 -65.71875 L 46.640625 0 Z M 19.765625 0 "/></g></g><g style="fill:#000000;fill-opacity:1;"><g transform="translate(1420.665196, 342.760325)"><path style="stroke:none" d="M 25.734375 0 L 25.734375 -123.859375 L 52.625 -123.859375 L 52.625 0 Z M 7.578125 -103.171875 L 7.578125 -123.859375 L 52.625 -123.859375 L 52.625 -103.171875 Z M 34.46875 -141.078125 C 28.945312 -141.078125 24.847656 -142.53125 22.171875 -145.4375 C 19.492188 -148.351562 18.15625 -152.109375 18.15625 -156.703125 C 18.15625 -161.148438 19.492188 -164.863281 22.171875 -167.84375 C 24.847656 -170.832031 28.945312 -172.328125 34.46875 -172.328125 C 40.132812 -172.328125 44.304688 -170.832031 46.984375 -167.84375 C 49.671875 -164.863281 51.015625 -161.148438 51.015625 -156.703125 C 51.015625 -152.109375 49.671875 -148.351562 46.984375 -145.4375 C 44.304688 -142.53125 40.132812 -141.078125 34.46875 -141.078125 Z M 34.46875 -141.078125 "/></g></g><g style="fill:#000000;fill-opacity:1;"><g transform="translate(1493.504313, 342.760325)"><path style="stroke:none" d="M 19.765625 45.953125 L 19.765625 -123.859375 L 41.125 -123.859375 L 41.125 -70.3125 L 37 -70.546875 C 37.757812 -83.566406 40.515625 -94.285156 45.265625 -102.703125 C 50.015625 -111.128906 56.296875 -117.410156 64.109375 -121.546875 C 71.921875 -125.691406 80.5 -127.765625 89.84375 -127.765625 C 98.726562 -127.765625 106.769531 -126.113281 113.96875 -122.8125 C 121.164062 -119.519531 127.367188 -114.960938 132.578125 -109.140625 C 137.785156 -103.328125 141.726562 -96.585938 144.40625 -88.921875 C 147.09375 -81.265625 148.4375 -72.992188 148.4375 -64.109375 L 148.4375 -59.75 C 148.4375 -51.007812 147.054688 -42.769531 144.296875 -35.03125 C 141.546875 -27.300781 137.566406 -20.523438 132.359375 -14.703125 C 127.148438 -8.878906 120.941406 -4.28125 113.734375 -0.90625 C 106.535156 2.457031 98.492188 4.140625 89.609375 4.140625 C 80.578125 4.140625 72.15625 2.222656 64.34375 -1.609375 C 56.53125 -5.441406 50.09375 -11.566406 45.03125 -19.984375 C 39.976562 -28.410156 37.144531 -39.363281 36.53125 -52.84375 L 46.640625 -35.84375 L 46.640625 45.953125 Z M 83.875 -19.078125 C 91.375 -19.078125 97.957031 -20.875 103.625 -24.46875 C 109.300781 -28.070312 113.707031 -33.128906 116.84375 -39.640625 C 119.976562 -46.148438 121.546875 -53.617188 121.546875 -62.046875 C 121.546875 -70.460938 119.976562 -77.890625 116.84375 -84.328125 C 113.707031 -90.765625 109.34375 -95.78125 103.75 -99.375 C 98.15625 -102.976562 91.53125 -104.78125 83.875 -104.78125 C 77.132812 -104.78125 70.851562 -103.25 65.03125 -100.1875 C 59.207031 -97.125 54.53125 -92.71875 51 -86.96875 C 47.476562 -81.226562 45.71875 -74.296875 45.71875 -66.171875 L 45.71875 -56.296875 C 45.71875 -48.484375 47.519531 -41.78125 51.125 -36.1875 C 54.726562 -30.59375 59.4375 -26.34375 65.25 -23.4375 C 71.070312 -20.53125 77.28125 -19.078125 83.875 -19.078125 Z M 83.875 -19.078125 "/></g></g><g style="fill:#000000;fill-opacity:1;"><g transform="translate(1652.969198, 342.760325)"><path style="stroke:none" d="M 70.546875 1.375 C 60.273438 1.375 51.613281 0 44.5625 -2.75 C 37.519531 -5.507812 32.195312 -10.257812 28.59375 -17 C 25 -23.738281 23.203125 -32.851562 23.203125 -44.34375 L 23.203125 -159.921875 L 48.71875 -159.921875 L 48.71875 -42.046875 C 48.71875 -35.617188 50.4375 -30.679688 53.875 -27.234375 C 57.320312 -23.785156 62.1875 -22.0625 68.46875 -22.0625 L 89.15625 -22.0625 L 89.15625 1.375 Z M 2.75 -103.859375 L 2.75 -123.859375 L 89.15625 -123.859375 L 89.15625 -103.859375 Z M 2.75 -103.859375 "/></g></g></g></svg>