<svg xmlns="http://www.w3.org/2000/svg" xmlns:xlink="http://www.w3.org/1999/xlink" width="500" zoomAndPan="magnify" viewBox="0 0 375 374.999991" height="500" preserveAspectRatio="xMidYMid meet" version="1.2"><defs><clipPath id="c252607598"><path d="M 37.5 31.917969 L 345.472656 31.917969 L 345.472656 343.5 L 37.5 343.5 Z M 37.5 31.917969 "/></clipPath><clipPath id="aa82794599"><path d="M 42.75 31.917969 L 340.222656 31.917969 C 341.613281 31.917969 342.949219 32.46875 343.933594 33.457031 C 344.917969 34.441406 345.472656 35.773438 345.472656 37.167969 L 345.472656 337.832031 C 345.472656 339.226562 344.917969 340.558594 343.933594 341.542969 C 342.949219 342.53125 341.613281 343.082031 340.222656 343.082031 L 42.75 343.082031 C 41.359375 343.082031 40.023438 342.53125 39.039062 341.542969 C 38.054688 340.558594 37.5 339.226562 37.5 337.832031 L 37.5 37.167969 C 37.5 35.773438 38.054688 34.441406 39.039062 33.457031 C 40.023438 32.46875 41.359375 31.917969 42.75 31.917969 Z M 42.75 31.917969 "/></clipPath><clipPath id="cbdb2dc010"><path d="M 82.367188 136.117188 L 292.367188 136.117188 L 292.367188 238.867188 L 82.367188 238.867188 Z M 82.367188 136.117188 "/></clipPath></defs><g id="4a40e41f73"><g clip-rule="nonzero" clip-path="url(#c252607598)"><g clip-rule="nonzero" clip-path="url(#aa82794599)"><path style=" stroke:none;fill-rule:nonzero;fill:#c1ff72;fill-opacity:1;" d="M 37.5 31.917969 L 345.472656 31.917969 L 345.472656 343.5 L 37.5 343.5 Z M 37.5 31.917969 "/></g></g><g clip-rule="nonzero" clip-path="url(#cbdb2dc010)"><path style=" stroke:none;fill-rule:nonzero;fill:#0d0d0d;fill-opacity:1;" d="M 226.789062 136.117188 C 210.691406 136.117188 196.464844 143.8125 187.367188 155.710938 C 178.269531 143.8125 164.039062 136.117188 147.945312 136.117188 C 142.582031 136.117188 137.449219 137.050781 132.785156 138.683594 L 82.398438 138.683594 C 82.398438 151.511719 90.796875 162.476562 102.460938 165.972656 C 99.894531 172.039062 98.261719 178.804688 98.261719 185.800781 C 98.261719 213.328125 120.421875 235.484375 147.945312 235.484375 C 159.839844 235.484375 170.804688 231.289062 179.4375 224.054688 L 188.066406 238.75 L 196.230469 224.757812 C 204.628906 231.519531 215.359375 235.484375 226.789062 235.484375 C 254.3125 235.484375 276.472656 213.328125 276.472656 185.800781 C 276.472656 178.804688 275.074219 172.039062 272.273438 165.972656 C 283.9375 162.476562 292.335938 151.511719 292.335938 138.683594 L 242.183594 138.683594 C 237.285156 137.050781 232.152344 136.117188 226.789062 136.117188 Z M 262.246094 185.800781 C 262.246094 205.394531 246.382812 221.257812 226.789062 221.257812 C 215.589844 221.257812 205.5625 216.125 198.796875 207.261719 L 187.367188 192.332031 L 175.9375 207.261719 C 169.171875 216.125 158.910156 221.257812 147.945312 221.257812 C 128.351562 221.257812 112.488281 205.394531 112.488281 185.800781 C 112.488281 166.207031 128.351562 150.34375 147.945312 150.34375 C 159.140625 150.34375 169.171875 155.476562 175.9375 164.339844 L 187.367188 179.269531 L 198.796875 164.339844 C 205.5625 155.476562 215.824219 150.34375 226.789062 150.34375 C 246.382812 150.34375 262.246094 166.207031 262.246094 185.800781 Z M 262.246094 185.800781 "/></g><path style=" stroke:none;fill-rule:nonzero;fill:#0d0d0d;fill-opacity:1;" d="M 161.476562 185.800781 C 161.476562 186.691406 161.386719 187.570312 161.214844 188.441406 C 161.042969 189.3125 160.785156 190.15625 160.445312 190.980469 C 160.105469 191.800781 159.6875 192.578125 159.195312 193.316406 C 158.699219 194.054688 158.140625 194.738281 157.511719 195.367188 C 156.882812 195.996094 156.199219 196.558594 155.460938 197.050781 C 154.722656 197.542969 153.945312 197.960938 153.121094 198.300781 C 152.300781 198.640625 151.457031 198.898438 150.585938 199.070312 C 149.714844 199.242188 148.832031 199.332031 147.945312 199.332031 C 147.058594 199.332031 146.175781 199.242188 145.304688 199.070312 C 144.433594 198.898438 143.589844 198.640625 142.769531 198.300781 C 141.945312 197.960938 141.167969 197.542969 140.429688 197.050781 C 139.691406 196.558594 139.007812 195.996094 138.378906 195.367188 C 137.75 194.738281 137.191406 194.054688 136.695312 193.316406 C 136.203125 192.578125 135.785156 191.800781 135.445312 190.980469 C 135.105469 190.15625 134.847656 189.3125 134.675781 188.441406 C 134.503906 187.570312 134.417969 186.691406 134.417969 185.800781 C 134.417969 184.914062 134.503906 184.03125 134.675781 183.160156 C 134.847656 182.289062 135.105469 181.445312 135.445312 180.625 C 135.785156 179.804688 136.203125 179.023438 136.695312 178.285156 C 137.191406 177.546875 137.75 176.863281 138.378906 176.234375 C 139.007812 175.605469 139.691406 175.046875 140.429688 174.550781 C 141.167969 174.058594 141.945312 173.640625 142.769531 173.300781 C 143.589844 172.960938 144.433594 172.707031 145.304688 172.53125 C 146.175781 172.359375 147.058594 172.273438 147.945312 172.273438 C 148.832031 172.273438 149.714844 172.359375 150.585938 172.53125 C 151.457031 172.707031 152.300781 172.960938 153.121094 173.300781 C 153.945312 173.640625 154.722656 174.058594 155.460938 174.550781 C 156.199219 175.046875 156.882812 175.605469 157.511719 176.234375 C 158.140625 176.863281 158.699219 177.546875 159.195312 178.285156 C 159.6875 179.023438 160.105469 179.804688 160.445312 180.625 C 160.785156 181.445312 161.042969 182.289062 161.214844 183.160156 C 161.386719 184.03125 161.476562 184.914062 161.476562 185.800781 Z M 161.476562 185.800781 "/><path style=" stroke:none;fill-rule:nonzero;fill:#0d0d0d;fill-opacity:1;" d="M 240.316406 185.800781 C 240.316406 186.691406 240.230469 187.570312 240.058594 188.441406 C 239.882812 189.3125 239.628906 190.15625 239.289062 190.980469 C 238.949219 191.800781 238.53125 192.578125 238.039062 193.316406 C 237.542969 194.054688 236.984375 194.738281 236.355469 195.367188 C 235.726562 195.996094 235.042969 196.558594 234.304688 197.050781 C 233.566406 197.542969 232.785156 197.960938 231.964844 198.300781 C 231.144531 198.640625 230.300781 198.898438 229.425781 199.070312 C 228.554688 199.242188 227.675781 199.332031 226.789062 199.332031 C 225.898438 199.332031 225.019531 199.242188 224.148438 199.070312 C 223.277344 198.898438 222.429688 198.640625 221.609375 198.300781 C 220.789062 197.960938 220.011719 197.542969 219.273438 197.050781 C 218.53125 196.558594 217.851562 195.996094 217.222656 195.367188 C 216.59375 194.738281 216.03125 194.054688 215.539062 193.316406 C 215.046875 192.578125 214.628906 191.800781 214.289062 190.980469 C 213.949219 190.15625 213.691406 189.3125 213.519531 188.441406 C 213.34375 187.570312 213.257812 186.691406 213.257812 185.800781 C 213.257812 184.914062 213.34375 184.03125 213.519531 183.160156 C 213.691406 182.289062 213.949219 181.445312 214.289062 180.625 C 214.628906 179.804688 215.046875 179.023438 215.539062 178.285156 C 216.03125 177.546875 216.59375 176.863281 217.222656 176.234375 C 217.851562 175.605469 218.53125 175.046875 219.273438 174.550781 C 220.011719 174.058594 220.789062 173.640625 221.609375 173.300781 C 222.429688 172.960938 223.277344 172.707031 224.148438 172.53125 C 225.019531 172.359375 225.898438 172.273438 226.789062 172.273438 C 227.675781 172.273438 228.554688 172.359375 229.425781 172.53125 C 230.300781 172.707031 231.144531 172.960938 231.964844 173.300781 C 232.785156 173.640625 233.566406 174.058594 234.304688 174.550781 C 235.042969 175.046875 235.726562 175.605469 236.355469 176.234375 C 236.984375 176.863281 237.542969 177.546875 238.039062 178.285156 C 238.53125 179.023438 238.949219 179.804688 239.289062 180.625 C 239.628906 181.445312 239.882812 182.289062 240.058594 183.160156 C 240.230469 184.03125 240.316406 184.914062 240.316406 185.800781 Z M 240.316406 185.800781 "/></g></svg>