<svg xmlns="http://www.w3.org/2000/svg" xmlns:xlink="http://www.w3.org/1999/xlink" width="1080" zoomAndPan="magnify" viewBox="0 0 810 809.999993" height="1080" preserveAspectRatio="xMidYMid meet" version="1.0"><defs><g/><clipPath id="059456b5db"><path d="M 338.882812 428.996094 L 436.03125 428.996094 L 436.03125 543.980469 L 338.882812 543.980469 Z M 338.882812 428.996094 " clip-rule="nonzero"/></clipPath><clipPath id="48588140f1"><path d="M 387.457031 428.996094 C 360.632812 428.996094 338.882812 454.722656 338.882812 486.453125 C 338.882812 518.1875 360.632812 543.914062 387.457031 543.914062 C 414.285156 543.914062 436.03125 518.1875 436.03125 486.453125 C 436.03125 454.722656 414.285156 428.996094 387.457031 428.996094 Z M 387.457031 428.996094 " clip-rule="nonzero"/></clipPath></defs><rect x="-81" width="972" fill="#ffffff" y="-80.999999" height="971.999992" fill-opacity="1"/><rect x="-81" width="972" fill="#030333" y="-80.999999" height="971.999992" fill-opacity="1"/><g fill="#ffffff" fill-opacity="1"><g transform="translate(157.506836, 693.821113)"><g><path d="M 226.953125 -433.546875 C 257.734375 -433.546875 284.335938 -427.9375 306.765625 -416.71875 C 329.203125 -405.5 349.289062 -386.328125 367.03125 -359.203125 L 369.375 -359.203125 C 367.8125 -392.066406 367.03125 -424.28125 367.03125 -455.84375 L 367.03125 -608.84375 L 405.375 -608.84375 L 405.375 0 L 379.9375 0 L 370.15625 -64.953125 L 367.03125 -64.953125 C 334.6875 -16.429688 288.253906 7.828125 227.734375 7.828125 C 169.035156 7.828125 124.164062 -10.429688 93.125 -46.953125 C 62.082031 -83.472656 46.5625 -136.6875 46.5625 -206.59375 C 46.5625 -280.15625 61.953125 -336.367188 92.734375 -375.234375 C 123.515625 -414.109375 168.253906 -433.546875 226.953125 -433.546875 Z M 226.953125 -398.328125 C 180.515625 -398.328125 145.617188 -382.023438 122.265625 -349.421875 C 98.921875 -316.816406 87.25 -269.472656 87.25 -207.390625 C 87.25 -86.867188 134.078125 -26.609375 227.734375 -26.609375 C 275.734375 -26.609375 310.945312 -40.5625 333.375 -68.46875 C 355.8125 -96.382812 367.03125 -142.425781 367.03125 -206.59375 L 367.03125 -213.25 C 367.03125 -278.988281 356.007812 -326.269531 333.96875 -355.09375 C 311.925781 -383.914062 276.253906 -398.328125 226.953125 -398.328125 Z M 226.953125 -398.328125 "/></g></g></g><g clip-path="url(#059456b5db)"><g clip-path="url(#48588140f1)"><path fill="#ffdc5d" d="M 338.882812 428.996094 L 436.03125 428.996094 L 436.03125 543.980469 L 338.882812 543.980469 Z M 338.882812 428.996094 " fill-opacity="1" fill-rule="nonzero"/></g></g></svg>