<svg xmlns="http://www.w3.org/2000/svg" xmlns:xlink="http://www.w3.org/1999/xlink" width="1920" zoomAndPan="magnify" viewBox="0 0 1440 809.999993" height="1080" preserveAspectRatio="xMidYMid meet" version="1.2"><defs><clipPath id="e0e9fe892c"><path d="M 93.203125 150.679688 L 881.453125 150.679688 L 881.453125 667.429688 L 93.203125 667.429688 Z M 93.203125 150.679688 "/></clipPath><clipPath id="10fd7896a5"><path d="M 112 0.679688 L 476 0.679688 L 476 221 L 112 221 Z M 112 0.679688 "/></clipPath><clipPath id="80fef399d7"><path d="M 348 389 L 376 389 L 376 517.429688 L 348 517.429688 Z M 348 389 "/></clipPath><clipPath id="76d866ce5e"><path d="M 0.203125 514 L 788.371094 514 L 788.371094 517.429688 L 0.203125 517.429688 Z M 0.203125 514 "/></clipPath><clipPath id="b466a1a9de"><path d="M 40 301 L 227 301 L 227 517.429688 L 40 517.429688 Z M 40 301 "/></clipPath><clipPath id="00878e894d"><path d="M 91 459 L 172 459 L 172 517.429688 L 91 517.429688 Z M 91 459 "/></clipPath><clipPath id="d1387814c1"><rect x="0" width="789" y="0" height="518"/></clipPath></defs><g id="afe1f7115f"><rect x="0" width="1440" y="0" height="809.999993" style="fill:#ffffff;fill-opacity:1;stroke:none;"/><rect x="0" width="1440" y="0" height="809.999993" style="fill:#e4e5e5;fill-opacity:1;stroke:none;"/><g clip-rule="nonzero" clip-path="url(#e0e9fe892c)"><g transform="matrix(1,0,0,1,93,150)"><g clip-path="url(#d1387814c1)"><path style=" stroke:none;fill-rule:nonzero;fill:#000000;fill-opacity:1;" d="M 435.804688 124.164062 C 436.519531 124.164062 437.101562 123.582031 437.101562 122.871094 C 437.101562 122.160156 436.519531 121.574219 435.804688 121.574219 L 379.382812 121.574219 C 378.835938 121.574219 378.359375 121.933594 378.175781 122.417969 L 355.480469 174.03125 C 355.191406 174.679688 355.492188 175.445312 356.140625 175.734375 C 356.796875 176.015625 357.5625 175.722656 357.84375 175.066406 L 380.226562 124.164062 Z M 435.804688 124.164062 "/><path style=" stroke:none;fill-rule:nonzero;fill:#000000;fill-opacity:1;" d="M 378.390625 123.703125 C 378.855469 124.25 379.664062 124.316406 380.214844 123.863281 C 380.765625 123.410156 380.828125 122.589844 380.375 122.039062 L 344.179688 78.746094 C 343.726562 78.207031 342.90625 78.128906 342.355469 78.582031 C 341.816406 79.046875 341.742188 79.855469 342.195312 80.40625 Z M 378.390625 123.703125 "/><path style=" stroke:none;fill-rule:nonzero;fill:#000000;fill-opacity:1;" d="M 375.933594 129.277344 C 376.386719 129.828125 377.195312 129.90625 377.746094 129.453125 C 378.292969 129 378.382812 128.191406 377.929688 127.640625 L 340.445312 82.1875 C 339.992188 81.636719 339.183594 81.550781 338.632812 82.003906 C 338.085938 82.457031 337.996094 83.277344 338.449219 83.828125 Z M 375.933594 129.277344 "/><path style=" stroke:none;fill-rule:nonzero;fill:#000000;fill-opacity:1;" d="M 373.59375 134.609375 C 374.054688 135.160156 374.863281 135.234375 375.414062 134.769531 C 375.953125 134.316406 376.03125 133.507812 375.578125 132.957031 L 336.757812 86.253906 C 336.292969 85.703125 335.484375 85.628906 334.933594 86.082031 C 334.394531 86.546875 334.320312 87.355469 334.773438 87.90625 Z M 373.59375 134.609375 "/><path style=" stroke:none;fill-rule:nonzero;fill:#000000;fill-opacity:1;" d="M 371.273438 139.925781 C 371.726562 140.46875 372.546875 140.542969 373.085938 140.078125 C 373.636719 139.613281 373.699219 138.804688 373.234375 138.253906 L 333.25 90.980469 C 332.789062 90.441406 331.980469 90.375 331.429688 90.828125 C 330.890625 91.292969 330.8125 92.113281 331.277344 92.652344 Z M 371.273438 139.925781 "/><path style=" stroke:none;fill-rule:nonzero;fill:#000000;fill-opacity:1;" d="M 369.136719 144.792969 C 369.601562 145.332031 370.421875 145.398438 370.960938 144.933594 C 371.5 144.457031 371.554688 143.648438 371.089844 143.109375 L 330.328125 95.921875 C 329.863281 95.382812 329.046875 95.316406 328.507812 95.792969 C 327.964844 96.253906 327.914062 97.0625 328.375 97.605469 Z M 369.136719 144.792969 "/><path style=" stroke:none;fill-rule:nonzero;fill:#000000;fill-opacity:1;" d="M 367.054688 149.5625 C 367.519531 150.089844 368.339844 150.144531 368.878906 149.679688 C 369.40625 149.207031 369.460938 148.398438 368.996094 147.855469 L 328.011719 100.914062 C 327.546875 100.375 326.726562 100.324219 326.1875 100.796875 C 325.660156 101.261719 325.605469 102.082031 326.066406 102.609375 Z M 367.054688 149.5625 "/><path style=" stroke:none;fill-rule:nonzero;fill:#000000;fill-opacity:1;" d="M 364.855469 154.578125 C 365.320312 155.105469 366.140625 155.160156 366.679688 154.6875 C 367.207031 154.222656 367.261719 153.402344 366.796875 152.863281 L 326.078125 106.558594 C 325.605469 106.019531 324.785156 105.976562 324.246094 106.441406 C 323.71875 106.914062 323.664062 107.734375 324.136719 108.261719 Z M 364.855469 154.578125 "/><path style=" stroke:none;fill-rule:nonzero;fill:#000000;fill-opacity:1;" d="M 362.847656 159.152344 C 363.324219 159.683594 364.144531 159.726562 364.671875 159.25 C 365.210938 158.773438 365.253906 157.957031 364.769531 157.425781 L 324.667969 112.816406 C 324.191406 112.285156 323.371094 112.242188 322.84375 112.71875 C 322.316406 113.191406 322.273438 114.011719 322.746094 114.542969 Z M 362.847656 159.152344 "/><path style=" stroke:none;fill-rule:nonzero;fill:#000000;fill-opacity:1;" d="M 360.898438 163.683594 C 361.382812 164.203125 362.203125 164.222656 362.71875 163.738281 C 363.238281 163.242188 363.257812 162.421875 362.761719 161.902344 L 323.910156 120.929688 C 323.414062 120.410156 322.59375 120.390625 322.078125 120.875 C 321.558594 121.371094 321.550781 122.191406 322.035156 122.707031 Z M 360.898438 163.683594 "/><path style=" stroke:none;fill-rule:nonzero;fill:#000000;fill-opacity:1;" d="M 358.511719 169.109375 C 359 169.628906 359.816406 169.648438 360.335938 169.152344 C 360.855469 168.667969 360.875 167.847656 360.378906 167.332031 L 324.40625 129.601562 C 323.910156 129.085938 323.101562 129.0625 322.585938 129.558594 C 322.066406 130.046875 322.046875 130.863281 322.542969 131.382812 Z M 358.511719 169.109375 "/><path style=" stroke:none;fill-rule:nonzero;fill:#000000;fill-opacity:1;" d="M 355.71875 175.433594 C 356.214844 175.949219 357.023438 175.972656 357.554688 175.488281 C 358.070312 175 358.09375 174.179688 357.605469 173.664062 L 327.40625 141.609375 C 326.921875 141.09375 326.101562 141.058594 325.582031 141.558594 C 325.066406 142.042969 325.03125 142.863281 325.527344 143.378906 Z M 355.71875 175.433594 "/><path style=" stroke:none;fill-rule:evenodd;fill:#000000;fill-opacity:1;" d="M 383.117188 115.394531 L 346.929688 72.097656 C 356.722656 63.898438 369.34375 58.957031 383.117188 58.957031 C 414.277344 58.957031 439.550781 84.226562 439.550781 115.394531 Z M 383.117188 115.394531 "/><path style=" stroke:none;fill-rule:nonzero;fill:#000000;fill-opacity:1;" d="M 437.101562 122.871094 C 437.101562 122.160156 436.519531 121.585938 435.804688 121.585938 C 435.09375 121.585938 434.523438 122.160156 434.523438 122.871094 C 434.523438 135.65625 430.132812 147.609375 422.625 157.09375 C 415.128906 166.574219 404.515625 173.609375 392.070312 176.542969 C 379.621094 179.488281 366.992188 177.96875 356.03125 172.84375 C 345.085938 167.71875 335.796875 159.011719 330.082031 147.578125 C 324.351562 136.140625 322.941406 123.496094 325.398438 111.652344 C 327.859375 99.804688 334.210938 88.769531 344.015625 80.566406 C 344.566406 80.113281 344.632812 79.296875 344.179688 78.746094 C 343.726562 78.207031 342.90625 78.128906 342.355469 78.582031 C 332.097656 87.171875 325.453125 98.726562 322.875 111.121094 C 320.296875 123.519531 321.777344 136.753906 327.773438 148.730469 C 333.769531 160.695312 343.476562 169.824219 354.941406 175.183594 C 366.417969 180.546875 379.644531 182.144531 392.660156 179.070312 C 405.679688 175.984375 416.789062 168.625 424.644531 158.699219 C 432.503906 148.761719 437.101562 136.257812 437.101562 122.871094 Z M 437.101562 122.871094 "/><path style=" stroke:none;fill-rule:nonzero;fill:#000000;fill-opacity:1;" d="M 172.300781 89.804688 C 171.589844 89.804688 171.007812 90.386719 171.007812 91.097656 C 171.007812 91.820312 171.589844 92.394531 172.300781 92.394531 L 246.660156 92.394531 C 247.371094 92.394531 247.957031 91.820312 247.957031 91.097656 C 247.957031 90.386719 247.371094 89.804688 246.660156 89.804688 Z M 172.300781 89.804688 "/><path style=" stroke:none;fill-rule:nonzero;fill:#000000;fill-opacity:1;" d="M 204.5625 114.445312 L 229.75 114.445312 C 234.128906 113.734375 238.636719 113.710938 243.113281 114.445312 L 287.765625 114.445312 C 288.480469 114.445312 289.0625 113.871094 289.0625 113.148438 C 289.0625 112.4375 288.480469 111.855469 287.765625 111.855469 L 202.621094 111.855469 C 203.289062 112.707031 203.9375 113.570312 204.5625 114.445312 Z M 204.5625 114.445312 "/><path style=" stroke:none;fill-rule:nonzero;fill:#000000;fill-opacity:1;" d="M 276.183594 142.691406 C 276.03125 142.691406 275.878906 142.722656 275.742188 142.777344 C 276.011719 143.597656 276.238281 144.4375 276.453125 145.277344 L 294.488281 145.277344 C 295.210938 145.277344 295.78125 144.707031 295.78125 143.984375 C 295.78125 143.273438 295.210938 142.691406 294.488281 142.691406 Z M 276.183594 142.691406 "/><g clip-rule="nonzero" clip-path="url(#10fd7896a5)"><path style=" stroke:none;fill-rule:nonzero;fill:#000000;fill-opacity:1;" d="M 452.425781 0.882812 L 136.308594 0.882812 C 129.835938 0.882812 123.957031 3.527344 119.699219 7.796875 C 115.425781 12.058594 112.785156 17.941406 112.785156 24.414062 L 112.785156 117.550781 C 113.59375 116.214844 114.457031 114.917969 115.371094 113.679688 L 115.371094 24.414062 C 115.371094 18.664062 117.734375 13.417969 121.519531 9.621094 C 125.316406 5.824219 130.558594 3.472656 136.308594 3.472656 L 452.429688 3.472656 C 458.1875 3.472656 463.417969 5.824219 467.214844 9.621094 C 471.011719 13.417969 473.375 18.664062 473.375 24.414062 L 473.375 197.085938 C 473.375 202.847656 471.011719 208.078125 467.214844 211.878906 C 463.417969 215.675781 458.1875 218.039062 452.429688 218.039062 L 271.71875 218.039062 C 271.738281 218.902344 271.761719 219.765625 271.792969 220.625 L 452.429688 220.625 C 458.898438 220.625 464.789062 217.972656 469.050781 213.710938 C 473.308594 209.449219 475.964844 203.558594 475.964844 197.085938 L 475.964844 24.414062 C 475.964844 17.941406 473.308594 12.058594 469.050781 7.796875 C 464.789062 3.527344 458.898438 0.882812 452.429688 0.882812 Z M 452.425781 0.882812 "/></g><path style=" stroke:none;fill-rule:nonzero;fill:#000000;fill-opacity:1;" d="M 392.304688 34.316406 C 393.019531 34.316406 393.601562 33.734375 393.601562 33.023438 C 393.601562 32.300781 393.019531 31.726562 392.304688 31.726562 L 114.078125 31.726562 C 113.367188 31.726562 112.785156 32.300781 112.785156 33.023438 C 112.785156 33.734375 113.367188 34.316406 114.078125 34.316406 Z M 392.304688 34.316406 "/><path style=" stroke:none;fill-rule:evenodd;fill:#000000;fill-opacity:1;" d="M 192.730469 13.582031 C 190.519531 13.582031 188.71875 15.382812 188.71875 17.59375 C 188.71875 19.816406 190.519531 21.609375 192.730469 21.609375 C 194.953125 21.609375 196.742188 19.816406 196.742188 17.59375 C 196.742188 15.382812 194.953125 13.582031 192.730469 13.582031 Z M 192.730469 13.582031 "/><path style=" stroke:none;fill-rule:evenodd;fill:#000000;fill-opacity:1;" d="M 172.464844 13.582031 C 170.242188 13.582031 168.449219 15.382812 168.449219 17.59375 C 168.449219 19.816406 170.242188 21.609375 172.464844 21.609375 C 174.675781 21.609375 176.476562 19.816406 176.476562 17.59375 C 176.476562 15.382812 174.675781 13.582031 172.464844 13.582031 Z M 172.464844 13.582031 "/><path style=" stroke:none;fill-rule:evenodd;fill:#000000;fill-opacity:1;" d="M 152.183594 13.582031 C 149.972656 13.582031 148.171875 15.382812 148.171875 17.59375 C 148.171875 19.816406 149.972656 21.609375 152.183594 21.609375 C 154.40625 21.609375 156.199219 19.816406 156.199219 17.59375 C 156.199219 15.382812 154.40625 13.582031 152.183594 13.582031 Z M 152.183594 13.582031 "/><path style=" stroke:none;fill-rule:nonzero;fill:#000000;fill-opacity:1;" d="M 460.300781 34.316406 C 461.023438 34.316406 461.597656 33.734375 461.597656 33.023438 C 461.597656 32.300781 461.023438 31.726562 460.300781 31.726562 L 413.847656 31.726562 C 413.132812 31.726562 412.550781 32.300781 412.550781 33.023438 C 412.550781 33.734375 413.132812 34.316406 413.847656 34.316406 Z M 460.300781 34.316406 "/><path style=" stroke:none;fill-rule:nonzero;fill:#000000;fill-opacity:1;" d="M 754.503906 294.648438 C 755.214844 294.648438 755.796875 294.074219 755.796875 293.351562 C 755.796875 292.640625 755.214844 292.058594 754.503906 292.058594 L 706.808594 292.058594 C 706.097656 292.058594 705.511719 292.640625 705.511719 293.351562 C 705.511719 294.074219 706.097656 294.648438 706.808594 294.648438 Z M 754.503906 294.648438 "/><path style=" stroke:none;fill-rule:nonzero;fill:#000000;fill-opacity:1;" d="M 765.042969 308.792969 C 765.765625 308.792969 766.335938 308.21875 766.335938 307.496094 C 766.335938 306.785156 765.765625 306.203125 765.042969 306.203125 L 680.445312 306.203125 C 679.734375 306.203125 679.152344 306.785156 679.152344 307.496094 C 679.152344 308.21875 679.734375 308.792969 680.445312 308.792969 Z M 765.042969 308.792969 "/><path style=" stroke:none;fill-rule:nonzero;fill:#000000;fill-opacity:1;" d="M 766.121094 325.882812 C 766.84375 325.882812 767.414062 325.308594 767.414062 324.585938 C 767.414062 323.875 766.84375 323.292969 766.121094 323.292969 L 723.589844 323.292969 C 722.867188 323.292969 722.296875 323.875 722.296875 324.585938 C 722.296875 325.308594 722.867188 325.882812 723.589844 325.882812 Z M 766.121094 325.882812 "/><path style=" stroke:none;fill-rule:nonzero;fill:#000000;fill-opacity:1;" d="M 711.609375 325.882812 C 712.320312 325.882812 712.902344 325.308594 712.902344 324.585938 C 712.902344 323.875 712.320312 323.292969 711.609375 323.292969 L 699.863281 323.292969 C 699.148438 323.292969 698.566406 323.875 698.566406 324.585938 C 698.566406 325.308594 699.148438 325.882812 699.863281 325.882812 Z M 711.609375 325.882812 "/><path style=" stroke:none;fill-rule:nonzero;fill:#000000;fill-opacity:1;" d="M 687.878906 325.882812 C 688.589844 325.882812 689.171875 325.308594 689.171875 324.585938 C 689.171875 323.875 688.589844 323.292969 687.878906 323.292969 L 676.144531 323.292969 C 675.421875 323.292969 674.847656 323.875 674.847656 324.585938 C 674.847656 325.308594 675.421875 325.882812 676.144531 325.882812 Z M 687.878906 325.882812 "/><path style=" stroke:none;fill-rule:nonzero;fill:#000000;fill-opacity:1;" d="M 660.40625 267.945312 L 568.757812 267.945312 C 568.171875 267.945312 567.710938 268.421875 567.710938 269.003906 L 567.710938 303.203125 L 569.8125 299.363281 L 569.8125 291.25 L 574.269531 291.25 L 575.421875 289.144531 L 569.8125 289.144531 L 569.8125 280.589844 L 579.421875 280.589844 L 579.421875 285.378906 C 579.511719 285.359375 579.605469 285.347656 579.703125 285.328125 C 580.328125 285.230469 580.945312 285.238281 581.527344 285.371094 L 581.527344 280.589844 L 590.792969 280.589844 L 590.792969 289.144531 L 586.5625 289.144531 L 588.808594 291.25 L 590.792969 291.25 L 590.792969 292.351562 L 592.894531 288.402344 L 592.894531 280.589844 L 597.058594 280.589844 L 598.179688 278.488281 L 592.894531 278.488281 L 592.894531 270.050781 L 602.160156 270.050781 L 602.160156 274.710938 C 602.613281 274.613281 603.089844 274.582031 603.574219 274.613281 C 603.8125 274.636719 604.039062 274.667969 604.265625 274.710938 L 604.265625 270.050781 L 613.53125 270.050781 L 613.53125 278.488281 L 608.070312 278.488281 L 608.828125 280.589844 L 613.53125 280.589844 L 613.53125 289.144531 L 611.859375 289.144531 L 612.613281 291.25 L 613.53125 291.25 L 613.53125 293.828125 L 615.480469 299.339844 L 615.632812 299.058594 L 615.632812 291.25 L 619.796875 291.25 L 620.917969 289.144531 L 615.632812 289.144531 L 615.632812 280.589844 L 624.898438 280.589844 L 624.898438 285.371094 C 625.230469 285.304688 625.589844 285.273438 625.945312 285.273438 C 626.3125 285.273438 626.667969 285.304688 627 285.371094 L 627 280.589844 L 636.265625 280.589844 L 636.265625 289.144531 L 630.980469 289.144531 L 632.101562 291.25 L 636.265625 291.25 L 636.265625 299.058594 L 638.371094 303.019531 L 638.371094 301.917969 L 647.636719 301.917969 L 647.636719 306.589844 L 648.679688 306.589844 C 649.046875 306.589844 649.402344 306.632812 649.738281 306.699219 L 649.738281 301.917969 L 659.347656 301.917969 L 659.347656 310.476562 L 654.863281 310.476562 L 657.171875 312.578125 L 659.347656 312.578125 L 659.347656 314.5625 L 661.453125 316.484375 L 661.453125 269.003906 C 661.453125 268.421875 660.976562 267.945312 660.40625 267.945312 Z M 567.710938 316.34375 L 567.710938 354.0625 C 567.710938 354.644531 568.171875 355.117188 568.757812 355.117188 L 660.40625 355.117188 C 660.976562 355.117188 661.453125 354.644531 661.453125 354.0625 L 661.453125 327.015625 C 660.761719 327.164062 660.039062 327.164062 659.347656 327.015625 L 659.347656 331.804688 L 649.738281 331.804688 L 649.738281 323.25 L 654.226562 323.25 L 651.917969 321.144531 L 649.738281 321.144531 L 649.738281 319.160156 L 647.636719 317.238281 L 647.636719 321.144531 L 638.371094 321.144531 L 638.371094 316.460938 L 637.3125 316.460938 C 636.957031 316.460938 636.601562 316.429688 636.265625 316.355469 L 636.265625 321.144531 L 627 321.144531 L 627 312.578125 L 632.285156 312.578125 L 631.164062 310.476562 L 627 310.476562 L 627 302.664062 L 625.945312 300.691406 L 624.898438 302.664062 L 624.898438 310.476562 L 620.734375 310.476562 L 619.613281 312.578125 L 624.898438 312.578125 L 624.898438 321.144531 L 615.632812 321.144531 L 615.632812 316.355469 C 615.179688 316.453125 614.703125 316.484375 614.207031 316.453125 C 613.980469 316.429688 613.746094 316.398438 613.527344 316.355469 L 613.527344 321.144531 L 604.265625 321.144531 L 604.265625 312.578125 L 609.722656 312.578125 L 608.964844 310.476562 L 604.265625 310.476562 L 604.265625 301.917969 L 605.925781 301.917969 L 605.179688 299.816406 L 604.265625 299.816406 L 604.265625 297.238281 L 602.300781 291.722656 L 602.160156 292.003906 L 602.160156 299.816406 L 597.996094 299.816406 L 596.875 301.917969 L 602.160156 301.917969 L 602.160156 310.476562 L 592.894531 310.476562 L 592.894531 305.683594 C 592.808594 305.707031 592.734375 305.71875 592.648438 305.738281 C 592 305.835938 591.386719 305.824219 590.792969 305.707031 L 590.792969 310.476562 L 581.527344 310.476562 L 581.527344 301.917969 L 585.753906 301.917969 L 583.511719 299.816406 L 581.527344 299.816406 L 581.527344 298.53125 L 579.421875 302.363281 L 579.421875 310.476562 L 574.96875 310.476562 L 573.804688 312.578125 L 579.421875 312.578125 L 579.421875 321.144531 L 569.8125 321.144531 L 569.8125 316.34375 C 569.121094 316.496094 568.410156 316.503906 567.710938 316.34375 Z M 581.527344 353.003906 L 581.527344 344.578125 L 590.792969 344.578125 L 590.792969 353.003906 Z M 581.527344 342.464844 L 581.527344 333.90625 L 590.792969 333.90625 L 590.792969 342.464844 Z M 581.527344 331.804688 L 581.527344 323.25 L 590.792969 323.25 L 590.792969 331.804688 Z M 581.527344 321.144531 L 581.527344 312.578125 L 590.792969 312.578125 L 590.792969 321.144531 Z M 581.527344 278.488281 L 581.527344 270.050781 L 590.792969 270.050781 L 590.792969 278.488281 Z M 579.421875 270.050781 L 579.421875 278.488281 L 569.8125 278.488281 L 569.8125 270.050781 Z M 579.421875 323.25 L 579.421875 331.804688 L 569.8125 331.804688 L 569.8125 323.25 Z M 579.421875 333.90625 L 579.421875 342.464844 L 569.8125 342.464844 L 569.8125 333.90625 Z M 579.421875 344.578125 L 579.421875 353.003906 L 569.8125 353.003906 L 569.8125 344.578125 Z M 592.894531 353.003906 L 592.894531 344.578125 L 602.160156 344.578125 L 602.160156 353.003906 Z M 592.894531 342.464844 L 592.894531 333.90625 L 602.160156 333.90625 L 602.160156 342.464844 Z M 592.894531 331.804688 L 592.894531 323.25 L 602.160156 323.25 L 602.160156 331.804688 Z M 592.894531 321.144531 L 592.894531 312.578125 L 602.160156 312.578125 L 602.160156 321.144531 Z M 604.265625 353.003906 L 604.265625 344.578125 L 613.527344 344.578125 L 613.527344 353.003906 Z M 604.265625 342.464844 L 604.265625 333.90625 L 613.527344 333.90625 L 613.527344 342.464844 Z M 604.265625 331.804688 L 604.265625 323.25 L 613.527344 323.25 L 613.527344 331.804688 Z M 615.632812 353.003906 L 615.632812 344.578125 L 624.898438 344.578125 L 624.898438 353.003906 Z M 615.632812 342.464844 L 615.632812 333.90625 L 624.898438 333.90625 L 624.898438 342.464844 Z M 615.632812 331.804688 L 615.632812 323.25 L 624.898438 323.25 L 624.898438 331.804688 Z M 615.632812 278.488281 L 615.632812 270.050781 L 624.898438 270.050781 L 624.898438 278.488281 Z M 627 353.003906 L 627 344.578125 L 636.265625 344.578125 L 636.265625 353.003906 Z M 627 342.464844 L 627 333.90625 L 636.265625 333.90625 L 636.265625 342.464844 Z M 627 331.804688 L 627 323.25 L 636.265625 323.25 L 636.265625 331.804688 Z M 627 278.488281 L 627 270.050781 L 636.265625 270.050781 L 636.265625 278.488281 Z M 638.371094 353.003906 L 638.371094 344.578125 L 647.636719 344.578125 L 647.636719 353.003906 Z M 638.371094 342.464844 L 638.371094 333.90625 L 647.636719 333.90625 L 647.636719 342.464844 Z M 638.371094 331.804688 L 638.371094 323.25 L 647.636719 323.25 L 647.636719 331.804688 Z M 638.371094 299.816406 L 638.371094 291.25 L 647.636719 291.25 L 647.636719 299.816406 Z M 638.371094 289.144531 L 638.371094 280.589844 L 647.636719 280.589844 L 647.636719 289.144531 Z M 638.371094 278.488281 L 638.371094 270.050781 L 647.636719 270.050781 L 647.636719 278.488281 Z M 649.738281 353.003906 L 649.738281 344.578125 L 659.347656 344.578125 L 659.347656 353.003906 Z M 649.738281 342.464844 L 649.738281 333.90625 L 659.347656 333.90625 L 659.347656 342.464844 Z M 649.738281 299.816406 L 649.738281 291.25 L 659.347656 291.25 L 659.347656 299.816406 Z M 649.738281 289.144531 L 649.738281 280.589844 L 659.347656 280.589844 L 659.347656 289.144531 Z M 649.738281 278.488281 L 649.738281 270.050781 L 659.347656 270.050781 L 659.347656 278.488281 Z M 649.738281 278.488281 "/><path style=" stroke:none;fill-rule:nonzero;fill:#000000;fill-opacity:1;" d="M 659.53125 323.152344 C 660.0625 323.625 660.878906 323.59375 661.355469 323.066406 C 661.839844 322.535156 661.796875 321.714844 661.269531 321.242188 L 649.554688 310.570312 C 649.308594 310.34375 648.992188 310.238281 648.679688 310.238281 L 638.089844 310.238281 L 627.085938 289.597656 C 626.753906 288.960938 625.964844 288.726562 625.339844 289.058594 C 625.101562 289.1875 624.917969 289.382812 624.800781 289.597656 L 614.8125 308.339844 L 604.425781 279.113281 C 604.1875 278.433594 603.453125 278.078125 602.785156 278.3125 C 602.441406 278.441406 602.171875 278.691406 602.03125 279.003906 L 591.492188 298.769531 L 581.355469 289.265625 C 580.835938 288.769531 580.027344 288.800781 579.53125 289.316406 C 579.457031 289.394531 579.390625 289.492188 579.335938 289.578125 L 567.625 310.90625 C 567.277344 311.53125 567.515625 312.320312 568.140625 312.664062 C 568.765625 313.011719 569.542969 312.773438 569.886719 312.148438 L 580.804688 292.285156 L 590.953125 301.800781 C 591.039062 301.875 591.136719 301.953125 591.234375 302.003906 C 591.859375 302.339844 592.648438 302.101562 592.980469 301.476562 L 602.96875 282.726562 L 613.355469 311.964844 C 613.464844 312.253906 613.679688 312.515625 613.972656 312.664062 C 614.597656 313 615.382812 312.761719 615.71875 312.136719 L 625.945312 292.941406 L 636.125 312.027344 C 636.320312 312.492188 636.785156 312.828125 637.3125 312.828125 L 648.183594 312.828125 Z M 659.53125 323.152344 "/><path style=" stroke:none;fill-rule:nonzero;fill:#000000;fill-opacity:1;" d="M 769.011719 229.441406 L 566.675781 229.441406 C 562.402344 229.441406 558.519531 231.1875 555.714844 233.992188 C 552.902344 236.808594 551.152344 240.695312 551.152344 244.964844 L 551.152344 355.484375 C 551.152344 359.757812 552.902344 363.640625 555.714844 366.457031 C 558.519531 369.273438 562.402344 371.011719 566.675781 371.011719 L 769.011719 371.011719 C 773.28125 371.011719 777.164062 369.273438 779.980469 366.457031 C 782.785156 363.640625 784.53125 359.757812 784.53125 355.484375 L 784.53125 244.964844 C 784.53125 240.695312 782.785156 236.808594 779.980469 233.992188 C 777.164062 231.1875 773.28125 229.441406 769.011719 229.441406 Z M 566.675781 232.03125 L 769.011719 232.03125 C 772.570312 232.03125 775.796875 233.488281 778.148438 235.828125 C 780.488281 238.167969 781.945312 241.40625 781.945312 244.964844 L 781.945312 355.484375 C 781.945312 359.046875 780.488281 362.28125 778.148438 364.625 C 775.804688 366.964844 772.570312 368.421875 769.011719 368.421875 L 566.675781 368.421875 C 563.125 368.421875 559.890625 366.964844 557.539062 364.625 C 555.199219 362.28125 553.742188 359.046875 553.742188 355.484375 L 553.742188 244.964844 C 553.742188 241.40625 555.199219 238.167969 557.539062 235.828125 C 559.890625 233.488281 563.125 232.03125 566.675781 232.03125 Z M 566.675781 232.03125 "/><path style=" stroke:none;fill-rule:nonzero;fill:#000000;fill-opacity:1;" d="M 730.527344 251.761719 C 731.238281 251.761719 731.820312 251.191406 731.820312 250.46875 C 731.820312 249.757812 731.238281 249.171875 730.527344 249.171875 L 552.449219 249.171875 C 551.734375 249.171875 551.152344 249.757812 551.152344 250.46875 C 551.152344 251.191406 551.734375 251.761719 552.449219 251.761719 Z M 730.527344 251.761719 "/><path style=" stroke:none;fill-rule:evenodd;fill:#000000;fill-opacity:1;" d="M 602.785156 238.027344 C 601.375 238.027344 600.21875 239.183594 600.21875 240.609375 C 600.21875 242.019531 601.375 243.175781 602.785156 243.175781 C 604.210938 243.175781 605.351562 242.019531 605.351562 240.609375 C 605.351562 239.183594 604.210938 238.027344 602.785156 238.027344 Z M 602.785156 238.027344 "/><path style=" stroke:none;fill-rule:evenodd;fill:#000000;fill-opacity:1;" d="M 589.8125 238.027344 C 588.398438 238.027344 587.242188 239.183594 587.242188 240.609375 C 587.242188 242.019531 588.398438 243.175781 589.8125 243.175781 C 591.234375 243.175781 592.378906 242.019531 592.378906 240.609375 C 592.378906 239.183594 591.234375 238.027344 589.8125 238.027344 Z M 589.8125 238.027344 "/><path style=" stroke:none;fill-rule:evenodd;fill:#000000;fill-opacity:1;" d="M 576.835938 238.027344 C 575.421875 238.027344 574.269531 239.183594 574.269531 240.609375 C 574.269531 242.019531 575.421875 243.175781 576.835938 243.175781 C 578.257812 243.175781 579.402344 242.019531 579.402344 240.609375 C 579.402344 239.183594 578.257812 238.027344 576.835938 238.027344 Z M 576.835938 238.027344 "/><path style=" stroke:none;fill-rule:nonzero;fill:#000000;fill-opacity:1;" d="M 774.046875 251.761719 C 774.761719 251.761719 775.34375 251.191406 775.34375 250.46875 C 775.34375 249.757812 774.761719 249.171875 774.046875 249.171875 L 744.3125 249.171875 C 743.597656 249.171875 743.015625 249.757812 743.015625 250.46875 C 743.015625 251.191406 743.597656 251.761719 744.3125 251.761719 Z M 774.046875 251.761719 "/><path style=" stroke:none;fill-rule:nonzero;fill:#000000;fill-opacity:1;" d="M 375.554688 390.191406 C 372.890625 376.179688 376.675781 364.925781 383.957031 356.878906 C 388.820312 351.492188 395.273438 347.511719 402.402344 345.085938 C 409.554688 342.65625 417.382812 341.785156 425 342.605469 C 438.289062 344.027344 450.917969 350.621094 458.101562 363.082031 C 458.285156 363.394531 458.585938 363.597656 458.910156 363.683594 C 465.003906 365.617188 469.15625 365.5625 471.347656 363.5 C 473.601562 361.386719 473.644531 357.425781 471.453125 351.632812 L 471.445312 351.613281 C 460.949219 325.816406 436.550781 314.910156 412.195312 314.78125 C 403.101562 314.738281 394.011719 316.191406 385.660156 318.953125 C 377.292969 321.707031 369.65625 325.773438 363.464844 330.929688 C 350.648438 341.621094 344.125 356.941406 350.328125 375.003906 L 350.378906 375.132812 C 352.203125 380.125 355.503906 384.28125 359.65625 387.183594 C 363.851562 390.105469 368.933594 391.757812 374.292969 391.722656 C 375.003906 391.722656 375.578125 391.140625 375.578125 390.429688 C 375.578125 390.355469 375.566406 390.269531 375.554688 390.191406 Z M 382.039062 355.152344 C 374.519531 363.46875 370.476562 374.925781 372.738281 389.101562 C 368.5 388.84375 364.5 387.410156 361.132812 385.058594 C 357.390625 382.445312 354.4375 378.722656 352.796875 374.234375 L 352.773438 374.160156 C 346.972656 357.277344 353.097656 342.9375 365.113281 332.914062 C 371.035156 327.972656 378.390625 324.070312 386.46875 321.402344 C 394.570312 318.738281 403.382812 317.316406 412.195312 317.359375 C 435.589844 317.476562 459.007812 327.910156 469.050781 352.582031 C 470.816406 357.277344 470.992188 360.285156 469.578125 361.613281 C 468.152344 362.949219 464.992188 362.863281 460.085938 361.355469 C 452.40625 348.386719 439.171875 341.523438 425.269531 340.023438 C 417.285156 339.171875 409.066406 340.089844 401.570312 342.648438 C 394.042969 345.203125 387.226562 349.421875 382.039062 355.152344 Z M 382.039062 355.152344 "/><path style=" stroke:none;fill-rule:nonzero;fill:#000000;fill-opacity:1;" d="M 373 390.570312 C 373.074219 391.269531 373.710938 391.789062 374.421875 391.714844 C 375.125 391.648438 375.640625 391.011719 375.578125 390.300781 C 375.167969 386.363281 376.730469 381.636719 379.210938 377.050781 C 382.402344 371.160156 387.0625 365.574219 390.988281 362.109375 C 391.476562 361.6875 392.046875 361.269531 392.695312 360.867188 C 397.363281 358 405.476562 356.285156 413.707031 356.695312 C 421.871094 357.105469 430.078125 359.605469 434.976562 365.171875 C 435.632812 365.917969 436.226562 366.726562 436.753906 367.589844 C 437.132812 368.195312 437.929688 368.386719 438.535156 368.011719 C 439.148438 367.644531 439.332031 366.847656 438.964844 366.230469 C 438.351562 365.25 437.671875 364.320312 436.917969 363.46875 C 431.503906 357.320312 422.613281 354.558594 413.824219 354.113281 C 405.097656 353.683594 396.40625 355.550781 391.335938 358.667969 C 390.570312 359.144531 389.878906 359.640625 389.285156 360.167969 C 385.164062 363.792969 380.28125 369.660156 376.9375 375.832031 C 374.238281 380.816406 372.535156 386.050781 373 390.570312 Z M 373 390.570312 "/><path style=" stroke:none;fill-rule:nonzero;fill:#000000;fill-opacity:1;" d="M 470.644531 361.558594 C 469.976562 361.320312 469.234375 361.667969 468.996094 362.335938 C 468.746094 363.003906 469.09375 363.75 469.773438 363.988281 C 474.085938 365.574219 477.808594 365.851562 480.902344 364.839844 C 484.074219 363.8125 486.535156 361.472656 488.292969 357.828125 C 488.496094 357.417969 488.453125 356.941406 488.226562 356.585938 C 484.546875 349.984375 481.65625 343.683594 479.566406 337.683594 C 477.472656 331.683594 476.167969 326 475.660156 320.617188 C 475.605469 319.902344 474.972656 319.386719 474.269531 319.449219 C 473.558594 319.515625 473.027344 320.140625 473.09375 320.855469 C 473.621094 326.453125 474.972656 332.34375 477.128906 338.527344 C 479.210938 344.503906 482.058594 350.761719 485.671875 357.285156 C 484.269531 359.929688 482.414062 361.636719 480.105469 362.390625 C 477.570312 363.210938 474.410156 362.941406 470.644531 361.558594 Z M 470.644531 361.558594 "/><path style=" stroke:none;fill-rule:nonzero;fill:#000000;fill-opacity:1;" d="M 486.003906 356.628906 C 485.660156 357.242188 485.875 358.03125 486.492188 358.386719 C 487.117188 358.734375 487.902344 358.515625 488.25 357.902344 C 491.496094 352.164062 493.058594 345.765625 492.929688 339.398438 C 492.8125 333.035156 491.007812 326.699219 487.535156 321.089844 C 487.167969 320.488281 486.371094 320.292969 485.769531 320.671875 C 485.152344 321.035156 484.96875 321.835938 485.347656 322.441406 C 488.5625 327.652344 490.234375 333.53125 490.351562 339.441406 C 490.46875 345.355469 489.023438 351.289062 486.003906 356.628906 Z M 486.003906 356.628906 "/><path style=" stroke:none;fill-rule:nonzero;fill:#000000;fill-opacity:1;" d="M 455.71875 312.363281 C 455.101562 312.019531 454.304688 312.246094 453.960938 312.859375 C 453.613281 313.484375 453.828125 314.273438 454.457031 314.617188 C 476.695312 327.152344 494.65625 325.890625 508.320312 310.851562 C 521.71875 296.113281 530.808594 267.976562 535.609375 226.453125 C 535.695312 225.742188 535.191406 225.105469 534.476562 225.019531 C 533.765625 224.941406 533.128906 225.449219 533.042969 226.160156 C 528.308594 267.136719 519.429688 294.789062 506.414062 309.117188 C 493.664062 323.140625 476.773438 324.21875 455.71875 312.363281 Z M 455.71875 312.363281 "/><path style=" stroke:none;fill-rule:nonzero;fill:#000000;fill-opacity:1;" d="M 423.898438 317.132812 C 423.84375 317.84375 424.394531 318.457031 425.105469 318.5 C 425.816406 318.542969 426.421875 318.003906 426.476562 317.292969 L 428.125 291.175781 C 428.167969 290.460938 427.628906 289.847656 426.917969 289.804688 C 426.207031 289.761719 425.59375 290.300781 425.546875 291.011719 Z M 423.898438 317.132812 "/><g clip-rule="nonzero" clip-path="url(#80fef399d7)"><path style=" stroke:none;fill-rule:nonzero;fill:#000000;fill-opacity:1;" d="M 375.414062 391.078125 C 375.761719 390.453125 375.542969 389.664062 374.929688 389.308594 C 374.304688 388.960938 373.515625 389.179688 373.160156 389.792969 C 363.820312 406.289062 357.109375 425.050781 353.066406 446.097656 C 349.03125 467.09375 347.640625 490.375 348.882812 515.933594 C 348.914062 516.648438 349.515625 517.195312 350.230469 517.164062 C 350.941406 517.132812 351.492188 516.527344 351.457031 515.816406 C 350.230469 490.472656 351.609375 467.386719 355.613281 446.585938 C 359.601562 425.804688 366.203125 407.304688 375.414062 391.078125 Z M 375.414062 391.078125 "/></g><path style=" stroke:none;fill-rule:nonzero;fill:#000000;fill-opacity:1;" d="M 487.96875 356.285156 C 487.429688 355.820312 486.609375 355.882812 486.144531 356.425781 C 485.679688 356.964844 485.746094 357.785156 486.296875 358.246094 C 494.277344 365.066406 500.058594 375.671875 503.640625 390.0625 C 507.253906 404.605469 508.613281 422.980469 507.707031 445.183594 C 507.683594 445.894531 508.234375 446.488281 508.945312 446.519531 C 509.660156 446.542969 510.261719 445.992188 510.296875 445.28125 C 511.203125 422.839844 509.820312 404.21875 506.152344 389.449219 C 502.433594 374.515625 496.382812 363.457031 487.96875 356.285156 Z M 487.96875 356.285156 "/><path style=" stroke:none;fill-rule:nonzero;fill:#000000;fill-opacity:1;" d="M 416.628906 371.90625 C 417.242188 371.539062 417.449219 370.75 417.09375 370.136719 C 416.726562 369.519531 415.9375 369.316406 415.324219 369.683594 C 403.058594 376.921875 395.59375 386.707031 392.929688 399.015625 C 390.300781 411.21875 392.402344 425.871094 399.273438 442.949219 C 399.296875 443.003906 399.328125 443.058594 399.347656 443.109375 C 405.917969 454.578125 412.367188 464.9375 418.722656 474.171875 C 425.0625 483.40625 431.285156 491.496094 437.402344 498.457031 L 437.488281 498.554688 C 440.5625 501.457031 443.734375 503.539062 446.992188 504.8125 C 450.269531 506.085938 453.613281 506.527344 457.035156 506.136719 L 526.570312 506.136719 C 527.285156 506.136719 527.867188 505.566406 527.867188 504.84375 L 527.867188 504.726562 L 527.519531 462.109375 C 527.511719 461.398438 526.9375 460.824219 526.238281 460.824219 L 460.085938 460.480469 C 459.375 460.480469 458.792969 461.050781 458.792969 461.765625 C 458.78125 462.476562 459.363281 463.058594 460.074219 463.058594 L 524.953125 463.394531 L 525.277344 503.550781 L 456.980469 503.550781 L 456.828125 503.558594 C 453.796875 503.914062 450.820312 503.527344 447.917969 502.40625 C 444.996094 501.261719 442.117188 499.363281 439.289062 496.699219 C 433.261719 489.835938 427.113281 481.832031 420.847656 472.703125 C 414.566406 463.585938 408.171875 453.316406 401.636719 441.890625 C 394.992188 425.34375 392.941406 411.230469 395.464844 399.566406 C 397.96875 387.992188 405.023438 378.765625 416.628906 371.90625 Z M 416.628906 371.90625 "/><path style=" stroke:none;fill-rule:nonzero;fill:#000000;fill-opacity:1;" d="M 471.21875 462 C 471.3125 462.714844 471.960938 463.210938 472.671875 463.113281 C 473.375 463.015625 473.871094 462.367188 473.785156 461.667969 C 471.109375 441.816406 467.109375 425.296875 461.789062 412.09375 C 456.417969 398.78125 449.6875 388.8125 441.597656 382.199219 C 441.046875 381.746094 440.238281 381.820312 439.785156 382.382812 C 439.332031 382.933594 439.410156 383.75 439.957031 384.195312 C 447.714844 390.539062 454.1875 400.160156 459.386719 413.054688 C 464.636719 426.066406 468.585938 442.378906 471.21875 462 Z M 471.21875 462 "/><path style=" stroke:none;fill-rule:nonzero;fill:#000000;fill-opacity:1;" d="M 526.03125 462.863281 C 525.332031 462.984375 524.855469 463.640625 524.976562 464.34375 C 525.082031 465.054688 525.75 465.53125 526.453125 465.410156 C 549.007812 461.742188 565.542969 463.046875 576.058594 469.328125 C 586.1875 475.359375 590.757812 486.15625 589.777344 501.691406 C 584.804688 502.578125 580.640625 502.4375 577.289062 501.273438 C 573.824219 500.0625 571.203125 497.722656 569.414062 494.261719 C 569.359375 494.171875 569.304688 494.085938 569.242188 494.011719 C 566.230469 490.03125 562.769531 487.90625 558.832031 487.65625 C 554.960938 487.410156 550.722656 489.003906 546.125 492.449219 C 546.074219 492.492188 546.019531 492.535156 545.976562 492.578125 C 544.078125 494.5625 541.53125 496.105469 538.328125 497.207031 C 535.050781 498.328125 531.101562 498.996094 526.484375 499.191406 C 525.773438 499.222656 525.222656 499.816406 525.246094 500.527344 C 525.277344 501.238281 525.882812 501.800781 526.59375 501.769531 C 531.46875 501.5625 535.664062 500.851562 539.167969 499.644531 C 542.71875 498.425781 545.585938 496.6875 547.765625 494.441406 C 551.8125 491.433594 555.445312 490.03125 558.671875 490.234375 C 561.808594 490.441406 564.636719 492.210938 567.160156 495.53125 C 569.261719 499.558594 572.359375 502.285156 576.445312 503.710938 C 580.460938 505.101562 585.398438 505.222656 591.257812 504.046875 C 591.804688 503.9375 592.25 503.460938 592.292969 502.878906 C 593.605469 485.746094 588.636719 473.824219 577.386719 467.105469 C 566.328125 460.511719 549.210938 459.089844 526.03125 462.863281 Z M 526.03125 462.863281 "/><path style=" stroke:none;fill-rule:nonzero;fill:#000000;fill-opacity:1;" d="M 557.515625 462.605469 C 557.496094 463.316406 558.054688 463.910156 558.769531 463.933594 C 559.480469 463.964844 560.074219 463.40625 560.09375 462.691406 L 560.589844 449.066406 C 560.625 448.355469 560.0625 447.75 559.351562 447.726562 L 513.824219 447.726562 C 513.109375 447.726562 512.527344 448.300781 512.527344 449.023438 C 512.527344 449.734375 513.109375 450.316406 513.824219 450.316406 L 557.96875 450.316406 Z M 557.515625 462.605469 "/><path style=" stroke:none;fill-rule:nonzero;fill:#000000;fill-opacity:1;" d="M 559.222656 450.316406 C 558.507812 450.308594 557.925781 450.878906 557.914062 451.589844 C 557.914062 452.304688 558.488281 452.886719 559.199219 452.894531 C 573.867188 453.078125 585.183594 456.003906 593.132812 461.679688 C 600.832031 467.167969 605.40625 475.292969 606.851562 486.039062 C 604.039062 488.304688 601.351562 489.4375 598.796875 489.425781 C 596.097656 489.425781 593.457031 488.164062 590.867188 485.640625 C 590.359375 485.144531 589.539062 485.152344 589.042969 485.671875 C 588.546875 486.179688 588.558594 487 589.066406 487.496094 C 592.160156 490.503906 595.398438 492.003906 598.796875 492.003906 C 602.140625 492.015625 605.546875 490.546875 609.011719 487.613281 C 609.367188 487.34375 609.570312 486.902344 609.515625 486.425781 C 608.070312 474.582031 603.109375 465.625 594.632812 459.574219 C 586.25 453.585938 574.441406 450.5 559.222656 450.316406 Z M 559.222656 450.316406 "/><path style=" stroke:none;fill-rule:nonzero;fill:#000000;fill-opacity:1;" d="M 502.214844 453.597656 C 502.269531 454.308594 502.894531 454.847656 503.609375 454.796875 C 504.320312 454.730469 504.847656 454.117188 504.792969 453.402344 C 503.898438 442.226562 503.414062 433.207031 503.003906 425.570312 C 502.128906 409.300781 501.589844 399.167969 498.289062 389.003906 C 498.074219 388.324219 497.351562 387.960938 496.671875 388.175781 C 495.992188 388.390625 495.617188 389.113281 495.84375 389.792969 C 499.023438 399.644531 499.5625 409.644531 500.425781 425.699219 C 500.847656 433.433594 501.332031 442.570312 502.214844 453.597656 Z M 502.214844 453.597656 "/><g clip-rule="nonzero" clip-path="url(#76d866ce5e)"><path style=" stroke:none;fill-rule:nonzero;fill:#000000;fill-opacity:1;" d="M 1.425781 514.585938 C 0.714844 514.585938 0.132812 515.15625 0.132812 515.878906 C 0.132812 516.59375 0.714844 517.175781 1.425781 517.175781 L 787.078125 517.175781 C 787.789062 517.175781 788.371094 516.59375 788.371094 515.878906 C 788.371094 515.15625 787.789062 514.585938 787.078125 514.585938 Z M 1.425781 514.585938 "/></g><path style=" stroke:none;fill-rule:nonzero;fill:#000000;fill-opacity:1;" d="M 465.046875 354.890625 C 464.648438 354.308594 463.839844 354.160156 463.257812 354.566406 C 462.675781 354.96875 462.523438 355.777344 462.921875 356.359375 C 465.488281 360.070312 467.679688 363.761719 469.492188 367.4375 C 471.292969 371.105469 472.726562 374.753906 473.773438 378.390625 C 473.976562 379.070312 474.691406 379.46875 475.371094 379.261719 C 476.058594 379.070312 476.449219 378.355469 476.253906 377.667969 C 475.152344 373.878906 473.675781 370.09375 471.800781 366.296875 C 469.945312 362.507812 467.691406 358.710938 465.046875 354.890625 Z M 465.046875 354.890625 "/><path style=" stroke:none;fill-rule:nonzero;fill:#000000;fill-opacity:1;" d="M 487.816406 349.421875 C 487.441406 348.828125 486.640625 348.644531 486.039062 349.023438 C 485.433594 349.402344 485.261719 350.199219 485.636719 350.804688 C 487.351562 353.523438 488.484375 356.628906 489.023438 360.125 C 489.574219 363.664062 489.53125 367.613281 488.894531 371.980469 C 488.789062 372.691406 489.285156 373.351562 489.984375 373.449219 C 490.695312 373.554688 491.355469 373.058594 491.453125 372.359375 C 492.132812 367.753906 492.175781 363.535156 491.570312 359.726562 C 490.976562 355.875 489.726562 352.441406 487.816406 349.421875 Z M 487.816406 349.421875 "/><path style=" stroke:none;fill-rule:evenodd;fill:#000000;fill-opacity:1;" d="M 391.347656 228.375 C 381.324219 234.058594 375.898438 245.375 377.746094 256.757812 C 379.589844 268.128906 388.316406 277.148438 399.617188 279.382812 C 407.882812 286.878906 419.671875 289.082031 430.089844 285.078125 C 440.507812 281.066406 447.777344 271.539062 448.890625 260.425781 C 430.542969 250.4375 426.066406 240.554688 435.449219 230.789062 C 443.617188 226.152344 449.699219 228.675781 453.710938 238.363281 C 458.78125 256.035156 463.03125 259.25 466.460938 248.019531 C 468.996094 234.578125 474.269531 223.667969 482.304688 215.277344 C 491.160156 212.75 499.777344 213.441406 508.148438 217.347656 C 513.648438 220.734375 519.839844 222.460938 526.753906 222.515625 C 522 220.304688 519.472656 218.003906 519.171875 215.621094 C 528.320312 219.179688 534.984375 221.597656 539.160156 222.859375 C 549.027344 221.554688 557.417969 214.996094 561.066406 205.71875 C 564.710938 196.449219 563.027344 185.917969 556.6875 178.238281 C 550.34375 170.554688 540.335938 166.929688 530.539062 168.753906 C 531.167969 156.238281 523.59375 144.761719 511.835938 140.425781 C 500.082031 136.074219 486.867188 139.875 479.210938 149.800781 C 469.523438 141.296875 455.609375 139.625 444.175781 145.570312 C 432.742188 151.515625 426.132812 163.867188 427.523438 176.683594 C 413.8125 172.617188 399.035156 177.785156 390.839844 189.5 C 382.628906 201.230469 382.847656 216.871094 391.347656 228.375 Z M 391.347656 228.375 "/><path style=" stroke:none;fill-rule:evenodd;fill:#000000;fill-opacity:1;" d="M 710.570312 449 C 708.210938 445.839844 709.796875 440.683594 714.097656 437.480469 C 718.402344 434.265625 723.796875 434.222656 726.148438 437.382812 C 728.5 440.53125 726.921875 445.699219 722.621094 448.90625 C 718.316406 452.109375 712.921875 452.152344 710.570312 449 Z M 570.546875 498.25 C 570.546875 498.25 560.085938 498.261719 539.160156 498.273438 C 535.6875 499.535156 531.480469 500.269531 526.539062 500.484375 C 526.550781 501.898438 526.5625 503.355469 526.570312 504.84375 C 526.570312 504.84375 512.097656 504.84375 483.15625 504.84375 C 482.378906 510.484375 483.75 514.152344 487.265625 515.878906 L 750.867188 515.878906 C 750.867188 515.878906 760.058594 476.015625 778.425781 396.289062 C 779.839844 387.820312 777.769531 383.6875 772.226562 383.890625 C 772.226562 383.890625 740.191406 383.890625 676.097656 383.890625 C 670.5 384.550781 667.019531 387.472656 665.660156 392.652344 C 665.660156 392.652344 656.46875 430.910156 640.546875 497.507812 C 637.398438 497.703125 620.949219 497.703125 591.203125 497.507812 C 591.210938 499.199219 591.136719 500.960938 590.996094 502.78125 C 581.632812 504.648438 574.816406 503.140625 570.546875 498.25 Z M 570.546875 498.25 "/><path style=" stroke:none;fill-rule:evenodd;fill:#000000;fill-opacity:1;" d="M 490.179688 369.066406 C 492.378906 369.066406 494.160156 370.460938 494.160156 372.175781 C 494.160156 373.878906 492.378906 375.273438 490.179688 375.273438 C 487.96875 375.273438 486.1875 373.878906 486.1875 372.175781 C 486.1875 370.460938 487.96875 369.066406 490.179688 369.066406 Z M 490.179688 369.066406 "/><g clip-rule="nonzero" clip-path="url(#b466a1a9de)"><path style=" stroke:none;fill-rule:nonzero;fill:#000000;fill-opacity:1;" d="M 223.96875 427.328125 C 224 428.039062 224.601562 428.589844 225.316406 428.558594 C 226.027344 428.515625 226.578125 427.910156 226.542969 427.199219 C 225.140625 400.625 219.296875 378.324219 209.015625 360.296875 C 198.714844 342.214844 183.960938 328.449219 164.761719 318.996094 C 164.234375 318.738281 163.617188 318.867188 163.242188 319.277344 C 161.882812 320.636719 160.511719 321.804688 159.132812 322.761719 C 154.460938 326.042969 149.585938 327.121094 144.515625 326.011719 C 139.339844 324.878906 133.890625 321.457031 128.195312 315.773438 C 124.582031 312.15625 120.875 307.636719 117.078125 302.210938 C 116.6875 301.648438 115.921875 301.5 115.351562 301.855469 C 88.761719 318.296875 65.355469 355.214844 52.175781 393.871094 C 44.703125 415.785156 40.496094 438.289062 40.851562 457.96875 C 41.195312 477.808594 46.191406 494.808594 57.128906 505.523438 C 63.554688 511.835938 72.023438 515.945312 82.765625 517.164062 C 83.476562 517.238281 84.113281 516.722656 84.191406 516.019531 C 84.277344 515.308594 83.757812 514.671875 83.046875 514.597656 C 72.917969 513.441406 64.957031 509.589844 58.929688 503.6875 C 48.519531 493.484375 43.761719 477.117188 43.429688 457.921875 C 43.082031 438.558594 47.238281 416.355469 54.625 394.703125 C 67.472656 357.050781 90.035156 321.125 115.675781 304.703125 C 119.320312 309.804688 122.890625 314.109375 126.375 317.59375 C 132.4375 323.648438 138.304688 327.292969 143.976562 328.535156 C 149.769531 329.808594 155.3125 328.589844 160.609375 324.878906 C 161.902344 323.972656 163.175781 322.925781 164.4375 321.726562 C 182.765625 330.929688 196.871094 344.210938 206.773438 361.582031 C 216.847656 379.253906 222.585938 401.164062 223.96875 427.328125 Z M 223.96875 427.328125 "/></g><g clip-rule="nonzero" clip-path="url(#00878e894d)"><path style=" stroke:none;fill-rule:nonzero;fill:#000000;fill-opacity:1;" d="M 169.152344 516.011719 C 169.226562 516.710938 169.863281 517.230469 170.566406 517.164062 C 171.277344 517.089844 171.792969 516.453125 171.71875 515.738281 C 170.542969 504.585938 169.90625 494.617188 169.789062 485.855469 C 169.679688 477.117188 170.101562 469.554688 171.0625 463.15625 C 171.15625 462.445312 170.671875 461.785156 169.960938 461.6875 C 169.886719 461.679688 169.808594 461.667969 169.734375 461.679688 C 158.679688 461.320312 149.152344 460.835938 140.96875 460.414062 C 112.707031 458.960938 100.207031 458.324219 91.46875 466.769531 C 90.964844 467.265625 90.941406 468.074219 91.4375 468.59375 C 91.933594 469.113281 92.753906 469.121094 93.261719 468.625 C 101.199219 460.957031 113.34375 461.582031 140.839844 462.996094 C 148.648438 463.394531 157.695312 463.859375 168.300781 464.214844 C 167.46875 470.40625 167.113281 477.625 167.210938 485.886719 C 167.328125 494.757812 167.976562 504.789062 169.152344 516.011719 Z M 169.152344 516.011719 "/></g><path style=" stroke:none;fill-rule:nonzero;fill:#000000;fill-opacity:1;" d="M 101.492188 462.121094 C 101.457031 462.832031 102.007812 463.425781 102.71875 463.457031 C 103.433594 463.480469 104.035156 462.929688 104.066406 462.21875 C 104.519531 451.613281 104.953125 439.972656 105.375 427.316406 C 105.785156 414.714844 106.183594 401.089844 106.558594 386.425781 C 106.582031 385.714844 106.011719 385.132812 105.296875 385.109375 C 104.585938 385.101562 104.003906 385.660156 103.980469 386.375 C 103.605469 400.960938 103.207031 414.585938 102.796875 427.230469 C 102.375 439.832031 101.945312 451.460938 101.492188 462.121094 Z M 101.492188 462.121094 "/><path style=" stroke:none;fill-rule:nonzero;fill:#000000;fill-opacity:1;" d="M 169.476562 465.121094 C 168.761719 465.042969 168.128906 465.550781 168.050781 466.261719 C 167.964844 466.976562 168.484375 467.613281 169.183594 467.6875 C 181.910156 469.132812 192.675781 472.273438 201.5 477.105469 C 210.257812 481.917969 217.105469 488.421875 222.023438 496.601562 C 222.390625 497.214844 223.191406 497.410156 223.804688 497.042969 C 224.410156 496.675781 224.613281 495.878906 224.246094 495.273438 C 219.082031 486.6875 211.90625 479.878906 202.738281 474.851562 C 193.625 469.84375 182.539062 466.597656 169.476562 465.121094 Z M 169.476562 465.121094 "/><path style=" stroke:none;fill-rule:nonzero;fill:#000000;fill-opacity:1;" d="M 225.972656 426.195312 C 225.378906 425.796875 224.582031 425.957031 224.183594 426.550781 C 223.785156 427.144531 223.945312 427.941406 224.539062 428.339844 L 239.347656 438.308594 C 239.941406 438.699219 240.738281 438.546875 241.136719 437.953125 C 241.527344 437.359375 241.375 436.5625 240.78125 436.164062 Z M 225.972656 426.195312 "/><path style=" stroke:none;fill-rule:nonzero;fill:#000000;fill-opacity:1;" d="M 190.984375 374.417969 C 190.59375 373.824219 189.796875 373.652344 189.191406 374.042969 C 188.597656 374.441406 188.425781 375.238281 188.824219 375.832031 C 197.097656 388.457031 201.824219 398.792969 203.019531 406.851562 C 204.152344 414.53125 201.996094 420.085938 196.539062 423.496094 C 196.277344 423.648438 196.105469 423.875 196.007812 424.132812 C 194.1875 428.0625 193.203125 433.90625 192.859375 440.359375 C 192.460938 447.773438 192.890625 456.046875 193.875 463.144531 C 193.96875 463.847656 194.617188 464.34375 195.328125 464.246094 C 196.03125 464.148438 196.527344 463.5 196.429688 462.789062 C 195.46875 455.839844 195.039062 447.75 195.4375 440.488281 C 195.761719 434.492188 196.636719 429.097656 198.230469 425.480469 C 204.402344 421.457031 206.847656 415.125 205.578125 406.472656 C 204.324219 398.046875 199.460938 387.355469 190.984375 374.417969 Z M 190.984375 374.417969 "/><path style=" stroke:none;fill-rule:evenodd;fill:#000000;fill-opacity:1;" d="M 323.058594 462.757812 C 325.195312 466.457031 332.433594 466.285156 339.214844 462.359375 C 346 458.441406 349.777344 452.257812 347.640625 448.558594 C 345.492188 444.859375 338.265625 445.03125 331.472656 448.949219 C 324.6875 452.875 320.914062 459.046875 323.058594 462.757812 Z M 437.695312 424.683594 C 437.695312 424.683594 429.3125 455.085938 412.53125 515.878906 C 381.410156 515.878906 316.359375 515.878906 217.386719 515.878906 C 217.386719 515.878906 219.308594 509.234375 223.136719 495.933594 C 226.910156 482.835938 232.550781 463.265625 240.058594 437.230469 C 241.375 432.679688 242.746094 427.921875 244.179688 422.96875 C 245.882812 409.472656 252.90625 402.730469 265.246094 402.75 C 265.246094 402.75 318.863281 402.75 426.089844 402.75 C 436.886719 405.210938 440.757812 412.523438 437.695312 424.683594 Z M 437.695312 424.683594 "/><path style=" stroke:none;fill-rule:nonzero;fill:#000000;fill-opacity:1;" d="M 109.40625 307.875 C 109.105469 307.226562 108.339844 306.945312 107.691406 307.25 C 107.046875 307.550781 106.777344 308.316406 107.066406 308.964844 C 113.636719 323 121.078125 332.773438 129.382812 338.308594 C 137.816406 343.929688 147.117188 345.171875 157.253906 342.042969 C 157.933594 341.828125 158.324219 341.105469 158.105469 340.425781 C 157.902344 339.746094 157.179688 339.367188 156.5 339.570312 C 147.136719 342.464844 138.574219 341.332031 130.808594 336.152344 C 122.902344 330.886719 115.761719 321.457031 109.40625 307.875 Z M 109.40625 307.875 "/><path style=" stroke:none;fill-rule:nonzero;fill:#000000;fill-opacity:1;" d="M 159.390625 337.890625 C 158.730469 338.167969 158.417969 338.925781 158.6875 339.582031 C 158.96875 340.242188 159.726562 340.554688 160.382812 340.285156 C 163.035156 339.171875 165.441406 337.910156 167.585938 336.507812 C 169.734375 335.105469 171.632812 333.53125 173.292969 331.804688 C 173.777344 331.285156 173.757812 330.476562 173.25 329.980469 C 172.734375 329.496094 171.921875 329.507812 171.425781 330.023438 C 169.929688 331.589844 168.179688 333.035156 166.164062 334.351562 C 164.15625 335.667969 161.894531 336.851562 159.390625 337.890625 Z M 159.390625 337.890625 "/><path style=" stroke:none;fill-rule:evenodd;fill:#000000;fill-opacity:1;" d="M 193.863281 341.871094 C 185.589844 333.054688 175.699219 325.828125 164.191406 320.164062 C 156.769531 308.523438 157.191406 299.199219 165.472656 292.199219 C 189.546875 286.492188 206.320312 272.011719 215.789062 248.753906 C 207.570312 241.503906 203.699219 234.769531 204.183594 228.535156 C 202.675781 233.519531 202.964844 237.53125 205.039062 240.585938 C 189.992188 233.269531 179.367188 218.351562 178.804688 207.886719 C 164.265625 219.171875 160.394531 224.339844 143.976562 224.242188 C 145.367188 208.683594 141.648438 201.519531 132.792969 202.726562 C 126.707031 205.46875 122.535156 211.230469 121.824219 217.875 C 121.109375 224.511719 123.980469 231.027344 129.351562 234.988281 C 135.519531 265.765625 131.078125 288.421875 116.019531 302.957031 C 113.398438 304.574219 110.800781 306.40625 108.242188 308.414062 C 103.28125 312.320312 98.460938 316.925781 93.832031 322.082031 C 82.042969 327.652344 66.695312 326.074219 56.316406 318.179688 C 44.667969 309.320312 39.964844 294.023438 44.636719 280.160156 C 28.976562 282.058594 13.886719 273.609375 7.304688 259.273438 C 0.738281 244.933594 4.179688 227.984375 15.828125 217.359375 C 61.496094 191.917969 95.613281 160.804688 118.175781 124.015625 C 127.796875 105.878906 148.066406 96.082031 168.246094 99.824219 C 188.425781 103.570312 203.851562 119.980469 206.332031 140.359375 C 214.226562 124.46875 233.136719 117.496094 249.453125 124.457031 C 265.773438 131.414062 273.832031 149.894531 267.835938 166.597656 C 260.230469 227.058594 259.691406 260.492188 300.546875 281.183594 C 308.617188 290.582031 310.527344 303.785156 305.445312 315.082031 C 300.375 326.367188 289.234375 333.714844 276.851562 333.917969 C 264.480469 334.113281 253.101562 327.144531 247.652344 316.019531 C 240.632812 329.570312 227.667969 339.054688 212.628906 341.632812 C 207.054688 342.59375 199.980469 342.734375 193.863281 341.871094 Z M 193.863281 341.871094 "/><path style=" stroke:none;fill-rule:nonzero;fill:#000000;fill-opacity:1;" d="M 105.601562 385.152344 C 104.910156 384.96875 104.207031 385.378906 104.023438 386.070312 C 103.839844 386.761719 104.25 387.472656 104.941406 387.644531 C 122.285156 392.21875 137.949219 394.066406 151.914062 393.203125 C 165.949219 392.328125 178.296875 388.714844 188.933594 382.347656 C 189.546875 381.980469 189.742188 381.183594 189.375 380.578125 C 189.007812 379.964844 188.222656 379.769531 187.605469 380.136719 C 177.328125 386.277344 165.375 389.773438 151.753906 390.625 C 138.066406 391.476562 122.675781 389.652344 105.601562 385.152344 Z M 105.601562 385.152344 "/><path style=" stroke:none;fill-rule:nonzero;fill:#000000;fill-opacity:1;" d="M 197.464844 407.757812 C 198.101562 407.433594 198.339844 406.65625 198.015625 406.019531 C 197.679688 405.394531 196.90625 405.144531 196.277344 405.480469 C 182.785156 412.515625 168.441406 416.527344 153.230469 417.507812 C 137.992188 418.492188 121.886719 416.429688 104.910156 411.339844 C 104.230469 411.132812 103.507812 411.523438 103.300781 412.203125 C 103.097656 412.890625 103.484375 413.605469 104.175781 413.808594 C 121.445312 419 137.851562 421.089844 153.394531 420.085938 C 168.957031 419.085938 183.648438 414.972656 197.464844 407.757812 Z M 197.464844 407.757812 "/><path style=" stroke:none;fill-rule:nonzero;fill:#000000;fill-opacity:1;" d="M 103.777344 439.929688 C 103.074219 439.832031 102.417969 440.316406 102.320312 441.027344 C 102.222656 441.730469 102.71875 442.386719 103.421875 442.484375 C 118.683594 444.644531 133.308594 445.191406 147.289062 444.15625 C 161.289062 443.121094 174.652344 440.476562 187.378906 436.226562 C 188.058594 436.011719 188.425781 435.277344 188.199219 434.597656 C 187.984375 433.929688 187.25 433.5625 186.570312 433.789062 C 174.058594 437.953125 160.910156 440.554688 147.105469 441.578125 C 133.296875 442.605469 118.855469 442.054688 103.777344 439.929688 Z M 103.777344 439.929688 "/><path style=" stroke:none;fill-rule:nonzero;fill:#000000;fill-opacity:1;" d="M 200.011719 349.367188 C 200.625 349.011719 200.839844 348.222656 200.484375 347.609375 C 200.128906 346.996094 199.34375 346.777344 198.726562 347.136719 C 175.160156 360.730469 153.359375 367.148438 133.296875 366.394531 C 113.3125 365.636719 95.03125 357.730469 78.441406 342.691406 C 77.910156 342.214844 77.09375 342.257812 76.617188 342.785156 C 76.144531 343.316406 76.175781 344.125 76.703125 344.597656 C 93.769531 360.070312 112.601562 368.195312 133.210938 368.972656 C 153.75 369.746094 176.023438 363.210938 200.011719 349.367188 Z M 200.011719 349.367188 "/><path style=" stroke:none;fill-rule:nonzero;fill:#000000;fill-opacity:1;" d="M 105.09375 400.648438 C 105.792969 400.558594 106.300781 399.902344 106.203125 399.199219 C 106.105469 398.5 105.460938 397.992188 104.757812 398.089844 C 94.597656 399.417969 85.753906 398.554688 78.246094 395.46875 C 70.78125 392.402344 64.601562 387.140625 59.703125 379.671875 C 59.304688 379.070312 58.507812 378.90625 57.914062 379.296875 C 57.308594 379.683594 57.148438 380.492188 57.535156 381.085938 C 62.726562 389.003906 69.304688 394.59375 77.277344 397.863281 C 85.203125 401.109375 94.480469 402.039062 105.09375 400.648438 Z M 105.09375 400.648438 "/><path style=" stroke:none;fill-rule:nonzero;fill:#000000;fill-opacity:1;" d="M 104.164062 430.769531 C 104.878906 430.671875 105.375 430.023438 105.285156 429.324219 C 105.199219 428.621094 104.554688 428.113281 103.839844 428.199219 C 89.605469 430.054688 77.910156 429.527344 68.777344 426.636719 C 59.800781 423.800781 53.308594 418.652344 49.308594 411.1875 C 48.960938 410.5625 48.183594 410.324219 47.550781 410.667969 C 46.921875 411.003906 46.6875 411.792969 47.03125 412.417969 C 51.367188 420.488281 58.355469 426.054688 68 429.105469 C 77.480469 432.105469 89.539062 432.667969 104.164062 430.769531 Z M 104.164062 430.769531 "/><path style=" stroke:none;fill-rule:nonzero;fill:#000000;fill-opacity:1;" d="M 103.484375 454.902344 C 104.175781 454.699219 104.566406 453.984375 104.371094 453.296875 C 104.164062 452.617188 103.441406 452.226562 102.761719 452.421875 C 95.277344 454.632812 86.496094 456.855469 76.421875 459.078125 C 66.347656 461.289062 55.011719 463.5 42.425781 465.714844 C 41.722656 465.832031 41.25 466.5 41.367188 467.203125 C 41.5 467.914062 42.167969 468.378906 42.867188 468.257812 C 55.519531 466.035156 66.886719 463.824219 76.972656 461.601562 C 87.058594 459.378906 95.902344 457.148438 103.484375 454.902344 Z M 103.484375 454.902344 "/><path style=" stroke:none;fill-rule:nonzero;fill:#000000;fill-opacity:1;" d="M 115.597656 462.542969 C 115.726562 461.839844 115.273438 461.160156 114.574219 461.019531 C 113.871094 460.890625 113.191406 461.355469 113.0625 462.054688 C 110.820312 473.652344 106.386719 483.6875 99.730469 492.125 C 93.078125 500.582031 84.210938 507.464844 73.121094 512.773438 C 72.476562 513.085938 72.207031 513.851562 72.507812 514.5 C 72.820312 515.136719 73.585938 515.40625 74.234375 515.105469 C 85.6875 509.613281 94.867188 502.480469 101.769531 493.71875 C 108.675781 484.960938 113.28125 474.558594 115.597656 462.542969 Z M 115.597656 462.542969 "/><path style=" stroke:none;fill-rule:nonzero;fill:#000000;fill-opacity:1;" d="M 146.898438 462.8125 C 146.984375 462.109375 146.46875 461.460938 145.765625 461.386719 C 145.054688 461.300781 144.417969 461.808594 144.332031 462.519531 C 142.800781 475.757812 140.40625 486.578125 137.171875 494.984375 C 133.976562 503.246094 129.964844 509.148438 125.15625 512.6875 C 124.574219 513.109375 124.453125 513.917969 124.875 514.488281 C 125.296875 515.058594 126.105469 515.191406 126.675781 514.769531 C 131.898438 510.9375 136.199219 504.648438 139.578125 495.910156 C 142.898438 487.289062 145.347656 476.265625 146.898438 462.8125 Z M 146.898438 462.8125 "/><path style=" stroke:none;fill-rule:nonzero;fill:#000000;fill-opacity:1;" d="M 218.832031 385.144531 C 219.351562 384.65625 219.371094 383.839844 218.875 383.320312 C 218.390625 382.800781 217.570312 382.78125 217.054688 383.277344 C 214.570312 385.628906 211.832031 387.28125 208.8125 388.230469 C 205.78125 389.179688 202.460938 389.4375 198.847656 388.996094 C 198.132812 388.910156 197.488281 389.414062 197.402344 390.128906 C 197.3125 390.828125 197.820312 391.476562 198.53125 391.5625 C 202.511719 392.046875 206.191406 391.757812 209.578125 390.6875 C 212.976562 389.621094 216.058594 387.777344 218.832031 385.144531 Z M 218.832031 385.144531 "/><path style=" stroke:none;fill-rule:nonzero;fill:#000000;fill-opacity:1;" d="M 225.25 419.785156 C 225.875 419.453125 226.101562 418.664062 225.757812 418.039062 C 225.421875 417.414062 224.636719 417.1875 224.011719 417.53125 C 219.449219 420.042969 215.121094 421.664062 211.035156 422.386719 C 206.988281 423.085938 203.183594 422.925781 199.613281 421.878906 C 198.933594 421.671875 198.210938 422.074219 198.015625 422.753906 C 197.808594 423.441406 198.210938 424.15625 198.890625 424.347656 C 202.859375 425.515625 207.054688 425.707031 211.476562 424.933594 C 215.84375 424.164062 220.441406 422.449219 225.25 419.785156 Z M 225.25 419.785156 "/><path style=" stroke:none;fill-rule:nonzero;fill:#000000;fill-opacity:1;" d="M 194.605469 455.203125 C 193.9375 454.976562 193.203125 455.34375 192.976562 456.023438 C 192.761719 456.695312 193.128906 457.425781 193.796875 457.652344 C 198.609375 459.25 204.140625 459.84375 210.417969 459.414062 C 216.621094 458.992188 223.566406 457.578125 231.226562 455.171875 C 231.90625 454.957031 232.292969 454.234375 232.078125 453.554688 C 231.863281 452.863281 231.140625 452.484375 230.460938 452.703125 C 222.984375 455.054688 216.242188 456.425781 210.246094 456.835938 C 204.304688 457.242188 199.082031 456.695312 194.605469 455.203125 Z M 194.605469 455.203125 "/><path style=" stroke:none;fill-rule:evenodd;fill:#000000;fill-opacity:1;" d="M 475.015625 374.925781 C 477.214844 374.925781 479.003906 376.316406 479.003906 378.035156 C 479.003906 379.738281 477.214844 381.128906 475.015625 381.128906 C 472.8125 381.128906 471.023438 379.738281 471.023438 378.035156 C 471.023438 376.316406 472.8125 374.925781 475.015625 374.925781 Z M 475.015625 374.925781 "/></g></g></g></g></svg>