<svg xmlns="http://www.w3.org/2000/svg" xmlns:xlink="http://www.w3.org/1999/xlink" width="1920" zoomAndPan="magnify" viewBox="0 0 1440 809.999993" height="1080" preserveAspectRatio="xMidYMid meet" version="1.2"><defs><clipPath id="e674405cd8"><path d="M 143 338 L 728 338 L 728 717.773438 L 143 717.773438 Z M 143 338 "/></clipPath><clipPath id="450fc01171"><path d="M 477 590 L 806 590 L 806 717.773438 L 477 717.773438 Z M 477 590 "/></clipPath><clipPath id="bef491f86e"><path d="M 292 493 L 416 493 L 416 717.773438 L 292 717.773438 Z M 292 493 "/></clipPath><clipPath id="089cf26bd5"><path d="M 109.070312 439 L 138 439 L 138 481 L 109.070312 481 Z M 109.070312 439 "/></clipPath></defs><g id="0839450eb3"><rect x="0" width="1440" y="0" height="809.999993" style="fill:#ffffff;fill-opacity:1;stroke:none;"/><rect x="0" width="1440" y="0" height="809.999993" style="fill:#5ce1e6;fill-opacity:1;stroke:none;"/><path style=" stroke:none;fill-rule:nonzero;fill:#ffffff;fill-opacity:1;" d="M 488.625 472.101562 C 489.535156 495.359375 490.386719 528.691406 489.566406 528.691406 C 441.71875 528.511719 432.425781 518.703125 432.320312 491.792969 C 432.304688 488.679688 432.320312 470.585938 430.753906 467.503906 C 429.101562 464.179688 426.746094 461.128906 424.226562 458.804688 C 415.632812 450.882812 401.675781 450.789062 392.019531 444.050781 C 387.511719 440.894531 384.125 436.308594 382.5 431.164062 C 380.785156 425.835938 380.933594 420.097656 381.117188 414.449219 C 381.285156 408.96875 381.464844 403.398438 383 398.070312 C 384.261719 393.714844 386.433594 389.632812 389.058594 385.835938 C 397.972656 373.023438 412.003906 364.175781 426.566406 357.769531 C 441.125 351.363281 456.539062 347.023438 471.238281 340.90625 C 473.289062 345.230469 475.335938 349.648438 477.328125 354.140625 C 481.65625 363.796875 485.890625 373.785156 490.113281 383.757812 C 494.773438 394.730469 499.496094 405.964844 500.269531 417.894531 C 501.058594 429.84375 497.234375 442.867188 487.484375 451.351562 C 487.851562 454.265625 488.246094 462.265625 488.625 472.101562 Z M 488.625 472.101562 "/><path style=" stroke:none;fill-rule:nonzero;fill:#000000;fill-opacity:1;" d="M 490.691406 282.8125 C 497.8125 295.746094 499.421875 311.5 495.0625 325.847656 C 490.28125 341.585938 478.695312 355.113281 464.632812 364.628906 C 450.570312 374.148438 434.171875 379.945312 418.273438 384.53125 C 421.644531 396.933594 425.03125 409.320312 428.175781 422.800781 C 424.332031 420.25 421.265625 416.773438 417.636719 413.933594 C 414.007812 411.09375 409.46875 408.863281 404.746094 409.457031 C 402.164062 409.773438 399.75 410.929688 397.59375 412.386719 C 394.128906 414.722656 391.167969 418.046875 390.273438 421.980469 C 389 427.519531 392.355469 433.425781 397.609375 435.792969 C 402.863281 438.160156 409.527344 437.128906 415.054688 434.441406 C 421.28125 445.476562 427.492188 457.820312 431.773438 470.296875 C 425.820312 467.824219 418.441406 466.09375 412.078125 464.726562 C 398.246094 461.734375 384.988281 456.132812 374.207031 447.480469 C 363.425781 438.828125 355.242188 427.035156 352.175781 413.753906 C 350.703125 407.375 350.445312 400.5 352.949219 394.308594 C 356.199219 386.261719 363.761719 380.265625 371.886719 377.273438 C 367.648438 363.265625 371.976562 347.339844 381.40625 335.453125 C 390.835938 323.570312 404.898438 315.492188 419.714844 311.214844 C 438.574219 305.777344 459.152344 305.945312 476.675781 297.125 C 482.292969 294.304688 487.683594 290.324219 490.691406 282.8125 Z M 490.691406 282.8125 "/><path style=" stroke:none;fill-rule:nonzero;fill:#ffffff;fill-opacity:1;" d="M 569.953125 270.699219 C 569.863281 271.972656 569.710938 273.414062 568.691406 274.203125 C 567.917969 274.828125 566.839844 274.871094 565.851562 274.886719 C 517.519531 275.769531 469.1875 276.632812 420.871094 277.515625 C 419.488281 243.953125 416.058594 210.464844 416.90625 172.425781 C 417.015625 167.15625 417.210938 161.800781 417.5 156.347656 C 466.726562 150.6875 515.484375 152.875 565.472656 155.742188 C 566.339844 161.84375 567.097656 167.960938 567.75 174.09375 C 571.230469 206.152344 571.957031 238.503906 569.953125 270.699219 Z M 569.953125 270.699219 "/><path style=" stroke:none;fill-rule:nonzero;fill:#000000;fill-opacity:1;" d="M 567.75 174.09375 C 517.519531 171.40625 467.183594 170.847656 416.90625 172.425781 C 417.015625 167.15625 417.210938 161.800781 417.5 156.347656 C 466.726562 150.6875 515.484375 152.875 565.472656 155.742188 C 566.339844 161.84375 567.097656 167.960938 567.75 174.09375 Z M 567.75 174.09375 "/><path style=" stroke:none;fill-rule:nonzero;fill:#000000;fill-opacity:1;" d="M 567.75 175.613281 C 567.722656 175.613281 567.691406 175.613281 567.675781 175.613281 C 517.640625 172.941406 466.941406 172.378906 416.96875 173.941406 C 416.558594 173.957031 416.148438 173.789062 415.859375 173.503906 C 415.570312 173.214844 415.402344 172.804688 415.402344 172.394531 C 415.511719 167.140625 415.707031 161.722656 415.996094 156.273438 C 416.042969 155.53125 416.605469 154.921875 417.332031 154.847656 C 466.195312 149.230469 515.335938 151.355469 565.566406 154.238281 C 566.292969 154.285156 566.886719 154.832031 566.976562 155.542969 C 567.84375 161.632812 568.617188 167.824219 569.253906 173.941406 C 569.300781 174.382812 569.148438 174.824219 568.84375 175.140625 C 568.570312 175.445312 568.160156 175.613281 567.75 175.613281 Z M 472.46875 170.042969 C 503.6875 170.042969 535 170.859375 566.050781 172.484375 C 565.488281 167.386719 564.851562 162.253906 564.136719 157.183594 C 514.910156 154.375 466.742188 152.339844 418.941406 157.714844 C 418.714844 162.148438 418.546875 166.550781 418.457031 170.859375 C 436.390625 170.316406 454.429688 170.042969 472.46875 170.042969 Z M 472.46875 170.042969 "/><path style=" stroke:none;fill-rule:nonzero;fill:#ffffff;fill-opacity:1;" d="M 461.414062 213.773438 C 461.335938 215.050781 461.199219 216.492188 460.289062 217.28125 C 459.605469 217.902344 458.636719 217.949219 457.753906 217.964844 C 414.707031 218.84375 371.65625 219.710938 328.609375 220.589844 C 327.378906 187.027344 324.328125 153.542969 325.085938 115.5 C 325.175781 110.234375 325.359375 104.875 325.617188 99.425781 C 369.472656 93.761719 412.898438 95.949219 457.421875 98.816406 C 458.195312 104.921875 458.863281 111.039062 459.453125 117.171875 C 462.550781 149.230469 463.191406 181.578125 461.414062 213.773438 Z M 461.414062 213.773438 "/><path style=" stroke:none;fill-rule:nonzero;fill:#000000;fill-opacity:1;" d="M 459.453125 117.171875 C 414.722656 114.484375 369.878906 113.921875 325.101562 115.5 C 325.191406 110.234375 325.375 104.875 325.632812 99.425781 C 369.484375 93.761719 412.914062 95.949219 457.433594 98.816406 C 458.195312 104.921875 458.863281 111.039062 459.453125 117.171875 Z M 459.453125 117.171875 "/><path style=" stroke:none;fill-rule:nonzero;fill:#000000;fill-opacity:1;" d="M 459.453125 118.6875 C 459.425781 118.6875 459.394531 118.6875 459.363281 118.6875 C 414.8125 116.015625 369.652344 115.457031 325.148438 117.019531 C 324.738281 117.035156 324.328125 116.882812 324.023438 116.578125 C 323.71875 116.289062 323.566406 115.878906 323.566406 115.46875 C 323.660156 110.21875 323.839844 104.800781 324.097656 99.347656 C 324.128906 98.621094 324.691406 98.011719 325.421875 97.921875 C 368.96875 92.289062 412.761719 94.414062 457.511719 97.300781 C 458.238281 97.34375 458.832031 97.90625 458.921875 98.621094 C 459.699219 104.707031 460.382812 110.902344 460.957031 117.019531 C 461.003906 117.457031 460.851562 117.898438 460.53125 118.21875 C 460.257812 118.519531 459.863281 118.6875 459.453125 118.6875 Z M 374.574219 113.117188 C 402.332031 113.117188 430.164062 113.9375 457.753906 115.546875 C 457.253906 110.445312 456.691406 105.316406 456.054688 100.246094 C 412.320312 97.4375 369.53125 95.433594 327.058594 100.761719 C 326.863281 105.195312 326.710938 109.609375 326.621094 113.921875 C 342.546875 113.390625 358.554688 113.117188 374.574219 113.117188 Z M 374.574219 113.117188 "/><path style=" stroke:none;fill-rule:nonzero;fill:#ffffff;fill-opacity:1;" d="M 200.953125 277.226562 C 201.347656 289.582031 201.757812 301.953125 202.167969 314.308594 C 202.667969 329.140625 203.230469 344.167969 207.695312 358.316406 C 209.699219 364.675781 212.675781 371.035156 217.929688 375.136719 C 218.929688 375.925781 220.101562 376.636719 221.375 376.578125 C 222.40625 376.53125 223.347656 375.984375 224.230469 375.4375 C 226.691406 373.9375 229.121094 372.371094 231.503906 370.761719 C 232.628906 370.003906 233.796875 369.167969 234.328125 367.925781 C 234.90625 366.558594 234.585938 365.011719 234.328125 363.566406 C 231.6875 348.496094 236.40625 333.164062 241.769531 318.832031 C 243.515625 314.144531 245.351562 309.4375 246.261719 304.519531 C 247.886719 295.804688 246.476562 286.5625 242.34375 278.726562 C 239.855469 273.992188 236.121094 269.574219 231.015625 267.921875 C 225.476562 266.113281 219.492188 267.875 213.933594 269.621094 C 210.152344 270.820312 205.976562 272.335938 200.953125 277.226562 Z M 200.953125 277.226562 "/><path style=" stroke:none;fill-rule:nonzero;fill:#ffffff;fill-opacity:1;" d="M 148.429688 455.617188 C 139.316406 459.367188 131.984375 467.214844 128.855469 476.566406 C 125.726562 485.917969 126.851562 496.589844 131.878906 505.074219 C 136.417969 512.753906 143.796875 518.445312 148.414062 526.097656 C 150.84375 530.121094 152.800781 534.945312 157.054688 536.9375 C 162.609375 539.53125 169.460938 535.585938 172.191406 530.089844 C 174.925781 524.59375 174.621094 518.144531 174.195312 512.027344 C 173.375 500.15625 172.328125 488.269531 169.960938 476.613281 C 168.820312 470.980469 167.242188 465.136719 163.292969 460.945312 C 159.679688 457.074219 154.078125 453.296875 148.429688 455.617188 Z M 148.429688 455.617188 "/><path style=" stroke:none;fill-rule:nonzero;fill:#ffffff;fill-opacity:1;" d="M 644.949219 354.597656 C 650.691406 338.6875 643.007812 320.367188 648.472656 304.367188 C 652.054688 293.847656 661.515625 285.542969 672.417969 283.359375 C 679.023438 282.023438 686.433594 283.023438 691.460938 287.515625 C 695.636719 291.238281 697.6875 297.003906 697.472656 302.589844 C 697.261719 308.175781 694.9375 313.550781 691.566406 318 C 689.441406 320.804688 686.890625 323.28125 684.71875 326.058594 C 680.316406 331.691406 677.492188 338.550781 676.671875 345.65625 C 676.277344 349.101562 676.214844 352.910156 673.90625 355.507812 C 672.023438 357.617188 669.078125 358.40625 666.269531 358.742188 C 659.890625 359.46875 653.332031 358.453125 644.949219 354.597656 Z M 644.949219 354.597656 "/><path style=" stroke:none;fill-rule:nonzero;fill:#ffffff;fill-opacity:1;" d="M 715.179688 511.90625 C 717.394531 506.53125 720.722656 501.613281 724.882812 497.558594 C 730.152344 492.398438 736.984375 488.269531 739.65625 481.394531 C 740.671875 478.8125 740.992188 476.003906 741.054688 473.226562 C 741.144531 469.035156 740.535156 464.605469 738.03125 461.234375 C 735.496094 457.820312 731.230469 455.9375 726.992188 455.664062 C 722.753906 455.390625 718.519531 456.574219 714.648438 458.367188 C 702.878906 463.84375 694.132812 475.382812 692.039062 488.207031 C 691.082031 494.082031 691.535156 500.398438 694.542969 505.542969 C 696.5 508.867188 699.554688 511.601562 703.226562 512.769531 C 706.902344 513.9375 711.183594 513.375 715.179688 511.90625 Z M 715.179688 511.90625 "/><path style=" stroke:none;fill-rule:nonzero;fill:#000000;fill-opacity:1;" d="M 204.230469 227.890625 C 203.59375 222.230469 203.289062 216.535156 203.304688 210.84375 C 203.304688 209.660156 203.398438 208.324219 204.308594 207.566406 C 204.734375 207.203125 205.296875 207.035156 205.839844 206.898438 C 207.421875 206.519531 209.046875 206.367188 210.671875 206.441406 C 212.265625 206.519531 214.011719 206.929688 214.890625 208.25 C 215.605469 209.3125 215.589844 210.707031 215.53125 211.984375 C 215.421875 214.519531 215.316406 217.039062 215.210938 219.574219 C 215.089844 222.59375 214.710938 226.085938 212.171875 227.753906 C 209.972656 229.210938 207.085938 228.652344 204.230469 227.890625 Z M 204.230469 227.890625 "/><path style=" stroke:none;fill-rule:nonzero;fill:#ffffff;fill-opacity:1;" d="M 197.351562 240.519531 C 196.578125 234.539062 196.488281 228.46875 197.09375 222.472656 C 197.171875 221.699219 197.277344 220.894531 197.746094 220.269531 C 198.355469 219.496094 199.386719 219.222656 200.34375 219.027344 C 206.25 217.84375 212.339844 217.597656 218.308594 218.3125 C 219.75 218.480469 221.359375 218.8125 222.195312 220.011719 C 222.96875 221.105469 222.832031 222.578125 222.652344 223.898438 C 222.132812 227.996094 221.601562 232.082031 221.085938 236.179688 C 220.859375 238.03125 220.496094 240.082031 219.007812 241.1875 C 217.882812 242.023438 216.394531 242.101562 214.996094 242.144531 C 209.136719 242.28125 203.246094 242.039062 197.351562 240.519531 Z M 197.351562 240.519531 "/><path style=" stroke:none;fill-rule:nonzero;fill:#000000;fill-opacity:1;" d="M 212.324219 243.695312 C 207.816406 243.695312 202.425781 243.390625 196.972656 241.992188 C 196.367188 241.839844 195.925781 241.339844 195.851562 240.71875 C 195.0625 234.632812 194.96875 228.4375 195.59375 222.320312 C 195.699219 221.320312 195.851562 220.257812 196.5625 219.34375 C 197.566406 218.054688 199.191406 217.722656 200.054688 217.554688 C 206.144531 216.324219 212.339844 216.082031 218.503906 216.824219 C 220.296875 217.039062 222.285156 217.492188 223.457031 219.148438 C 224.59375 220.789062 224.351562 222.777344 224.183594 224.097656 L 222.621094 236.375 C 222.40625 238.046875 222.058594 240.839844 219.949219 242.402344 C 218.492188 243.480469 216.746094 243.617188 215.074219 243.648438 C 214.191406 243.695312 213.28125 243.695312 212.324219 243.695312 Z M 198.734375 239.292969 C 204.640625 240.65625 210.488281 240.734375 214.984375 240.628906 C 216.210938 240.597656 217.367188 240.519531 218.109375 239.972656 C 219.097656 239.230469 219.386719 237.605469 219.582031 235.996094 L 221.148438 223.71875 C 221.300781 222.578125 221.390625 221.515625 220.949219 220.894531 C 220.464844 220.210938 219.25 219.96875 218.125 219.832031 C 212.296875 219.132812 206.402344 219.359375 200.632812 220.527344 C 199.90625 220.679688 199.207031 220.863281 198.933594 221.210938 C 198.691406 221.515625 198.628906 222.183594 198.582031 222.640625 C 198.050781 228.164062 198.097656 233.765625 198.734375 239.292969 Z M 198.734375 239.292969 "/><path style=" stroke:none;fill-rule:nonzero;fill:#000000;fill-opacity:1;" d="M 189.335938 234.160156 C 166.757812 247.140625 155.414062 287.699219 192.128906 311.457031 C 219.21875 328.988281 257.4375 303.972656 256.085938 271.261719 C 254.84375 240.65625 222.664062 215.019531 189.335938 234.160156 Z M 189.335938 234.160156 "/><path style=" stroke:none;fill-rule:nonzero;fill:#ffffff;fill-opacity:1;" d="M 194.375 242.554688 C 176.761719 252.679688 167.910156 284.328125 196.5625 302.863281 C 217.699219 316.542969 247.523438 297.019531 246.460938 271.503906 C 245.472656 247.625 220.371094 227.617188 194.375 242.554688 Z M 194.375 242.554688 "/><path style=" stroke:none;fill-rule:nonzero;fill:#000000;fill-opacity:1;" d="M 118.378906 411.15625 C 118.5625 427.324219 119.09375 469.839844 119.851562 487.664062 C 120.003906 491.125 122.859375 493.855469 126.320312 493.808594 C 135.871094 493.71875 154.472656 493.460938 166.648438 492.761719 C 170.082031 492.566406 172.738281 489.710938 172.710938 486.28125 L 171.859375 410.382812 C 171.8125 406.832031 168.898438 403.976562 165.34375 404.035156 L 124.695312 404.660156 C 121.171875 404.734375 118.347656 407.632812 118.378906 411.15625 Z M 118.378906 411.15625 "/><path style=" stroke:none;fill-rule:nonzero;fill:#ffffff;fill-opacity:1;" d="M 124.4375 416.300781 C 124.574219 430.039062 125 466.183594 125.574219 481.316406 C 125.695312 484.261719 127.914062 486.570312 130.601562 486.539062 C 138.027344 486.464844 152.484375 486.234375 161.941406 485.660156 C 164.601562 485.492188 166.679688 483.0625 166.648438 480.148438 L 165.996094 415.648438 C 165.964844 412.628906 163.6875 410.214844 160.941406 410.261719 L 129.355469 410.792969 C 126.609375 410.835938 124.40625 413.296875 124.4375 416.300781 Z M 124.4375 416.300781 "/><path style=" stroke:none;fill-rule:nonzero;fill:#ffffff;fill-opacity:1;" d="M 626.089844 258.796875 C 626.089844 258.796875 673.085938 327.957031 706.203125 361.0625 C 706.203125 361.0625 743.101562 340.160156 773.59375 305.230469 C 773.59375 305.230469 717.546875 233.476562 693.175781 203.921875 C 693.175781 203.921875 655.0625 229.835938 626.089844 258.796875 Z M 626.089844 258.796875 "/><path style=" stroke:none;fill-rule:nonzero;fill:#ffffff;fill-opacity:1;" d="M 636.292969 262.078125 C 636.292969 262.078125 676.792969 321.65625 705.324219 350.195312 C 705.324219 350.195312 737.121094 332.191406 763.390625 302.089844 C 763.390625 302.089844 715.101562 240.261719 694.101562 214.804688 C 694.101562 214.792969 661.257812 237.121094 636.292969 262.078125 Z M 636.292969 262.078125 "/><path style=" stroke:none;fill-rule:nonzero;fill:#000000;fill-opacity:1;" d="M 650.933594 254.820312 C 650.933594 254.820312 672.496094 237.574219 680.632812 229.441406 C 680.632812 229.441406 675.484375 220.378906 666.90625 212.878906 C 666.90625 212.878906 644.707031 232.339844 637.433594 238.335938 C 637.433594 238.335938 643.8125 247.699219 650.933594 254.820312 Z M 650.933594 254.820312 "/><path style=" stroke:none;fill-rule:nonzero;fill:#000000;fill-opacity:1;" d="M 746.199219 431.117188 C 734.660156 449.347656 724.851562 468.6875 716.984375 488.785156 C 716.210938 490.742188 715.453125 492.882812 715.984375 494.917969 C 716.558594 497.132812 718.503906 498.683594 720.449219 499.898438 C 723.683594 501.945312 727.585938 503.570312 731.273438 502.554688 C 734.417969 501.6875 736.753906 499.109375 738.609375 496.4375 C 744.574219 487.828125 759.988281 453.066406 763.132812 445.160156 C 763.980469 443.019531 764.710938 440.695312 764.195312 438.449219 C 763.527344 435.566406 760.960938 433.515625 758.332031 432.179688 C 755.160156 430.554688 751.652344 429.601562 746.199219 431.117188 Z M 746.199219 431.117188 "/><path style=" stroke:none;fill-rule:nonzero;fill:#ffffff;fill-opacity:1;" d="M 748.660156 414.707031 C 745.941406 419.582031 743.222656 424.4375 740.507812 429.3125 C 740.019531 430.175781 739.535156 431.058594 739.382812 432.027344 C 739.035156 434.136719 740.292969 436.1875 741.796875 437.691406 C 743.574219 439.480469 745.746094 440.816406 747.902344 442.125 C 752.777344 445.066406 757.695312 447.9375 762.660156 450.730469 C 765 452.035156 767.792969 453.371094 770.269531 452.308594 C 771.421875 451.808594 772.316406 450.851562 773.152344 449.910156 C 775.414062 447.375 777.632812 444.792969 779.789062 442.167969 C 780.914062 440.800781 782.035156 439.40625 782.734375 437.796875 C 783.433594 436.1875 783.691406 434.289062 783.023438 432.652344 C 782.460938 431.253906 781.308594 430.191406 780.167969 429.207031 C 774.078125 423.984375 767.214844 419.671875 759.851562 416.46875 C 757.058594 415.238281 754.097656 414.175781 748.660156 414.707031 Z M 748.660156 414.707031 "/><path style=" stroke:none;fill-rule:nonzero;fill:#ffffff;fill-opacity:1;" d="M 870.515625 424.410156 C 870.578125 426.730469 869.910156 429.070312 869.179688 431.253906 C 861.238281 454.996094 845.855469 476.203125 825.691406 491.0625 C 824.554688 491.914062 823.292969 492.609375 821.941406 493.003906 C 816.414062 494.585938 813.816406 490.410156 811.660156 486.765625 C 798.96875 465.289062 782.019531 446.375 762.128906 431.332031 C 755.039062 425.941406 747.566406 421.054688 739.777344 416.726562 C 736.285156 414.785156 732.320312 412.402344 731.699219 408.4375 C 731.472656 406.90625 731.789062 405.34375 732.171875 403.839844 C 734.75 393.503906 740.324219 383.257812 749.738281 378.246094 C 751.152344 377.503906 752.683594 376.867188 754.292969 376.925781 C 756.34375 377.003906 758.167969 378.1875 759.867188 379.324219 C 768.808594 385.257812 778.101562 390.816406 787.683594 395.765625 C 811.675781 408.164062 837.519531 416.773438 864.292969 418.03125 C 867.707031 418.199219 870.425781 420.992188 870.515625 424.410156 Z M 870.515625 424.410156 "/><path style=" stroke:none;fill-rule:nonzero;fill:#ffffff;fill-opacity:1;" d="M 855.757812 479.90625 C 845.277344 472.9375 833.585938 467.808594 821.363281 464.832031 C 828.226562 453.25 837.171875 442.804688 847.3125 434.152344 C 853.464844 444.886719 861.070312 454.78125 869.785156 463.558594 C 865.792969 469.082031 861.3125 474.257812 855.757812 479.90625 Z M 855.757812 479.90625 "/><path style=" stroke:none;fill-rule:nonzero;fill:#ffffff;fill-opacity:1;" d="M 870.046875 463.664062 C 865.382812 459.625 851.339844 476.613281 855.773438 480.011719 C 860.511719 483.625 874.007812 467.078125 870.046875 463.664062 Z M 870.046875 463.664062 "/><path style=" stroke:none;fill-rule:nonzero;fill:#000000;fill-opacity:1;" d="M 787.683594 395.765625 C 777.558594 406.359375 768.933594 418.367188 762.128906 431.332031 C 755.039062 425.941406 747.566406 421.054688 739.777344 416.726562 C 736.285156 414.785156 732.320312 412.402344 731.699219 408.4375 C 731.472656 406.90625 731.789062 405.34375 732.171875 403.839844 C 734.75 393.503906 740.324219 383.257812 749.738281 378.246094 C 751.152344 377.503906 752.683594 376.867188 754.292969 376.925781 C 756.34375 377.003906 758.167969 378.1875 759.867188 379.324219 C 768.808594 385.257812 778.101562 390.816406 787.683594 395.765625 Z M 787.683594 395.765625 "/><path style=" stroke:none;fill-rule:nonzero;fill:#ffffff;fill-opacity:1;" d="M 214.722656 326.4375 C 217.5625 316.496094 223.484375 307.449219 231.472656 300.859375 C 234.875 298.050781 238.6875 295.636719 241.402344 292.175781 C 244.0625 288.792969 245.503906 284.632812 247.539062 280.839844 C 249.390625 277.40625 251.746094 274.234375 254.523438 271.503906 C 256.96875 269.074219 260.765625 266.902344 263.648438 268.785156 C 265.820312 270.210938 266.199219 273.339844 265.457031 275.828125 C 264.710938 278.320312 263.117188 280.457031 262.054688 282.84375 C 258.425781 290.964844 261.386719 300.527344 259.59375 309.238281 C 258.03125 316.828125 253.019531 323.175781 249.90625 330.261719 C 247.628906 335.441406 246.371094 341.070312 246.203125 346.71875 C 246.125 349.421875 246.246094 352.304688 244.804688 354.582031 C 243.816406 356.128906 242.222656 357.207031 240.523438 357.921875 C 233.570312 360.867188 224.988281 358.042969 220.101562 352.273438 C 215.210938 346.492188 211.429688 337.988281 214.722656 326.4375 Z M 214.722656 326.4375 "/><path style=" stroke:none;fill-rule:nonzero;fill:#ffffff;fill-opacity:1;" d="M 118.363281 442.167969 C 111.894531 448.910156 109.601562 459.367188 112.636719 468.203125 C 113.550781 470.875 114.960938 473.4375 117.070312 475.304688 C 119.183594 477.171875 122.082031 478.28125 124.878906 477.839844 C 127.746094 477.386719 130.144531 475.398438 131.953125 473.121094 C 134.230469 470.265625 135.808594 466.789062 136.160156 463.164062 C 136.734375 457.042969 133.53125 450.714844 128.246094 447.574219 C 125.46875 445.902344 122.175781 445.054688 118.363281 442.167969 Z M 118.363281 442.167969 "/><path style=" stroke:none;fill-rule:nonzero;fill:#ffffff;fill-opacity:1;" d="M 148.929688 508.335938 C 146.742188 501.25 147.441406 493.324219 150.84375 486.734375 C 153.105469 482.347656 156.445312 478.613281 158.769531 474.257812 C 161.183594 469.71875 162.398438 464.648438 164.160156 459.808594 C 165.921875 454.964844 168.367188 450.136719 172.527344 447.101562 C 173.910156 446.101562 175.519531 445.296875 177.234375 445.324219 C 178.933594 445.355469 180.710938 446.417969 181.121094 448.074219 C 181.457031 449.363281 180.9375 450.699219 180.515625 451.960938 C 177.507812 460.855469 178.675781 470.570312 179.890625 479.890625 C 180.9375 487.949219 181.988281 496.011719 183.035156 504.070312 C 183.625 508.65625 184.21875 513.347656 183.277344 517.871094 C 182.335938 522.394531 179.527344 526.8125 175.183594 528.417969 C 173.679688 528.980469 172.054688 529.179688 170.445312 529.195312 C 167.851562 529.210938 165.207031 528.753906 162.855469 527.660156 C 156.628906 524.746094 152.058594 518.507812 148.929688 508.335938 Z M 148.929688 508.335938 "/><path style=" stroke:none;fill-rule:nonzero;fill:#ffffff;fill-opacity:1;" d="M 664.796875 340.144531 C 666.449219 330.976562 667.621094 321.292969 664.476562 312.519531 C 663.003906 308.421875 660.636719 304.625 659.816406 300.34375 C 657.992188 290.707031 664.492188 280.808594 662.199219 271.273438 C 661.789062 269.574219 661.0625 267.875 659.753906 266.707031 C 658.449219 265.539062 656.476562 265.007812 654.878906 265.765625 C 652.921875 266.691406 652.222656 269.042969 651.644531 271.136719 C 649.519531 278.910156 646.421875 286.410156 642.445312 293.40625 C 640.652344 296.566406 638.632812 299.738281 638.207031 303.335938 C 637.738281 307.175781 639.117188 310.953125 639.921875 314.734375 C 641.746094 323.265625 640.636719 332.117188 639.558594 340.769531 C 639.117188 344.320312 638.722656 348.101562 640.273438 351.316406 C 641.746094 354.367188 644.964844 356.496094 648.351562 356.628906 C 651.707031 356.765625 654.941406 355.082031 657.355469 352.746094 C 659.769531 350.40625 663.367188 348.054688 664.796875 340.144531 Z M 664.796875 340.144531 "/><path style=" stroke:none;fill-rule:nonzero;fill:#ffffff;fill-opacity:1;" d="M 701.847656 486.433594 C 711.320312 485.171875 719.976562 479.679688 725.976562 472.222656 C 727.296875 470.585938 728.527344 468.824219 730.226562 467.5625 C 731.925781 466.320312 734.25 465.667969 736.421875 466.457031 C 735.070312 471.542969 735.464844 476.914062 735.875 482.152344 C 736.148438 485.703125 736.726562 489.773438 739.71875 491.730469 C 742.84375 493.765625 747.140625 492.351562 750.011719 489.96875 C 753.582031 487.007812 755.875 482.699219 756.964844 478.207031 C 758.058594 473.695312 758.03125 468.992188 757.484375 464.375 C 757.195312 461.871094 756.679688 459.199219 754.976562 457.089844 C 756.023438 454.78125 757.074219 452.082031 755.902344 449.820312 C 754.460938 447.042969 750.679688 446.753906 747.550781 446.796875 C 739.777344 446.933594 731.988281 446.996094 724.230469 446.296875 C 721.175781 446.023438 718.09375 445.628906 715.042969 446.007812 C 710.167969 446.632812 705.6875 449.242188 702.148438 452.65625 C 698.613281 456.074219 695.925781 460.261719 693.523438 464.558594 C 689.363281 471.980469 685.949219 479.828125 683.351562 487.921875 C 682.867188 489.421875 682.410156 491.015625 682.714844 492.582031 C 683.183594 494.933594 685.417969 496.664062 687.785156 497.011719 C 690.15625 497.363281 692.570312 496.542969 694.574219 495.238281 C 697.351562 493.523438 699.476562 490.863281 701.847656 486.433594 Z M 701.847656 486.433594 "/><path style=" stroke:none;fill-rule:nonzero;fill:#ffffff;fill-opacity:1;" d="M 318.039062 587.027344 C 307.957031 603.679688 301.730469 622.414062 297.328125 641.371094 C 293.167969 659.300781 291.027344 679.714844 301.730469 694.683594 C 308.125 703.625 318.34375 709.242188 328.957031 712.078125 C 339.574219 714.917969 350.671875 715.253906 361.664062 715.417969 C 394.207031 715.933594 426.777344 715.296875 459.289062 713.476562 C 462.003906 713.324219 465.027344 713.019531 466.820312 710.988281 C 499.191406 707.132812 532.75 711.367188 565.488281 706.128906 C 567.84375 671.140625 566.902344 637.472656 564.214844 603.9375 C 581.355469 616.886719 600.671875 626.085938 620.972656 631.855469 C 630.175781 634.464844 640.167969 636.347656 649.171875 633.128906 C 659.601562 629.410156 666.558594 619.726562 672.570312 610.421875 C 693.433594 578.101562 711.214844 543.78125 725.609375 508.109375 C 712.628906 496.816406 698.050781 488.027344 682.515625 481.53125 C 666.769531 506.167969 651.707031 530.710938 637.449219 555.726562 C 630.175781 550.066406 623.175781 544.402344 616.160156 538.742188 C 610.980469 534.550781 605.742188 530.332031 599.714844 527.492188 C 620.835938 513.4375 639.300781 497.863281 655.246094 480.042969 C 662.425781 472.011719 669.230469 463.296875 672.707031 453.113281 C 674.121094 448.953125 674.953125 444.628906 675.730469 440.300781 C 681.40625 408.03125 683.214844 375.058594 681.089844 342.363281 C 665.8125 339.507812 650.082031 339.160156 634.699219 341.34375 C 629.386719 368.636719 622.265625 396.691406 614.488281 424.558594 C 612.089844 433.167969 609.25 442.320312 602.28125 447.921875 C 597.832031 451.488281 592.199219 453.175781 586.746094 454.84375 C 557.683594 463.722656 529.167969 474.410156 501.410156 486.8125 C 497.203125 483.167969 493.40625 479.84375 489.613281 476.519531 C 484.796875 484.625 478.96875 492.109375 472.300781 498.773438 C 458.953125 491.320312 445.605469 483.882812 432.257812 476.429688 C 429.890625 479.070312 427.6875 482.121094 425.488281 485.15625 C 424.726562 486.21875 423.9375 487.296875 422.84375 488.011719 C 420.808594 489.347656 418.152344 489.148438 415.785156 488.648438 C 406.597656 486.734375 398.6875 481.164062 390.714844 476.203125 C 360.117188 457.152344 324.917969 445.539062 288.992188 442.625 C 285.410156 442.335938 281.523438 442.015625 278.789062 439.679688 C 276.433594 437.660156 275.402344 434.519531 274.507812 431.542969 C 266.15625 404.21875 258.152344 376.789062 250.5 349.253906 C 233.175781 347.597656 215.726562 349.328125 200.054688 354.035156 C 202.242188 382.542969 204.445312 411.050781 206.632812 439.574219 C 207.847656 455.464844 209.425781 472.332031 219.050781 485.035156 C 225.492188 493.550781 234.90625 499.246094 244.183594 504.527344 C 254.160156 510.1875 264.257812 515.625 273.09375 520.769531 C 256.890625 537.710938 240.707031 554.652344 224.503906 571.574219 C 221.90625 566.734375 219.308594 561.890625 216.730469 557.050781 C 207.875 540.519531 198.992188 523.941406 192.3125 506.195312 C 174.894531 510.539062 158.632812 519.433594 145.484375 532.230469 C 158.296875 567.308594 171.523438 603.105469 194.984375 632.171875 C 198.871094 636.984375 203.167969 641.707031 208.679688 644.515625 C 213.933594 647.171875 220.007812 647.929688 225.871094 647.429688 C 241.433594 646.078125 254.871094 636.4375 267.445312 627.148438 C 282.476562 615.976562 297.527344 604.851562 318.039062 587.027344 Z M 318.039062 587.027344 "/><g clip-rule="nonzero" clip-path="url(#e674405cd8)"><path style=" stroke:none;fill-rule:nonzero;fill:#000000;fill-opacity:1;" d="M 383.242188 717.089844 C 376.03125 717.089844 368.816406 717.027344 361.636719 716.921875 C 349.761719 716.722656 339.085938 716.34375 328.5625 713.523438 C 316.429688 710.273438 306.46875 703.882812 300.488281 695.546875 C 288.78125 679.167969 292.226562 656.582031 295.839844 641.023438 C 300.136719 622.550781 305.605469 606.988281 312.5 593.785156 C 295.140625 608.507812 281.523438 618.574219 268.328125 628.332031 C 256.800781 636.863281 242.4375 647.472656 225.976562 648.902344 C 219.296875 649.476562 213.070312 648.414062 207.96875 645.835938 C 202.136719 642.875 197.703125 637.972656 193.769531 633.097656 C 169.898438 603.527344 156.75 567.539062 144.023438 532.714844 C 143.8125 532.152344 143.964844 531.53125 144.390625 531.105469 C 157.554688 518.296875 173.984375 509.15625 191.917969 504.695312 C 192.660156 504.511719 193.4375 504.90625 193.710938 505.636719 C 200.359375 523.304688 209.347656 540.078125 218.035156 556.304688 L 224.824219 568.980469 L 270.632812 521.074219 C 266.035156 518.417969 261.160156 515.714844 256.027344 512.859375 C 251.867188 510.554688 247.628906 508.199219 243.410156 505.800781 C 233.675781 500.261719 224.382812 494.585938 217.824219 485.902344 C 207.617188 472.421875 206.222656 454.25 205.097656 439.632812 L 198.523438 354.097656 C 198.460938 353.382812 198.917969 352.730469 199.601562 352.53125 C 215.636719 347.71875 233.28125 346.050781 250.621094 347.703125 C 251.242188 347.765625 251.773438 348.207031 251.941406 348.8125 C 259.566406 376.199219 267.628906 403.886719 275.933594 431.070312 C 276.691406 433.578125 277.648438 436.6875 279.761719 438.511719 C 282.113281 440.527344 285.667969 440.816406 289.082031 441.105469 C 325.269531 444.035156 360.679688 455.722656 391.488281 474.894531 C 392.492188 475.519531 393.476562 476.140625 394.480469 476.777344 C 401.265625 481.074219 408.296875 485.507812 416.058594 487.132812 C 418.789062 487.707031 420.671875 487.570312 421.980469 486.707031 C 422.84375 486.128906 423.542969 485.171875 424.226562 484.230469 C 426.414062 481.210938 428.675781 478.082031 431.089844 475.367188 C 431.5625 474.835938 432.335938 474.714844 432.957031 475.046875 L 471.996094 496.832031 C 478.238281 490.457031 483.703125 483.351562 488.273438 475.683594 C 488.503906 475.289062 488.898438 475.03125 489.339844 474.957031 C 489.777344 474.882812 490.234375 475.015625 490.582031 475.304688 C 494.152344 478.433594 497.734375 481.558594 501.652344 484.960938 C 529.089844 472.742188 557.5625 462.097656 586.277344 453.324219 L 586.550781 453.25 C 591.773438 451.65625 597.164062 450.015625 601.308594 446.675781 C 607.71875 441.53125 610.496094 433.046875 613 424.089844 C 622.019531 391.785156 628.445312 365.390625 633.195312 340.996094 C 633.320312 340.359375 633.835938 339.871094 634.472656 339.78125 C 650.082031 337.566406 665.859375 337.914062 681.363281 340.8125 C 682.046875 340.933594 682.546875 341.511719 682.59375 342.210938 C 684.734375 375.042969 682.910156 408.121094 677.203125 440.515625 C 676.457031 444.734375 675.609375 449.210938 674.132812 453.554688 C 670.445312 464.363281 663.082031 473.5 656.351562 481.011719 C 641.152344 498 623.570312 513.148438 602.691406 527.265625 C 607.929688 530.105469 612.578125 533.871094 617.085938 537.511719 C 623.523438 542.71875 630.175781 548.109375 636.960938 553.40625 C 649.992188 530.636719 664.476562 506.820312 681.210938 480.664062 C 681.605469 480.042969 682.394531 479.800781 683.078125 480.085938 C 699.265625 486.871094 713.902344 495.90625 726.582031 506.925781 C 727.066406 507.351562 727.234375 508.035156 726.992188 508.640625 C 712.597656 544.359375 694.710938 578.863281 673.832031 611.210938 C 667.863281 620.453125 660.574219 630.640625 649.671875 634.527344 C 640.015625 637.957031 629.539062 635.816406 620.546875 633.28125 C 600.429688 627.574219 582.085938 618.785156 565.976562 607.113281 C 568.753906 643.574219 569.074219 675.148438 566.992188 706.203125 C 566.945312 706.917969 566.414062 707.496094 565.714844 707.601562 C 547.949219 710.441406 529.746094 710.515625 512.144531 710.578125 C 497.417969 710.636719 482.203125 710.699219 467.53125 712.398438 C 465.363281 714.460938 462.203125 714.8125 459.363281 714.964844 C 434.140625 716.390625 408.617188 717.089844 383.242188 717.089844 Z M 318.039062 585.511719 C 318.390625 585.511719 318.738281 585.632812 319.011719 585.859375 C 319.589844 586.347656 319.726562 587.164062 319.332031 587.804688 C 310.585938 602.269531 303.859375 619.894531 298.800781 641.691406 C 295.324219 656.6875 291.953125 678.394531 302.960938 693.773438 C 308.519531 701.542969 317.890625 707.511719 329.351562 710.578125 C 339.542969 713.308594 350.035156 713.671875 361.695312 713.871094 C 394.070312 714.386719 426.867188 713.734375 459.195312 711.929688 C 461.71875 711.792969 464.285156 711.519531 465.679688 709.953125 C 465.921875 709.679688 466.273438 709.5 466.636719 709.453125 C 481.65625 707.664062 497.144531 707.601562 512.144531 707.539062 C 529.242188 707.480469 546.902344 707.402344 564.0625 704.777344 C 566.113281 673.308594 565.6875 641.265625 562.710938 604.03125 C 562.664062 603.4375 562.96875 602.859375 563.5 602.574219 C 564.03125 602.285156 564.667969 602.328125 565.140625 602.695312 C 581.585938 615.125 600.503906 624.433594 621.398438 630.351562 C 629.917969 632.765625 639.816406 634.816406 648.671875 631.65625 C 658.675781 628.089844 665.34375 618.785156 671.296875 609.554688 C 691.886719 577.664062 709.53125 543.675781 723.789062 508.503906 C 711.851562 498.273438 698.1875 489.832031 683.109375 483.382812 C 666.328125 509.640625 651.828125 533.550781 638.769531 556.425781 C 638.558594 556.804688 638.175781 557.078125 637.753906 557.171875 C 637.328125 557.261719 636.871094 557.15625 636.523438 556.882812 C 629.234375 551.203125 622.097656 545.453125 615.21875 539.867188 C 610.175781 535.796875 604.984375 531.578125 599.09375 528.816406 C 598.589844 528.585938 598.257812 528.101562 598.226562 527.554688 C 598.179688 527.007812 598.4375 526.476562 598.894531 526.171875 C 620.519531 511.796875 638.585938 496.359375 654.136719 478.980469 C 660.652344 471.691406 667.789062 462.859375 671.296875 452.566406 C 672.707031 448.421875 673.527344 444.082031 674.257812 439.984375 C 679.859375 408.210938 681.679688 375.789062 679.675781 343.578125 C 665.238281 340.996094 650.554688 340.691406 636.007812 342.636719 C 631.253906 366.816406 624.890625 392.984375 615.960938 424.910156 C 613.320312 434.367188 610.359375 443.335938 603.238281 449.046875 C 598.636719 452.75 592.957031 454.480469 587.460938 456.148438 L 587.1875 456.226562 C 558.277344 465.058594 529.621094 475.792969 502.03125 488.132812 C 501.484375 488.375 500.863281 488.285156 500.421875 487.890625 C 496.71875 484.671875 493.332031 481.710938 489.976562 478.78125 C 485.285156 486.402344 479.710938 493.460938 473.378906 499.777344 C 472.894531 500.261719 472.164062 500.351562 471.570312 500.035156 L 432.59375 478.28125 C 430.558594 480.664062 428.613281 483.367188 426.714844 485.976562 C 425.925781 487.085938 425.015625 488.332031 423.679688 489.210938 C 421.007812 490.957031 417.710938 490.546875 415.464844 490.074219 C 407.160156 488.34375 399.902344 483.746094 392.886719 479.3125 C 391.898438 478.691406 390.894531 478.054688 389.910156 477.445312 C 359.507812 458.515625 324.554688 446.996094 288.855469 444.097656 C 285.121094 443.792969 280.898438 443.457031 277.785156 440.789062 C 275.007812 438.402344 273.914062 434.820312 273.035156 431.9375 C 264.820312 405.054688 256.832031 377.699219 249.300781 350.621094 C 233.097656 349.207031 216.683594 350.742188 201.652344 355.082031 L 208.132812 439.390625 C 209.226562 453.597656 210.59375 471.296875 220.25 484.066406 C 226.460938 492.277344 235.464844 497.773438 244.925781 503.144531 C 249.132812 505.542969 253.371094 507.882812 257.515625 510.1875 C 263.285156 513.390625 268.734375 516.414062 273.851562 519.402344 C 274.25 519.628906 274.523438 520.039062 274.597656 520.496094 C 274.660156 520.953125 274.507812 521.421875 274.1875 521.757812 L 225.597656 572.5625 C 225.261719 572.910156 224.777344 573.09375 224.289062 573.019531 C 223.804688 572.957031 223.394531 572.652344 223.152344 572.230469 L 215.378906 557.703125 C 206.84375 541.777344 198.035156 525.324219 191.371094 507.941406 C 174.789062 512.3125 159.574219 520.800781 147.246094 532.578125 C 159.773438 566.871094 172.816406 602.253906 196.152344 631.171875 C 199.875 635.769531 204.035156 640.402344 209.363281 643.101562 C 213.949219 645.425781 219.613281 646.382812 225.734375 645.851562 C 241.34375 644.5 255.3125 634.160156 266.535156 625.875 C 281.308594 614.960938 296.585938 603.664062 317.054688 585.875 C 317.34375 585.632812 317.691406 585.511719 318.039062 585.511719 Z M 318.039062 585.511719 "/></g><path style=" stroke:none;fill-rule:nonzero;fill:#000000;fill-opacity:1;" d="M 459.5 671.867188 C 463.949219 628.695312 466.683594 585.359375 467.699219 541.960938 C 463.628906 535.980469 460.441406 532.003906 457.570312 527.8125 C 462.796875 519.753906 467.867188 511.480469 473.058594 502.734375 C 478.632812 510.296875 484.417969 517.703125 490.371094 524.957031 C 488.125 529.117188 485.875 533.277344 484.328125 538.226562 C 491.507812 584.628906 496.566406 631.355469 499.464844 678.214844 C 499.511719 679.035156 499.558594 679.882812 499.285156 680.65625 C 498.90625 681.691406 497.976562 682.433594 497.082031 683.070312 C 494.835938 684.695312 492.449219 686.152344 489.976562 687.414062 C 484.191406 690.34375 477.417969 692.179688 471.253906 690.21875 C 464.707031 688.171875 458.4375 682.234375 459.5 671.867188 Z M 459.5 671.867188 "/><path style=" stroke:none;fill-rule:nonzero;fill:#ffffff;fill-opacity:1;" d="M 449.628906 676.316406 C 461.535156 675.449219 473.46875 675.164062 485.40625 675.421875 C 494.089844 675.617188 502.835938 676.105469 511.308594 678.03125 C 519.78125 679.960938 528.042969 683.359375 534.753906 688.886719 C 536.5 690.3125 538.15625 691.9375 539.144531 693.96875 C 540.128906 696.003906 540.3125 698.523438 539.160156 700.46875 C 537.578125 703.109375 534.148438 703.882812 531.09375 704.230469 C 520.34375 705.492188 509.472656 704.792969 498.660156 705.234375 C 485.085938 705.78125 471.027344 708.070312 458.210938 703.535156 C 456.070312 702.773438 453.925781 701.789062 452.347656 700.164062 C 450.722656 698.476562 449.796875 696.246094 449.054688 694.046875 C 447.335938 688.914062 446.351562 683.253906 449.628906 676.316406 Z M 449.628906 676.316406 "/><path style=" stroke:none;fill-rule:nonzero;fill:#ffffff;fill-opacity:1;" d="M 400.871094 658.070312 C 422.070312 658.070312 443.269531 659.421875 464.296875 662.109375 C 465.347656 662.246094 466.441406 662.394531 467.273438 663.035156 C 468.171875 663.730469 468.609375 664.855469 468.914062 665.949219 C 470.039062 670.03125 469.871094 674.34375 469.6875 678.578125 C 469.355469 686.730469 469.003906 694.882812 467.988281 702.972656 C 467.777344 704.625 467.472656 706.417969 466.257812 707.539062 C 465.390625 708.34375 464.207031 708.679688 463.070312 708.953125 C 449.371094 712.125 434.535156 708.101562 423.238281 699.722656 C 411.941406 691.34375 404.015625 678.957031 399.445312 665.660156 C 398.566406 663.109375 397.789062 660.40625 400.871094 658.070312 Z M 400.871094 658.070312 "/><g clip-rule="nonzero" clip-path="url(#450fc01171)"><path style=" stroke:none;fill-rule:nonzero;fill:#000000;fill-opacity:1;" d="M 749.511719 703.0625 C 749.511719 703.0625 747.140625 712.59375 746.261719 717.542969 C 663.445312 717.621094 579.851562 717.679688 497.035156 717.757812 C 490.539062 717.757812 484.054688 717.773438 477.554688 717.773438 C 478.421875 711.351562 479.648438 704.992188 481.0625 697.902344 C 524.324219 698.070312 567.570312 698.234375 609.949219 697.992188 C 627.667969 663.09375 645.148438 628.074219 661.152344 592.464844 C 709.285156 590.019531 757.574219 590.488281 805.859375 594.375 C 786.621094 632.765625 749.511719 703.0625 749.511719 703.0625 Z M 749.511719 703.0625 "/></g><path style=" stroke:none;fill-rule:nonzero;fill:#ffffff;fill-opacity:1;" d="M 713.21875 637.457031 C 702.394531 636.394531 687.464844 665.675781 699.234375 666.84375 C 711.640625 668.058594 726.261719 638.730469 713.21875 637.457031 Z M 713.21875 637.457031 "/><path style=" stroke:none;fill-rule:nonzero;fill:#000000;fill-opacity:1;" d="M 686.085938 285.117188 C 686.175781 284.722656 686.28125 284.300781 686.585938 284.042969 C 686.949219 283.722656 687.496094 283.722656 687.984375 283.753906 C 692.21875 283.949219 696.457031 284.148438 700.691406 284.34375 C 701.984375 276.117188 703.53125 267.9375 705.324219 259.8125 C 705.492188 259.070312 706.570312 259.148438 706.644531 259.890625 L 709.832031 292.375 C 709.941406 293.46875 709.953125 294.789062 709.027344 295.394531 C 708.527344 295.730469 707.875 295.746094 707.265625 295.730469 C 700.8125 295.667969 694.359375 295.625 687.90625 295.5625 C 687.207031 295.5625 686.480469 295.546875 685.855469 295.214844 C 684.230469 294.363281 685.445312 288.0625 686.085938 285.117188 Z M 686.085938 285.117188 "/><path style=" stroke:none;fill-rule:nonzero;fill:#000000;fill-opacity:1;" d="M 339.921875 188.257812 C 347.9375 178.527344 355.257812 168.265625 361.832031 157.519531 C 361.042969 157.625 360.238281 157.730469 359.449219 157.851562 C 366.402344 165.320312 373.34375 172.773438 380.296875 180.242188 C 380.859375 180.847656 381.875 180.789062 382.4375 180.226562 C 397.152344 165.714844 411.867188 151.203125 426.582031 136.691406 C 427.976562 135.324219 425.804688 133.183594 424.425781 134.566406 C 409.710938 149.078125 394.996094 163.589844 380.28125 178.101562 C 380.996094 178.101562 381.710938 178.085938 382.421875 178.085938 C 375.46875 170.617188 368.53125 163.164062 361.574219 155.695312 C 360.890625 154.953125 359.675781 155.226562 359.191406 156.03125 C 352.753906 166.566406 345.601562 176.628906 337.765625 186.148438 C 336.535156 187.621094 338.675781 189.761719 339.921875 188.257812 Z M 339.921875 188.257812 "/><path style=" stroke:none;fill-rule:nonzero;fill:#000000;fill-opacity:1;" d="M 417.4375 135.597656 C 420.445312 136.234375 423.542969 136.433594 426.609375 136.101562 C 426.125 135.460938 425.636719 134.824219 425.152344 134.1875 C 424.53125 137.433594 424.316406 140.746094 424.574219 144.039062 C 424.636719 144.859375 425.214844 145.558594 426.078125 145.570312 C 426.839844 145.570312 427.671875 144.890625 427.613281 144.070312 C 427.371094 141.03125 427.507812 137.96875 428.082031 134.992188 C 428.25 134.140625 427.671875 132.972656 426.625 133.078125 C 423.800781 133.382812 420.976562 133.261719 418.230469 132.667969 C 417.421875 132.503906 416.589844 132.925781 416.375 133.746094 C 416.164062 134.503906 416.632812 135.433594 417.4375 135.597656 Z M 417.4375 135.597656 "/><path style=" stroke:none;fill-rule:nonzero;fill:#000000;fill-opacity:1;" d="M 437.238281 251.039062 C 441.628906 245.074219 446.199219 239.246094 450.964844 233.570312 C 450.253906 233.570312 449.539062 233.582031 448.824219 233.582031 C 453.914062 237.667969 458.984375 241.75 464.070312 245.847656 C 464.679688 246.335938 465.636719 246.5 466.210938 245.832031 C 472.042969 239.183594 476.71875 231.6875 481.109375 224.050781 C 485.875 215.734375 490.523438 207.339844 495.214844 198.988281 C 494.332031 198.988281 493.453125 198.988281 492.585938 198.988281 C 498.644531 209.585938 504.703125 220.164062 510.761719 230.761719 C 511.144531 231.414062 512.175781 231.808594 512.84375 231.320312 C 517.550781 227.859375 521.9375 224.019531 525.917969 219.738281 C 525.113281 219.632812 524.324219 219.542969 523.519531 219.4375 C 527.589844 226.433594 531.976562 233.25 536.667969 239.851562 C 537.0625 240.398438 537.671875 240.75 538.367188 240.566406 C 540.738281 239.945312 542.789062 238.867188 544.714844 237.363281 C 544.003906 237.363281 543.289062 237.378906 542.574219 237.378906 C 547.390625 242.554688 551.914062 247.988281 556.121094 253.667969 C 557.273438 255.214844 559.917969 253.710938 558.746094 252.148438 C 554.375 246.242188 549.695312 240.597656 544.699219 235.207031 C 544.09375 234.554688 543.183594 234.738281 542.558594 235.222656 C 541.070312 236.375 539.433594 237.136719 537.609375 237.605469 C 538.171875 237.847656 538.75 238.078125 539.308594 238.320312 C 534.617188 231.714844 530.230469 224.902344 526.160156 217.902344 C 525.675781 217.066406 524.445312 216.871094 523.761719 217.597656 C 519.964844 221.667969 515.820312 225.386719 511.324219 228.679688 C 512.023438 228.863281 512.707031 229.046875 513.40625 229.242188 C 507.347656 218.648438 501.289062 208.066406 495.230469 197.472656 C 494.652344 196.46875 493.164062 196.46875 492.601562 197.472656 C 488.015625 205.621094 483.476562 213.804688 478.832031 221.941406 C 474.472656 229.5625 469.871094 237.074219 464.070312 243.695312 C 464.785156 243.695312 465.5 243.679688 466.210938 243.679688 C 461.125 239.59375 456.054688 235.511719 450.964844 231.414062 C 450.375 230.925781 449.386719 230.746094 448.824219 231.429688 C 443.890625 237.304688 439.167969 243.34375 434.628906 249.523438 C 433.445312 251.101562 436.085938 252.605469 437.238281 251.039062 Z M 437.238281 251.039062 "/><path style=" stroke:none;fill-rule:nonzero;fill:#000000;fill-opacity:1;" d="M 324.828125 102.15625 C 322.777344 132.730469 322.976562 163.421875 325.464844 193.964844 C 326.179688 202.648438 327.074219 211.332031 328.152344 219.96875 C 328.261719 220.789062 328.761719 221.46875 329.65625 221.5 C 342.410156 221.789062 355.183594 221.789062 367.953125 221.46875 C 369.910156 221.425781 369.925781 218.390625 367.96875 218.433594 C 355.210938 218.738281 342.441406 218.753906 329.671875 218.464844 C 330.171875 218.980469 330.675781 219.480469 331.175781 219.996094 C 327.394531 189.59375 325.859375 158.929688 326.636719 128.296875 C 326.847656 119.585938 327.257812 110.871094 327.851562 102.171875 C 328 100.230469 324.964844 100.214844 324.828125 102.15625 Z M 324.828125 102.15625 "/><path style=" stroke:none;fill-rule:nonzero;fill:#000000;fill-opacity:1;" d="M 458.785156 129.527344 C 461.472656 150.824219 461.308594 172.347656 460.441406 193.753906 C 460.230469 198.957031 459.972656 204.164062 459.710938 209.371094 C 459.636719 210.738281 459.578125 212.105469 459.5 213.457031 C 459.46875 214.003906 459.53125 214.625 459.410156 215.140625 C 459.074219 216.507812 458.664062 216.324219 457.527344 216.429688 C 454.777344 216.671875 451.953125 216.582031 449.191406 216.660156 C 438.453125 216.945312 427.734375 217.234375 417 217.523438 C 404.761719 217.859375 392.503906 218.175781 380.265625 218.511719 C 378.308594 218.554688 378.292969 221.59375 380.25 221.546875 C 403.363281 220.925781 426.457031 220.316406 449.570312 219.695312 C 452.210938 219.617188 454.882812 219.617188 457.527344 219.480469 C 459.5625 219.375 461.519531 218.828125 462.1875 216.6875 C 462.886719 214.457031 462.644531 211.726562 462.765625 209.402344 C 462.917969 206.425781 463.070312 203.453125 463.207031 200.476562 C 463.722656 189.199219 464.117188 177.90625 464.054688 166.609375 C 463.996094 153.964844 463.328125 141.335938 461.734375 128.78125 C 461.472656 126.824219 458.542969 127.613281 458.785156 129.527344 Z M 458.785156 129.527344 "/><path style=" stroke:none;fill-rule:nonzero;fill:#000000;fill-opacity:1;" d="M 415.84375 220.621094 C 417.015625 239.457031 418.183594 258.296875 419.351562 277.132812 C 419.398438 277.925781 420.003906 278.699219 420.855469 278.667969 C 453.53125 277.257812 486.242188 276.511719 518.949219 276.453125 C 528.257812 276.4375 537.5625 276.464844 546.871094 276.558594 C 548.832031 276.574219 548.847656 273.535156 546.886719 273.523438 C 514.179688 273.21875 481.472656 273.566406 448.78125 274.597656 C 439.472656 274.886719 430.179688 275.238281 420.871094 275.648438 C 421.371094 276.164062 421.871094 276.664062 422.375 277.179688 C 421.203125 258.34375 420.035156 239.503906 418.867188 220.664062 C 418.761719 218.691406 415.722656 218.675781 415.84375 220.621094 Z M 415.84375 220.621094 "/><path style=" stroke:none;fill-rule:nonzero;fill:#000000;fill-opacity:1;" d="M 567.386719 180.121094 C 570.105469 208.292969 570.410156 236.679688 568.222656 264.898438 C 568.070312 266.871094 568.117188 269.042969 567.691406 270.972656 C 567.296875 272.761719 565.792969 273.066406 564.183594 273.308594 C 561.007812 273.808594 557.730469 273.566406 554.539062 273.566406 C 552.582031 273.566406 552.566406 276.601562 554.527344 276.601562 C 557.53125 276.601562 560.570312 276.769531 563.558594 276.4375 C 565.898438 276.179688 568.691406 275.753906 569.984375 273.523438 C 570.710938 272.277344 570.773438 270.804688 570.894531 269.40625 C 571.078125 267.417969 571.230469 265.414062 571.378906 263.410156 C 571.652344 259.664062 571.898438 255.914062 572.078125 252.164062 C 572.851562 236.90625 572.914062 221.621094 572.261719 206.351562 C 571.882812 197.59375 571.257812 188.847656 570.421875 180.121094 C 570.242188 178.207031 567.203125 178.179688 567.386719 180.121094 Z M 567.386719 180.121094 "/><path style=" stroke:none;fill-rule:nonzero;fill:#000000;fill-opacity:1;" d="M 641.183594 339.113281 C 641.835938 334.148438 642.476562 329.15625 642.398438 324.144531 C 642.324219 319.5 641.304688 315.234375 640.242188 310.742188 C 639.679688 308.40625 639.300781 306.023438 639.679688 303.625 C 640.058594 301.179688 641.078125 298.871094 642.230469 296.6875 C 644.371094 292.585938 646.816406 288.671875 648.777344 284.464844 C 650.703125 280.308594 652.238281 276.027344 653.148438 271.53125 C 653.4375 270.121094 653.679688 268.132812 654.804688 267.101562 C 656.566406 265.476562 658.859375 268.359375 659.632812 269.742188 C 661.972656 273.945312 660.925781 279.136719 660.316406 283.660156 C 659.648438 288.640625 658.675781 293.679688 658.402344 298.691406 C 658.113281 303.925781 660.621094 308.207031 662.792969 312.761719 C 665.191406 317.785156 666.996094 323.386719 665.890625 328.988281 C 665.507812 330.902344 668.441406 331.691406 668.820312 329.777344 C 669.835938 324.648438 668.867188 319.578125 666.953125 314.765625 C 665.085938 310.042969 661.546875 305.398438 661.410156 300.175781 C 661.332031 297.355469 661.910156 294.515625 662.277344 291.722656 C 662.671875 288.792969 663.050781 285.863281 663.445312 282.949219 C 664.082031 278.121094 664.765625 272.992188 662.398438 268.480469 C 660.773438 265.386719 656.777344 261.925781 653.269531 264.445312 C 650.097656 266.707031 650.097656 272.019531 649.078125 275.390625 C 647.53125 280.503906 645.132812 285.316406 642.519531 289.976562 C 640.121094 294.257812 637.359375 298.523438 636.675781 303.488281 C 635.871094 309.316406 638.664062 314.855469 639.210938 320.578125 C 639.785156 326.757812 638.980469 332.964844 638.175781 339.097656 C 637.890625 341.027344 640.941406 341.027344 641.183594 339.113281 Z M 641.183594 339.113281 "/><path style=" stroke:none;fill-rule:nonzero;fill:#000000;fill-opacity:1;" d="M 679.238281 341.042969 C 679.359375 340.375 679.511719 339.71875 679.707031 339.066406 C 679.8125 338.71875 679.917969 338.371094 680.042969 338.035156 C 680.101562 337.867188 680.164062 337.703125 680.222656 337.519531 C 680.238281 337.472656 680.40625 337.050781 680.34375 337.199219 C 680.285156 337.335938 680.464844 336.925781 680.480469 336.882812 C 680.558594 336.714844 680.632812 336.546875 680.710938 336.382812 C 680.847656 336.078125 680.996094 335.773438 681.164062 335.46875 C 681.5 334.847656 681.847656 334.253906 682.242188 333.664062 C 682.683594 332.996094 682.363281 331.949219 681.679688 331.597656 C 680.90625 331.203125 680.085938 331.460938 679.617188 332.160156 C 677.992188 334.589844 676.851562 337.382812 676.320312 340.25 C 676.167969 341.027344 676.550781 341.921875 677.398438 342.105469 C 678.128906 342.285156 679.070312 341.875 679.238281 341.042969 Z M 679.238281 341.042969 "/><path style=" stroke:none;fill-rule:nonzero;fill:#000000;fill-opacity:1;" d="M 686.722656 480.863281 C 688.984375 476.1875 691.445312 471.617188 694.132812 467.183594 C 696.699219 462.949219 699.355469 458.59375 702.605469 454.8125 C 705.839844 451.046875 709.574219 448.742188 714.585938 448.285156 C 719.734375 447.816406 725.003906 447.984375 730.164062 448.074219 C 735.617188 448.179688 741.066406 448.453125 746.503906 448.878906 C 748.722656 449.058594 751.121094 449.03125 753.277344 449.652344 C 756.085938 450.457031 756.269531 452.792969 754.960938 455.070312 C 752.746094 458.941406 747.824219 461.445312 743.742188 462.796875 C 739.292969 464.269531 734.339844 464.027344 730.136719 466.214844 C 725.929688 468.398438 723.410156 472.632812 719.917969 475.683594 C 715.953125 479.144531 711.003906 481.257812 705.808594 482.046875 C 703.882812 482.335938 704.65625 485.277344 706.570312 484.992188 C 711.550781 484.230469 716.300781 482.273438 720.324219 479.238281 C 724.242188 476.277344 726.871094 471.601562 731.121094 469.144531 C 733.460938 467.792969 736.195312 467.457031 738.820312 467.03125 C 741.386719 466.625 743.863281 466.0625 746.292969 465.105469 C 750.605469 463.390625 755.464844 460.597656 757.726562 456.363281 C 759.835938 452.382812 758.589844 448.027344 754.050781 446.753906 C 751.878906 446.144531 749.496094 446.117188 747.25 445.933594 C 744.042969 445.675781 740.824219 445.460938 737.605469 445.3125 C 731.410156 445.023438 725.214844 444.945312 719.019531 445.082031 C 713.917969 445.1875 708.90625 445.597656 704.671875 448.726562 C 700.023438 452.140625 696.820312 457.332031 693.738281 462.113281 C 690.167969 467.671875 686.949219 473.453125 684.082031 479.390625 C 683.230469 481.105469 685.871094 482.621094 686.722656 480.863281 Z M 686.722656 480.863281 "/><path style=" stroke:none;fill-rule:nonzero;fill:#000000;fill-opacity:1;" d="M 755.539062 458 C 757.210938 463.753906 757.484375 469.824219 756.191406 475.683594 C 755.039062 480.90625 752.746094 486.691406 747.976562 489.621094 C 745.714844 491.015625 742.511719 491.957031 739.929688 490.820312 C 737.546875 489.773438 737.105469 486.84375 736.726562 484.566406 C 735.753906 478.585938 735.34375 472.347656 737.5625 466.578125 C 738.257812 464.757812 735.328125 463.980469 734.628906 465.789062 C 732.609375 471.023438 732.671875 476.671875 733.355469 482.167969 C 733.902344 486.554688 734.449219 492.15625 739.320312 493.824219 C 744.074219 495.449219 749.40625 493.097656 752.714844 489.664062 C 756.285156 485.976562 758.242188 480.816406 759.257812 475.867188 C 760.519531 469.6875 760.246094 463.285156 758.484375 457.242188 C 757.9375 455.359375 754.992188 456.132812 755.539062 458 Z M 755.539062 458 "/><path style=" stroke:none;fill-rule:nonzero;fill:#000000;fill-opacity:1;" d="M 746.566406 378.445312 C 738.882812 383.789062 732.109375 392.257812 730.425781 401.683594 C 729.648438 406.027344 730.136719 410.777344 733.386719 414.054688 C 735.070312 415.742188 737.257812 416.804688 739.351562 417.867188 C 741.75 419.082031 744.121094 420.371094 746.457031 421.738281 C 764.46875 432.332031 779.453125 447.222656 792.710938 463.222656 C 800.242188 472.316406 807.257812 481.832031 814.121094 491.425781 C 815.246094 493.003906 817.886719 491.503906 816.75 489.910156 C 805.238281 473.816406 793.304688 457.894531 779.304688 443.867188 C 772.347656 436.902344 764.878906 430.449219 756.816406 424.789062 C 752.761719 421.949219 748.539062 419.324219 744.179688 416.953125 C 740.203125 414.800781 734.84375 413.191406 733.492188 408.347656 C 732.0625 403.203125 734.476562 397.480469 737.015625 393.09375 C 739.761719 388.324219 743.558594 384.226562 748.082031 381.085938 C 749.679688 379.960938 748.175781 377.320312 746.566406 378.445312 Z M 746.566406 378.445312 "/><path style=" stroke:none;fill-rule:nonzero;fill:#000000;fill-opacity:1;" d="M 863.820312 448.5 C 867.265625 442 870 434.777344 870.972656 427.460938 C 871.304688 424.925781 871.257812 422.011719 869.726562 419.824219 C 868.148438 417.578125 865.351562 416.941406 862.847656 417.941406 C 859.597656 419.246094 856.699219 422.101562 854.011719 424.285156 C 850.957031 426.746094 847.980469 429.3125 845.125 432 C 840.28125 436.535156 835.757812 441.394531 831.671875 446.632812 C 825.765625 454.207031 820.753906 462.523438 817.492188 471.585938 C 815.804688 476.277344 814.316406 481.484375 814.394531 486.523438 C 814.421875 488.179688 814.695312 489.894531 815.410156 491.382812 C 816.988281 494.691406 820.40625 495.101562 823.609375 493.992188 C 827.058594 492.808594 829.898438 490.410156 832.507812 487.933594 C 835.910156 484.703125 839.25 481.410156 842.621094 478.144531 C 844.019531 476.792969 841.863281 474.652344 840.464844 476.019531 C 837.898438 478.492188 835.332031 480.984375 832.78125 483.457031 C 830.472656 485.6875 828.195312 488.085938 825.449219 489.773438 C 823.019531 491.261719 819.007812 492.992188 817.855469 489.257812 C 817.566406 488.34375 817.445312 487.402344 817.445312 486.464844 C 817.398438 482.347656 818.507812 478.175781 819.769531 474.304688 C 825.796875 455.753906 839.476562 440.242188 854.222656 427.992188 C 857.078125 425.621094 860.082031 422.707031 863.394531 421.007812 C 867.175781 419.066406 868.253906 423.117188 868.070312 426.03125 C 867.859375 429.417969 866.796875 432.910156 865.761719 436.128906 C 864.5625 439.875 863 443.488281 861.160156 446.964844 C 860.265625 448.710938 862.90625 450.230469 863.820312 448.5 Z M 863.820312 448.5 "/><path style=" stroke:none;fill-rule:nonzero;fill:#000000;fill-opacity:1;" d="M 823.566406 466.851562 C 833.753906 469.796875 842.894531 475.261719 851.914062 480.679688 C 853.585938 481.679688 855.105469 479.054688 853.417969 478.039062 C 844.171875 472.484375 834.789062 466.925781 824.339844 463.921875 C 822.457031 463.375 821.683594 466.304688 823.566406 466.851562 Z M 823.566406 466.851562 "/><path style=" stroke:none;fill-rule:nonzero;fill:#000000;fill-opacity:1;" d="M 846.34375 435.609375 C 852.886719 445.855469 860.464844 455.421875 868.96875 464.117188 C 870.335938 465.515625 872.476562 463.359375 871.09375 461.964844 C 862.789062 453.445312 855.378906 444.125 848.96875 434.09375 C 847.9375 432.453125 845.296875 433.957031 846.34375 435.609375 Z M 846.34375 435.609375 "/><path style=" stroke:none;fill-rule:nonzero;fill:#000000;fill-opacity:1;" d="M 869.695312 460.929688 C 861.34375 461.460938 856.105469 469.144531 853.359375 476.277344 C 852.691406 478.007812 852.523438 480.085938 853.949219 481.515625 C 855.226562 482.789062 857.304688 482.851562 858.929688 482.320312 C 862.605469 481.136719 865.65625 477.886719 867.933594 474.894531 C 869.242188 473.179688 870.378906 471.328125 871.292969 469.355469 C 872.308594 467.125 872.929688 464.847656 871.914062 462.507812 C 871.578125 461.75 870.488281 461.582031 869.832031 461.949219 C 869.058594 462.402344 868.953125 463.269531 869.273438 464.027344 C 869.832031 465.316406 869.058594 466.972656 868.511719 468.125 C 867.859375 469.507812 867.101562 470.828125 866.234375 472.085938 C 864.566406 474.53125 862.378906 476.945312 859.84375 478.539062 C 858.945312 479.101562 857.488281 479.949219 856.378906 479.527344 C 855.332031 479.132812 856.121094 477.460938 856.410156 476.777344 C 857.671875 473.832031 859.1875 470.859375 861.34375 468.460938 C 863.488281 466.078125 866.386719 464.179688 869.667969 463.964844 C 871.625 463.84375 871.640625 460.808594 869.695312 460.929688 Z M 869.695312 460.929688 "/><path style=" stroke:none;fill-rule:nonzero;fill:#000000;fill-opacity:1;" d="M 758.910156 380.066406 C 782.886719 397.875 810.703125 410.414062 839.90625 416.636719 C 848.089844 418.382812 856.394531 419.625 864.730469 420.386719 C 866.675781 420.566406 866.675781 417.53125 864.746094 417.351562 C 835.378906 414.679688 806.679688 405.601562 781.09375 390.96875 C 773.941406 386.867188 767.035156 382.34375 760.414062 377.425781 C 758.847656 376.273438 757.363281 378.914062 758.910156 380.066406 Z M 758.910156 380.066406 "/><path style=" stroke:none;fill-rule:nonzero;fill:#000000;fill-opacity:1;" d="M 744.332031 420.476562 C 740.886719 424.816406 737 430.191406 738.925781 436.050781 C 739.761719 438.585938 741.660156 440.5 743.742188 442.078125 C 746.15625 443.929688 748.722656 445.597656 751.316406 447.179688 C 754.050781 448.816406 756.84375 450.335938 759.730469 451.6875 C 762.160156 452.839844 764.757812 454.222656 767.503906 454.328125 C 772.714844 454.507812 776.023438 449.789062 778.363281 445.78125 C 779.347656 444.097656 776.722656 442.59375 775.71875 444.277344 C 773.835938 447.496094 771.089844 451.976562 766.699219 451.183594 C 764.375 450.777344 762.128906 449.5 760.035156 448.46875 C 757.769531 447.359375 755.539062 446.144531 753.367188 444.871094 C 751.289062 443.640625 749.269531 442.320312 747.277344 440.9375 C 745.441406 439.648438 743.40625 438.265625 742.296875 436.25 C 739.625 431.4375 743.589844 426.230469 746.472656 422.585938 C 747.703125 421.097656 745.546875 418.945312 744.332031 420.476562 Z M 744.332031 420.476562 "/><path style=" stroke:none;fill-rule:nonzero;fill:#000000;fill-opacity:1;" d="M 782.976562 398.722656 C 774.792969 406.890625 767.730469 416.136719 761.976562 426.167969 C 761.003906 427.871094 763.648438 429.371094 764.621094 427.671875 C 770.238281 417.851562 777.132812 408.847656 785.148438 400.863281 C 786.53125 399.484375 784.375 397.34375 782.976562 398.722656 Z M 782.976562 398.722656 "/><path style=" stroke:none;fill-rule:nonzero;fill:#000000;fill-opacity:1;" d="M 508.441406 491.078125 C 528.910156 493.550781 548.96875 499.410156 567.570312 508.308594 C 576.695312 512.679688 585.472656 517.765625 593.777344 523.515625 C 602.449219 529.527344 610.464844 536.359375 618.5 543.175781 C 627.546875 550.855469 636.6875 558.507812 646.726562 564.898438 C 648.382812 565.945312 649.886719 563.304688 648.230469 562.253906 C 630.085938 550.71875 615.113281 535.054688 597.679688 522.558594 C 580.960938 510.582031 562.253906 501.371094 542.621094 495.28125 C 531.476562 491.820312 520.042969 489.421875 508.46875 488.027344 C 506.527344 487.800781 506.527344 490.835938 508.441406 491.078125 Z M 508.441406 491.078125 "/><path style=" stroke:none;fill-rule:nonzero;fill:#000000;fill-opacity:1;" d="M 422.785156 496.40625 C 432.652344 509.324219 442.660156 522.136719 452.773438 534.855469 C 453.425781 535.660156 454.6875 535.265625 455.15625 534.523438 C 461.488281 524.578125 467.804688 514.636719 474.136719 504.695312 C 473.257812 504.695312 472.375 504.695312 471.511719 504.695312 C 478.253906 513.769531 485.496094 522.453125 493.242188 530.710938 C 494.058594 531.59375 495.425781 531.046875 495.777344 530.027344 C 499.722656 518.324219 502.777344 506.347656 504.902344 494.191406 C 505.234375 492.277344 502.304688 491.472656 501.972656 493.398438 C 499.847656 505.558594 496.792969 517.550781 492.84375 529.238281 C 493.695312 529.011719 494.53125 528.785156 495.382812 528.554688 C 487.820312 520.511719 480.726562 512.039062 474.152344 503.191406 C 473.46875 502.265625 472.179688 502.160156 471.527344 503.191406 C 465.195312 513.132812 458.878906 523.078125 452.546875 533.019531 C 453.335938 532.914062 454.140625 532.808594 454.929688 532.683594 C 444.96875 520.175781 435.144531 507.578125 425.425781 494.886719 C 424.242188 493.355469 421.597656 494.859375 422.785156 496.40625 Z M 422.785156 496.40625 "/><path style=" stroke:none;fill-rule:nonzero;fill:#000000;fill-opacity:1;" d="M 547.585938 546.347656 C 555.316406 564.335938 560.597656 583.019531 562.605469 602.527344 C 564.609375 622.046875 564.304688 641.75 564.488281 661.347656 C 564.59375 672.582031 564.683594 683.816406 564.789062 695.0625 C 564.804688 697.019531 567.84375 697.035156 567.828125 695.078125 C 567.644531 674.691406 567.570312 654.320312 567.25 633.933594 C 566.929688 614.382812 565.882812 594.710938 560.992188 575.691406 C 558.277344 565.125 554.527344 554.847656 550.214844 544.828125 C 549.4375 543.039062 546.8125 544.570312 547.585938 546.347656 Z M 547.585938 546.347656 "/><path style=" stroke:none;fill-rule:nonzero;fill:#000000;fill-opacity:1;" d="M 471.511719 676.589844 C 484.691406 675.890625 497.902344 677.042969 510.734375 680.125 C 520.953125 682.585938 537.59375 686.363281 538.976562 699.207031 C 539.1875 701.136719 542.226562 701.164062 542.011719 699.222656 C 540.554688 685.546875 525.597656 680.855469 514.316406 677.894531 C 500.390625 674.238281 485.90625 672.792969 471.527344 673.554688 C 469.566406 673.644531 469.550781 676.679688 471.511719 676.589844 Z M 471.511719 676.589844 "/><path style=" stroke:none;fill-rule:nonzero;fill:#000000;fill-opacity:1;" d="M 470.039062 707.375 C 473.621094 708.101562 477.28125 708.34375 480.910156 708.042969 C 481.730469 707.964844 482.429688 707.402344 482.445312 706.539062 C 482.445312 705.78125 481.761719 704.945312 480.941406 705.003906 C 477.554688 705.292969 474.152344 705.128906 470.828125 704.445312 C 470.023438 704.277344 469.1875 704.6875 468.976562 705.523438 C 468.761719 706.265625 469.234375 707.207031 470.039062 707.375 Z M 470.039062 707.375 "/><path style=" stroke:none;fill-rule:nonzero;fill:#000000;fill-opacity:1;" d="M 352.523438 653.273438 C 379.675781 654.320312 406.792969 656.414062 433.777344 659.558594 C 440.609375 660.363281 447.445312 661.210938 454.261719 662.152344 C 457.328125 662.578125 460.457031 662.867188 463.480469 663.519531 C 466.589844 664.1875 468.398438 665.71875 468.71875 669 C 469.355469 675.511719 469.003906 682.28125 468.6875 688.808594 C 468.519531 692.164062 468.277344 695.519531 467.957031 698.859375 C 467.792969 700.589844 467.609375 702.320312 467.394531 704.050781 C 467.214844 705.628906 467.183594 707.511719 466.453125 708.96875 C 465.132812 711.59375 461.414062 711.578125 458.894531 711.714844 C 455.128906 711.914062 451.363281 712.109375 447.609375 712.324219 C 439.835938 712.730469 432.0625 713.140625 424.273438 713.566406 C 422.328125 713.671875 422.296875 716.710938 424.257812 716.601562 C 431.652344 716.207031 439.0625 715.8125 446.457031 715.417969 C 450.101562 715.222656 453.730469 715.039062 457.375 714.84375 C 460.09375 714.691406 462.976562 714.722656 465.527344 713.644531 C 467.914062 712.625 469.355469 710.683594 469.871094 708.164062 C 470.554688 704.761719 470.78125 701.210938 471.101562 697.765625 C 471.753906 690.449219 472.042969 683.101562 471.96875 675.769531 C 471.90625 670.273438 472.527344 663.519531 466.363281 661.195312 C 463.402344 660.074219 460.03125 659.921875 456.917969 659.480469 C 453.441406 658.996094 449.964844 658.527344 446.488281 658.085938 C 431.832031 656.1875 417.136719 654.609375 402.421875 653.347656 C 385.824219 651.921875 369.199219 650.890625 352.554688 650.253906 C 350.582031 650.160156 350.566406 653.199219 352.523438 653.273438 Z M 352.523438 653.273438 "/><path style=" stroke:none;fill-rule:nonzero;fill:#000000;fill-opacity:1;" d="M 399.566406 554.742188 C 397.789062 581.125 391.699219 607.1875 381.574219 631.613281 C 378.71875 638.488281 375.542969 645.226562 372.066406 651.816406 C 371.15625 653.546875 373.796875 655.050781 374.710938 653.320312 C 387.207031 629.578125 395.832031 603.816406 400.050781 577.328125 C 401.253906 569.84375 402.085938 562.316406 402.605469 554.757812 C 402.742188 552.8125 399.703125 552.796875 399.566406 554.742188 Z M 399.566406 554.742188 "/><g clip-rule="nonzero" clip-path="url(#bef491f86e)"><path style=" stroke:none;fill-rule:nonzero;fill:#000000;fill-opacity:1;" d="M 414.066406 493.386719 C 399.792969 498 385.671875 503.054688 371.734375 508.566406 C 365.855469 510.886719 359.859375 513.179688 354.800781 517.066406 C 349.578125 521.089844 346.164062 526.71875 342.898438 532.335938 C 328.941406 556.425781 316.734375 581.5625 307.246094 607.75 C 302.582031 620.605469 298.363281 633.78125 295.445312 647.15625 C 292.878906 658.890625 291.421875 671.503906 294.777344 683.238281 C 298.027344 694.609375 306.015625 703.410156 316.476562 708.726562 C 325.40625 713.261719 335.273438 715.3125 345.207031 716.042969 C 365.203125 717.527344 385.382812 717.121094 405.429688 717.089844 C 407.460938 717.089844 409.480469 717.089844 411.515625 717.089844 C 413.476562 717.089844 413.492188 714.054688 411.53125 714.054688 C 392.203125 714.054688 372.84375 714.296875 353.527344 713.476562 C 344.660156 713.097656 335.867188 712.445312 327.332031 709.816406 C 316.507812 706.492188 306.316406 700.207031 300.789062 690.023438 C 295.019531 679.382812 295.15625 666.601562 297.054688 654.957031 C 299.105469 642.3125 302.945312 629.867188 307 617.722656 C 315.597656 591.992188 326.96875 567.25 340.089844 543.523438 C 343.246094 537.800781 346.328125 531.925781 350.066406 526.554688 C 353.832031 521.164062 358.78125 517.503906 364.703125 514.742188 C 371.066406 511.78125 377.746094 509.398438 384.320312 506.941406 C 391.046875 504.421875 397.820312 502.007812 404.625 499.683594 C 408.023438 498.53125 411.441406 497.390625 414.859375 496.285156 C 416.695312 495.722656 415.9375 492.792969 414.066406 493.386719 Z M 414.066406 493.386719 "/></g><path style=" stroke:none;fill-rule:nonzero;fill:#000000;fill-opacity:1;" d="M 417.152344 487.023438 C 401.875 485.492188 386.582031 484.214844 371.277344 483.167969 C 363.625 482.652344 355.957031 482.199219 348.304688 481.789062 C 344.539062 481.589844 340.773438 481.410156 336.992188 481.242188 C 333.332031 481.074219 329.625 480.785156 325.96875 481.121094 C 319.300781 481.742188 313.167969 484.945312 307.472656 488.269531 C 301.488281 491.761719 295.871094 495.890625 290.722656 500.519531 C 285.289062 505.390625 280.320312 510.75 275.3125 516.046875 C 270.011719 521.632812 264.726562 527.234375 259.429688 532.820312 C 247.539062 545.375 235.648438 557.929688 223.742188 570.484375 C 222.40625 571.894531 224.5625 574.035156 225.898438 572.609375 C 236.316406 561.601562 246.734375 550.613281 257.148438 539.605469 C 267.292969 528.890625 277.222656 517.914062 287.71875 507.515625 C 292.667969 502.597656 297.9375 498.046875 303.75 494.160156 C 309.386719 490.394531 315.671875 486.507812 322.277344 484.792969 C 325.753906 483.882812 329.324219 483.941406 332.890625 484.078125 C 336.640625 484.230469 340.390625 484.398438 344.144531 484.582031 C 351.554688 484.945312 358.964844 485.371094 366.375 485.839844 C 383.320312 486.933594 400.25 488.332031 417.152344 490.015625 C 419.078125 490.257812 419.078125 487.207031 417.152344 487.023438 Z M 417.152344 487.023438 "/><path style=" stroke:none;fill-rule:nonzero;fill:#000000;fill-opacity:1;" d="M 149.976562 501.65625 C 149.507812 497.4375 149.917969 493.234375 151.296875 489.210938 C 152.742188 485.003906 155.414062 481.605469 157.980469 478.039062 C 162.429688 471.828125 164.144531 464.621094 167.105469 457.710938 C 168.472656 454.496094 170.1875 451.382812 172.722656 448.921875 C 174.046875 447.632812 176.292969 445.980469 178.207031 447.101562 C 179.679688 447.96875 180.089844 450.015625 179.980469 451.578125 C 179.847656 453.660156 178.980469 455.632812 178.402344 457.621094 C 177.8125 459.65625 177.476562 461.75 177.292969 463.859375 C 176.929688 468.355469 177.371094 472.890625 177.828125 477.355469 C 178.859375 487.769531 180.40625 498.136719 182.425781 508.398438 C 182.808594 510.324219 185.738281 509.535156 185.371094 507.640625 C 183.351562 497.390625 181.804688 487.039062 180.800781 476.640625 C 180.316406 471.632812 179.800781 466.472656 180.636719 461.476562 C 181.332031 457.347656 183.824219 453.1875 182.792969 448.910156 C 181.972656 445.554688 179.039062 443.050781 175.472656 443.855469 C 171.753906 444.6875 168.957031 448.179688 167.03125 451.230469 C 162.703125 458.105469 161.53125 466.441406 157.417969 473.421875 C 154.761719 477.945312 151.101562 481.710938 149.082031 486.613281 C 147.109375 491.382812 146.394531 496.542969 146.957031 501.65625 C 147.152344 503.570312 150.191406 503.601562 149.976562 501.65625 Z M 149.976562 501.65625 "/><path style=" stroke:none;fill-rule:nonzero;fill:#000000;fill-opacity:1;" d="M 126.109375 493.523438 C 128.507812 507.472656 140.546875 516.320312 147.761719 527.675781 C 148.808594 529.316406 151.433594 527.8125 150.386719 526.15625 C 143.355469 515.078125 131.390625 506.332031 129.054688 492.761719 C 128.703125 490.835938 125.773438 491.609375 126.109375 493.523438 Z M 126.109375 493.523438 "/><g clip-rule="nonzero" clip-path="url(#089cf26bd5)"><path style=" stroke:none;fill-rule:nonzero;fill:#000000;fill-opacity:1;" d="M 117.269531 439.679688 C 112.882812 445.570312 109.390625 452.507812 109.207031 459.988281 C 109.054688 466.425781 111.5 473.242188 116.691406 477.28125 C 119.304688 479.3125 122.613281 480.617188 125.957031 480.269531 C 129.191406 479.9375 131.816406 477.960938 133.699219 475.398438 C 137.511719 470.191406 138.90625 462.949219 137.34375 456.710938 C 135.203125 448.179688 127.214844 444.171875 120.382812 439.753906 C 118.742188 438.691406 117.238281 441.332031 118.878906 442.394531 C 123.890625 445.644531 130.328125 448.679688 133.183594 454.207031 C 135.765625 459.199219 135.324219 465.515625 133.03125 470.523438 C 131.890625 473.015625 130.222656 475.59375 127.640625 476.734375 C 124.617188 478.070312 121.066406 476.882812 118.574219 474.941406 C 114.171875 471.511719 112.167969 465.742188 112.226562 460.308594 C 112.304688 453.25 115.765625 446.738281 119.898438 441.210938 C 121.066406 439.632812 118.421875 438.128906 117.269531 439.679688 Z M 117.269531 439.679688 "/></g><path style=" stroke:none;fill-rule:nonzero;fill:#000000;fill-opacity:1;" d="M 208.117188 249.976562 C 207.996094 261.621094 208.46875 273.261719 209.515625 284.859375 C 209.636719 286.152344 211.109375 286.910156 212.113281 285.9375 C 219.15625 279.167969 226.1875 272.382812 233.234375 265.613281 C 234.644531 264.261719 232.476562 262.121094 231.078125 263.488281 C 224.03125 270.257812 217 277.042969 209.957031 283.8125 C 210.820312 284.179688 211.6875 284.527344 212.554688 284.890625 C 211.488281 273.292969 211.035156 261.652344 211.15625 250.007812 C 211.1875 248.035156 208.148438 248.019531 208.117188 249.976562 Z M 208.117188 249.976562 "/><path style=" stroke:none;fill-rule:nonzero;fill:#000000;fill-opacity:1;" d="M 217.640625 323.539062 C 220.890625 313.367188 227.238281 305.246094 235.542969 298.691406 C 239.886719 295.257812 243.300781 291.570312 246.140625 286.820312 C 248.800781 282.371094 251.078125 277.574219 254.8125 273.871094 C 256.390625 272.308594 258.273438 270.851562 260.382812 270.105469 C 263.164062 269.136719 264.742188 271.183594 264.621094 273.839844 C 264.5 276.300781 262.859375 278.457031 261.75 280.550781 C 260.507812 282.917969 259.761719 285.378906 259.457031 288.035156 C 258.851562 293.332031 259.839844 298.691406 259.078125 303.988281 C 258.378906 308.800781 256.589844 313.382812 254.613281 317.785156 C 250.394531 327.152344 244.941406 336.53125 245.367188 347.144531 C 245.441406 349.085938 248.480469 349.117188 248.402344 347.160156 C 247.980469 336.59375 253.765625 327.320312 257.847656 317.953125 C 259.824219 313.414062 261.523438 308.753906 262.144531 303.820312 C 262.90625 297.886719 261.449219 291.707031 262.90625 285.847656 C 264.105469 281.050781 268.570312 277.089844 267.492188 271.820312 C 267.097656 269.925781 266.003906 268.101562 264.226562 267.238281 C 261.964844 266.128906 259.398438 267.085938 257.332031 268.195312 C 247.3125 273.597656 245.167969 286.226562 237.078125 293.527344 C 234.585938 295.773438 231.824219 297.671875 229.332031 299.917969 C 227.054688 301.96875 224.988281 304.230469 223.121094 306.675781 C 219.402344 311.515625 216.59375 316.9375 214.738281 322.765625 C 214.117188 324.617188 217.046875 325.390625 217.640625 323.539062 Z M 217.640625 323.539062 "/><path style=" stroke:none;fill-rule:nonzero;fill:#000000;fill-opacity:1;" d="M 200.480469 314.292969 C 199.765625 327.136719 200.953125 340.023438 203.972656 352.515625 C 204.429688 354.414062 207.375 353.65625 206.917969 351.757812 C 203.957031 339.492188 202.835938 326.910156 203.535156 314.308594 C 203.640625 312.351562 200.601562 312.351562 200.480469 314.292969 Z M 200.480469 314.292969 "/><path style=" stroke:none;fill-rule:nonzero;fill:#000000;fill-opacity:1;" d="M 637.191406 246 C 633.058594 249.886719 629.050781 253.894531 625.148438 258.007812 C 624.707031 258.480469 624.558594 259.269531 624.921875 259.828125 C 630.859375 269.210938 637.28125 278.273438 644.160156 287 C 645.359375 288.535156 647.484375 286.363281 646.285156 284.847656 C 639.589844 276.328125 633.347656 267.480469 627.546875 258.328125 C 627.472656 258.933594 627.394531 259.542969 627.320312 260.148438 C 631.222656 256.035156 635.230469 252.027344 639.363281 248.140625 C 640.773438 246.804688 638.617188 244.664062 637.191406 246 Z M 637.191406 246 "/><path style=" stroke:none;fill-rule:nonzero;fill:#000000;fill-opacity:1;" d="M 669.320312 319.804688 C 680.34375 334.910156 692.324219 349.300781 705.203125 362.871094 C 705.6875 363.386719 706.433594 363.386719 707.023438 363.097656 C 712.355469 360.578125 717.0625 357.054688 721.753906 353.550781 C 726.339844 350.117188 730.910156 346.6875 735.433594 343.179688 C 744.515625 336.152344 753.398438 328.820312 761.550781 320.730469 C 766.214844 316.101562 770.601562 311.226562 774.640625 306.066406 C 775.824219 304.550781 773.683594 302.394531 772.484375 303.941406 C 758.332031 321.992188 740.066406 336.078125 721.84375 349.738281 C 716.621094 353.65625 711.441406 357.695312 705.507812 360.5 C 706.113281 360.578125 706.722656 360.652344 707.328125 360.730469 C 694.632812 347.371094 682.804688 333.207031 671.933594 318.316406 C 670.808594 316.722656 668.167969 318.226562 669.320312 319.804688 Z M 669.320312 319.804688 "/><path style=" stroke:none;fill-rule:nonzero;fill:#000000;fill-opacity:1;" d="M 680.253906 214.972656 C 684.851562 211.632812 689.46875 208.308594 694.070312 204.96875 C 693.464844 204.894531 692.855469 204.816406 692.25 204.742188 C 703.105469 217.21875 713.523438 230.078125 723.894531 242.964844 C 734.933594 256.703125 745.878906 270.546875 756.585938 284.542969 C 760.65625 289.855469 764.722656 295.199219 768.613281 300.648438 C 769.734375 302.226562 772.378906 300.722656 771.238281 299.128906 C 763.160156 287.789062 754.519531 276.832031 745.925781 265.886719 C 734.507812 251.3125 722.953125 236.863281 711.199219 222.5625 C 705.671875 215.839844 700.097656 209.144531 694.390625 202.585938 C 693.996094 202.132812 693.066406 201.996094 692.566406 202.359375 C 687.964844 205.699219 683.351562 209.023438 678.75 212.363281 C 677.171875 213.46875 678.65625 216.113281 680.253906 214.972656 Z M 680.253906 214.972656 "/><path style=" stroke:none;fill-rule:nonzero;fill:#000000;fill-opacity:1;" d="M 678.308594 227.632812 C 683.898438 223.761719 689.484375 219.875 695.074219 216.003906 C 694.464844 215.929688 693.859375 215.855469 693.253906 215.777344 C 706.3125 232.519531 719.371094 249.265625 732.429688 266.007812 C 738.957031 274.386719 745.488281 282.75 752.015625 291.128906 C 753.566406 293.117188 755.128906 295.121094 756.679688 297.109375 C 757.453125 298.113281 758.226562 299.097656 759.015625 300.101562 C 759.320312 300.496094 759.640625 300.890625 759.941406 301.300781 C 760.761719 302.347656 761.066406 302.410156 760.246094 303.488281 C 757.375 307.207031 753.703125 310.558594 750.347656 313.855469 C 742.632812 321.398438 734.328125 328.320312 725.535156 334.574219 C 723.957031 335.699219 725.457031 338.339844 727.054688 337.199219 C 735.328125 331.324219 743.195312 324.890625 750.542969 317.875 C 754.171875 314.429688 757.664062 310.847656 761.035156 307.144531 C 762.234375 305.824219 764.285156 304.199219 763.980469 302.195312 C 763.691406 300.269531 761.355469 298.234375 760.199219 296.746094 C 746.367188 279 732.535156 261.273438 718.6875 243.527344 C 710.910156 233.554688 703.136719 223.59375 695.363281 213.621094 C 694.984375 213.136719 694.027344 213.046875 693.539062 213.394531 C 687.953125 217.265625 682.363281 221.136719 676.777344 225.023438 C 675.199219 226.117188 676.699219 228.742188 678.308594 227.632812 Z M 678.308594 227.632812 "/><path style=" stroke:none;fill-rule:nonzero;fill:#000000;fill-opacity:1;" d="M 660.363281 297.582031 C 667.710938 306.949219 675.015625 316.359375 682.457031 325.679688 C 689.394531 334.390625 696.636719 342.894531 704.945312 350.332031 C 705.507812 350.832031 706.113281 350.832031 706.765625 350.558594 C 711.578125 348.539062 715.921875 345.671875 719.6875 342.074219 C 721.101562 340.722656 718.945312 338.597656 717.53125 339.949219 C 713.949219 343.363281 709.820312 346.019531 705.246094 347.933594 C 705.855469 348.007812 706.460938 348.085938 707.070312 348.160156 C 698.75 340.722656 691.519531 332.207031 684.582031 323.507812 C 677.15625 314.1875 669.851562 304.777344 662.488281 295.410156 C 661.289062 293.878906 659.164062 296.0625 660.363281 297.582031 Z M 660.363281 297.582031 "/><path style=" stroke:none;fill-rule:nonzero;fill:#000000;fill-opacity:1;" d="M 646.363281 250.480469 C 642.519531 253.695312 638.785156 257.035156 635.140625 260.480469 C 634.699219 260.890625 634.53125 261.789062 634.914062 262.304688 C 639.074219 268.011719 643.308594 273.671875 647.605469 279.289062 C 648.777344 280.824219 651.417969 279.320312 650.234375 277.773438 C 645.9375 272.15625 641.699219 266.492188 637.539062 260.785156 C 637.464844 261.394531 637.386719 262 637.3125 262.609375 C 640.941406 259.160156 644.691406 255.820312 648.535156 252.605469 C 650.019531 251.359375 647.851562 249.234375 646.363281 250.480469 Z M 646.363281 250.480469 "/><path style=" stroke:none;fill-rule:nonzero;fill:#000000;fill-opacity:1;" d="M 722.058594 502.050781 C 722.453125 501.429688 722.847656 500.792969 723.226562 500.171875 C 723.332031 500.003906 723.394531 499.820312 723.394531 499.625 C 723.4375 499.425781 723.421875 499.230469 723.363281 499.046875 C 723.316406 498.835938 723.226562 498.667969 723.089844 498.515625 C 722.984375 498.347656 722.832031 498.210938 722.648438 498.121094 C 722.300781 497.9375 721.890625 497.847656 721.511719 497.96875 C 721.390625 498.015625 721.253906 498.074219 721.132812 498.121094 C 720.886719 498.257812 720.707031 498.441406 720.570312 498.683594 C 720.175781 499.304688 719.78125 499.941406 719.398438 500.566406 C 719.292969 500.730469 719.234375 500.914062 719.234375 501.113281 C 719.1875 501.308594 719.203125 501.507812 719.261719 501.6875 C 719.308594 501.902344 719.398438 502.066406 719.535156 502.21875 C 719.644531 502.386719 719.792969 502.523438 719.976562 502.613281 C 720.324219 502.796875 720.734375 502.886719 721.117188 502.765625 C 721.238281 502.71875 721.375 502.660156 721.496094 502.613281 C 721.722656 502.476562 721.921875 502.296875 722.058594 502.050781 Z M 722.058594 502.050781 "/><path style=" stroke:none;fill-rule:nonzero;fill:#000000;fill-opacity:1;" d="M 434.324219 475.867188 C 432.804688 466.488281 427.414062 458.425781 422.160156 450.746094 C 421.066406 449.136719 418.425781 450.652344 419.535156 452.261719 C 424.652344 459.746094 429.921875 467.503906 431.394531 476.625 C 431.699219 478.570312 434.644531 477.78125 434.324219 475.867188 Z M 434.324219 475.867188 "/><path style=" stroke:none;fill-rule:nonzero;fill:#000000;fill-opacity:1;" d="M 475.566406 351.847656 C 479.375 361.398438 483.1875 370.945312 487 380.492188 C 490.628906 389.570312 494.5625 398.632812 496.898438 408.164062 C 500.832031 424.179688 498.660156 444.003906 482.277344 452.171875 C 472.574219 457 461.335938 456.332031 451.117188 453.734375 C 449.21875 453.25 448.429688 456.179688 450.328125 456.664062 C 459.835938 459.078125 470.070312 459.914062 479.46875 456.621094 C 487.667969 453.75 494.347656 447.996094 498.007812 440.089844 C 506.300781 422.160156 499.132812 402.777344 492.300781 385.683594 C 487.699219 374.148438 483.097656 362.625 478.496094 351.089844 C 477.78125 349.300781 474.835938 350.042969 475.566406 351.847656 Z M 475.566406 351.847656 "/><path style=" stroke:none;fill-rule:nonzero;fill:#000000;fill-opacity:1;" d="M 485.980469 450.957031 C 486.285156 459.640625 486.742188 468.324219 487.320312 477.007812 C 487.457031 478.949219 490.492188 478.980469 490.355469 477.019531 C 489.777344 468.355469 489.339844 459.671875 489.019531 450.972656 C 488.957031 449.015625 485.921875 449 485.980469 450.957031 Z M 485.980469 450.957031 "/></g></svg>