<svg xmlns="http://www.w3.org/2000/svg" xmlns:xlink="http://www.w3.org/1999/xlink" width="1920" zoomAndPan="magnify" viewBox="0 0 1440 809.999993" height="1080" preserveAspectRatio="xMidYMid meet" version="1.2"><defs><clipPath id="37ec612efc"><path d="M 131.546875 101.273438 L 639.296875 101.273438 L 639.296875 729.023438 L 131.546875 729.023438 Z M 131.546875 101.273438 "/></clipPath><clipPath id="d5550cf096"><path d="M 235 0.273438 L 239 0.273438 L 239 17 L 235 17 Z M 235 0.273438 "/></clipPath><clipPath id="883a9e5557"><path d="M 389 46 L 508.296875 46 L 508.296875 201 L 389 201 Z M 389 46 "/></clipPath><clipPath id="05d77d8348"><rect x="0" width="509" y="0" height="629"/></clipPath></defs><g id="5fd5afc38c"><rect x="0" width="1440" y="0" height="809.999993" style="fill:#ffffff;fill-opacity:1;stroke:none;"/><rect x="0" width="1440" y="0" height="809.999993" style="fill:#38b6ff;fill-opacity:1;stroke:none;"/><g clip-rule="nonzero" clip-path="url(#37ec612efc)"><g transform="matrix(1,0,0,1,131,101)"><g clip-path="url(#05d77d8348)"><path style=" stroke:none;fill-rule:nonzero;fill:#000000;fill-opacity:1;" d="M 148.910156 193.578125 C 149.261719 207.246094 155.324219 220.507812 165.140625 229.984375 C 167.945312 232.695312 171.050781 235.050781 174.390625 237.054688 C 174.96875 237.390625 175.238281 238.238281 174.855469 238.816406 C 172.753906 242.019531 169.964844 244.65625 166.621094 246.519531 C 165.167969 247.335938 163.855469 245.09375 165.308594 244.289062 C 168.257812 242.640625 170.765625 240.339844 172.628906 237.519531 L 173.09375 239.28125 C 160.699219 231.917969 151.589844 219.460938 147.992188 205.523438 C 146.992188 201.632812 146.429688 197.609375 146.328125 193.589844 C 146.285156 191.925781 148.867188 191.925781 148.910156 193.589844 Z M 148.910156 193.578125 "/><path style=" stroke:none;fill-rule:nonzero;fill:#000000;fill-opacity:1;" d="M 162.757812 253.359375 C 164.027344 263.320312 165.125 274.902344 158.597656 283.378906 C 152.070312 291.859375 140.421875 293.648438 130.464844 291.816406 C 123.613281 290.558594 117.152344 287.765625 110.78125 285.042969 C 110.132812 284.761719 110.003906 283.832031 110.316406 283.28125 C 110.695312 282.617188 111.441406 282.546875 112.078125 282.816406 C 121.921875 287.035156 132.722656 291.617188 143.636719 289.347656 C 148.164062 288.402344 152.476562 286.371094 155.636719 282.929688 C 158.796875 279.488281 160.375 274.832031 160.882812 270.203125 C 161.503906 264.605469 160.882812 258.933594 160.175781 253.359375 C 160.09375 252.65625 160.839844 252.078125 161.472656 252.0625 C 162.25 252.0625 162.671875 252.667969 162.773438 253.359375 Z M 162.757812 253.359375 "/><path style=" stroke:none;fill-rule:nonzero;fill:#000000;fill-opacity:1;" d="M 100.035156 277.511719 C 96.480469 275.453125 93.464844 272.519531 91.320312 269.019531 C 90.96875 268.441406 91.179688 267.566406 91.785156 267.257812 C 92.390625 266.945312 93.179688 267.101562 93.546875 267.722656 C 94.550781 269.359375 95.566406 270.628906 96.960938 271.996094 C 97.285156 272.304688 97.609375 272.617188 97.960938 272.914062 C 98.144531 273.082031 98.34375 273.238281 98.527344 273.390625 C 98.609375 273.464844 98.695312 273.535156 98.792969 273.605469 C 99.132812 273.871094 98.710938 273.546875 98.90625 273.6875 C 99.683594 274.265625 100.484375 274.804688 101.332031 275.296875 C 101.925781 275.636719 102.179688 276.480469 101.796875 277.058594 C 101.417969 277.636719 100.65625 277.890625 100.035156 277.527344 Z M 100.035156 277.511719 "/><path style=" stroke:none;fill-rule:nonzero;fill:#000000;fill-opacity:1;" d="M 65.953125 266.167969 C 60.875 257.890625 56.488281 249.214844 49.46875 242.441406 C 42.445312 235.671875 34.914062 229.054688 30.515625 220.351562 C 26.117188 211.648438 25.648438 200.09375 32.261719 192.914062 C 28.117188 191.320312 27.46875 185.4375 29.300781 181.386719 C 31.136719 177.339844 34.589844 174.222656 36.636719 170.273438 C 39.398438 164.941406 39.386719 158.59375 41.34375 152.90625 C 45.082031 142.074219 55.417969 134.992188 65.710938 130.011719 C 69.476562 128.191406 73.441406 126.511719 77.613281 126.34375 C 81.789062 126.175781 86.273438 127.796875 88.5 131.335938 C 94.578125 123.242188 105.324219 120.40625 115.320312 118.824219 C 124.078125 117.429688 133.414062 116.652344 141.507812 120.277344 C 149.601562 123.902344 155.734375 133.328125 152.800781 141.707031 C 159.753906 143.863281 166.507812 147.207031 171.597656 152.414062 C 176.703125 157.617188 179.988281 164.871094 179.339844 172.132812 C 178.691406 179.398438 173.617188 186.367188 166.550781 188.160156 C 168.820312 189.640625 168.484375 193.378906 166.464844 195.199219 C 164.449219 197.019531 161.503906 197.300781 158.792969 197.074219 C 151.066406 196.441406 143.707031 192.164062 139.320312 185.777344 C 126.910156 189.246094 114.050781 191.121094 101.164062 191.347656 L 100.625 192.054688 C 102.25 197.851562 102.941406 204.085938 101.203125 209.839844 C 99.46875 215.597656 94.957031 220.761719 89.078125 222.03125 C 90.332031 227.546875 89.601562 233.484375 87.046875 238.535156 L 86.878906 238.507812 C 84.15625 235.585938 80.898438 232.90625 76.992188 232.117188 C 73.085938 231.328125 68.449219 233.019531 66.996094 236.730469 C 65.796875 239.804688 66.996094 243.289062 68.644531 246.136719 C 71.351562 250.78125 75.316406 254.671875 80.011719 257.28125 C 81.167969 257.929688 82.421875 258.511719 83.746094 258.4375 C 85.074219 258.367188 86.425781 257.453125 86.566406 256.140625 L 86.75 256.367188 C 83.605469 268.1875 76.484375 271.671875 69.136719 270.867188 L 65.964844 266.183594 Z M 65.953125 266.167969 "/><path style=" stroke:none;fill-rule:nonzero;fill:#000000;fill-opacity:1;" d="M 142.140625 267.523438 C 137.542969 266 133.300781 263.660156 129.546875 260.582031 C 129.011719 260.144531 129.082031 259.214844 129.546875 258.75 C 130.085938 258.214844 130.832031 258.3125 131.382812 258.75 C 134.765625 261.515625 138.671875 263.644531 142.832031 265.027344 C 144.410156 265.550781 143.734375 268.046875 142.140625 267.523438 Z M 142.140625 267.523438 "/><path style=" stroke:none;fill-rule:nonzero;fill:#000000;fill-opacity:1;" d="M 138.996094 200.261719 C 133.992188 198.386719 128.789062 198.839844 124.316406 201.503906 C 123.160156 202.195312 121.425781 201.800781 120.777344 200.574219 C 120.128906 199.347656 120.46875 197.78125 121.707031 197.03125 C 127.265625 193.71875 134.300781 193 140.378906 195.269531 C 141.648438 195.734375 142.636719 197.046875 142.183594 198.457031 C 141.789062 199.699219 140.363281 200.769531 138.996094 200.261719 Z M 138.996094 200.261719 "/><path style=" stroke:none;fill-rule:nonzero;fill:#000000;fill-opacity:1;" d="M 122.695312 289.515625 C 119.75 296.386719 118.125 303.808594 117.886719 311.285156 C 117.832031 312.949219 115.25 312.949219 115.304688 311.285156 C 115.558594 303.328125 117.324219 295.527344 120.46875 288.21875 C 120.75 287.570312 121.679688 287.441406 122.230469 287.753906 C 122.894531 288.132812 122.964844 288.882812 122.695312 289.515625 Z M 122.695312 289.515625 "/><path style=" stroke:none;fill-rule:nonzero;fill:#000000;fill-opacity:1;" d="M 142.453125 339.1875 C 135.230469 330.410156 127.320312 322.203125 118.816406 314.667969 C 110.328125 307.136719 101.234375 300.28125 91.671875 294.171875 C 82.113281 288.0625 72.058594 282.660156 61.652344 278.105469 C 56.460938 275.832031 51.1875 273.773438 45.828125 271.910156 C 43.191406 270.996094 40.554688 270.105469 37.875 269.34375 C 35.410156 268.636719 32.730469 268.046875 30.148438 268.414062 C 27.566406 268.78125 25.734375 270.289062 24.59375 272.574219 C 23.449219 274.859375 22.914062 277.328125 21.714844 279.558594 C 19.121094 284.351562 13.621094 285.988281 10.179688 289.953125 C 6.738281 293.917969 6.019531 299.417969 5.867188 304.425781 C 5.78125 307.078125 5.835938 309.730469 5.980469 312.382812 C 6.121094 315.035156 6.386719 317.757812 7.429688 320.210938 C 8.402344 322.511719 10.125 324.347656 12.394531 325.402344 C 14.664062 326.460938 17.035156 326.617188 19.390625 326.5625 C 21.941406 326.503906 24.480469 326.09375 26.988281 325.628906 C 30.246094 325.023438 33.492188 324.402344 36.761719 323.894531 C 50.171875 321.820312 63.824219 321.074219 77.304688 322.976562 C 88.667969 324.585938 99.867188 328.210938 109.722656 334.164062 C 114.585938 337.097656 119.140625 340.609375 123.117188 344.675781 C 127.09375 348.738281 130.703125 354 136.304688 355.945312 C 138.785156 356.804688 141.550781 357.03125 143.972656 355.859375 L 143.382812 357.328125 C 142.128906 351.996094 142.535156 346.351562 144.664062 341.300781 C 144.933594 340.652344 145.511719 340.203125 146.257812 340.398438 C 146.863281 340.554688 147.429688 341.34375 147.160156 341.992188 C 145.214844 346.632812 144.722656 351.742188 145.878906 356.636719 C 146.003906 357.160156 145.808594 357.847656 145.285156 358.105469 C 139.703125 360.8125 133.523438 358.34375 129.113281 354.578125 C 126.742188 352.558594 124.726562 350.175781 122.625 347.917969 C 120.621094 345.773438 118.492188 343.757812 116.222656 341.894531 C 107.15625 334.476562 96.128906 329.636719 84.761719 327.011719 C 71.621094 323.964844 57.941406 323.949219 44.589844 325.460938 C 41.121094 325.855469 37.679688 326.347656 34.238281 326.941406 C 31.191406 327.464844 28.160156 328.125 25.101562 328.605469 C 20.050781 329.394531 14.226562 329.847656 9.730469 326.914062 C 4.878906 323.738281 3.695312 317.96875 3.414062 312.554688 C 3.128906 307.136719 2.988281 301.449219 4.34375 296.160156 C 4.992188 293.609375 6.0625 291.125 7.683594 289.023438 C 9.390625 286.792969 11.660156 285.214844 13.960938 283.648438 C 16.117188 282.179688 18.246094 280.628906 19.515625 278.289062 C 20.785156 275.945312 21.292969 273.390625 22.503906 271.09375 C 23.71875 268.792969 25.792969 266.933594 28.386719 266.210938 C 30.980469 265.492188 33.855469 265.789062 36.492188 266.367188 C 39.257812 266.972656 41.964844 267.917969 44.644531 268.820312 C 47.324219 269.726562 50.144531 270.726562 52.867188 271.769531 C 63.808594 275.945312 74.414062 280.996094 84.550781 286.851562 C 94.691406 292.71875 104.347656 299.390625 113.445312 306.769531 C 122.539062 314.148438 130.945312 322.171875 138.699219 330.878906 C 140.605469 333.023438 142.464844 335.195312 144.285156 337.410156 C 145.328125 338.679688 143.507812 340.527344 142.453125 339.242188 Z M 142.453125 339.1875 "/><path style=" stroke:none;fill-rule:nonzero;fill:#000000;fill-opacity:1;" d="M 128.152344 338.496094 C 116.984375 327.730469 104.207031 318.6875 90.402344 311.621094 C 76.640625 304.582031 61.890625 299.519531 46.703125 296.640625 C 38.15625 295.019531 29.472656 294.128906 20.769531 293.960938 C 19.105469 293.933594 19.105469 291.335938 20.769531 291.378906 C 36.492188 291.6875 52.160156 294.355469 67.121094 299.195312 C 82.082031 304.03125 96.367188 311 109.339844 319.875 C 116.675781 324.882812 123.582031 330.511719 129.984375 336.660156 C 131.183594 337.816406 129.351562 339.652344 128.152344 338.496094 Z M 128.152344 338.496094 "/><path style=" stroke:none;fill-rule:nonzero;fill:#000000;fill-opacity:1;" d="M 134.328125 340.863281 L 137.601562 344.574219 C 137.828125 344.828125 137.980469 345.140625 137.980469 345.492188 C 137.980469 345.800781 137.839844 346.183594 137.601562 346.410156 C 137.105469 346.859375 136.246094 346.945312 135.765625 346.410156 L 132.496094 342.699219 C 132.269531 342.445312 132.113281 342.132812 132.113281 341.78125 C 132.113281 341.472656 132.257812 341.089844 132.496094 340.863281 C 132.988281 340.414062 133.851562 340.328125 134.328125 340.863281 Z M 134.328125 340.863281 "/><path style=" stroke:none;fill-rule:nonzero;fill:#000000;fill-opacity:1;" d="M 18.105469 327.914062 C 31.65625 324.683594 45.605469 323.132812 59.535156 323.300781 C 71.097656 323.441406 82.730469 324.785156 93.71875 328.394531 C 104.703125 332.007812 115.066406 337.945312 122.933594 346.410156 C 125.304688 348.960938 127.460938 351.742188 130.070312 354.054688 C 132.679688 356.367188 135.878906 358.214844 139.347656 358.457031 L 142.253906 357.511719 C 160.964844 403.992188 175.292969 452.238281 185.007812 501.398438 C 186.742188 510.160156 188.308594 519.328125 185.785156 527.890625 C 182.289062 539.742188 176.210938 551.140625 160.105469 556.726562 L 155.621094 558.265625 C 119.394531 564.402344 88.300781 569.253906 51.667969 566.304688 C 36.394531 565.078125 19.769531 561.707031 10.222656 549.714844 C 0.988281 538.089844 1.085938 521.855469 1.636719 507.015625 C 3.46875 456.976562 5.300781 406.925781 7.148438 356.890625 C 7.53125 346.351562 8.191406 335.023438 14.695312 326.730469 L 18.105469 327.941406 Z M 18.105469 327.914062 "/><path style=" stroke:none;fill-rule:nonzero;fill:#ffffff;fill-opacity:1;" d="M 113.894531 368.332031 C 118.523438 380.25 121.46875 392.777344 122.78125 405.503906 C 124.089844 418.171875 123.710938 430.992188 121.695312 443.5625 C 120.550781 450.671875 118.875 457.683594 116.660156 464.539062 C 116.152344 466.117188 113.65625 465.441406 114.164062 463.847656 C 118.027344 451.84375 120.269531 439.34375 120.820312 426.746094 C 121.371094 414.148438 120.296875 401.59375 117.5625 389.351562 C 116.027344 382.421875 113.953125 375.625 111.398438 369.007812 C 110.792969 367.457031 113.304688 366.777344 113.894531 368.316406 Z M 113.894531 368.332031 "/><path style=" stroke:none;fill-rule:nonzero;fill:#ffffff;fill-opacity:1;" d="M 103.234375 466.332031 C 103.234375 466.332031 103.066406 466.402344 103.195312 466.34375 C 103.09375 466.386719 102.996094 466.429688 102.898438 466.472656 C 102.742188 466.542969 102.585938 466.613281 102.433594 466.683594 C 102.078125 466.851562 101.742188 467.023438 101.402344 467.203125 C 100.738281 467.558594 100.105469 467.953125 99.46875 468.363281 C 99.175781 468.558594 98.863281 468.769531 98.582031 468.996094 C 98.566406 468.996094 98.371094 469.152344 98.457031 469.09375 C 98.539062 469.023438 98.273438 469.238281 98.285156 469.238281 C 98.144531 469.347656 98.019531 469.449219 97.890625 469.5625 C 97.300781 470.054688 96.734375 470.578125 96.199219 471.140625 C 95.71875 471.621094 94.84375 471.648438 94.367188 471.140625 C 93.886719 470.632812 93.859375 469.828125 94.367188 469.308594 C 96.691406 466.921875 99.484375 465.089844 102.558594 463.832031 C 103.195312 463.578125 104.011719 464.117188 104.152344 464.738281 C 104.320312 465.484375 103.925781 466.046875 103.25 466.332031 Z M 103.234375 466.332031 "/><path style=" stroke:none;fill-rule:nonzero;fill:#000000;fill-opacity:1;" d="M 175.886719 471.480469 C 181.257812 471.453125 186.449219 469.617188 191.792969 469.09375 C 197.136719 468.574219 203.242188 469.785156 206.230469 474.246094 C 207.402344 475.992188 207.980469 478.082031 208.53125 480.125 C 209.660156 484.316406 210.800781 488.492188 211.929688 492.683594 C 212.605469 495.164062 213.28125 497.761719 212.746094 500.269531 C 212.195312 502.910156 210.378906 505.125 208.347656 506.914062 C 202.664062 511.953125 195.5 512.828125 187.320312 513.925781 C 186.222656 514.082031 183.078125 514.054688 182.105469 513.53125 C 180.808594 512.828125 181.933594 511.191406 181.160156 509.949219 C 174.304688 499.03125 171.921875 485.402344 174.660156 472.804688 "/><path style=" stroke:none;fill-rule:nonzero;fill:#ffffff;fill-opacity:1;" d="M 176.351562 472.890625 C 172.050781 473.15625 167.722656 472.945312 163.421875 472.679688 C 158.273438 472.355469 153.140625 471.875 148.023438 471.308594 C 143.464844 470.816406 138.925781 470.238281 134.398438 469.589844 C 129.40625 468.871094 124.414062 468.433594 119.382812 469.066406 C 113.65625 469.773438 108.074219 471.945312 104.039062 476.175781 C 102.898438 477.390625 101.0625 475.554688 102.207031 474.34375 C 109.835938 466.316406 121.878906 465.300781 132.269531 466.683594 C 141.875 467.96875 151.476562 469.238281 161.148438 469.925781 C 166.199219 470.292969 171.289062 470.589844 176.335938 470.292969 C 178 470.195312 177.988281 472.777344 176.335938 472.875 Z M 176.351562 472.890625 "/><path style=" stroke:none;fill-rule:nonzero;fill:#ffffff;fill-opacity:1;" d="M 56.488281 406.488281 C 58.28125 421.5 60.085938 436.523438 61.875 451.53125 C 63.667969 466.542969 65.445312 481.324219 67.222656 496.222656 C 67.617188 499.566406 67.910156 503.035156 69.222656 506.183594 C 70.335938 508.863281 72.324219 511.0625 74.695312 512.699219 C 79.898438 516.296875 86.46875 517.945312 92.589844 519.089844 C 106.367188 521.671875 120.550781 520.542969 134.355469 518.820312 C 149.066406 516.988281 163.730469 514.773438 178.410156 512.726562 C 180.269531 512.472656 182.132812 512.207031 183.980469 511.953125 C 184.671875 511.851562 185.363281 512.121094 185.574219 512.855469 C 185.742188 513.460938 185.363281 514.351562 184.671875 514.449219 C 169.539062 516.566406 154.410156 518.738281 139.265625 520.769531 C 125.09375 522.671875 110.652344 524.210938 96.398438 522.292969 C 89.769531 521.402344 82.972656 519.894531 76.921875 516.960938 C 74.300781 515.691406 71.761719 514.023438 69.816406 511.839844 C 67.617188 509.382812 66.320312 506.394531 65.640625 503.175781 C 64.894531 499.621094 64.613281 495.96875 64.175781 492.371094 L 62.792969 480.847656 C 61.875 473.230469 60.972656 465.597656 60.058594 457.980469 C 58.222656 442.671875 56.390625 427.367188 54.558594 412.0625 L 53.894531 406.476562 C 53.808594 405.769531 54.542969 405.191406 55.191406 405.175781 C 55.953125 405.175781 56.40625 405.785156 56.488281 406.476562 Z M 56.488281 406.488281 "/><path style=" stroke:none;fill-rule:nonzero;fill:#000000;fill-opacity:1;" d="M 210.828125 473.144531 C 214.070312 472.863281 216.808594 470.703125 218.738281 468.207031 C 220.996094 465.285156 222.238281 461.761719 223.507812 458.347656 C 224.902344 454.59375 226.480469 451.011719 228.808594 447.738281 C 231.007812 444.648438 233.589844 441.839844 236.238281 439.117188 C 242.332031 432.855469 248.464844 426.632812 254.585938 420.398438 C 256.882812 418.058594 259.945312 414.359375 263.695312 415.757812 C 266.488281 416.789062 267.320312 419.960938 267.261719 422.671875 C 267.21875 424.488281 266.769531 426.253906 266.273438 428.003906 C 265.695312 430.035156 264.964844 432.023438 264.117188 433.957031 C 262.410156 437.878906 260.15625 441.515625 257.460938 444.832031 C 257.023438 445.382812 256.09375 445.285156 255.628906 444.832031 C 255.09375 444.296875 255.191406 443.546875 255.628906 442.996094 C 257.886719 440.203125 259.789062 437.128906 261.324219 433.871094 C 262.765625 430.796875 264.089844 427.367188 264.570312 423.980469 C 264.824219 422.21875 264.894531 418.832031 262.722656 418.15625 C 261.199219 417.691406 259.730469 418.945312 258.71875 419.90625 C 257.292969 421.257812 255.953125 422.699219 254.570312 424.109375 C 248.789062 430.003906 242.9375 435.859375 237.210938 441.828125 C 234.703125 444.4375 232.261719 447.132812 230.261719 450.164062 C 228.160156 453.339844 226.820312 456.824219 225.496094 460.363281 C 224.167969 463.902344 222.589844 467.714844 219.964844 470.730469 C 217.597656 473.453125 214.453125 475.402344 210.816406 475.710938 C 209.152344 475.851562 209.164062 473.269531 210.816406 473.128906 Z M 210.828125 473.144531 "/><path style=" stroke:none;fill-rule:nonzero;fill:#000000;fill-opacity:1;" d="M 258.644531 441.402344 C 263.878906 439.824219 269.109375 438.242188 274.339844 436.648438 C 278.925781 435.265625 284.253906 432.925781 289.078125 434.492188 C 293.167969 435.816406 295.847656 439.765625 294.351562 444.054688 C 292.855469 448.34375 288.9375 450.617188 285.46875 453.210938 C 283.789062 454.464844 282.253906 455.949219 281.390625 457.894531 C 280.53125 459.839844 280.292969 462.167969 280.039062 464.328125 C 279.785156 466.484375 279.488281 468.730469 278.65625 470.789062 C 277.867188 472.734375 276.683594 474.484375 275.230469 475.992188 C 272.421875 478.925781 268.769531 480.960938 265.132812 482.652344 C 260.464844 484.824219 255.671875 486.714844 250.835938 488.4375 C 239.835938 492.34375 228.527344 495.304688 217.246094 498.269531 C 215.636719 498.691406 214.945312 496.195312 216.554688 495.769531 C 226.128906 493.261719 235.703125 490.761719 245.109375 487.675781 C 249.75 486.152344 254.34375 484.484375 258.84375 482.609375 C 262.777344 480.972656 266.796875 479.265625 270.308594 476.8125 C 273.425781 474.625 275.933594 471.734375 276.851562 467.980469 C 277.851562 463.863281 277.457031 459.363281 279.6875 455.59375 C 281.914062 451.828125 285.722656 450.292969 288.765625 447.597656 C 291.402344 445.269531 293.984375 440.882812 290.460938 438.089844 C 286.371094 434.84375 280.347656 437.550781 276.046875 438.863281 C 270.476562 440.542969 264.921875 442.234375 259.351562 443.914062 C 257.757812 444.394531 257.066406 441.898438 258.660156 441.417969 Z M 258.644531 441.402344 "/><path style=" stroke:none;fill-rule:nonzero;fill:#000000;fill-opacity:1;" d="M 139.855469 213.832031 C 140.800781 215.046875 141.550781 216.359375 142 217.824219 C 142.210938 218.503906 142.4375 219.292969 142.382812 220.011719 C 142.296875 220.957031 141.761719 221.746094 140.84375 222.042969 C 139.433594 222.507812 138.023438 221.59375 137.035156 220.691406 C 136.050781 219.785156 135.230469 218.574219 134.695312 217.304688 C 134.203125 216.121094 133.808594 214.636719 134.160156 213.367188 C 134.386719 212.59375 134.90625 211.957031 135.683594 211.691406 C 136.542969 211.394531 137.402344 211.730469 138.050781 212.28125 C 138.628906 212.761719 139.023438 213.453125 139.417969 214.074219 C 139.816406 214.695312 140.152344 215.34375 140.476562 216.007812 C 141.082031 217.277344 142.015625 218.953125 141.140625 220.324219 C 140.535156 221.28125 139.320312 221.464844 138.347656 220.984375 C 137.574219 220.605469 137.050781 219.871094 136.628906 219.136719 C 135.765625 217.601562 135.300781 215.878906 135.21875 214.117188 C 135.1875 213.609375 135.554688 213.113281 136.007812 212.929688 C 136.515625 212.734375 137.007812 212.847656 137.417969 213.199219 C 138.375 214.03125 139.207031 215.003906 139.898438 216.0625 C 140.222656 216.570312 140.519531 217.09375 140.773438 217.644531 C 141.054688 218.234375 141.335938 218.855469 141.4375 219.503906 C 141.5625 220.335938 141.40625 221.183594 140.789062 221.789062 C 140.28125 222.285156 139.53125 222.566406 138.828125 222.539062 C 137.417969 222.480469 136.304688 221.4375 135.472656 220.394531 C 134.640625 219.351562 134.046875 218.234375 133.539062 217.035156 C 132.960938 215.683594 132.496094 214.257812 133.101562 212.816406 C 133.707031 211.378906 135.175781 210.6875 136.628906 211.125 C 137.898438 211.507812 138.839844 212.507812 139.6875 213.480469 C 140.6875 214.609375 141.621094 215.835938 142.027344 217.304688 C 142.4375 218.769531 142.339844 220.367188 141.507812 221.621094 C 141.125 222.199219 140.363281 222.453125 139.742188 222.085938 C 139.164062 221.746094 138.898438 220.902344 139.277344 220.324219 C 139.335938 220.222656 139.40625 220.140625 139.449219 220.039062 C 139.476562 220 139.574219 219.746094 139.503906 219.929688 C 139.574219 219.746094 139.617188 219.546875 139.660156 219.351562 C 139.703125 219.109375 139.660156 219.632812 139.660156 219.222656 C 139.660156 219.136719 139.660156 219.039062 139.660156 218.953125 C 139.660156 218.839844 139.660156 218.730469 139.644531 218.617188 C 139.644531 218.515625 139.644531 218.53125 139.644531 218.617188 C 139.644531 218.53125 139.617188 218.433594 139.589844 218.347656 C 139.503906 217.925781 139.390625 217.628906 139.25 217.332031 C 139.023438 216.882812 138.757812 216.457031 138.445312 216.0625 C 137.996094 215.46875 137.304688 214.679688 136.667969 214.128906 C 136.457031 213.945312 136.5 213.976562 136.261719 213.820312 C 136.175781 213.777344 136.105469 213.734375 136.019531 213.691406 C 135.710938 213.539062 136.164062 213.691406 135.835938 213.636719 C 135.78125 213.636719 135.597656 213.609375 135.808594 213.621094 C 135.738281 213.621094 135.640625 213.621094 135.554688 213.621094 L 135.65625 213.621094 C 135.511719 213.664062 135.484375 213.664062 135.570312 213.652344 C 135.640625 213.621094 135.625 213.652344 135.5 213.707031 C 135.597656 213.636719 135.597656 213.652344 135.484375 213.75 C 135.597656 213.496094 135.332031 214.074219 135.429688 213.820312 C 135.386719 213.933594 135.34375 214.058594 135.332031 214.1875 C 135.332031 214.117188 135.332031 213.976562 135.332031 214.214844 C 135.332031 214.636719 135.441406 215.019531 135.625 215.511719 C 135.910156 216.273438 136.34375 217.164062 136.824219 217.953125 C 137.066406 218.332031 137.289062 218.660156 137.53125 218.941406 C 137.65625 219.097656 137.785156 219.238281 137.925781 219.378906 C 138.023438 219.476562 138.136719 219.574219 138.234375 219.675781 C 138.390625 219.816406 138.234375 219.703125 138.417969 219.816406 C 138.503906 219.859375 138.574219 219.914062 138.65625 219.957031 C 138.503906 219.886719 138.757812 219.984375 138.800781 220 L 138.871094 220 C 138.730469 220 138.730469 220 138.882812 220 C 138.871094 220 138.601562 220.082031 138.898438 220 C 139.164062 219.914062 138.925781 219.96875 138.898438 220.027344 L 138.855469 220.054688 C 138.953125 219.957031 138.96875 219.941406 138.871094 220.054688 C 138.855469 220.054688 138.8125 220.210938 138.828125 220.183594 C 138.882812 220.097656 138.828125 220.070312 138.8125 219.96875 C 138.6875 219.433594 138.546875 219.167969 138.304688 218.6875 C 138.066406 218.207031 137.796875 217.753906 137.5 217.316406 C 136.964844 216.527344 136.304688 215.792969 135.5 215.101562 L 137.714844 214.1875 C 137.753906 215.144531 137.96875 216.132812 138.375 217.105469 C 138.503906 217.402344 138.785156 217.9375 139.011719 218.292969 C 139.054688 218.363281 139.109375 218.445312 139.164062 218.515625 C 139.023438 218.332031 139.308594 218.644531 139.308594 218.644531 C 139.503906 218.84375 139.378906 218.730469 139.347656 218.6875 C 139.488281 218.757812 139.488281 218.769531 139.363281 218.714844 C 139.488281 218.742188 139.519531 218.757812 139.417969 218.742188 C 139.378906 218.785156 139.066406 218.769531 138.953125 218.898438 C 138.871094 218.984375 138.871094 219.066406 138.828125 219.152344 C 138.757812 219.277344 138.828125 219.039062 138.828125 218.984375 C 138.839844 219.222656 138.828125 218.984375 138.800781 218.898438 C 138.671875 218.417969 138.503906 218.078125 138.304688 217.644531 C 137.839844 216.640625 137.304688 215.683594 136.699219 214.765625 C 136.640625 214.679688 136.597656 214.609375 136.542969 214.523438 C 136.683594 214.707031 136.402344 214.371094 136.402344 214.371094 C 136.34375 214.3125 136.273438 214.242188 136.203125 214.1875 L 136.261719 214.230469 C 136.121094 214.160156 136.121094 214.144531 136.246094 214.199219 C 136.175781 214.117188 136.019531 214.242188 136.246094 214.199219 C 136.386719 214.171875 136.445312 214.160156 136.570312 214.074219 C 136.597656 214.058594 136.726562 213.832031 136.585938 214.046875 C 136.515625 214.171875 136.515625 214.171875 136.585938 214.03125 C 136.570312 214.085938 136.558594 214.128906 136.542969 214.1875 C 136.542969 214.398438 136.542969 213.875 136.542969 214.230469 C 136.542969 214.300781 136.542969 214.382812 136.542969 214.453125 C 136.542969 214.566406 136.542969 214.679688 136.570312 214.792969 C 136.542969 214.597656 136.570312 214.820312 136.570312 214.851562 C 136.671875 215.328125 136.78125 215.808594 136.953125 216.273438 C 137.175781 216.894531 137.726562 217.796875 138.207031 218.335938 C 138.488281 218.644531 138.800781 218.941406 139.125 219.207031 C 139.320312 219.363281 138.882812 219.054688 139.238281 219.292969 C 139.320312 219.351562 139.390625 219.390625 139.476562 219.449219 C 139.5625 219.503906 139.644531 219.546875 139.730469 219.574219 C 139.488281 219.476562 139.800781 219.574219 139.855469 219.605469 C 140.195312 219.730469 139.601562 219.5625 139.957031 219.617188 C 140.179688 219.660156 139.828125 219.6875 140.011719 219.617188 C 139.898438 219.660156 139.816406 219.6875 139.742188 219.800781 C 139.703125 219.886719 139.6875 220.140625 139.703125 219.84375 C 139.714844 219.632812 139.703125 219.675781 139.703125 219.757812 C 139.671875 219.5625 139.632812 219.378906 139.574219 219.195312 C 139.519531 218.953125 139.449219 218.714844 139.378906 218.488281 C 139.082031 217.542969 138.515625 216.457031 137.910156 215.695312 C 137.472656 215.144531 137.375 214.398438 137.910156 213.863281 C 138.363281 213.410156 139.308594 213.3125 139.742188 213.863281 Z M 139.855469 213.832031 "/><path style=" stroke:none;fill-rule:nonzero;fill:#000000;fill-opacity:1;" d="M 292.050781 287.105469 C 273.367188 316.585938 256.050781 353.265625 231.714844 376.03125 C 213.789062 392.804688 182.386719 394.640625 156.847656 396.671875 C 155.101562 396.8125 149.121094 392.835938 147.613281 391.929688 C 145.765625 390.816406 154.550781 389.054688 153.519531 387.164062 C 148.640625 378.207031 136.191406 357.199219 145.667969 357.878906 C 142 351.261719 144.652344 340.257812 144.652344 340.257812 C 144.652344 340.257812 135.441406 329.03125 130.929688 326.136719 L 130.324219 324.304688 C 149.320312 327.449219 168.738281 328 187.886719 325.925781 C 193.1875 325.347656 198.644531 324.53125 203.199219 321.75 C 206.839844 319.535156 209.660156 316.234375 212.40625 312.988281 C 229.160156 293.226562 245.925781 273.464844 262.679688 253.699219 L 264.429688 254.191406 C 276.652344 260.824219 286.496094 271.742188 291.828125 284.578125 Z M 292.050781 287.105469 "/><path style=" stroke:none;fill-rule:nonzero;fill:#000000;fill-opacity:1;" d="M 316.984375 220.730469 C 322.636719 220.210938 328.335938 220.097656 334.019531 220.125 C 339.699219 220.152344 345.808594 220.308594 351.671875 220.875 C 354.410156 221.128906 358.0625 221.226562 358.992188 224.398438 C 359.921875 227.574219 357.625 230.253906 354.917969 231.339844 C 352.40625 232.355469 349.5 232.484375 346.835938 232.679688 C 344.171875 232.878906 341.222656 233.019531 338.417969 233.089844 C 332.183594 233.273438 325.9375 233.257812 319.707031 233.1875 C 318.042969 233.175781 318.042969 230.578125 319.707031 230.605469 C 324.753906 230.664062 329.789062 230.675781 334.835938 230.59375 C 339.882812 230.507812 345.085938 230.394531 350.148438 229.773438 C 352.433594 229.492188 355.929688 229.027344 356.507812 226.289062 C 357.085938 223.554688 353.324219 223.609375 351.449219 223.425781 C 345.976562 222.917969 340.476562 222.75 334.976562 222.707031 C 328.984375 222.664062 322.949219 222.761719 316.984375 223.3125 C 315.332031 223.46875 315.332031 220.875 316.984375 220.730469 Z M 316.984375 220.730469 "/><path style=" stroke:none;fill-rule:nonzero;fill:#000000;fill-opacity:1;" d="M 330.804688 231.804688 C 333.425781 233.359375 333.371094 236.84375 332.085938 239.253906 C 331.3125 240.707031 330.167969 241.921875 329.363281 243.359375 C 328.5625 244.796875 328.238281 246.5625 327.996094 248.242188 C 327.558594 251.386719 327.136719 254.363281 325.542969 257.167969 C 324.105469 259.710938 322.03125 261.867188 319.59375 263.460938 C 314.601562 266.71875 306.632812 267.835938 302.207031 262.996094 C 301.160156 261.851562 300.34375 260.441406 300.035156 258.917969 C 299.679688 257.210938 300.035156 255.675781 300.457031 254.023438 C 300.65625 253.21875 300.78125 252.457031 300.667969 251.625 C 300.542969 250.679688 300.257812 249.765625 300.117188 248.804688 C 299.878906 247.097656 300.175781 245.460938 300.867188 243.882812 C 301.613281 242.175781 302.769531 240.691406 303.925781 239.253906 C 305.082031 237.816406 306.28125 236.320312 307.621094 234.992188 C 310.328125 232.328125 313.953125 230.226562 317.886719 230.648438 C 318.589844 230.71875 319.167969 231.183594 319.183594 231.945312 C 319.183594 232.597656 318.589844 233.316406 317.886719 233.246094 C 314.9375 232.933594 312.257812 234.273438 310.117188 236.207031 C 307.972656 238.140625 306.011719 240.539062 304.390625 242.9375 C 303.617188 244.09375 302.882812 245.363281 302.671875 246.773438 C 302.445312 248.253906 302.996094 249.691406 303.207031 251.144531 C 303.445312 252.753906 303.078125 254.191406 302.699219 255.746094 C 302.390625 257.015625 302.375 258.226562 302.910156 259.441406 C 305.265625 264.757812 312.542969 264.335938 316.898438 262.066406 C 319.085938 260.921875 321.03125 259.273438 322.453125 257.253906 C 323.976562 255.097656 324.796875 252.742188 325.175781 250.144531 C 325.417969 248.480469 325.558594 246.800781 325.953125 245.164062 C 326.347656 243.527344 327.050781 242.074219 328.011719 240.722656 C 328.855469 239.535156 329.929688 238.324219 330.296875 236.882812 C 330.535156 235.898438 330.480469 234.613281 329.519531 234.035156 C 328.09375 233.1875 329.394531 230.945312 330.832031 231.804688 Z M 330.804688 231.804688 "/><path style=" stroke:none;fill-rule:nonzero;fill:#000000;fill-opacity:1;" d="M 307.523438 266.113281 C 303.828125 268.019531 299.75 268.398438 295.703125 269.035156 C 292.136719 269.582031 288.371094 270.445312 285.707031 273.027344 C 284.507812 274.183594 282.675781 272.347656 283.875 271.191406 C 286.679688 268.496094 290.429688 267.328125 294.183594 266.675781 C 298.230469 265.988281 302.5 265.804688 306.210938 263.882812 C 307.691406 263.121094 309.003906 265.351562 307.523438 266.113281 Z M 307.523438 266.113281 "/><path style=" stroke:none;fill-rule:nonzero;fill:#000000;fill-opacity:1;" d="M 264.78125 253.078125 C 270.773438 250.890625 271.886719 243.246094 273.355469 237.941406 C 274.226562 234.78125 275.441406 231.792969 277.484375 229.183594 C 279.304688 226.855469 281.617188 224.9375 284.15625 223.441406 C 289.980469 219.96875 296.789062 218.855469 303.472656 218.585938 C 305.265625 218.515625 307.054688 218.503906 308.847656 218.503906 C 310.636719 218.503906 312.300781 218.433594 314.007812 218.628906 C 315.40625 218.800781 316.84375 219.195312 317.828125 220.265625 C 318.902344 221.410156 319.199219 222.988281 318.886719 224.5 C 318.152344 228.109375 314.390625 229.507812 311.214844 230.296875 C 307.199219 231.296875 303.023438 231.691406 298.890625 231.507812 L 300.1875 230.210938 C 300.527344 237.914062 296.199219 245.519531 289.402344 249.144531 C 287.933594 249.933594 286.625 247.691406 288.089844 246.914062 C 294.125 243.683594 297.890625 237.054688 297.59375 230.210938 C 297.566406 229.535156 298.214844 228.886719 298.890625 228.914062 C 302.246094 229.070312 305.617188 228.828125 308.917969 228.152344 C 311.300781 227.660156 315.09375 227.09375 316.179688 224.527344 C 316.617188 223.496094 316.519531 222.285156 315.488281 221.675781 C 314.390625 221.015625 312.910156 221.113281 311.679688 221.097656 C 308.269531 221.054688 304.855469 221.027344 301.457031 221.253906 C 295.480469 221.648438 289.484375 222.945312 284.421875 226.289062 C 282.210938 227.742188 280.207031 229.589844 278.726562 231.804688 C 277.007812 234.375 276.160156 237.308594 275.398438 240.285156 C 273.863281 246.265625 271.902344 253.207031 265.457031 255.5625 C 263.890625 256.140625 263.214844 253.628906 264.765625 253.066406 Z M 264.78125 253.078125 "/><path style=" stroke:none;fill-rule:nonzero;fill:#000000;fill-opacity:1;" d="M 318.691406 387.375 C 310.566406 399.734375 302.429688 412.074219 294.308594 424.433594 C 291.96875 428.003906 289.613281 431.570312 287.273438 435.140625 C 286.355469 436.523438 284.128906 435.226562 285.042969 433.828125 C 293.167969 421.472656 301.304688 409.128906 309.425781 396.769531 C 311.765625 393.199219 314.121094 389.632812 316.460938 386.0625 C 317.378906 384.679688 319.605469 385.976562 318.691406 387.375 Z M 318.691406 387.375 "/><path style=" stroke:none;fill-rule:nonzero;fill:#000000;fill-opacity:1;" d="M 312.046875 386.007812 C 299.144531 382.421875 286.242188 378.839844 273.339844 375.242188 C 270.28125 374.398438 267.21875 373.394531 264.089844 372.816406 C 261.382812 372.324219 258.535156 372.367188 256.050781 373.691406 C 251.949219 375.878906 249.578125 380.320312 247.648438 384.355469 C 245.277344 389.28125 243.050781 394.246094 240.414062 399.042969 C 237.777344 403.835938 234.703125 408.859375 231.5 413.527344 C 225.113281 422.851562 217.808594 431.570312 209.730469 439.472656 C 207.710938 441.433594 205.582031 443.265625 203.566406 445.226562 C 202.707031 446.074219 201.847656 447.117188 202 448.414062 C 202.15625 449.640625 203.003906 450.742188 203.804688 451.617188 C 205.824219 453.816406 208.21875 455.734375 210.503906 457.625 C 212.789062 459.515625 215.339844 461.449219 217.867188 463.226562 C 219.105469 464.101562 220.363281 464.949219 221.628906 465.765625 C 223.027344 466.667969 221.730469 468.910156 220.320312 467.996094 C 214.960938 464.511719 209.855469 460.632812 205.074219 456.386719 C 202.972656 454.507812 200.507812 452.519531 199.632812 449.726562 C 198.703125 446.734375 200.535156 444.421875 202.636719 442.53125 C 211.351562 434.675781 219.289062 425.957031 226.214844 416.476562 C 233.136719 406.996094 239.101562 396.796875 243.96875 386.105469 C 245.96875 381.691406 248.054688 376.976562 251.695312 373.621094 C 253.527344 371.929688 255.753906 370.660156 258.222656 370.179688 C 261.382812 369.570312 264.582031 370.179688 267.65625 370.96875 C 281.082031 374.496094 294.421875 378.402344 307.789062 382.113281 L 312.710938 383.480469 C 314.320312 383.933594 313.628906 386.414062 312.019531 385.976562 Z M 312.046875 386.007812 "/><path style=" stroke:none;fill-rule:nonzero;fill:#000000;fill-opacity:1;" d="M 314.066406 386.472656 C 306.632812 399.746094 298.554688 412.667969 289.839844 425.140625 C 287.355469 428.695312 284.832031 432.207031 282.253906 435.691406 C 281.828125 436.253906 281.136719 436.523438 280.488281 436.15625 C 279.941406 435.847656 279.613281 434.941406 280.023438 434.394531 C 289.078125 422.164062 297.523438 409.496094 305.335938 396.429688 C 307.550781 392.707031 309.722656 388.953125 311.835938 385.1875 C 312.65625 383.734375 314.882812 385.035156 314.066406 386.5 Z M 314.066406 386.472656 "/><path style=" stroke:none;fill-rule:nonzero;fill:#000000;fill-opacity:1;" d="M 318.011719 386.753906 C 304.871094 381.367188 291.261719 377.160156 277.371094 374.226562 C 273.425781 373.394531 269.460938 372.660156 265.472656 372.027344 C 264.78125 371.914062 264.398438 371.054688 264.570312 370.433594 C 264.765625 369.699219 265.472656 369.417969 266.164062 369.53125 C 280.191406 371.757812 294 375.230469 307.394531 379.941406 C 311.203125 381.28125 314.96875 382.71875 318.703125 384.242188 C 319.351562 384.511719 319.804688 385.105469 319.605469 385.835938 C 319.453125 386.445312 318.660156 387.007812 318.011719 386.738281 Z M 318.011719 386.753906 "/><path style=" stroke:none;fill-rule:nonzero;fill:#000000;fill-opacity:1;" d="M 315.546875 386.402344 C 313.667969 391.480469 311.246094 396.332031 308.28125 400.859375 C 307.367188 402.257812 305.320312 401.042969 306.054688 399.550781 C 307.59375 396.417969 309.144531 393.273438 310.679688 390.140625 L 312.910156 391.453125 C 307.59375 400.4375 302.277344 409.4375 296.960938 418.425781 C 296.101562 419.875 294 418.605469 294.730469 417.113281 C 296.535156 413.402344 298.355469 409.707031 300.160156 405.996094 L 302.390625 407.308594 C 297.183594 417.070312 291.375 426.464844 284.832031 435.378906 C 284.410156 435.945312 283.71875 436.210938 283.070312 435.847656 C 282.507812 435.519531 282.195312 434.632812 282.605469 434.082031 C 289.148438 425.167969 294.957031 415.773438 300.160156 406.011719 C 300.949219 404.527344 303.121094 405.828125 302.390625 407.320312 C 300.582031 411.03125 298.765625 414.726562 296.960938 418.4375 L 294.730469 417.125 C 300.046875 408.140625 305.363281 399.140625 310.679688 390.152344 C 311.539062 388.699219 313.640625 389.96875 312.910156 391.464844 C 311.371094 394.597656 309.820312 397.742188 308.28125 400.875 L 306.054688 399.5625 C 308.890625 395.21875 311.257812 390.589844 313.0625 385.722656 C 313.640625 384.171875 316.136719 384.851562 315.558594 386.414062 Z M 315.546875 386.402344 "/><path style=" stroke:none;fill-rule:nonzero;fill:#000000;fill-opacity:1;" d="M 319.972656 384.976562 C 322.609375 392.355469 318.691406 399.746094 314.515625 405.644531 C 309.890625 412.1875 305.28125 418.707031 300.964844 425.449219 C 298.484375 429.328125 296.085938 433.25 293.746094 437.214844 C 292.898438 438.652344 290.671875 437.339844 291.515625 435.902344 C 295.507812 429.132812 299.695312 422.488281 304.09375 415.984375 C 306.28125 412.738281 308.535156 409.535156 310.820312 406.363281 C 312.921875 403.457031 315.050781 400.523438 316.53125 397.25 C 318.167969 393.625 318.832031 389.460938 317.476562 385.652344 C 316.914062 384.089844 319.410156 383.410156 319.972656 384.960938 Z M 319.972656 384.976562 "/><path style=" stroke:none;fill-rule:nonzero;fill:#000000;fill-opacity:1;" d="M 318.648438 388.828125 C 318.550781 390.253906 318.183594 391.550781 317.503906 392.804688 L 315.277344 391.496094 L 315.941406 390.4375 C 316.714844 389.179688 318.632812 390 318.308594 391.4375 L 317.40625 395.316406 C 317.082031 396.714844 314.785156 396.445312 314.867188 394.980469 C 314.9375 393.90625 315.222656 392.90625 315.839844 392.003906 C 316.546875 390.972656 318.238281 391.3125 318.253906 392.652344 C 318.253906 394.160156 317.886719 395.585938 317.152344 396.898438 C 316.417969 398.210938 314.53125 397.277344 314.785156 395.894531 C 315.039062 394.511719 315.277344 393.242188 315.515625 391.917969 C 315.785156 390.492188 318.183594 390.804688 318.054688 392.257812 C 317.773438 395.386719 316.488281 398.265625 314.261719 400.496094 C 313.445312 401.3125 312.105469 400.675781 312.046875 399.578125 C 311.933594 396.855469 312.992188 394.21875 314.9375 392.3125 C 316.066406 391.210938 317.519531 392.59375 316.96875 393.878906 C 315.25 397.941406 312.597656 401.582031 309.285156 404.488281 C 308.253906 405.390625 306.351562 404.191406 307.253906 402.921875 C 309.242188 400.113281 311.230469 397.320312 313.21875 394.511719 C 314.191406 393.144531 316.125 394.300781 315.445312 395.824219 C 313.882812 399.324219 312.046875 402.695312 309.945312 405.910156 C 309.042969 407.292969 306.832031 406.023438 307.71875 404.597656 C 309.382812 401.90625 311.285156 399.367188 313.386719 396.996094 C 314.261719 396.007812 315.882812 397.050781 315.546875 398.25 C 314.515625 401.90625 312.613281 405.21875 309.976562 407.957031 C 308.972656 409 307.113281 407.632812 307.945312 406.390625 C 309.691406 403.765625 311.441406 401.15625 313.191406 398.535156 C 314.105469 397.164062 316.265625 398.378906 315.417969 399.84375 C 312.824219 404.359375 309.691406 408.550781 306.140625 412.328125 C 305.152344 413.375 303.25 411.976562 304.109375 410.765625 C 306 408.082031 307.59375 405.207031 308.789062 402.144531 L 311.160156 403.144531 C 309.425781 405.96875 307.691406 408.773438 305.96875 411.597656 C 305.082031 413.035156 303.039062 411.78125 303.742188 410.285156 L 307.070312 403.1875 L 309.296875 404.5 C 306.972656 407.972656 304.871094 411.582031 302.96875 415.292969 L 300.9375 413.726562 L 305.5625 408.804688 C 306.5625 407.746094 308.367188 409.113281 307.59375 410.367188 C 305.941406 413.019531 304.277344 415.6875 302.628906 418.339844 L 300.402344 417.027344 C 302.585938 414.105469 304.757812 411.1875 306.945312 408.265625 C 307.917969 406.96875 310.074219 408.125 309.171875 409.578125 L 299.554688 425.097656 C 298.792969 426.324219 296.804688 425.546875 297.183594 424.09375 C 298.242188 420.171875 299.851562 416.421875 301.953125 412.964844 C 302.8125 411.539062 304.984375 412.808594 304.179688 414.277344 C 302.21875 417.84375 299.949219 421.203125 297.382812 424.363281 C 296.59375 425.335938 294.746094 424.277344 295.226562 423.109375 C 296.4375 420.144531 297.960938 417.378906 299.878906 414.8125 C 300.851562 413.515625 303.039062 414.6875 302.105469 416.125 C 299.171875 420.695312 296.226562 425.265625 293.292969 429.851562 L 291.261719 428.285156 C 293.152344 426.691406 294.691406 424.730469 295.648438 422.445312 L 298.015625 423.445312 C 296.621094 425.421875 295.449219 427.550781 294.578125 429.808594 L 292.417969 428.550781 C 293.914062 426.703125 295.394531 424.84375 296.890625 422.996094 C 297.835938 421.824219 299.609375 423.320312 298.917969 424.558594 L 296.027344 429.75 L 293.800781 428.441406 C 296.183594 424.292969 298.1875 419.960938 299.765625 415.449219 L 302.136719 416.449219 C 299.851562 419.90625 297.960938 423.585938 296.507812 427.480469 L 295.269531 425.84375 C 295.859375 425.859375 296.226562 425.675781 296.605469 425.222656 C 297.550781 424.125 299.527344 425.617188 298.636719 426.789062 C 297.691406 428.03125 296.75 429.257812 295.816406 430.5 C 295.421875 431.019531 294.84375 431.304688 294.210938 431.035156 C 293.660156 430.808594 293.238281 430.117188 293.460938 429.511719 L 293.6875 428.90625 L 296.058594 429.90625 C 295.648438 430.472656 295.253906 431.035156 294.84375 431.601562 C 294.4375 432.164062 294.222656 432.65625 293.96875 433.265625 C 293.503906 434.335938 292.84375 435.296875 291.996094 436.101562 C 291.363281 436.71875 290.429688 436.523438 289.964844 435.832031 C 289.699219 435.4375 289.289062 435.421875 288.851562 435.480469 C 287.625 435.648438 287.300781 434.011719 287.933594 433.265625 C 289.359375 431.601562 290.785156 429.949219 292.207031 428.285156 C 293.097656 427.253906 294.660156 428.371094 294.363281 429.539062 C 294.070312 430.710938 293.503906 431.796875 292.714844 432.785156 C 291.882812 433.828125 290.234375 432.6875 290.558594 431.527344 C 290.714844 430.992188 290.855469 430.441406 291.007812 429.90625 L 292.601562 431.5 C 292.601562 431.5 292.503906 431.5 292.488281 431.542969 C 291.542969 432.898438 289.304688 431.613281 290.261719 430.230469 C 290.699219 429.609375 291.191406 429.203125 291.925781 429.003906 C 292.871094 428.734375 293.773438 429.652344 293.519531 430.597656 C 293.363281 431.132812 293.222656 431.683594 293.066406 432.21875 L 290.910156 430.964844 C 291.402344 430.34375 291.699219 429.640625 291.882812 428.863281 L 294.039062 430.117188 C 292.617188 431.78125 291.191406 433.433594 289.769531 435.097656 L 288.851562 432.882812 C 290.21875 432.699219 291.445312 433.417969 292.195312 434.519531 L 290.164062 434.25 C 290.910156 433.519531 291.445312 432.699219 291.785156 431.699219 C 292.179688 430.554688 293.109375 429.554688 293.816406 428.566406 C 294.195312 428.03125 294.800781 427.777344 295.421875 428.03125 C 295.972656 428.257812 296.394531 428.949219 296.171875 429.554688 L 295.945312 430.160156 L 293.574219 429.160156 C 294.519531 427.917969 295.464844 426.691406 296.394531 425.449219 L 298.425781 427.015625 C 297.621094 427.945312 296.464844 428.425781 295.253906 428.398438 C 294.476562 428.382812 293.703125 427.578125 294.011719 426.761719 C 295.535156 422.671875 297.496094 418.761719 299.894531 415.109375 C 300.65625 413.953125 302.769531 414.644531 302.261719 416.109375 C 300.613281 420.835938 298.539062 425.394531 296.042969 429.722656 C 295.210938 431.164062 292.996094 429.878906 293.816406 428.410156 L 296.707031 423.21875 L 298.738281 424.785156 C 297.242188 426.632812 295.761719 428.496094 294.265625 430.34375 C 293.476562 431.332031 291.644531 430.257812 292.109375 429.089844 C 293.066406 426.621094 294.28125 424.277344 295.816406 422.105469 C 296.199219 421.570312 296.804688 421.316406 297.425781 421.570312 C 297.960938 421.796875 298.425781 422.5 298.171875 423.09375 C 297.042969 425.800781 295.378906 428.1875 293.125 430.074219 C 292.066406 430.964844 290.246094 429.820312 291.09375 428.511719 C 294.027344 423.941406 296.972656 419.367188 299.90625 414.785156 L 302.136719 416.097656 C 300.371094 418.464844 298.863281 421.035156 297.75 423.769531 L 295.59375 422.515625 C 298.003906 419.523438 300.132812 416.320312 301.980469 412.949219 L 304.207031 414.261719 C 302.21875 417.550781 300.710938 421.0625 299.710938 424.785156 L 297.339844 423.785156 C 300.542969 418.605469 303.757812 413.445312 306.957031 408.265625 L 309.1875 409.578125 C 307 412.5 304.828125 415.417969 302.644531 418.339844 C 301.667969 419.636719 299.511719 418.480469 300.414062 417.027344 C 302.066406 414.375 303.726562 411.710938 305.378906 409.058594 L 307.410156 410.621094 L 302.785156 415.546875 C 301.738281 416.660156 300.105469 415.25 300.753906 413.980469 C 302.644531 410.257812 304.757812 406.660156 307.085938 403.1875 C 308.015625 401.792969 310.019531 402.992188 309.3125 404.5 C 308.199219 406.871094 307.097656 409.226562 305.984375 411.597656 L 303.757812 410.285156 C 305.492188 407.460938 307.226562 404.65625 308.945312 401.835938 C 309.679688 400.636719 311.863281 401.410156 311.316406 402.835938 C 310.03125 406.109375 308.394531 409.199219 306.378906 412.0625 L 304.347656 410.496094 C 307.761719 406.855469 310.738281 402.851562 313.234375 398.535156 L 315.460938 399.84375 C 313.710938 402.46875 311.964844 405.078125 310.214844 407.703125 L 308.183594 406.136719 C 310.511719 403.726562 312.175781 400.804688 313.089844 397.574219 L 315.25 398.828125 C 313.289062 401.042969 311.539062 403.398438 309.988281 405.910156 L 307.761719 404.597656 C 309.863281 401.382812 311.695312 398.011719 313.261719 394.511719 L 315.488281 395.824219 C 313.5 398.632812 311.511719 401.425781 309.523438 404.234375 L 307.492188 402.667969 C 310.667969 399.886719 313.132812 396.472656 314.785156 392.582031 L 316.816406 394.144531 C 315.332031 395.597656 314.585938 397.519531 314.683594 399.578125 L 312.472656 398.660156 C 314.191406 396.9375 315.292969 394.683594 315.503906 392.257812 L 318.042969 392.59375 C 317.800781 393.921875 317.546875 395.246094 317.308594 396.574219 L 314.9375 395.570312 C 315.460938 394.640625 315.699219 393.679688 315.6875 392.621094 L 318.097656 393.273438 C 317.746094 393.792969 317.519531 394.300781 317.476562 394.9375 L 314.9375 394.597656 L 315.839844 390.71875 L 318.210938 391.71875 L 317.546875 392.777344 C 316.660156 394.1875 314.515625 392.933594 315.320312 391.464844 C 315.769531 390.632812 316.054688 389.746094 316.109375 388.800781 C 316.222656 387.148438 318.800781 387.136719 318.691406 388.800781 Z M 318.648438 388.828125 "/><path style=" stroke:none;fill-rule:nonzero;fill:#000000;fill-opacity:1;" d="M 316.957031 386.175781 L 314.9375 392.183594 C 314.726562 392.820312 314.035156 393.3125 313.34375 393.089844 C 312.710938 392.875 312.21875 392.183594 312.441406 391.496094 L 314.460938 385.484375 C 314.671875 384.851562 315.363281 384.355469 316.054688 384.582031 C 316.6875 384.792969 317.179688 385.484375 316.957031 386.175781 Z M 316.957031 386.175781 "/><path style=" stroke:none;fill-rule:nonzero;fill:#000000;fill-opacity:1;" d="M 316.644531 399.308594 L 314.429688 401.425781 C 314.191406 401.652344 313.851562 401.804688 313.515625 401.804688 C 313.203125 401.804688 312.824219 401.664062 312.597656 401.425781 C 312.371094 401.183594 312.203125 400.859375 312.21875 400.507812 C 312.230469 400.15625 312.34375 399.832031 312.597656 399.589844 L 314.8125 397.476562 C 315.050781 397.25 315.390625 397.09375 315.730469 397.09375 C 316.039062 397.09375 316.417969 397.234375 316.644531 397.476562 C 316.871094 397.714844 317.039062 398.039062 317.027344 398.390625 C 317.011719 398.746094 316.898438 399.070312 316.644531 399.308594 Z M 316.644531 399.308594 "/><path style=" stroke:none;fill-rule:nonzero;fill:#000000;fill-opacity:1;" d="M 176.957031 548.179688 C 181.003906 565.375 183.992188 582.808594 185.941406 600.371094 C 186.488281 605.394531 186.957031 610.417969 187.351562 615.453125 C 187.476562 617.117188 184.898438 617.101562 184.769531 615.453125 C 183.445312 597.945312 181.0625 580.539062 177.621094 563.328125 C 176.660156 558.488281 175.605469 553.664062 174.476562 548.867188 C 174.09375 547.246094 176.589844 546.554688 176.972656 548.179688 Z M 176.957031 548.179688 "/><path style=" stroke:none;fill-rule:nonzero;fill:#000000;fill-opacity:1;" d="M 13.3125 552.535156 C 12.886719 556.8125 12.453125 561.070312 12.042969 565.34375 C 11.746094 568.421875 11.492188 573.386719 15.230469 574.570312 C 16.808594 575.066406 16.132812 577.578125 14.539062 577.066406 C 10.25 575.714844 9.082031 571.042969 9.308594 567.039062 C 9.574219 562.199219 10.222656 557.359375 10.703125 552.550781 C 10.859375 550.914062 13.453125 550.886719 13.285156 552.550781 Z M 13.3125 552.535156 "/><path style=" stroke:none;fill-rule:nonzero;fill:#000000;fill-opacity:1;" d="M 14.511719 579.917969 C 10.886719 591.625 8.347656 603.671875 7.035156 615.863281 C 6.667969 619.332031 6.386719 622.800781 6.203125 626.285156 C 6.121094 627.9375 3.523438 627.953125 3.625 626.285156 C 4.285156 613.871094 6.121094 601.515625 9.136719 589.453125 C 9.996094 586.011719 10.957031 582.613281 12.015625 579.226562 C 12.507812 577.648438 15.003906 578.324219 14.511719 579.917969 Z M 14.511719 579.917969 "/><path style=" stroke:none;fill-rule:nonzero;fill:#000000;fill-opacity:1;" d="M 150.488281 577.972656 C 147.808594 583.570312 145.003906 589.117188 142.085938 594.589844 C 140.617188 597.355469 139.109375 600.105469 137.585938 602.839844 C 136.261719 605.210938 134.964844 607.636719 133.414062 609.878906 C 131.863281 612.125 129.832031 614.351562 127.234375 615.636719 C 125.753906 616.371094 124.445312 614.140625 125.925781 613.40625 C 130.480469 611.164062 132.804688 606.058594 135.175781 601.839844 C 138.136719 596.578125 140.972656 591.246094 143.707031 585.871094 C 145.257812 582.824219 146.765625 579.761719 148.246094 576.671875 C 148.964844 575.179688 151.195312 576.488281 150.476562 577.984375 Z M 150.488281 577.972656 "/><path style=" stroke:none;fill-rule:nonzero;fill:#000000;fill-opacity:1;" d="M 159.402344 569.367188 C 148.457031 572.921875 137.320312 575.828125 126.023438 578.042969 C 122.808594 578.675781 119.59375 579.253906 116.363281 579.777344 C 114.742188 580.042969 114.039062 577.546875 115.671875 577.28125 C 127.023438 575.433594 138.261719 572.921875 149.320312 569.746094 C 152.464844 568.84375 155.59375 567.886719 158.695312 566.871094 C 160.289062 566.347656 160.964844 568.84375 159.386719 569.367188 Z M 159.402344 569.367188 "/><path style=" stroke:none;fill-rule:nonzero;fill:#000000;fill-opacity:1;" d="M 143.03125 575.234375 C 137.078125 585.378906 131.15625 595.535156 125.175781 605.648438 C 123.738281 608.074219 122.1875 610.5 120.03125 612.347656 C 118.773438 613.421875 116.929688 611.601562 118.195312 610.515625 C 120.664062 608.398438 122.230469 605.5625 123.851562 602.800781 L 129.464844 593.234375 C 133.242188 586.800781 137.007812 580.371094 140.789062 573.9375 C 141.632812 572.496094 143.863281 573.796875 143.015625 575.25 Z M 143.03125 575.234375 "/><path style=" stroke:none;fill-rule:nonzero;fill:#000000;fill-opacity:1;" d="M 137.839844 575.542969 C 137.839844 577.5625 137.839844 579.578125 137.839844 581.597656 C 137.839844 582.273438 137.25 582.921875 136.542969 582.894531 C 135.839844 582.867188 135.246094 582.332031 135.246094 581.597656 C 135.246094 579.578125 135.246094 577.5625 135.246094 575.542969 C 135.246094 574.867188 135.839844 574.21875 136.542969 574.246094 C 137.25 574.273438 137.839844 574.8125 137.839844 575.542969 Z M 137.839844 575.542969 "/><path style=" stroke:none;fill-rule:nonzero;fill:#000000;fill-opacity:1;" d="M 135.019531 576.757812 L 135.019531 585.222656 C 135.019531 585.898438 134.429688 586.546875 133.722656 586.519531 C 133.019531 586.492188 132.425781 585.957031 132.425781 585.222656 L 132.425781 576.757812 C 132.425781 576.082031 133.019531 575.433594 133.722656 575.460938 C 134.429688 575.488281 135.019531 576.023438 135.019531 576.757812 Z M 135.019531 576.757812 "/><path style=" stroke:none;fill-rule:nonzero;fill:#000000;fill-opacity:1;" d="M 289.667969 270.429688 C 289.542969 274.054688 289.414062 277.679688 289.289062 281.304688 C 289.230469 282.972656 286.636719 282.972656 286.707031 281.304688 C 286.835938 277.679688 286.960938 274.054688 287.089844 270.429688 C 287.144531 268.765625 289.738281 268.765625 289.667969 270.429688 Z M 289.667969 270.429688 "/><path style=" stroke:none;fill-rule:nonzero;fill:#000000;fill-opacity:1;" d="M 249.253906 114.550781 C 252.46875 114.382812 255.304688 112.476562 256.714844 109.585938 C 257.503906 107.960938 257.617188 106.128906 257.941406 104.378906 C 258.335938 102.277344 258.828125 100.203125 259.421875 98.144531 C 261.820312 89.890625 266.640625 82.585938 268.757812 74.234375 C 270.503906 67.320312 269.800781 60.113281 266.671875 53.679688 C 263.539062 47.246094 258.800781 42.351562 252.640625 39.363281 C 240.527344 33.480469 224.773438 37.359375 216.371094 47.742188 C 207.472656 58.746094 208.164062 75.757812 217.359375 86.324219 C 221.871094 91.515625 227.765625 95.703125 231.078125 101.855469 C 231.882812 103.351562 232.515625 104.945312 232.898438 106.59375 C 233.335938 108.46875 233.460938 110.542969 234.535156 112.207031 C 236.308594 114.988281 240.230469 115.214844 243.175781 115.003906 C 245.207031 114.847656 247.222656 114.636719 249.269531 114.550781 C 250.777344 114.496094 250.777344 116.835938 249.269531 116.90625 C 245.378906 117.0625 241.300781 117.964844 237.464844 116.890625 C 235.773438 116.414062 234.167969 115.523438 233.050781 114.140625 C 231.769531 112.546875 231.316406 110.601562 230.9375 108.640625 C 230.21875 104.972656 228.667969 101.855469 226.285156 98.976562 C 223.902344 96.097656 221.152344 93.628906 218.542969 91.007812 C 215.933594 88.382812 213.453125 85.546875 211.660156 82.261719 C 209.871094 78.972656 208.6875 75.375 208.136719 71.679688 C 207.035156 64.34375 208.25 56.640625 211.929688 50.167969 C 219.132812 37.472656 235.507812 31.40625 249.367188 35.582031 C 263.300781 39.785156 273.058594 54.371094 272.027344 68.84375 C 271.71875 73.273438 270.40625 77.5625 268.757812 81.667969 C 267.105469 85.773438 264.921875 89.890625 263.273438 94.109375 C 261.621094 98.328125 260.535156 102.757812 259.84375 107.214844 C 259.308594 110.714844 257.335938 113.832031 254.203125 115.566406 C 252.683594 116.398438 251.003906 116.835938 249.269531 116.933594 C 247.761719 117.003906 247.761719 114.664062 249.269531 114.578125 Z M 249.253906 114.550781 "/><path style=" stroke:none;fill-rule:nonzero;fill:#000000;fill-opacity:1;" d="M 248.507812 114.28125 C 246.179688 107.46875 244.953125 100.289062 244.871094 93.09375 C 244.828125 89.554688 245.082031 86.011719 245.574219 82.5 C 245.828125 80.695312 246.167969 78.890625 246.574219 77.113281 C 246.886719 75.742188 247.253906 74.347656 248.070312 73.175781 C 248.832031 72.101562 249.960938 71.285156 251.328125 71.339844 C 252.808594 71.414062 254.019531 72.457031 254.597656 73.753906 C 255.320312 75.363281 255.035156 77.125 254.742188 78.804688 C 254.445312 80.484375 254.164062 82.160156 253.542969 83.753906 C 252.457031 86.535156 250.3125 89.171875 247.210938 89.652344 C 244.109375 90.132812 241.148438 88.269531 239.230469 85.898438 C 237.183594 83.390625 235.886719 80.257812 235.421875 77.070312 C 235.082031 74.714844 234.800781 70.410156 237.789062 69.507812 C 241.289062 68.449219 241.878906 73.738281 242.21875 75.941406 C 242.769531 79.46875 243.078125 83.332031 242.375 86.859375 C 241.765625 89.921875 239.328125 91.710938 236.28125 91.710938 C 233.390625 91.710938 230.554688 90.386719 228.300781 88.664062 C 225.929688 86.84375 224.097656 84.445312 222.96875 81.667969 C 222.347656 80.128906 221.882812 78.351562 222.492188 76.730469 C 222.96875 75.433594 224.210938 74.316406 225.636719 74.261719 C 227.285156 74.191406 228.285156 75.417969 229.160156 76.632812 C 230.148438 78 231.09375 79.398438 232.007812 80.820312 C 233.855469 83.714844 235.535156 86.703125 237.027344 89.777344 C 240.003906 95.886719 242.332031 102.335938 243.882812 108.949219 C 244.261719 110.601562 244.601562 112.25 244.898438 113.914062 C 245.164062 115.398438 242.894531 116.03125 242.628906 114.535156 C 240.667969 103.433594 236.632812 92.753906 230.710938 83.164062 C 229.992188 81.992188 229.230469 80.835938 228.457031 79.691406 C 228.074219 79.144531 227.695312 78.59375 227.3125 78.054688 C 226.988281 77.621094 226.609375 76.914062 226.085938 76.675781 C 224.929688 76.152344 224.507812 77.972656 224.578125 78.71875 C 224.691406 80.003906 225.3125 81.300781 225.929688 82.414062 C 227.101562 84.488281 228.78125 86.28125 230.808594 87.535156 C 232.644531 88.691406 234.96875 89.652344 237.183594 89.285156 C 239.960938 88.820312 240.257812 86.167969 240.355469 83.796875 C 240.484375 80.695312 240.246094 77.589844 239.609375 74.558594 C 239.523438 74.121094 239.257812 71.75 238.550781 71.738281 C 237.890625 71.738281 237.621094 73.34375 237.59375 73.796875 C 237.425781 76.460938 238.101562 79.285156 239.300781 81.652344 C 240.414062 83.867188 242.089844 86.152344 244.488281 87.054688 C 246.886719 87.960938 249.113281 86.773438 250.4375 84.757812 C 251.171875 83.628906 251.609375 82.359375 251.921875 81.0625 C 252.257812 79.652344 252.582031 78.167969 252.695312 76.714844 C 252.78125 75.730469 252.695312 74.0625 251.484375 73.726562 C 250.582031 73.472656 249.960938 74.488281 249.636719 75.164062 C 249.101562 76.25 248.886719 77.492188 248.648438 78.675781 C 248.339844 80.144531 248.070312 81.625 247.859375 83.121094 C 247.449219 86.039062 247.253906 89.003906 247.238281 91.964844 C 247.210938 97.875 247.972656 103.789062 249.523438 109.5 C 249.902344 110.898438 250.328125 112.28125 250.804688 113.660156 C 251.285156 115.042969 249.027344 115.707031 248.535156 114.28125 Z M 248.507812 114.28125 "/><path style=" stroke:none;fill-rule:nonzero;fill:#000000;fill-opacity:1;" d="M 254.5 113.054688 C 256.65625 112.25 258.730469 113.902344 259.4375 115.863281 C 259.832031 116.949219 259.875 118.148438 259.929688 119.289062 C 259.984375 120.628906 260.015625 121.984375 260.015625 123.324219 C 260.015625 125.609375 260.097656 128.121094 259.210938 130.265625 C 258.320312 132.410156 256.460938 133.621094 254.304688 134.3125 C 251.863281 135.105469 249.253906 135.484375 246.714844 135.796875 C 244.347656 136.089844 241.90625 136.316406 239.511719 136.191406 C 237.480469 136.078125 235.378906 135.625 233.800781 134.257812 C 232.023438 132.734375 231.585938 130.421875 231.246094 128.21875 C 230.796875 125.1875 230.21875 122.070312 230.0625 118.996094 C 229.949219 116.496094 231.175781 113.5625 234.082031 113.589844 C 235.589844 113.589844 235.589844 115.960938 234.082031 115.945312 C 232.023438 115.933594 232.390625 118.996094 232.53125 120.277344 C 232.785156 122.492188 233.082031 124.695312 233.40625 126.894531 C 233.660156 128.601562 233.773438 130.6875 234.929688 132.070312 C 235.914062 133.242188 237.523438 133.652344 238.988281 133.792969 C 242.964844 134.160156 247.195312 133.523438 251.089844 132.691406 C 252.753906 132.339844 254.683594 132 255.996094 130.84375 C 257.308594 129.6875 257.519531 127.867188 257.601562 126.230469 C 257.714844 123.917969 257.6875 121.589844 257.589844 119.289062 C 257.53125 117.992188 257.308594 114.496094 255.148438 115.3125 C 253.726562 115.847656 253.117188 113.578125 254.527344 113.042969 Z M 254.5 113.054688 "/><path style=" stroke:none;fill-rule:nonzero;fill:#000000;fill-opacity:1;" d="M 259.761719 119.769531 C 250.441406 122.703125 240.554688 123.75 230.824219 122.773438 C 229.328125 122.621094 229.316406 120.277344 230.824219 120.417969 C 240.371094 121.363281 249.988281 120.375 259.140625 117.5 C 260.59375 117.046875 261.199219 119.320312 259.761719 119.769531 Z M 259.761719 119.769531 "/><path style=" stroke:none;fill-rule:nonzero;fill:#000000;fill-opacity:1;" d="M 200.832031 99.484375 L 190.820312 102.546875 C 189.367188 102.984375 188.746094 100.726562 190.199219 100.273438 L 200.210938 97.214844 C 201.664062 96.777344 202.285156 99.035156 200.832031 99.484375 Z M 200.832031 99.484375 "/><path style=" stroke:none;fill-rule:nonzero;fill:#000000;fill-opacity:1;" d="M 277.992188 91.078125 C 281.757812 92.683594 285.523438 94.292969 289.289062 95.902344 C 289.867188 96.15625 290.007812 97.015625 289.710938 97.507812 C 289.359375 98.117188 288.695312 98.1875 288.105469 97.933594 C 284.339844 96.324219 280.574219 94.714844 276.808594 93.109375 C 276.230469 92.855469 276.089844 91.992188 276.386719 91.5 C 276.738281 90.894531 277.402344 90.824219 277.992188 91.078125 Z M 277.992188 91.078125 "/><g clip-rule="nonzero" clip-path="url(#d5550cf096)"><path style=" stroke:none;fill-rule:nonzero;fill:#000000;fill-opacity:1;" d="M 237.761719 1.726562 C 237.859375 6.195312 237.960938 10.65625 238.074219 15.125 C 238.101562 16.636719 235.761719 16.636719 235.71875 15.125 C 235.617188 10.65625 235.519531 6.195312 235.40625 1.726562 C 235.378906 0.214844 237.71875 0.214844 237.761719 1.726562 Z M 237.761719 1.726562 "/></g><path style=" stroke:none;fill-rule:nonzero;fill:#000000;fill-opacity:1;" d="M 293.644531 38.558594 L 281.886719 45.1875 C 280.558594 45.933594 279.375 43.902344 280.699219 43.15625 L 292.460938 36.527344 C 293.785156 35.777344 294.972656 37.808594 293.644531 38.558594 Z M 293.644531 38.558594 "/><path style=" stroke:none;fill-rule:nonzero;fill:#000000;fill-opacity:1;" d="M 185.925781 43.296875 C 189.183594 46.316406 192.792969 48.898438 196.683594 51.027344 C 198.011719 51.761719 196.828125 53.777344 195.5 53.058594 C 191.441406 50.832031 187.660156 48.109375 184.277344 44.960938 C 183.160156 43.933594 184.824219 42.269531 185.941406 43.296875 Z M 185.925781 43.296875 "/><path style=" stroke:none;fill-rule:nonzero;fill:#000000;fill-opacity:1;" d="M 213.015625 28.203125 C 214.015625 29.164062 215.003906 30.121094 216.003906 31.082031 C 216.441406 31.503906 216.46875 32.324219 216.003906 32.746094 C 215.539062 33.167969 214.820312 33.195312 214.339844 32.746094 C 213.339844 31.785156 212.351562 30.828125 211.351562 29.867188 C 210.914062 29.445312 210.886719 28.625 211.351562 28.203125 C 211.816406 27.78125 212.535156 27.75 213.015625 28.203125 Z M 213.015625 28.203125 "/><path style=" stroke:none;fill-rule:nonzero;fill:#000000;fill-opacity:1;" d="M 267.601562 18.214844 L 263.273438 23.335938 C 262.875 23.800781 262.015625 23.773438 261.609375 23.335938 C 261.140625 22.828125 261.183594 22.179688 261.609375 21.671875 L 265.9375 16.550781 C 266.332031 16.085938 267.191406 16.113281 267.601562 16.550781 C 268.066406 17.058594 268.023438 17.707031 267.601562 18.214844 Z M 267.601562 18.214844 "/><path style=" stroke:none;fill-rule:nonzero;fill:#000000;fill-opacity:1;" d="M 290.894531 70.242188 C 288.328125 70.59375 285.722656 70.367188 283.28125 69.421875 C 282.703125 69.199219 282.253906 68.617188 282.464844 67.96875 C 282.648438 67.40625 283.296875 66.914062 283.917969 67.152344 C 284.464844 67.363281 285.03125 67.546875 285.609375 67.6875 C 285.847656 67.746094 286.101562 67.800781 286.355469 67.855469 C 286.523438 67.886719 286.695312 67.914062 286.863281 67.941406 C 287.089844 67.984375 286.792969 67.941406 287.0625 67.96875 C 287.609375 68.027344 288.160156 68.070312 288.710938 68.070312 C 289.007812 68.070312 289.304688 68.070312 289.597656 68.039062 C 289.726562 68.039062 289.851562 68.027344 289.980469 68.011719 C 290.0625 68.011719 290.148438 68 290.234375 67.984375 C 290.375 67.96875 290.402344 67.96875 290.304688 67.984375 C 290.910156 67.898438 291.601562 68.125 291.757812 68.800781 C 291.882812 69.351562 291.585938 70.15625 290.9375 70.253906 Z M 290.894531 70.242188 "/><path style=" stroke:none;fill-rule:nonzero;fill:#000000;fill-opacity:1;" d="M 198.023438 79.269531 C 195.628906 79.722656 193.246094 80.171875 190.847656 80.625 C 190.242188 80.738281 189.550781 80.453125 189.394531 79.804688 C 189.269531 79.226562 189.5625 78.480469 190.210938 78.351562 C 192.609375 77.902344 194.992188 77.449219 197.390625 77 C 197.996094 76.886719 198.6875 77.167969 198.84375 77.816406 C 198.96875 78.394531 198.671875 79.144531 198.023438 79.269531 Z M 198.023438 79.269531 "/><g clip-rule="nonzero" clip-path="url(#883a9e5557)"><path style="fill:none;stroke-width:1.83;stroke-linecap:butt;stroke-linejoin:miter;stroke:#000000;stroke-opacity:1;stroke-miterlimit:10;" d="M 125.439657 130.860832 L 120.51991 130.860832 C 119.611307 130.860832 118.79135 130.290405 118.489406 129.420918 C 118.201312 128.590198 117.860586 127.778861 117.469998 127.009061 C 117.060019 126.189417 117.220687 125.200861 117.860586 124.55013 L 121.290005 121.019571 C 122.129354 120.16116 122.109963 118.790472 121.251223 117.948676 L 116.519844 113.360334 C 115.661105 112.521306 114.289891 112.54069 113.450542 113.3991 L 110.029434 116.921353 C 109.389534 117.58039 108.408909 117.76038 107.56956 117.369941 C 106.971212 117.090266 106.350703 116.849357 105.719114 116.630601 C 104.849294 116.328773 104.259257 115.509129 104.259257 114.589799 L 104.259257 109.669168 C 104.259257 108.470163 103.289712 107.500989 102.090246 107.500989 L 95.500111 107.500989 C 94.300645 107.500989 93.3311 108.470163 93.3311 109.669168 L 93.3311 114.589799 C 93.3311 115.500822 92.760454 116.320465 91.890634 116.619524 C 91.059595 116.910276 90.250718 117.250872 89.480622 117.64131 C 88.660664 118.051132 87.668958 117.890526 87.020748 117.250872 L 83.488835 113.819999 C 82.630095 112.980971 81.258881 113.000355 80.419533 113.858765 L 75.82943 118.5911 C 74.990081 119.44951 75.009472 120.820198 75.870982 121.659225 L 79.389045 125.079022 C 80.051105 125.718676 80.231164 126.698926 79.840576 127.540722 C 79.560793 128.13884 79.319792 128.759111 79.100951 129.390458 C 78.799007 130.259945 77.979049 130.849756 77.059367 130.849756 L 72.139619 130.849756 C 70.940154 130.849756 69.970609 131.818929 69.970609 133.020704 L 69.970609 139.611081 C 69.970609 140.810087 70.940154 141.77926 72.139619 141.77926 L 77.059367 141.77926 C 77.970739 141.77926 78.790697 142.349688 79.089871 143.219175 C 79.380734 144.049895 79.71869 144.861231 80.109278 145.631032 C 80.519257 146.450675 80.36136 147.439232 79.71869 148.089962 L 76.289271 151.620522 C 75.449922 152.478932 75.469313 153.84962 76.330823 154.688647 L 81.059432 159.279759 C 81.920942 160.118786 83.289385 160.099403 84.128734 159.240992 L 87.549843 155.71874 C 88.189742 155.059702 89.170368 154.879713 90.009717 155.270151 C 90.610834 155.549827 91.231343 155.790736 91.860162 156.009492 C 92.729983 156.31132 93.32002 157.130964 93.32002 158.050294 L 93.32002 162.970924 C 93.32002 164.16993 94.289565 165.139103 95.48903 165.139103 L 102.079166 165.139103 C 103.278631 165.139103 104.250946 164.16993 104.250946 162.970924 L 104.250946 158.050294 C 104.250946 157.139271 104.818822 156.319627 105.688643 156.020568 C 106.519681 155.729816 107.331329 155.389221 108.098654 154.998783 C 108.921382 154.588961 109.910318 154.749567 110.561298 155.389221 L 114.090442 158.820094 C 114.949182 159.659121 116.320395 159.639738 117.159744 158.781327 L 121.749847 154.048993 C 122.589195 153.190582 122.569805 151.819895 121.711065 150.980867 L 118.190232 147.561071 C 117.530941 146.918647 117.350883 145.941167 117.738701 145.099371 C 118.021254 144.501252 118.259485 143.880982 118.481095 143.249635 C 118.780269 142.380148 119.600227 141.790337 120.51991 141.790337 L 125.439657 141.790337 C 126.639123 141.790337 127.608668 140.821163 127.608668 139.619389 L 127.608668 133.029011 C 127.608668 131.830005 126.639123 130.860832 125.439657 130.860832 Z M 98.791023 147.79921 C 92.4502 147.79921 87.319922 142.659823 87.319922 136.329738 C 87.319922 129.999653 92.46128 124.860266 98.791023 124.860266 C 105.120766 124.860266 110.259354 129.999653 110.259354 136.329738 C 110.259354 142.659823 105.120766 147.79921 98.791023 147.79921 Z M 98.791023 147.79921 " transform="matrix(-1.410133,0,0,1.410674,605.722569,-69.133235)"/></g><path style="fill:none;stroke-width:1.83;stroke-linecap:butt;stroke-linejoin:miter;stroke:#000000;stroke-opacity:1;stroke-miterlimit:10;" d="M 172.099698 300.419065 L 168.961143 300.419065 C 168.379416 300.419065 167.858632 300.05078 167.659183 299.499735 C 167.470814 298.970844 167.260284 298.461336 167.010973 297.960135 C 166.750581 297.43955 166.850305 296.810972 167.260284 296.390074 L 169.448685 294.138823 C 169.98055 293.590548 169.96947 292.721061 169.420984 292.181093 L 166.409855 289.248652 C 165.861369 288.719761 164.988779 288.730837 164.451374 289.279112 L 162.271283 291.519287 C 161.861304 291.940185 161.229715 292.050947 160.70062 291.810038 C 160.321113 291.630049 159.919444 291.48052 159.520546 291.339297 C 158.96098 291.151001 158.589783 290.630416 158.589783 290.040605 L 158.589783 286.900484 C 158.589783 286.138991 157.969274 285.51872 157.210259 285.51872 L 153.010744 285.51872 C 152.248959 285.51872 151.63122 286.138991 151.63122 286.900484 L 151.63122 290.040605 C 151.63122 290.61934 151.260023 291.139924 150.708768 291.339297 C 150.179673 291.530363 149.66997 291.740812 149.171346 291.990028 C 148.650562 292.25032 148.018973 292.150634 147.600684 291.740812 L 145.35134 289.55048 C 144.800084 289.01882 143.930264 289.029896 143.390089 289.58094 L 140.459293 292.590915 C 139.930198 293.13919 139.941279 294.008677 140.489764 294.548645 L 142.730798 296.730669 C 143.149088 297.140491 143.259893 297.769069 143.018892 298.30073 C 142.838833 298.680092 142.689246 299.078837 142.55074 299.480352 C 142.359601 300.039703 141.838817 300.410758 141.24878 300.410758 L 138.110224 300.410758 C 137.351209 300.410758 136.7307 301.031029 136.7307 301.789753 L 136.7307 305.990427 C 136.7307 306.749151 137.351209 307.369422 138.110224 307.369422 L 141.24878 307.369422 C 141.830506 307.369422 142.351291 307.740477 142.55074 308.288752 C 142.739109 308.820412 142.949638 309.329921 143.19895 309.831122 C 143.459342 310.348937 143.359617 310.980284 142.949638 311.401182 L 140.761237 313.649664 C 140.229372 314.200708 140.240453 315.070195 140.788938 315.610163 L 143.800068 318.539835 C 144.351323 319.068727 145.221143 319.060419 145.761319 318.509375 L 147.938639 316.269201 C 148.351388 315.851072 148.980208 315.740309 149.509302 315.981218 C 149.88881 316.161207 150.290478 316.310737 150.689377 316.44919 C 151.248943 316.640255 151.62014 317.16084 151.62014 317.750651 L 151.62014 320.890772 C 151.62014 321.649496 152.240649 322.269767 152.999664 322.269767 L 157.199178 322.269767 C 157.960963 322.269767 158.578702 321.649496 158.578702 320.890772 L 158.578702 317.750651 C 158.578702 317.169147 158.949899 316.651332 159.501155 316.44919 C 160.030249 316.260893 160.539953 316.050444 161.041346 315.801228 C 161.55936 315.540936 162.190949 315.640623 162.609239 316.050444 L 164.861353 318.240776 C 165.409838 318.769667 166.279659 318.76136 166.819834 318.210316 L 169.750629 315.200341 C 170.279724 314.649297 170.268643 313.77981 169.720158 313.239842 L 167.479124 311.060587 C 167.060835 310.650765 166.95003 310.019418 167.191031 309.490526 C 167.371089 309.111164 167.520676 308.70965 167.659183 308.310904 C 167.850321 307.748784 168.371106 307.380498 168.961143 307.380498 L 172.099698 307.380498 C 172.858713 307.380498 173.479222 306.760227 173.479222 305.998734 L 173.479222 301.800829 C 173.479222 301.039336 172.858713 300.419065 172.099698 300.419065 Z M 155.110501 311.221193 C 151.068884 311.221193 147.800133 307.950926 147.800133 303.910858 C 147.800133 299.87079 151.068884 296.600523 155.110501 296.600523 C 159.149349 296.600523 162.42087 299.87079 162.42087 303.910858 C 162.42087 307.950926 159.149349 311.221193 155.110501 311.221193 Z M 155.110501 311.221193 " transform="matrix(-1.410133,0,0,1.410674,605.722569,-69.133235)"/><path style=" stroke:none;fill-rule:nonzero;fill:#000000;fill-opacity:1;" d="M 505.195312 252.160156 C 505.195312 262.769531 505.066406 273.390625 505.011719 284 C 504.996094 286.894531 504.984375 289.769531 504.984375 292.664062 C 504.984375 295.1875 504.953125 297.78125 504.222656 300.222656 C 503.488281 302.664062 502.132812 304.570312 500.117188 305.9375 C 498.257812 307.207031 496 307.828125 493.800781 308.136719 C 491.261719 308.503906 488.695312 308.53125 486.144531 308.601562 C 483.589844 308.671875 480.800781 308.742188 478.121094 308.828125 C 473.890625 308.957031 469.671875 309.082031 465.441406 309.238281 C 456.980469 309.535156 448.519531 309.816406 440.058594 310.054688 C 434.886719 310.195312 429.273438 310.832031 424.253906 309.238281 C 419.628906 307.785156 416.511719 304.242188 415.003906 299.714844 C 413.492188 295.1875 413.507812 290.292969 413.378906 285.566406 C 413.253906 280.839844 413.125 276.214844 413 271.542969 C 412.859375 266.507812 412.4375 261.386719 412.957031 256.367188 C 413.449219 251.625 415.003906 246.941406 418.894531 243.9375 C 422.785156 240.933594 427.652344 240.242188 432.332031 240.015625 C 437.5625 239.777344 442.824219 239.890625 448.054688 239.859375 C 456.121094 239.820312 464.171875 239.820312 472.238281 239.789062 C 476.976562 239.777344 481.714844 239.746094 486.453125 239.734375 C 489.332031 239.71875 492.25 239.578125 495.113281 239.777344 C 497.777344 239.972656 500.398438 240.582031 502.527344 242.257812 C 504.363281 243.710938 505.589844 245.785156 505.671875 248.140625 C 505.730469 249.804688 503.136719 249.804688 503.09375 248.140625 C 503.023438 245.984375 501.371094 244.304688 499.527344 243.386719 C 497.210938 242.230469 494.449219 242.257812 491.925781 242.273438 C 486.863281 242.289062 481.785156 242.328125 476.722656 242.359375 C 469.109375 242.386719 461.496094 242.398438 453.878906 242.429688 C 449.238281 242.441406 444.601562 242.46875 439.960938 242.5 C 435.320312 242.527344 430.386719 242.300781 425.804688 243.484375 C 421.472656 244.613281 418.035156 247.308594 416.566406 251.625 C 415.101562 255.941406 415.3125 260.808594 415.4375 265.378906 C 415.566406 269.949219 415.679688 274.507812 415.804688 279.078125 C 415.933594 283.648438 415.863281 288.527344 416.339844 293.210938 C 416.75 297.273438 417.78125 301.664062 420.925781 304.496094 C 424.476562 307.699219 429.722656 307.699219 434.222656 307.617188 C 443.035156 307.433594 451.863281 307.121094 460.675781 306.8125 C 469.488281 306.5 477.542969 306.246094 485.972656 306.019531 C 490.21875 305.910156 495.265625 306.21875 498.90625 303.636719 C 502.953125 300.773438 502.386719 294.949219 502.386719 290.589844 C 502.417969 280.515625 502.515625 270.445312 502.570312 260.371094 C 502.570312 257.636719 502.585938 254.898438 502.597656 252.148438 C 502.597656 250.484375 505.195312 250.484375 505.179688 252.148438 Z M 505.195312 252.160156 "/><path style=" stroke:none;fill-rule:nonzero;fill:#000000;fill-opacity:1;" d="M 478.289062 256.761719 C 480.6875 258.976562 483.070312 261.175781 485.464844 263.390625 L 489.046875 266.707031 C 490.035156 267.609375 491.429688 268.554688 491.769531 269.921875 C 492.109375 271.289062 491.050781 272.417969 490.148438 273.351562 C 489.019531 274.507812 487.890625 275.664062 486.777344 276.804688 C 484.523438 279.121094 482.28125 281.417969 480.023438 283.734375 C 478.851562 284.933594 477.035156 283.097656 478.191406 281.898438 C 480.191406 279.839844 482.210938 277.78125 484.210938 275.71875 C 485.171875 274.734375 486.144531 273.746094 487.101562 272.757812 C 487.582031 272.265625 488.0625 271.769531 488.554688 271.277344 C 488.710938 271.121094 489.003906 270.910156 489.105469 270.699219 C 489.273438 270.34375 489.246094 270.558594 489.046875 270.261719 C 488.722656 269.765625 488.03125 269.300781 487.59375 268.890625 L 485.933594 267.355469 L 482.859375 264.519531 L 476.457031 258.59375 C 475.230469 257.464844 477.0625 255.632812 478.289062 256.761719 Z M 478.289062 256.761719 "/><path style=" stroke:none;fill-rule:nonzero;fill:#000000;fill-opacity:1;" d="M 453.90625 258.339844 C 457.503906 266.070312 462 273.363281 467.332031 280.007812 C 467.769531 280.558594 467.855469 281.304688 467.332031 281.84375 C 466.878906 282.292969 465.9375 282.378906 465.5 281.84375 C 460.011719 275.027344 455.359375 267.59375 451.664062 259.652344 C 450.972656 258.15625 453.203125 256.832031 453.894531 258.339844 Z M 453.90625 258.339844 "/><path style=" stroke:none;fill-rule:nonzero;fill:#000000;fill-opacity:1;" d="M 444.21875 260.230469 L 437.183594 265.394531 L 433.515625 268.074219 C 432.953125 268.484375 432.359375 268.878906 431.824219 269.316406 C 431.34375 269.710938 431.34375 269.542969 431.78125 269.964844 C 436.027344 273.929688 440.496094 277.667969 444.855469 281.519531 C 446.109375 282.617188 444.277344 284.453125 443.019531 283.351562 C 440.511719 281.136719 438 278.921875 435.503906 276.707031 C 434.292969 275.636719 433.078125 274.5625 431.867188 273.492188 C 430.824219 272.574219 429.230469 271.574219 428.890625 270.132812 C 428.554688 268.695312 429.722656 267.664062 430.796875 266.875 C 432.105469 265.902344 433.417969 264.941406 434.742188 263.984375 C 437.464844 261.980469 440.1875 259.992188 442.910156 257.988281 C 443.472656 257.566406 444.347656 257.902344 444.671875 258.453125 C 445.066406 259.101562 444.769531 259.808594 444.207031 260.21875 Z M 444.21875 260.230469 "/><path style=" stroke:none;fill-rule:nonzero;fill:#000000;fill-opacity:1;" d="M 337.894531 93.363281 C 348.5 93.207031 359.117188 93.152344 369.722656 93.023438 C 372.667969 92.996094 375.617188 92.953125 378.550781 92.910156 C 381.058594 92.882812 383.65625 92.882812 386.082031 93.589844 C 390.929688 95.011719 393.3125 99.246094 394.035156 103.984375 C 394.414062 106.480469 394.484375 108.992188 394.597656 111.503906 C 394.710938 114.183594 394.824219 116.851562 394.949219 119.515625 C 395.148438 123.734375 395.34375 127.964844 395.554688 132.183594 C 395.980469 140.691406 396.417969 149.195312 396.78125 157.71875 C 397.007812 162.878906 397.726562 168.480469 396.175781 173.515625 C 394.753906 178.15625 391.226562 181.277344 386.714844 182.8125 C 382.203125 184.351562 377.296875 184.421875 372.570312 184.632812 C 367.847656 184.84375 363.25 185.027344 358.597656 185.238281 C 353.519531 185.449219 348.359375 185.972656 343.28125 185.492188 C 338.542969 185.042969 333.890625 183.460938 330.875 179.570312 C 327.855469 175.675781 327.179688 170.894531 326.898438 166.25 C 326.574219 161.019531 326.601562 155.757812 326.503906 150.523438 C 326.332031 142.425781 326.191406 134.34375 326.035156 126.246094 C 325.9375 121.476562 325.839844 116.707031 325.742188 111.953125 C 325.628906 106.734375 324.667969 100.386719 328.152344 96 C 329.574219 94.207031 331.59375 93.039062 333.878906 92.925781 C 335.539062 92.839844 335.539062 95.4375 333.878906 95.507812 C 331.804688 95.605469 330.195312 97.199219 329.292969 98.960938 C 328.109375 101.289062 328.164062 104.097656 328.207031 106.636719 C 328.308594 111.671875 328.433594 116.707031 328.53125 121.746094 C 328.6875 129.363281 328.816406 136.996094 328.96875 144.613281 C 329.054688 149.28125 329.152344 153.9375 329.265625 158.605469 C 329.378906 163.273438 329.210938 168.199219 330.464844 172.785156 C 331.636719 177.101562 334.355469 180.527344 338.6875 181.964844 C 343.015625 183.40625 347.851562 183.109375 352.421875 182.910156 C 356.988281 182.714844 361.570312 182.515625 366.140625 182.320312 C 370.710938 182.121094 375.589844 182.109375 380.257812 181.570312 C 384.304688 181.105469 388.6875 180.019531 391.496094 176.859375 C 394.683594 173.292969 394.625 168.042969 394.457031 163.558594 C 394.132812 154.726562 393.679688 145.894531 393.230469 137.066406 C 392.777344 128.234375 392.398438 120.25 392.03125 111.84375 C 391.847656 107.582031 392.101562 102.390625 389.421875 98.777344 C 386.460938 94.800781 380.679688 95.464844 376.320312 95.519531 C 366.253906 95.660156 356.183594 95.71875 346.117188 95.832031 C 343.382812 95.859375 340.644531 95.902344 337.894531 95.945312 C 336.230469 95.972656 336.230469 93.375 337.894531 93.363281 Z M 337.894531 93.363281 "/><path style=" stroke:none;fill-rule:nonzero;fill:#000000;fill-opacity:1;" d="M 365.476562 107.144531 C 369.992188 107.679688 372.867188 111.714844 373.785156 115.917969 C 374.882812 120.941406 373.445312 126.695312 376.140625 131.308594 C 377.253906 133.214844 379.042969 134.835938 381.34375 134.851562 C 382.625 134.851562 383.089844 136.597656 381.992188 137.261719 C 377.421875 140 376.589844 145.925781 376.394531 150.777344 C 376.152344 156.589844 376.238281 162.640625 372.417969 167.421875 C 370.640625 169.652344 368.199219 171.132812 365.351562 171.441406 C 364.644531 171.527344 364.066406 170.792969 364.054688 170.144531 C 364.054688 169.382812 364.660156 168.933594 365.351562 168.847656 C 370.414062 168.285156 372.8125 162.542969 373.390625 158.15625 C 374.109375 152.566406 373.289062 146.757812 375.476562 141.425781 C 376.546875 138.800781 378.210938 136.5 380.679688 135.035156 L 381.328125 137.445312 C 376.800781 137.417969 373.585938 133.367188 372.5 129.292969 C 371.175781 124.269531 372.683594 118.597656 370.300781 113.84375 C 369.34375 111.925781 367.707031 110.007812 365.4375 109.742188 C 364.730469 109.65625 364.152344 109.203125 364.136719 108.441406 C 364.136719 107.808594 364.746094 107.058594 365.4375 107.144531 Z M 365.476562 107.144531 "/><path style=" stroke:none;fill-rule:nonzero;fill:#000000;fill-opacity:1;" d="M 354.367188 109.726562 C 352.421875 109.964844 350.898438 111.445312 349.925781 113.054688 C 348.710938 115.101562 348.304688 117.398438 348.148438 119.742188 C 347.824219 124.847656 348.191406 130.125 344.722656 134.300781 C 343.167969 136.175781 340.941406 137.417969 338.472656 137.433594 L 339.121094 135.019531 C 343.523438 137.65625 345.269531 142.792969 345.792969 147.644531 C 346.386719 153.246094 345.425781 159.464844 348.484375 164.488281 C 349.785156 166.632812 351.855469 168.550781 354.449219 168.847656 C 355.15625 168.933594 355.734375 169.382812 355.75 170.144531 C 355.75 170.78125 355.140625 171.511719 354.449219 171.441406 C 349.261719 170.863281 345.707031 166.351562 344.4375 161.527344 C 342.902344 155.6875 344.171875 149.480469 342.394531 143.695312 C 341.605469 141.113281 340.179688 138.6875 337.824219 137.261719 C 336.726562 136.597656 337.191406 134.863281 338.472656 134.851562 C 343.140625 134.820312 344.988281 129.277344 345.300781 125.46875 C 345.707031 120.460938 345.128906 115.101562 348.304688 110.828125 C 349.8125 108.796875 351.8125 107.441406 354.351562 107.144531 C 355.058594 107.058594 355.636719 107.792969 355.648438 108.441406 C 355.648438 109.203125 355.042969 109.65625 354.351562 109.738281 Z M 354.367188 109.726562 "/><path style=" stroke:none;fill-rule:nonzero;fill:#000000;fill-opacity:1;" d="M 321.355469 109.132812 C 321.3125 119.769531 321.269531 130.40625 321.226562 141.042969 C 321.1875 151.679688 321.003906 161.78125 321.117188 172.148438 C 321.15625 176.324219 321.453125 180.78125 323.835938 184.363281 C 325.894531 187.441406 329.28125 189.160156 332.777344 190.0625 C 336.472656 191.023438 340.320312 191.191406 344.128906 191.261719 C 349.359375 191.363281 354.605469 191.460938 359.835938 191.558594 C 362.871094 191.617188 365.886719 191.671875 368.917969 191.730469 C 371.429688 191.769531 373.953125 191.898438 376.464844 191.800781 C 380.171875 191.65625 384.65625 191.007812 386.644531 187.453125 C 387.378906 186.128906 389.40625 187.3125 388.675781 188.640625 C 386.757812 192.082031 382.992188 193.433594 379.285156 193.914062 C 377.351562 194.167969 375.417969 194.183594 373.472656 194.15625 C 370.679688 194.097656 367.890625 194.054688 365.097656 194 C 359.625 193.902344 354.15625 193.800781 348.683594 193.703125 C 344.253906 193.617188 339.800781 193.648438 335.398438 192.984375 C 331.550781 192.40625 327.730469 191.191406 324.683594 188.710938 C 321.285156 185.945312 319.691406 181.855469 319.128906 177.609375 C 318.476562 172.726562 318.789062 167.703125 318.816406 162.78125 L 318.886719 146.304688 C 318.929688 133.917969 318.984375 121.519531 319.027344 109.132812 C 319.027344 107.625 321.382812 107.625 321.382812 109.132812 Z M 321.355469 109.132812 "/><path style=" stroke:none;fill-rule:nonzero;fill:#000000;fill-opacity:1;" d="M 325.386719 97.285156 C 325.613281 97.183594 325.304688 97.328125 325.289062 97.339844 C 325.203125 97.382812 325.132812 97.410156 325.050781 97.453125 C 324.894531 97.539062 324.738281 97.621094 324.597656 97.707031 C 324.429688 97.804688 324.273438 97.90625 324.117188 98.015625 C 324.089844 98.03125 323.863281 98.199219 323.992188 98.117188 C 324.117188 98.03125 323.878906 98.199219 323.863281 98.214844 C 323.582031 98.453125 323.316406 98.707031 323.0625 98.976562 C 322.949219 99.105469 322.820312 99.230469 322.722656 99.371094 C 322.667969 99.441406 322.582031 99.554688 322.679688 99.429688 C 322.625 99.511719 322.554688 99.597656 322.496094 99.683594 C 322.300781 99.964844 322.117188 100.273438 321.949219 100.585938 C 321.863281 100.753906 321.777344 100.921875 321.695312 101.105469 C 321.636719 101.234375 321.75 100.953125 321.664062 101.164062 C 321.636719 101.246094 321.609375 101.332031 321.582031 101.402344 C 321.453125 101.753906 321.355469 102.109375 321.285156 102.460938 C 321.269531 102.558594 321.242188 102.671875 321.226562 102.773438 C 321.214844 102.882812 321.214844 102.882812 321.226562 102.773438 C 321.199219 102.984375 321.1875 103.195312 321.1875 103.40625 C 321.15625 104.011719 320.664062 104.605469 320.015625 104.578125 C 319.394531 104.550781 318.816406 104.054688 318.84375 103.40625 C 319 99.695312 321.382812 96.421875 324.796875 95.027344 C 325.359375 94.785156 326.105469 95.28125 326.25 95.84375 C 326.402344 96.535156 326.035156 97.042969 325.429688 97.296875 Z M 325.386719 97.285156 "/></g></g></g></g></svg>