<svg xmlns="http://www.w3.org/2000/svg" xmlns:xlink="http://www.w3.org/1999/xlink" width="1920" zoomAndPan="magnify" viewBox="0 0 1440 809.999993" height="1080" preserveAspectRatio="xMidYMid meet" version="1.2"><defs><clipPath id="c5d7838c20"><path d="M 69 191.703125 L 869 191.703125 L 869 809.703125 L 69 809.703125 Z M 69 191.703125 "/></clipPath></defs><g id="053cd86920"><rect x="0" width="1440" y="0" height="809.999993" style="fill:#ffffff;fill-opacity:1;stroke:none;"/><rect x="0" width="1440" y="0" height="809.999993" style="fill:#ffde59;fill-opacity:1;stroke:none;"/><g clip-rule="nonzero" clip-path="url(#c5d7838c20)"><path style=" stroke:none;fill-rule:evenodd;fill:#000000;fill-opacity:1;" d="M 578.300781 307.808594 C 651.792969 307.808594 711.359375 367.320312 711.359375 440.75 C 711.359375 514.148438 651.792969 573.664062 578.300781 573.664062 C 504.8125 573.664062 445.246094 514.148438 445.246094 440.75 C 445.246094 367.320312 504.8125 307.808594 578.300781 307.808594 Z M 810.265625 434.863281 C 842.65625 434.863281 868.921875 461.105469 868.921875 493.441406 C 868.921875 525.804688 842.65625 552.019531 810.265625 552.019531 C 777.902344 552.019531 751.636719 525.804688 751.636719 493.441406 C 751.636719 461.105469 777.902344 434.863281 810.265625 434.863281 Z M 793.527344 498.1875 C 794.257812 497.074219 795.753906 496.78125 796.867188 497.511719 C 797.953125 498.246094 798.273438 499.738281 797.542969 500.820312 C 795.898438 503.28125 793.554688 505.039062 790.917969 506.007812 C 788.277344 506.941406 785.375 507.058594 782.5625 506.210938 L 782.53125 506.210938 C 779.75 505.363281 777.375 503.664062 775.671875 501.40625 C 774.003906 499.152344 773.035156 496.371094 773.035156 493.441406 C 773.035156 490.511719 774.003906 487.757812 775.671875 485.503906 C 777.375 483.25 779.75 481.519531 782.53125 480.671875 L 782.679688 480.640625 C 785.433594 479.820312 788.335938 479.96875 790.917969 480.90625 C 793.554688 481.84375 795.898438 483.628906 797.542969 486.058594 C 798.273438 487.171875 797.953125 488.667969 796.867188 489.371094 C 795.753906 490.101562 794.257812 489.808594 793.527344 488.695312 C 792.5 487.144531 791.003906 486 789.304688 485.386719 C 787.664062 484.800781 785.816406 484.710938 784.027344 485.238281 L 783.941406 485.269531 C 782.121094 485.796875 780.597656 486.910156 779.542969 488.34375 C 778.457031 489.78125 777.84375 491.566406 777.84375 493.441406 C 777.84375 495.34375 778.457031 497.101562 779.542969 498.539062 C 780.597656 499.972656 782.121094 501.085938 783.941406 501.640625 C 785.757812 502.167969 787.632812 502.109375 789.304688 501.496094 C 791.003906 500.878906 792.5 499.765625 793.527344 498.1875 Z M 838.082031 502.871094 C 838.082031 504.191406 837 505.273438 835.679688 505.273438 C 834.359375 505.273438 833.277344 504.191406 833.277344 502.871094 L 833.277344 495.84375 L 826.269531 495.84375 C 824.921875 495.84375 823.867188 494.757812 823.867188 493.441406 C 823.867188 492.121094 824.921875 491.039062 826.269531 491.039062 L 833.277344 491.039062 L 833.277344 484.039062 C 833.277344 482.691406 834.359375 481.636719 835.679688 481.636719 C 837 481.636719 838.082031 482.691406 838.082031 484.039062 L 838.082031 491.039062 L 845.117188 491.039062 C 846.4375 491.039062 847.523438 492.121094 847.523438 493.441406 C 847.523438 494.757812 846.4375 495.84375 845.117188 495.84375 L 838.082031 495.84375 Z M 813.488281 502.871094 C 813.488281 504.191406 812.402344 505.273438 811.085938 505.273438 C 809.765625 505.273438 808.679688 504.191406 808.679688 502.871094 L 808.679688 495.84375 L 801.644531 495.84375 C 800.328125 495.84375 799.242188 494.757812 799.242188 493.441406 C 799.242188 492.121094 800.328125 491.039062 801.644531 491.039062 L 808.679688 491.039062 L 808.679688 484.039062 C 808.679688 482.691406 809.765625 481.636719 811.085938 481.636719 C 812.402344 481.636719 813.488281 482.691406 813.488281 484.039062 L 813.488281 491.039062 L 820.496094 491.039062 C 821.8125 491.039062 822.898438 492.121094 822.898438 493.441406 C 822.898438 494.757812 821.8125 495.84375 820.496094 495.84375 L 813.488281 495.84375 Z M 808.679688 287.097656 C 841.308594 287.097656 867.75 313.546875 867.75 346.117188 C 867.75 378.714844 841.308594 405.164062 808.679688 405.164062 C 776.054688 405.164062 749.613281 378.714844 749.613281 346.117188 C 749.613281 313.546875 776.054688 287.097656 808.679688 287.097656 Z M 814.015625 325.46875 C 812.757812 325.585938 811.613281 324.617188 811.496094 323.359375 C 811.40625 322.070312 812.34375 320.929688 813.636719 320.839844 C 814.398438 320.753906 815.101562 320.722656 815.804688 320.722656 C 819 320.722656 821.636719 321.425781 823.601562 322.800781 C 825.710938 324.324219 826.972656 326.523438 827.238281 329.421875 C 827.265625 329.773438 827.296875 330.152344 827.296875 330.535156 L 827.296875 340.40625 C 827.441406 340.933594 828.058594 341.460938 828.9375 341.957031 C 830.550781 342.894531 832.808594 343.511719 834.800781 343.832031 C 836.058594 344.039062 836.941406 345.207031 836.734375 346.496094 C 836.589844 347.523438 835.765625 348.285156 834.769531 348.429688 C 832.777344 348.753906 830.550781 349.367188 828.9375 350.304688 C 828.058594 350.804688 827.441406 351.332031 827.296875 351.828125 L 827.296875 361.726562 C 827.296875 362.109375 827.265625 362.460938 827.238281 362.8125 C 826.972656 365.742188 825.710938 367.9375 823.601562 369.460938 C 821.636719 370.835938 819 371.539062 815.804688 371.539062 C 815.101562 371.539062 814.398438 371.511719 813.636719 371.421875 C 812.34375 371.304688 811.40625 370.191406 811.496094 368.902344 C 811.613281 367.613281 812.753906 366.679688 814.015625 366.792969 C 814.660156 366.851562 815.246094 366.882812 815.804688 366.882812 C 818.03125 366.882812 819.761719 366.472656 820.90625 365.652344 C 821.871094 364.949219 822.457031 363.894531 822.605469 362.429688 C 822.632812 362.195312 822.632812 361.960938 822.632812 361.726562 L 822.632812 351.769531 C 822.632812 351.59375 822.632812 351.417969 822.664062 351.242188 C 822.988281 349.105469 824.511719 347.464844 826.59375 346.261719 L 826.855469 346.117188 L 826.59375 346 C 824.511719 344.796875 822.988281 343.160156 822.664062 341.019531 C 822.632812 340.902344 822.632812 340.785156 822.632812 340.667969 L 822.632812 330.535156 C 822.632812 330.269531 822.632812 330.066406 822.605469 329.832031 C 822.457031 328.367188 821.871094 327.3125 820.90625 326.609375 C 819.761719 325.789062 818.03125 325.378906 815.804688 325.378906 C 815.246094 325.378906 814.660156 325.410156 814.015625 325.46875 Z M 803.726562 320.839844 C 805.015625 320.929688 805.953125 322.070312 805.835938 323.359375 C 805.71875 324.617188 804.605469 325.585938 803.316406 325.46875 C 802.703125 325.410156 802.113281 325.378906 801.527344 325.378906 C 799.328125 325.378906 797.601562 325.789062 796.457031 326.609375 C 795.460938 327.3125 794.875 328.367188 794.757812 329.832031 C 794.726562 330.066406 794.726562 330.269531 794.726562 330.535156 L 794.726562 340.667969 C 794.726562 340.785156 794.699219 340.902344 794.699219 341.019531 C 794.375 343.160156 792.824219 344.796875 790.742188 346 L 790.476562 346.117188 L 790.742188 346.261719 C 792.824219 347.464844 794.375 349.105469 794.699219 351.242188 C 794.726562 351.417969 794.726562 351.59375 794.726562 351.769531 L 794.726562 361.726562 C 794.726562 361.960938 794.726562 362.195312 794.757812 362.429688 C 794.875 363.894531 795.460938 364.949219 796.457031 365.652344 C 797.601562 366.472656 799.328125 366.882812 801.527344 366.882812 C 802.113281 366.882812 802.703125 366.851562 803.316406 366.796875 C 804.605469 366.679688 805.71875 367.613281 805.835938 368.902344 C 805.953125 370.191406 805.015625 371.304688 803.726562 371.421875 C 802.964844 371.511719 802.230469 371.539062 801.527344 371.539062 C 798.363281 371.539062 795.722656 370.835938 793.761719 369.460938 C 791.621094 367.9375 790.359375 365.742188 790.097656 362.8125 C 790.066406 362.460938 790.066406 362.109375 790.066406 361.726562 L 790.066406 351.828125 C 789.921875 351.332031 789.304688 350.804688 788.425781 350.304688 C 786.8125 349.367188 784.585938 348.753906 782.589844 348.429688 C 781.59375 348.285156 780.773438 347.523438 780.597656 346.496094 C 780.421875 345.207031 781.273438 344.039062 782.5625 343.832031 C 784.554688 343.511719 786.8125 342.894531 788.425781 341.957031 C 789.304688 341.460938 789.921875 340.933594 790.066406 340.40625 L 790.066406 330.535156 C 790.066406 330.152344 790.066406 329.773438 790.097656 329.421875 C 790.359375 326.523438 791.621094 324.324219 793.761719 322.800781 C 795.722656 321.425781 798.363281 320.722656 801.527344 320.722656 C 802.230469 320.722656 802.964844 320.753906 803.726562 320.839844 Z M 635.347656 736.277344 C 649.828125 734.429688 662.84375 726.289062 670.847656 713.988281 C 674.773438 720.871094 680.667969 726.640625 687.261719 730.566406 C 694.003906 734.546875 702.066406 736.570312 710.1875 736.597656 L 710.273438 736.597656 C 725.105469 736.21875 737.859375 727.636719 744.25 715.246094 L 744.25 715.277344 L 744.277344 715.1875 L 744.335938 715.070312 C 747.355469 709.066406 749.027344 702.449219 748.792969 695.917969 C 748.585938 689.355469 746.742188 682.824219 743.253906 676.996094 C 739.765625 671.167969 734.925781 666.421875 729.238281 663.113281 C 723.582031 659.773438 717.046875 658.105469 710.246094 657.898438 C 694.738281 657.988281 680.402344 666.160156 672.488281 679.425781 C 668.675781 672.777344 662.960938 667.242188 656.570312 663.492188 C 650.03125 659.6875 641.914062 657.8125 634.058594 657.871094 C 633.351562 657.871094 632.679688 657.871094 631.976562 657.898438 C 610.636719 658.484375 593.632812 675.941406 593.632812 697.265625 C 593.632812 703.53125 595.097656 709.449219 597.707031 714.71875 C 604.800781 729.773438 621.890625 738.621094 635.347656 736.277344 Z M 670.992188 713.3125 L 663.753906 697.703125 C 660.558594 689.738281 656.511719 683.058594 651.675781 678.839844 C 646.839844 674.625 640.828125 672.105469 634.351562 671.636719 L 629.777344 664.988281 L 634.351562 658.308594 C 642.03125 658.308594 649.945312 660.15625 656.335938 663.875 C 662.8125 667.683594 668.617188 673.335938 672.371094 680.128906 L 679.433594 696.121094 C 682.015625 702.710938 686.324219 709.097656 691.71875 713.429688 C 696.878906 717.5625 703.121094 720.546875 709.65625 721.308594 L 705.554688 728.515625 L 709.65625 736.160156 C 701.800781 736.042969 694.003906 734.023438 687.496094 730.15625 C 680.8125 726.203125 674.863281 720.34375 670.992188 713.3125 Z M 663.3125 697.789062 C 658.535156 709.917969 647.894531 719.730469 635.113281 721.25 C 630.363281 721.046875 625.410156 719.320312 621.65625 716.683594 C 617.90625 714.074219 614.5625 710.179688 612.746094 705.785156 C 611.632812 702.976562 611.015625 699.898438 611.015625 696.679688 C 611.015625 683.585938 621.246094 672.808594 634.292969 672.105469 C 640.683594 672.515625 646.601562 675.035156 651.382812 679.191406 C 656.160156 683.351562 660.148438 689.914062 663.3125 697.789062 Z M 634.820312 721.691406 L 638.511719 728.367188 L 634.761719 735.925781 C 621.832031 737.683594 605.476562 729.394531 598.324219 714.953125 L 608.464844 714.984375 L 612.597656 706.578125 C 614.503906 710.796875 617.757812 714.515625 621.394531 717.0625 C 625.144531 719.667969 630.070312 721.425781 634.820312 721.691406 Z M 743.867188 715.011719 C 746.886719 709.039062 748.585938 702.417969 748.351562 695.945312 C 748.148438 689.445312 746.300781 683 742.871094 677.230469 C 739.441406 671.460938 734.632812 666.773438 729.035156 663.492188 C 723.496094 660.273438 717.164062 658.601562 710.566406 658.367188 L 715.316406 665.015625 L 710.597656 671.8125 C 714.582031 672.105469 718.480469 673.539062 721.792969 675.5625 C 725.222656 677.640625 728.15625 680.570312 730.238281 684.140625 C 732.347656 687.6875 733.460938 691.667969 733.609375 695.683594 C 733.753906 699.664062 732.992188 704.058594 731.203125 707.75 L 735.425781 713.898438 Z M 679.875 695.976562 C 682.394531 702.476562 686.675781 708.804688 691.980469 713.078125 C 697.171875 717.238281 703.472656 720.195312 710.039062 720.929688 C 719.15625 720.546875 726.925781 715.1875 730.792969 707.542969 C 732.582031 703.914062 733.316406 699.605469 733.167969 695.683594 C 733.023438 691.757812 731.90625 687.863281 729.855469 684.347656 C 727.804688 680.863281 724.929688 677.992188 721.589844 675.941406 C 718.21875 673.890625 714.203125 672.457031 710.15625 672.25 C 710.070312 672.222656 709.980469 672.222656 709.894531 672.222656 C 695.820312 672.925781 683.773438 682.503906 679.875 695.976562 Z M 70.875 809.617188 C 69.9375 809.617188 69.171875 808.855469 69.171875 807.917969 C 69.171875 806.980469 69.9375 806.21875 70.875 806.21875 L 138.824219 806.21875 C 131.144531 791.28125 125.191406 775.847656 120.882812 760.207031 C 120.855469 760.117188 120.824219 760.03125 120.824219 759.972656 C 114.699219 737.566406 111.972656 714.691406 112.46875 692.019531 C 112.46875 691.933594 112.46875 691.875 112.46875 691.785156 C 112.851562 675.179688 114.960938 658.691406 118.742188 642.582031 C 119.886719 637.75 121.175781 632.945312 122.613281 628.171875 C 126.71875 614.582031 132.023438 601.34375 138.53125 588.628906 C 138.558594 588.542969 138.589844 588.484375 138.617188 588.425781 C 148.261719 569.535156 160.488281 551.84375 175.171875 535.851562 C 175.203125 535.792969 175.261719 535.734375 175.320312 535.707031 C 185.902344 524.164062 197.804688 513.535156 210.878906 504.015625 C 210.644531 502.8125 210.613281 501.554688 210.789062 500.351562 C 211.054688 498.742188 211.726562 497.191406 212.753906 495.84375 C 213.78125 494.496094 215.128906 493.46875 216.625 492.824219 C 217.824219 492.296875 219.144531 492.003906 220.492188 491.976562 C 225.945312 484.070312 229.199219 475.75 230.226562 466.992188 C 231.25 458.117188 229.992188 448.773438 226.472656 438.964844 C 222.808594 437.089844 219.996094 434.394531 218.089844 431.230469 C 216.59375 428.742188 215.65625 425.988281 215.273438 423.148438 C 204.839844 423.910156 194.988281 418.050781 190.769531 408.386719 C 186.3125 398.191406 189.214844 386.300781 197.832031 379.300781 C 189.363281 372.800781 186.402344 361.347656 190.679688 351.566406 C 194.929688 341.753906 205.277344 336.101562 215.832031 337.828125 C 210.964844 327.578125 213.371094 315.332031 221.722656 307.660156 C 230.109375 299.957031 242.507812 298.640625 252.328125 304.351562 C 253.824219 292.78125 263.527344 283.996094 275.191406 283.644531 C 286.859375 283.261719 297.089844 291.40625 299.320312 302.855469 C 306.003906 289.121094 321.683594 282.296875 336.3125 286.777344 C 350.910156 291.257812 360.058594 305.726562 357.828125 320.839844 C 366.886719 313.636719 379.40625 312.582031 389.578125 318.144531 C 399.71875 323.738281 405.523438 334.871094 404.261719 346.378906 C 403.003906 357.890625 394.941406 367.527344 383.832031 370.808594 C 395.175781 378.304688 399.398438 392.921875 393.796875 405.339844 C 388.464844 417.203125 375.625 423.703125 362.988281 421.15625 C 360.527344 448.539062 354.515625 470.449219 345.664062 486 C 338.894531 497.921875 330.390625 506.152344 320.542969 510.222656 C 310.632812 514.324219 299.4375 514.234375 287.242188 509.578125 C 285.921875 509.082031 284.601562 508.523438 283.253906 507.910156 C 282.699219 509.988281 282.433594 512.304688 282.375 514.675781 C 282.316406 517.632812 282.640625 520.710938 283.253906 523.726562 C 284.542969 524.019531 285.777344 524.515625 286.917969 525.191406 C 288.238281 526.011719 289.441406 527.035156 290.4375 528.292969 C 306.882812 535.761719 319.398438 547.597656 328.015625 565.753906 C 332.269531 574.660156 335.550781 585.117188 337.894531 597.300781 C 337.894531 597.328125 337.925781 597.359375 337.925781 597.417969 C 340.359375 610.011719 341.796875 624.507812 342.234375 641.144531 C 342.265625 642.082031 341.5 642.84375 340.59375 642.875 C 339.65625 642.902344 338.863281 642.171875 338.863281 641.234375 C 338.777344 638.570312 338.6875 635.960938 338.570312 633.382812 C 334.933594 631.859375 330.917969 631.21875 326.550781 631.449219 C 322.007812 631.683594 317.082031 632.828125 311.71875 634.90625 C 313.390625 651.777344 314.003906 661.882812 314.035156 661.941406 C 314.09375 662.878906 313.359375 663.667969 312.453125 663.726562 C 311.511719 663.785156 310.691406 663.082031 310.632812 662.144531 C 310.632812 662.085938 309.636719 646.09375 306.851562 620.789062 C 295.832031 621.40625 282.433594 621.84375 266.664062 622.050781 C 250.597656 622.253906 232.128906 622.226562 211.199219 621.992188 C 211.054688 625.445312 210.847656 628.550781 210.554688 631.304688 C 209.355469 643.019531 206.980469 649.171875 203.519531 652.335938 L 203.609375 669.117188 C 223.21875 667.828125 240.953125 666.863281 256.8125 666.21875 C 273.054688 665.542969 287.269531 665.25 299.40625 665.308594 C 300.34375 665.308594 301.105469 666.042969 301.105469 666.980469 C 301.105469 667.914062 300.34375 668.675781 299.40625 668.675781 C 287.328125 668.617188 273.199219 668.941406 256.929688 669.585938 C 241.1875 670.230469 223.425781 671.195312 203.609375 672.484375 L 203.695312 688.332031 C 203.695312 688.359375 203.695312 688.390625 203.695312 688.449219 L 203.8125 715.335938 L 295.949219 712.054688 C 296.886719 712.027344 297.675781 712.757812 297.707031 713.664062 C 297.734375 714.601562 297.003906 715.394531 296.066406 715.421875 L 203.8125 718.734375 L 203.902344 740.027344 L 204.019531 766.679688 L 206.21875 767.292969 C 209.96875 768.378906 213.371094 769.34375 216.449219 770.339844 L 294.304688 769.316406 C 295.246094 769.285156 296.007812 770.046875 296.007812 770.984375 C 296.007812 771.890625 295.273438 772.652344 294.335938 772.683594 L 225.09375 773.589844 C 233.480469 777.429688 239.695312 782.933594 246.640625 794.589844 C 247.140625 795.382812 246.875 796.40625 246.085938 796.90625 C 245.261719 797.375 244.238281 797.109375 243.738281 796.320312 C 233.128906 778.539062 224.1875 775.964844 205.277344 770.546875 L 202.613281 769.785156 L 147.238281 806.21875 L 304.507812 806.21875 L 294.6875 798.605469 C 294.6875 798.605469 303.421875 753.441406 320.921875 663.140625 C 322.886719 653.945312 328.808594 649.375 338.6875 649.375 C 338.6875 649.375 400.628906 649.375 524.511719 649.375 C 524.511719 649.375 526.707031 656.023438 531.164062 669.351562 C 410.566406 670.230469 350.238281 670.699219 350.238281 670.699219 C 343.730469 671.109375 339.011719 674.242188 336.019531 680.011719 L 324.703125 729.363281 L 516.417969 728.074219 C 517.296875 723.507812 520.550781 707.046875 528 673.394531 C 528.203125 672.484375 529.082031 671.898438 529.992188 672.105469 C 530.902344 672.308594 531.488281 673.21875 531.28125 674.125 C 523.367188 709.976562 520.199219 726.347656 519.585938 729.480469 C 521.695312 733.523438 536 761.230469 559.101562 806.21875 L 637.339844 806.21875 C 638.277344 806.21875 639.039062 806.980469 639.039062 807.917969 C 639.039062 808.855469 638.277344 809.617188 637.339844 809.617188 Z M 123.550781 757.128906 C 138.765625 749.105469 152.804688 743.511719 165.703125 740.347656 C 178.425781 737.214844 190.035156 736.453125 200.53125 738.035156 L 200.441406 717.152344 C 200.441406 717.121094 200.441406 717.0625 200.441406 717.035156 L 200.324219 689.738281 C 187.28125 686.691406 173.738281 685.429688 159.726562 686.015625 C 145.59375 686.574219 130.96875 688.976562 115.839844 693.222656 C 115.460938 714.542969 117.980469 736.070312 123.550781 757.128906 Z M 200.53125 741.460938 C 190.359375 739.820312 179.011719 740.554688 166.527344 743.628906 C 153.714844 746.761719 139.703125 752.386719 124.488281 760.5 C 128.769531 775.816406 134.660156 790.871094 142.253906 805.488281 L 200.648438 767.058594 Z M 115.929688 689.679688 C 130.9375 685.546875 145.507812 683.203125 159.578125 682.648438 C 173.621094 682.0625 187.191406 683.261719 200.296875 686.25 L 200.238281 671.019531 C 200.238281 670.960938 200.238281 670.875 200.238281 670.816406 L 200.148438 652.511719 C 189.304688 646.125 177.636719 641.117188 165.175781 637.425781 C 152.746094 633.765625 139.527344 631.421875 125.484375 630.425781 C 124.226562 634.703125 123.082031 639.007812 122.054688 643.371094 C 118.480469 658.542969 116.429688 674.066406 115.929688 689.679688 Z M 126.484375 627.117188 C 140.496094 628.171875 153.6875 630.515625 166.117188 634.175781 C 178.777344 637.925781 190.621094 643.019531 201.613281 649.464844 C 204.253906 646.738281 206.160156 641.292969 207.183594 630.984375 C 207.828125 624.742188 208.121094 616.777344 208.09375 606.703125 C 183.410156 599.410156 161.042969 594.226562 141.023438 591.148438 C 135.1875 602.746094 130.324219 614.785156 126.484375 627.117188 Z M 180.507812 535.089844 C 186.664062 535.238281 192 537.140625 196.425781 540.832031 C 201.761719 545.222656 205.777344 552.105469 208.472656 561.507812 C 208.707031 562.386719 208.210938 563.324219 207.300781 563.589844 C 206.394531 563.851562 205.453125 563.324219 205.21875 562.417969 C 202.699219 553.71875 199.0625 547.363281 194.285156 543.4375 C 189.714844 539.660156 184.054688 538.046875 177.285156 538.546875 C 163.507812 553.628906 151.925781 570.265625 142.664062 587.984375 C 162.273438 591.03125 184.085938 596.097656 208.0625 603.15625 C 207.976562 594.957031 207.652344 585.46875 207.15625 574.453125 C 207.097656 573.546875 207.828125 572.753906 208.738281 572.695312 C 209.675781 572.667969 210.46875 573.371094 210.527344 574.308594 C 211.082031 586.347656 211.40625 596.566406 211.464844 605.296875 C 211.464844 605.382812 211.464844 605.441406 211.464844 605.53125 C 211.492188 610.332031 211.433594 614.699219 211.316406 618.621094 C 232.1875 618.855469 250.628906 618.855469 266.632812 618.652344 C 282.171875 618.476562 295.480469 618.035156 306.5 617.421875 C 305.503906 608.519531 304.300781 598.53125 302.835938 587.75 C 283.519531 587.253906 267.25 587.019531 254 586.992188 C 240.484375 586.960938 230.109375 587.195312 222.898438 587.691406 C 221.957031 587.75 221.136719 587.050781 221.078125 586.113281 C 221.019531 585.203125 221.722656 584.382812 222.664062 584.324219 C 229.902344 583.828125 240.339844 583.59375 254 583.621094 C 267.628906 583.621094 284.398438 583.914062 304.300781 584.414062 C 305.152344 584.414062 305.886719 585.027344 306.003906 585.878906 C 306.617188 590.386719 307.175781 594.78125 307.703125 599 C 312.304688 598.089844 316.847656 597.386719 321.304688 596.890625 C 325.644531 596.421875 329.921875 596.128906 334.203125 596.011719 C 331.945312 584.941406 328.867188 575.390625 324.96875 567.21875 C 316.820312 550 305.035156 538.75 289.558594 531.605469 C 288.707031 532.25 287.796875 532.835938 286.859375 533.390625 C 277.859375 538.691406 265.578125 540.507812 252.945312 537.636719 C 240.367188 534.769531 227.46875 527.269531 217.121094 513.972656 C 215.449219 511.863281 213.867188 509.578125 212.34375 507.117188 C 200.734375 515.613281 190.125 524.984375 180.507812 535.089844 Z M 357.125 409.089844 L 357.066406 409.117188 C 356.246094 409.527344 355.222656 409.207031 354.808594 408.355469 C 353.609375 406.011719 352.464844 404.285156 351.144531 402.734375 C 350.792969 402.324219 350.441406 401.941406 350.0625 401.53125 C 350.5 403.113281 351.117188 404.988281 351.878906 407.125 C 352.027344 407.417969 352.054688 407.769531 351.996094 408.121094 C 351.792969 409.03125 350.910156 409.617188 349.972656 409.441406 C 339.070312 407.125 328.984375 403.699219 319.78125 399.128906 C 310.984375 394.796875 302.984375 389.40625 295.742188 382.992188 C 291.960938 386.097656 288.324219 390.871094 284.867188 397.34375 C 281.027344 404.546875 277.390625 413.832031 273.960938 425.199219 L 273.960938 425.226562 C 272.410156 430.644531 270.003906 434.511719 266.78125 436.824219 C 263.46875 439.167969 259.363281 439.871094 254.496094 438.90625 C 253.707031 438.730469 253.121094 438.027344 253.148438 437.175781 C 253.53125 429.09375 253.003906 422.328125 251.535156 416.910156 C 250.160156 411.753906 247.929688 407.828125 244.851562 405.164062 C 242.097656 403.550781 238.992188 402.761719 235.914062 402.761719 C 232.804688 402.761719 229.699219 403.609375 226.914062 405.308594 C 223.746094 407.214844 221.488281 409.851562 220.113281 412.777344 C 218.851562 415.445312 218.324219 418.371094 218.46875 421.242188 C 218.644531 424.113281 219.46875 426.984375 220.992188 429.472656 C 222.664062 432.257812 225.152344 434.597656 228.464844 436.179688 C 228.875 436.328125 229.257812 436.679688 229.433594 437.175781 C 233.304688 447.71875 234.710938 457.796875 233.597656 467.375 C 232.511719 476.6875 229.054688 485.53125 223.277344 493.878906 C 228.171875 504.921875 236.558594 513.535156 246.699219 518.804688 C 256.636719 523.960938 268.214844 525.921875 279.824219 523.84375 C 279.238281 520.796875 278.945312 517.664062 279.003906 514.617188 C 279.0625 511.71875 279.445312 508.933594 280.175781 506.414062 C 269.59375 500.96875 258.335938 492.210938 246.613281 479.878906 C 245.96875 479.207031 245.996094 478.121094 246.671875 477.476562 C 247.34375 476.835938 248.429688 476.863281 249.074219 477.535156 C 263.058594 492.296875 276.308594 501.757812 288.441406 506.414062 C 299.789062 510.75 310.164062 510.867188 319.253906 507.089844 C 328.398438 503.3125 336.3125 495.578125 342.734375 484.332031 C 351.378906 469.160156 357.242188 447.605469 359.648438 420.628906 C 359.707031 419.867188 360.234375 419.28125 360.9375 419.132812 C 359.96875 415.503906 358.710938 412.132812 357.125 409.089844 Z M 214.394531 503.984375 C 216.066406 506.824219 217.882812 509.460938 219.789062 511.894531 C 229.609375 524.515625 241.832031 531.632812 253.675781 534.328125 C 265.460938 537.023438 276.863281 535.355469 285.128906 530.460938 C 285.71875 530.109375 286.304688 529.757812 286.859375 529.378906 C 286.332031 528.878906 285.777344 528.46875 285.1875 528.089844 C 284.164062 527.503906 283.050781 527.09375 281.875 526.890625 C 269.039062 529.554688 256.140625 527.535156 245.144531 521.792969 C 234.386719 516.199219 225.445312 507.058594 220.230469 495.375 C 219.4375 495.433594 218.675781 495.609375 217.972656 495.902344 C 217.003906 496.339844 216.097656 497.015625 215.421875 497.921875 C 214.746094 498.800781 214.308594 499.824219 214.132812 500.878906 C 213.984375 501.90625 214.042969 502.960938 214.394531 503.984375 Z M 338.363281 629.695312 C 337.691406 618.535156 336.546875 608.460938 334.847656 599.378906 C 330.539062 599.46875 326.140625 599.761719 321.65625 600.257812 C 317.199219 600.757812 312.6875 601.460938 308.140625 602.335938 C 308.847656 608.167969 309.492188 613.644531 310.046875 618.769531 L 310.046875 618.855469 C 310.546875 623.339844 310.984375 627.554688 311.367188 631.421875 C 316.730469 629.429688 321.742188 628.316406 326.375 628.082031 C 330.683594 627.847656 334.671875 628.40625 338.363281 629.695312 Z M 307.085938 806.21875 L 368.734375 806.21875 C 364.660156 798.78125 350.910156 774.5 323.796875 733.347656 Z M 494.550781 683.996094 C 492.675781 683.996094 491.152344 686.484375 491.152344 689.5625 C 491.152344 692.636719 492.675781 695.097656 494.550781 695.097656 C 496.425781 695.097656 497.921875 692.636719 497.921875 689.5625 C 497.921875 686.484375 496.425781 683.996094 494.550781 683.996094 Z M 507.390625 679.574219 C 504.3125 679.574219 501.820312 683.644531 501.820312 688.683594 C 501.820312 693.691406 504.3125 697.761719 507.390625 697.761719 C 510.4375 697.761719 512.929688 693.691406 512.929688 688.683594 C 512.929688 683.644531 510.4375 679.574219 507.390625 679.574219 Z M 555.320312 806.21875 C 535.355469 767.324219 519.671875 737.007812 516.800781 731.445312 L 327.429688 732.734375 C 356.480469 776.902344 369.964844 801.355469 372.605469 806.21875 Z M 237.203125 239.035156 L 808.679688 239.035156 L 808.679688 279.25 C 809.0625 279.25 809.445312 279.25 809.855469 279.277344 L 809.855469 218.210938 C 809.855469 203.625 797.921875 191.703125 783.324219 191.703125 L 262.558594 191.703125 C 247.960938 191.703125 236.03125 203.625 236.03125 218.210938 L 236.03125 290 C 236.441406 289.941406 236.820312 289.910156 237.203125 289.910156 Z M 808.679688 413.011719 L 808.679688 426.164062 C 809.0625 426.132812 809.445312 426.132812 809.855469 426.132812 L 809.855469 412.984375 C 809.445312 412.984375 809.0625 413.011719 808.679688 413.011719 Z M 808.679688 560.746094 L 808.679688 599.671875 C 808.652344 606.820312 805.75 613.292969 801.058594 617.976562 C 796.371094 622.664062 789.890625 625.5625 782.738281 625.59375 L 352.523438 625.59375 L 352.582031 626.765625 L 782.738281 626.765625 C 790.214844 626.734375 796.984375 623.691406 801.878906 618.796875 C 806.777344 613.90625 809.824219 607.140625 809.855469 599.671875 L 809.855469 560.746094 C 809.445312 560.746094 809.0625 560.746094 808.679688 560.746094 Z M 347.480469 204.300781 C 353.609375 204.300781 358.59375 209.25 358.59375 215.371094 C 358.59375 221.492188 353.609375 226.472656 347.480469 226.472656 C 341.355469 226.472656 336.371094 221.492188 336.371094 215.371094 C 336.371094 209.25 341.355469 204.300781 347.480469 204.300781 Z M 316.847656 204.300781 C 323.003906 204.300781 327.957031 209.25 327.957031 215.371094 C 327.957031 221.492188 323.003906 226.472656 316.847656 226.472656 C 310.722656 226.472656 305.769531 221.492188 305.769531 215.371094 C 305.769531 209.25 310.722656 204.300781 316.847656 204.300781 Z M 286.246094 204.300781 C 292.371094 204.300781 297.324219 209.25 297.324219 215.371094 C 297.324219 221.492188 292.371094 226.472656 286.246094 226.472656 C 280.117188 226.472656 275.132812 221.492188 275.132812 215.371094 C 275.132812 209.25 280.117188 204.300781 286.246094 204.300781 Z M 769.753906 205.910156 C 771.070312 207.257812 771.070312 209.425781 769.753906 210.773438 L 765.148438 215.371094 L 769.753906 219.96875 C 771.070312 221.316406 771.070312 223.511719 769.753906 224.832031 C 768.402344 226.179688 766.207031 226.179688 764.855469 224.832031 L 760.253906 220.230469 L 755.652344 224.832031 C 754.332031 226.179688 752.132812 226.179688 750.785156 224.832031 C 749.4375 223.511719 749.4375 221.316406 750.785156 219.96875 L 755.386719 215.371094 L 750.785156 210.773438 C 749.4375 209.425781 749.4375 207.257812 750.785156 205.910156 C 752.132812 204.5625 754.332031 204.5625 755.652344 205.910156 L 760.253906 210.507812 L 764.855469 205.910156 C 766.207031 204.5625 768.402344 204.5625 769.753906 205.910156 Z M 618.109375 478.5625 C 616 480.671875 612.570312 480.671875 610.488281 478.5625 C 608.378906 476.453125 608.378906 473.027344 610.488281 470.945312 L 640.945312 440.75 L 610.488281 410.554688 C 608.378906 408.445312 608.378906 405.046875 610.488281 402.9375 C 612.570312 400.828125 616 400.828125 618.109375 402.910156 L 652.4375 436.941406 C 654.519531 439.050781 654.519531 442.476562 652.40625 444.558594 Z M 564.554688 487.640625 C 563.410156 490.394531 560.242188 491.683594 557.488281 490.542969 C 554.734375 489.398438 553.414062 486.234375 554.558594 483.484375 L 592.109375 393.859375 C 593.25 391.105469 596.386719 389.816406 599.144531 390.957031 C 601.898438 392.070312 603.21875 395.234375 602.074219 397.988281 Z M 546.113281 470.945312 C 548.226562 473.027344 548.226562 476.453125 546.144531 478.5625 C 544.035156 480.671875 540.601562 480.671875 538.492188 478.5625 L 504.195312 444.558594 C 502.085938 442.476562 502.085938 439.050781 504.167969 436.941406 L 538.492188 402.910156 C 540.605469 400.828125 544.035156 400.828125 546.144531 402.9375 C 548.226562 405.046875 548.226562 408.445312 546.113281 410.554688 L 515.65625 440.75 Z M 546.113281 470.945312 "/></g></g></svg>